<svg xmlns="http://www.w3.org/2000/svg" xmlns:xlink="http://www.w3.org/1999/xlink" width="190" height="198.954" viewBox="0 0 190 198.954">
  <defs>
    <clipPath id="clip-path">
      <rect id="Rectángulo_401474" data-name="Rectángulo 401474" width="190" height="25.632" fill="#824ffb"/>
    </clipPath>
    <linearGradient id="linear-gradient" x1="0.5" x2="0.918" y2="2.27" gradientUnits="objectBoundingBox">
      <stop offset="0" stop-color="#fee3b3"/>
      <stop offset="1" stop-color="#ff84ed"/>
    </linearGradient>
    <clipPath id="clip-path-2">
      <rect id="Rectángulo_401949" data-name="Rectángulo 401949" width="166.146" height="163.972" fill="none"/>
    </clipPath>
    <clipPath id="clip-path-4">
      <rect id="Rectángulo_401934" data-name="Rectángulo 401934" width="25.384" height="25.386" fill="none"/>
    </clipPath>
    <clipPath id="clip-path-5">
      <rect id="Rectángulo_401935" data-name="Rectángulo 401935" width="21.899" height="21.901" fill="none"/>
    </clipPath>
    <clipPath id="clip-path-6">
      <rect id="Rectángulo_401942" data-name="Rectángulo 401942" width="50.327" height="71.274" fill="none"/>
    </clipPath>
    <clipPath id="clip-path-7">
      <rect id="Rectángulo_401943" data-name="Rectángulo 401943" width="54.296" height="71.221" fill="none"/>
    </clipPath>
    <clipPath id="clip-path-8">
      <rect id="Rectángulo_401944" data-name="Rectángulo 401944" width="31.795" height="45.575" fill="none"/>
    </clipPath>
    <clipPath id="clip-path-9">
      <rect id="Rectángulo_401945" data-name="Rectángulo 401945" width="64.696" height="81.847" fill="none"/>
    </clipPath>
    <clipPath id="clip-path-10">
      <rect id="Rectángulo_401946" data-name="Rectángulo 401946" width="58.954" height="75.604" fill="none"/>
    </clipPath>
    <clipPath id="clip-path-11">
      <rect id="Rectángulo_401947" data-name="Rectángulo 401947" width="41.946" height="32.13" fill="none"/>
    </clipPath>
  </defs>
  <g id="Grupo_1103310" data-name="Grupo 1103310" transform="translate(9892.898 7832.954)">
    <g id="Grupo_1101976" data-name="Grupo 1101976" transform="translate(-10702.898 -11230.954)">
      <rect id="Rectángulo_401369" data-name="Rectángulo 401369" width="190" height="182.19" transform="translate(810 3398)" fill="#824ffb"/>
      <g id="Grupo_1101947" data-name="Grupo 1101947" transform="translate(810 3571.322)">
        <g id="Grupo_1099664" data-name="Grupo 1099664" clip-path="url(#clip-path)">
          <path id="Trazado_879587" data-name="Trazado 879587" d="M0,0H190V25.632H0Z" transform="translate(0)" fill="url(#linear-gradient)"/>
        </g>
      </g>
      <g id="Grupo_1101975" data-name="Grupo 1101975" transform="translate(820.476 3416.218)">
        <g id="Grupo_1101974" data-name="Grupo 1101974" clip-path="url(#clip-path-2)">
          <path id="Trazado_892276" data-name="Trazado 892276" d="M273.336,111.332v20.948h2.94v5.081l5.082-5.081h27.886V111.332Z" transform="translate(-164.567 -67.03)" fill="#ececec"/>
          <g id="Grupo_1101973" data-name="Grupo 1101973">
            <g id="Grupo_1101972" data-name="Grupo 1101972" clip-path="url(#clip-path-2)">
              <path id="Trazado_892277" data-name="Trazado 892277" d="M335.512,135.08a1.7,1.7,0,1,0,1.7-1.7,1.7,1.7,0,0,0-1.7,1.7" transform="translate(-202.001 -80.303)" fill="#fff"/>
              <path id="Trazado_892278" data-name="Trazado 892278" d="M314.177,135.08a1.7,1.7,0,1,0,1.7-1.7,1.7,1.7,0,0,0-1.7,1.7" transform="translate(-189.156 -80.303)" fill="#fff"/>
              <path id="Trazado_892279" data-name="Trazado 892279" d="M292.842,135.08a1.7,1.7,0,1,0,1.7-1.7,1.7,1.7,0,0,0-1.7,1.7" transform="translate(-176.311 -80.303)" fill="#fff"/>
              <path id="Trazado_892280" data-name="Trazado 892280" d="M377.847,226.194a12.69,12.69,0,1,1-5.9-16.949,12.69,12.69,0,0,1,5.9,16.949" transform="translate(-212.97 -125.216)" fill="#ececec"/>
              <g id="Grupo_1101950" data-name="Grupo 1101950" transform="translate(140.762 82.76)" opacity="0.5">
                <g id="Grupo_1101949" data-name="Grupo 1101949">
                  <g id="Grupo_1101948" data-name="Grupo 1101948" clip-path="url(#clip-path-4)">
                    <path id="Trazado_892281" data-name="Trazado 892281" d="M360.9,232.092a12.69,12.69,0,1,1,16.582-17.653,11.02,11.02,0,1,0,1.634,6,12.695,12.695,0,0,1-18.216,11.65" transform="translate(-353.733 -207.974)" fill="#dcdcdc"/>
                  </g>
                </g>
              </g>
              <path id="Trazado_892282" data-name="Trazado 892282" d="M373.569,225.637a1.787,1.787,0,1,1-.83-2.386,1.787,1.787,0,0,1,.83,2.386" transform="translate(-222.87 -134.304)" fill="#c8c8c8"/>
              <path id="Trazado_892283" data-name="Trazado 892283" d="M400.987,238.9a1.787,1.787,0,1,1-.83-2.386,1.787,1.787,0,0,1,.83,2.386" transform="translate(-239.377 -142.288)" fill="#c8c8c8"/>
              <path id="Trazado_892284" data-name="Trazado 892284" d="M387.317,232.366a2.692,2.692,0,1,1-4.847-2.344Z" transform="translate(-230.11 -138.489)" fill="#c8c8c8"/>
              <path id="Trazado_892285" data-name="Trazado 892285" d="M386.151,236.146a2.693,2.693,0,0,1-3.778-1.827,3.223,3.223,0,0,1,3.778,1.827" transform="translate(-230.214 -141.009)" fill="#dcdcdc"/>
              <path id="Trazado_892286" data-name="Trazado 892286" d="M.6,234.931v29.306H4.714v7.109l7.109-7.109H50.834V234.931Z" transform="translate(-0.361 -141.444)" fill="#fff"/>
              <path id="Trazado_892287" data-name="Trazado 892287" d="M.239,234.414c.1,8.638.179,20.812.238,29.306l-.238-.238,4.113-.021.257,0,0,.261.037,7.109-.5-.209,7.078-7.139.1-.1c11.539-.021,27.771-.06,39.153-.051l-.389.39.05-29.306.339.34c-12.521-.047-37.712-.234-50.233-.34m0,0c12.693-.106,37.878-.292,50.572-.341v.341l.051,29.306v.388c-11.431.035-27.8-.049-39.4-.049l.24-.1-7.14,7.077-.508.5,0-.713.037-7.109.259.259-4.113-.021H0c0-8.627.193-20.811.239-29.543" transform="translate(0 -140.928)" fill="#ececec"/>
              <path id="Trazado_892288" data-name="Trazado 892288" d="M87.583,268.153a2.38,2.38,0,1,0,2.38-2.38,2.38,2.38,0,0,0-2.38,2.38" transform="translate(-52.731 -160.013)" fill="#ececec"/>
              <path id="Trazado_892289" data-name="Trazado 892289" d="M57.735,268.153a2.38,2.38,0,1,0,2.38-2.38,2.38,2.38,0,0,0-2.38,2.38" transform="translate(-34.76 -160.013)" fill="#ececec"/>
              <path id="Trazado_892290" data-name="Trazado 892290" d="M27.888,268.153a2.38,2.38,0,1,0,2.38-2.38,2.38,2.38,0,0,0-2.38,2.38" transform="translate(-16.79 -160.013)" fill="#ececec"/>
              <path id="Trazado_892291" data-name="Trazado 892291" d="M73.188,22.653a10.948,10.948,0,1,1-12.536-9.088,10.948,10.948,0,0,1,12.536,9.088" transform="translate(-30.962 -8.084)" fill="#ececec"/>
              <g id="Grupo_1101953" data-name="Grupo 1101953" transform="translate(20.465 5.343)" opacity="0.5">
                <g id="Grupo_1101952" data-name="Grupo 1101952">
                  <g id="Grupo_1101951" data-name="Grupo 1101951" clip-path="url(#clip-path-5)">
                    <path id="Trazado_892292" data-name="Trazado 892292" d="M64.1,35.189A10.949,10.949,0,1,1,67.13,14.514a9.509,9.509,0,1,0,4.118,3.444A10.952,10.952,0,0,1,64.1,35.189" transform="translate(-51.427 -13.426)" fill="#dcdcdc"/>
                  </g>
                </g>
              </g>
              <path id="Trazado_892293" data-name="Trazado 892293" d="M64.3,35.063a1.542,1.542,0,1,1-1.765-1.28,1.542,1.542,0,0,1,1.765,1.28" transform="translate(-36.869 -20.328)" fill="#c8c8c8"/>
              <path id="Trazado_892294" data-name="Trazado 892294" d="M90.25,30.926a1.542,1.542,0,1,1-1.765-1.279,1.542,1.542,0,0,1,1.765,1.279" transform="translate(-52.492 -17.837)" fill="#c8c8c8"/>
              <path id="Trazado_892295" data-name="Trazado 892295" d="M77.708,35.916a2.18,2.18,0,1,1-4.177.666,2.18,2.18,0,1,1,4.177-.666" transform="translate(-44.244 -20.2)" fill="#c8c8c8"/>
              <path id="Trazado_892296" data-name="Trazado 892296" d="M59.326,31.061a2.592,2.592,0,0,1,3.195-1.115" transform="translate(-35.718 -17.941)" fill="#c8c8c8"/>
              <path id="Trazado_892297" data-name="Trazado 892297" d="M89.988,26.283a2.592,2.592,0,0,0-3.384-.066" transform="translate(-52.141 -15.433)" fill="#c8c8c8"/>
              <path id="Trazado_892298" data-name="Trazado 892298" d="M146.987,30.9l1.448,2.157,2.5.71-1.6,2.044.1,2.6-2.439-.894-2.439.894.1-2.6-1.6-2.044,2.5-.71Z" transform="translate(-86.12 -18.602)" fill="#ececec"/>
              <path id="Trazado_892299" data-name="Trazado 892299" d="M175.039,30.9l1.448,2.157,2.5.71-1.6,2.044.1,2.6-2.439-.894-2.439.894.1-2.6-1.6-2.044,2.5-.71Z" transform="translate(-103.009 -18.602)" fill="#ececec"/>
              <path id="Trazado_892300" data-name="Trazado 892300" d="M203.09,30.9l1.448,2.157,2.5.71-1.6,2.044.1,2.6-2.439-.894-2.439.894.1-2.6-1.6-2.044,2.5-.71Z" transform="translate(-119.898 -18.602)" fill="#ececec"/>
              <path id="Trazado_892301" data-name="Trazado 892301" d="M231.142,30.9l1.448,2.157,2.5.71-1.6,2.044.1,2.6-2.439-.894-2.439.894.1-2.6-1.6-2.044,2.5-.71Z" transform="translate(-136.786 -18.602)" fill="#ececec"/>
              <path id="Trazado_892302" data-name="Trazado 892302" d="M259.193,30.9l1.448,2.157,2.5.71-1.6,2.044.1,2.6-2.439-.894-2.439.894.1-2.6-1.6-2.044,2.5-.71Z" transform="translate(-153.675 -18.602)" fill="none" stroke="#ececec" stroke-miterlimit="10" stroke-width="1"/>
              <path id="Trazado_892303" data-name="Trazado 892303" d="M259.193,37.511V30.9l-1.448,2.157-2.5.71,1.6,2.044-.1,2.6Z" transform="translate(-153.675 -18.603)" fill="#ececec"/>
              <path id="Trazado_892304" data-name="Trazado 892304" d="M37.181,338.072c-2.273.08-4.808.21-6.69-1.264-1.737-1.36-3.289-3.389-3.059-5.717.066-.664.219-1.074.93-.791a8.491,8.491,0,0,1,2.671,2.467,22.958,22.958,0,0,0,3.153,2.99c.808.62,1.68,1.156,2.5,1.757.1.073.208.15.309.23.039.028.079.057.118.088l.064,0a.111.111,0,0,1,.094.049.107.107,0,0,1,.018.039.119.119,0,0,1-.112.15" transform="translate(-16.502 -198.808)" fill="#375a64"/>
              <path id="Trazado_892305" data-name="Trazado 892305" d="M39.669,341.081c-2-.034-4.154.057-5.753-1.3a9.28,9.28,0,0,1-1.856-2.255c-.231-.376-.923-1.5-.637-1.943.52-.807,2.9,2.483,3.23,2.8a9.754,9.754,0,0,0,4.413,2.292q.157.11.309.23a10.911,10.911,0,0,1-3.314-1.273c-1.418-.846-2.207-2.1-3.317-3.264-.24-.253-.963-1.1-1.235-.574-.179.348.489,1.446.633,1.681a9.228,9.228,0,0,0,1.754,2.142c1.593,1.392,3.74,1.343,5.754,1.426a.108.108,0,0,1,.018.039" transform="translate(-18.878 -201.967)" fill="#fff"/>
              <path id="Trazado_892306" data-name="Trazado 892306" d="M51.151,332.5c-.02.088-.037.175-.055.263,0,0,0,.005,0,.008a.06.06,0,0,1-.041.047.1.1,0,0,1-.119-.046.07.07,0,0,1,0-.055.339.339,0,0,1,.012-.036l.025-.077-.005-.007c0-.008,0-.018-.006-.026-.4-1.5-.56-3.067-.984-4.573-.4-1.436-.908-2.845-1.2-4.311-.184-.924-.827-5.562,1.217-4.984.905.257,1.526,1.567,1.869,2.352a9.557,9.557,0,0,1,.752,3.332c.149,2.828-.887,5.4-1.46,8.111" transform="translate(-29.219 -191.854)" fill="#375a64"/>
              <path id="Trazado_892307" data-name="Trazado 892307" d="M53.827,331.124a11.129,11.129,0,0,0-.328-3.146c-.092-.356-.536-2.061-1.113-2.019-.374.025-.437.761-.469,1a9.819,9.819,0,0,0,.405,3.09,42.625,42.625,0,0,1,.75,6.194c-.018.131-.039.264-.053.395-.018.109-.028.218-.042.327,0,.039-.011.074-.014.113s-.007.056-.01.088a.1.1,0,0,0,.119.046c.011-.085.025-.169.035-.254,0,.07,0,.138.007.208,0,0,0,0,0-.007.014-.074.028-.144.042-.215,0-.017.007-.032.011-.049,0-.116,0-.232-.007-.345a46.413,46.413,0,0,0,.663-5.43m-.691,4.683c-.057-1.216-.176-2.428-.349-3.633-.137-.973-.32-1.934-.525-2.893A9.962,9.962,0,0,1,52,327.639c-.018-.423.042-1.987.849-1.018a6.354,6.354,0,0,1,.793,3.066,15.677,15.677,0,0,1-.057,2.879c-.109,1.085-.289,2.163-.451,3.242" transform="translate(-31.24 -196.249)" fill="#fff"/>
              <path id="Trazado_892308" data-name="Trazado 892308" d="M44.777,358.913h0a.57.57,0,0,1-.084.01c-2.078-.105-4.847.09-6.576-1.285-1.277-1.016-2.532-3.023-2.128-4.725.46-1.92,3.052.384,3.738.939a63.492,63.492,0,0,1,5.093,4.955c.008.014.019.024.026.037l0,.007c.019.033-.025.052-.072.062" transform="translate(-21.621 -212.025)" fill="#375a64"/>
              <path id="Trazado_892309" data-name="Trazado 892309" d="M47.191,361.814c-.12-.074-.24-.148-.359-.225-1.367-.86-2.7-1.78-3.978-2.762-.324-.247-2.664-2.329-3.016-1.586-.211.451.56,1.367.807,1.677a6.4,6.4,0,0,0,1.579,1.409,16.428,16.428,0,0,0,4.633,1.466c.074.014.148.035.222.057a.262.262,0,0,0,.039.025h0c.046-.011.088-.028.07-.06m-4.112-1.184a6.439,6.439,0,0,1-1.793-1.212c-.349-.331-1.579-1.575-1.251-2.086.173-.271.317-.127.648.035a4.206,4.206,0,0,1,.441.253c.349.229.669.5.994.754.571.458,1.148.9,1.741,1.328.965.7,1.959,1.367,2.974,2a31.332,31.332,0,0,1-3.753-1.071" transform="translate(-23.963 -214.987)" fill="#fff"/>
              <path id="Trazado_892310" data-name="Trazado 892310" d="M62.095,348.092a12.291,12.291,0,0,1-3.562,6.221.1.1,0,0,1-.039.023.094.094,0,0,1-.107-.039.089.089,0,0,1,.01-.12c.036-.033.07-.071.106-.106.344-2.826.723-5.635,1.014-8.468.068-.667.591-4.918,1.9-4.226.806.428.86,2.169.929,2.951a12.368,12.368,0,0,1-.249,3.764" transform="translate(-35.142 -205.486)" fill="#375a64"/>
              <path id="Trazado_892311" data-name="Trazado 892311" d="M61.369,348.292c-.07-.236-.194-.479-.458-.314-.507.317-.708,2.315-.793,2.868-.349,2.28-.888,4.472-1.438,6.7-.046.187-.092.377-.137.567l-.127.169a.092.092,0,0,0,.105.039c.007-.018.011-.039.018-.057.056-.074.116-.152.169-.229v0a14.516,14.516,0,0,0,2.058-4.01,13.8,13.8,0,0,0,.606-2.794,8,8,0,0,0,0-2.939M58.7,357.883c-.025.039-.053.074-.078.113.025-.077.049-.152.07-.229a40.934,40.934,0,0,0,1.272-5.187c.152-.891.247-1.79.43-2.674.078-.373.261-1.441.571-1.614s.3.243.335.483c.021.173.021.486.025.648a14.327,14.327,0,0,1-2.625,8.46" transform="translate(-35.17 -209.474)" fill="#fff"/>
              <path id="Trazado_892312" data-name="Trazado 892312" d="M42.184,345.508h-.416c-.007-.366-.014-.733-.025-1.1-.049-1.476-.109-2.953-.2-4.429-.049-.842-.109-1.677-.2-2.5a.677.677,0,0,1-.007-.085c-.011-.067-.018-.134-.025-.2s-.018-.144-.028-.218a17.869,17.869,0,0,0-1.427-5.426c-.264-.574-.553-1.134-.856-1.691-.028-.053-.06-.105-.088-.158a.261.261,0,0,0-.025-.043c-.028-.056-.06-.109-.092-.166s-.046-.081-.07-.123c-.962-1.691-2.061-3.308-3.1-4.936-.3-.465-.6-.934-.892-1.4a.561.561,0,0,1-.053-.084,1.052,1.052,0,0,1-.067-.1c-1.311-2.068-2.6-4.154-3.961-6.184-.053-.074.07-.141.12-.067.92,1.346,1.871,2.671,2.815,4,.127.176.25.356.377.532.25.353.5.7.743,1.054.493.7.98,1.409,1.455,2.125a59.605,59.605,0,0,1,3.827,6.191c.081.162.159.324.236.49.049.1.1.2.141.306s.109.236.162.356a19.172,19.172,0,0,1,1.4,6.547c.01.155.021.314.028.472,0,.07.011.144.014.218,0,.039,0,.077.007.116s0,.1.007.152v0c0,.035,0,.074,0,.113.007.134.011.268.018.405.06,1.476.1,2.953.131,4.425.011.469.028.941.046,1.413" transform="translate(-18.449 -190.587)" fill="#375a64"/>
              <path id="Trazado_892313" data-name="Trazado 892313" d="M25.929,311.7c-1.138-1.53-2.6-4.687-.919-6.328a1.785,1.785,0,0,1,2.377-.175,5.189,5.189,0,0,1,1.57,2.854c.769,2.677,1.278,5.405,2.238,8.029.017.016.081.224.1.281s-.067.077-.087.024l-.095-.256a22.889,22.889,0,0,1-5.188-4.429" transform="translate(-14.6 -183.525)" fill="#375a64"/>
              <path id="Trazado_892314" data-name="Trazado 892314" d="M34.063,319.6c-.01-.014-.018-.032-.028-.046a18.671,18.671,0,0,1-1.064-1.98,38.006,38.006,0,0,1-1.635-4.383c-.183-.575-1-3.386-2-2.266a2.519,2.519,0,0,0-.3,1.885,7.084,7.084,0,0,0,.874,2.636,12.9,12.9,0,0,0,3.777,3.946c.067.053.134.1.2.151.014.025.028.046.042.071a.336.336,0,0,0,.028.046.048.048,0,0,0,.025.021.063.063,0,0,0,.088-.039.046.046,0,0,0-.007-.042m-.444-.31a15.048,15.048,0,0,1-3.2-3.214,7.967,7.967,0,0,1-1.043-2.128,6.4,6.4,0,0,1-.226-1.032,4.587,4.587,0,0,1-.046-.789c.018-.578.257-1.209.6-1.269.423-.078.563.169.842.655a4.584,4.584,0,0,1,.25.507,13.9,13.9,0,0,1,.472,1.332c.236.743.476,1.484.743,2.216.18.5.374.99.585,1.473a19.66,19.66,0,0,0,1.248,2.424c-.074-.056-.148-.116-.222-.176" transform="translate(-17.453 -187.042)" fill="#fff"/>
              <path id="Trazado_892315" data-name="Trazado 892315" d="M361.24,324.117c-.188,1.517-.478,3.018-.785,4.515-.172.849-.356,1.7-.528,2.547a6.176,6.176,0,0,0-.214,2.834s0,0,0,0a.542.542,0,0,1,.01.131.066.066,0,0,1-.01.016.114.114,0,0,1-.2-.035c-.006-.021-.011-.043-.017-.063l-.015-.02a3.719,3.719,0,0,1-.327-.786,19.947,19.947,0,0,1-.753-2.193,18.93,18.93,0,0,1-.737-4.678,15.988,15.988,0,0,1,.44-4.214,8.368,8.368,0,0,1,1.476-3.588c.745-.762,1.364.459,1.579,1.077a10.13,10.13,0,0,1,.072,4.455" transform="translate(-215.339 -191.664)" fill="#375a64"/>
              <path id="Trazado_892316" data-name="Trazado 892316" d="M360.775,324.764c-.554,0-.955,1.787-1.152,2.558a15.415,15.415,0,0,0-.472,3.721,19.93,19.93,0,0,0,1.145,6.61c.028.084.057.172.088.257,0,.007.01.014.014.021s.011.039.017.06a.114.114,0,0,0,.2.035c-.035-.187-.063-.37-.084-.557-.021-.169-.039-.335-.049-.5a26.373,26.373,0,0,1,.338-5.472c.268-2.114.69-6.73-.042-6.734m-.4,12.562c.028.247.067.49.113.729-.056-.176-.113-.353-.166-.528a22.057,22.057,0,0,1-1.043-5.832,15.794,15.794,0,0,1,.243-3.333,14.643,14.643,0,0,1,.43-1.744c.077-.24.479-1.734.821-1.66.24.053.3,1.4.3,1.427.014.268.014.539.011.81-.007.557-.046,1.113-.092,1.667-.105,1.2-.278,2.4-.423,3.6a20.843,20.843,0,0,0-.194,4.866" transform="translate(-216.232 -195.53)" fill="#fff"/>
              <path id="Trazado_892317" data-name="Trazado 892317" d="M372.482,340.724a14.406,14.406,0,0,1-4.492,4.8c-.947.7-1.926,1.347-2.888,2.02a15.574,15.574,0,0,0-2.494,1.919c-.032.031-.064.066-.1.1a4.057,4.057,0,0,0-.517.714.059.059,0,0,1-.047.031.908.908,0,0,1-.034.088.02.02,0,0,1-.039-.009c0-.031.009-.066.011-.1a.056.056,0,0,0,0-.008.063.063,0,0,1-.006-.076.2.2,0,0,1,.018-.032c0-.032.008-.065.013-.1.289-2.316,1.909-4.655,3.278-6.438a12.3,12.3,0,0,1,5.173-4.173c.532-.2,1.74-.768,2.281-.336.494.4.053,1.176-.163,1.595" transform="translate(-217.872 -204.083)" fill="#375a64"/>
              <path id="Trazado_892318" data-name="Trazado 892318" d="M370.912,343.231c-.483-.483-1.9.708-2.259.986a23.681,23.681,0,0,0-2.939,2.858,21.159,21.159,0,0,0-3.753,5.43v0c-.018.021-.032.042-.049.063a.964.964,0,0,0-.014.1.144.144,0,0,0-.018.032.064.064,0,0,0,.007.078c.025-.028.046-.057.07-.081.176-.218.363-.43.553-.638.032-.035.064-.07.1-.1A45.68,45.68,0,0,1,367,348.079a21.879,21.879,0,0,0,2.924-2.844c.222-.268,1.392-1.6.987-2m-.444,1.06c-1.2,1.987-3.273,3.439-5.035,4.887a23.976,23.976,0,0,0-3.344,3.175,22.5,22.5,0,0,1,3.47-4.883,30.219,30.219,0,0,1,2.386-2.456,12.447,12.447,0,0,1,1.448-1.159,4.831,4.831,0,0,1,.98-.528c.673-.2.3.624.1.965" transform="translate(-217.87 -206.579)" fill="#fff"/>
              <path id="Trazado_892319" data-name="Trazado 892319" d="M353.154,359.515a.122.122,0,0,1-.1.058c.008.014.017.024.026.036a.035.035,0,0,1-.006.049.032.032,0,0,1-.049,0,20.023,20.023,0,0,1-4.621-6.76,10.491,10.491,0,0,1-.67-3.331c-.021-.779-.062-2.348.6-2.916,1.342-1.14,2.565,3.7,2.747,4.431.333,1.331.552,2.686.858,4.023.337,1.463.778,2.9,1.219,4.332a.1.1,0,0,1,0,.078" transform="translate(-209.351 -208.603)" fill="#375a64"/>
              <path id="Trazado_892320" data-name="Trazado 892320" d="M354.541,362.31c-.074-.123-.144-.247-.211-.373a22.576,22.576,0,0,1-2.417-6.5,20.736,20.736,0,0,0-.891-3.386c-.109-.268-.444-1.3-.888-.779a7.9,7.9,0,0,0,.053,2.731,14.306,14.306,0,0,0,1.089,3.326,23.548,23.548,0,0,0,3.076,5c.035.046.07.092.106.134a.034.034,0,0,0,.007-.049.256.256,0,0,1-.025-.035.124.124,0,0,0,.1-.06m-2.723-4.161a16.613,16.613,0,0,1-1.29-3.228,11.714,11.714,0,0,1-.282-1.357,7.519,7.519,0,0,1-.092-1.082c.007-.885.078-1.113.226-1.145.092-.018.218.078.479.606a5.769,5.769,0,0,1,.377,1.075c.137.521.257,1.047.37,1.575.229,1.053.444,2.114.75,3.146a17.438,17.438,0,0,0,1.864,4.232,26.944,26.944,0,0,1-2.4-3.823" transform="translate(-210.738 -211.399)" fill="#fff"/>
              <path id="Trazado_892321" data-name="Trazado 892321" d="M367.919,364.477a6.64,6.64,0,0,1-1.231,2.56c-1.113,1.538-2.538,2.817-3.755,4.272q-.272.325-.53.665c-.018.025-.158.347-.156.32,0-.006.021-.129.061-.335v0a27.152,27.152,0,0,1,1.634-5.67,13.625,13.625,0,0,1,1.778-2.782c.345-.39,1.155-1.234,1.765-1.05.657.2.528,1.532.433,2.021" transform="translate(-218.096 -218.207)" fill="#375a64"/>
              <path id="Trazado_892322" data-name="Trazado 892322" d="M366.925,365.952c-.652-.405-2.332,2.6-2.558,2.984a19.1,19.1,0,0,0-1.917,4.577c-.053.179-.1.359-.144.543-.039.208-.063.327-.063.335s.141-.293.158-.321.06-.078.088-.116c.144-.187.293-.37.44-.546.729-1.092,1.48-2.174,2.188-3.284a17.569,17.569,0,0,0,1.357-2.495c.084-.2.737-1.5.451-1.677m-.187.846c-.927,2.611-2.819,4.669-4.263,6.987l-.07.113c.021-.067.039-.137.06-.2A21.788,21.788,0,0,1,364,369.881a20.669,20.669,0,0,1,1.29-2.149,10.4,10.4,0,0,1,.8-1.117c.134-.148.518-.539.648-.472.187.092.06.483,0,.655" transform="translate(-218.095 -220.305)" fill="#fff"/>
              <path id="Trazado_892323" data-name="Trazado 892323" d="M378.442,309.927c-1.936,4.45-7.019,6.522-9.222,10.812l-.01.022c-.068.131-.131.263-.193.4a.09.09,0,0,1-.147.022.066.066,0,0,1-.008-.074c.013-.032.029-.065.046-.1a23.189,23.189,0,0,1,2.72-7.789,11.76,11.76,0,0,1,4.748-5.05c.52-.267,1.534-.831,2.117-.389.618.467.189,1.6-.05,2.143" transform="translate(-222.075 -185.208)" fill="#375a64"/>
              <path id="Trazado_892324" data-name="Trazado 892324" d="M376.721,313.793c-.246-.183-.62.039-.831.148a7.479,7.479,0,0,0-1.47,1,12.268,12.268,0,0,0-2.343,2.787,25.305,25.305,0,0,0-2.762,5.6c-.148.447-.278.9-.384,1.357-.014.056-.025.113-.039.169a.092.092,0,0,0,.148-.021c.057-.134.12-.257.183-.388a.26.26,0,0,1,.018-.035,14.9,14.9,0,0,1,1.381-2.537,35.051,35.051,0,0,1,2.9-3.439c.395-.437,4.052-4.02,3.2-4.644m-.31,1.029a16.694,16.694,0,0,1-2.3,2.787c-.8.9-1.617,1.786-2.407,2.7a16.908,16.908,0,0,0-1.695,2.315,13.164,13.164,0,0,0-1.06,2.142,18.416,18.416,0,0,1,.758-2.227.057.057,0,0,1,.014-.025,33.132,33.132,0,0,1,1.878-3.742c.007-.014.017-.032.025-.046a15.319,15.319,0,0,1,2.142-2.991,8.793,8.793,0,0,1,1.526-1.3c.638-.412,1.195-.68,1.353-.476.106.141-.06.557-.236.863" transform="translate(-222.098 -188.883)" fill="#fff"/>
              <path id="Trazado_892325" data-name="Trazado 892325" d="M366.755,326.413c-.581,1.254-1.138,2.526-1.688,3.8-.261.6-.518,1.2-.771,1.793a.332.332,0,0,0-.018.035c-.091.215-.187.433-.278.648a39.711,39.711,0,0,0-2.273,6.018,18.1,18.1,0,0,0-.465,3.343c0,.117-.011.233-.017.349v0c0,.063,0,.127,0,.19,0,.035,0,.07,0,.106-.035.976-.021,1.955,0,2.907.025,1.328.137,2.646.264,3.96a.633.633,0,0,0,.011.116c0,.06.01.12.014.18,0,.032.007.06.011.092,0,.057.01.113.014.169.042.423.081.846.116,1.272h-.405a26.407,26.407,0,0,1-.49-3.918.618.618,0,0,1,0-.081c-.01-.127-.018-.257-.021-.384-.01-.159-.017-.314-.021-.472q-.021-.571-.032-1.131a27.856,27.856,0,0,1,.465-6.561c.014-.06.028-.116.042-.176a.557.557,0,0,1,.018-.074c.007-.042.018-.084.028-.127l.052-.2c.032-.12.067-.24.1-.356l.032-.105a42.606,42.606,0,0,1,2.237-5.4c.148-.32.3-.638.448-.955l.254-.528.395-.8a.054.054,0,0,1,.014-.025c.62-1.251,1.265-2.488,1.878-3.742.028-.056.127-.01.1.049" transform="translate(-217.153 -196.477)" fill="#375a64"/>
              <path id="Trazado_892326" data-name="Trazado 892326" d="M3.516,389.037c52.4-.244,111.185-.246,163.587,0-52.4.246-111.185.244-163.587,0" transform="translate(-2.117 -234.116)" fill="#1a2e35"/>
              <path id="Trazado_892327" data-name="Trazado 892327" d="M284.289.359v34.03h4.777v8.254l8.254-8.254h34.989V.359Z" transform="translate(-171.161 -0.216)" fill="#fff"/>
              <path id="Trazado_892328" data-name="Trazado 892328" d="M284.119.143c-.041-.018.272,34.5,0,33.919l4.776-.007h.118v.118l.011,8.255-.22-.092c.052-.054,8.241-8.261,8.286-8.308.049.033,34.994-.077,35.049-.053l-.2.2c.173.155-.232-34.729.2-33.888-11.97,0-36.052-.092-48.02-.142m0,0C296.085.1,320.174,0,332.14,0h.142V.143c.034.323.03,33.917.055,34.227h-.2c.019-.068-35.35.046-34.887-.094l-8.266,8.243-.22.22v-.311l.011-8.255.118.118-4.777-.006h-.111v-.111Z" transform="translate(-170.992 -0.001)" fill="#1a2e35"/>
              <path id="Trazado_892329" data-name="Trazado 892329" d="M334.652,35.388c-.5-.314-.943-.772-1.618-.706-.258.026-.2-.188-.2-.328q-.018-3.8-.03-7.6c0-.184.01-.336.211-.438,1.932-.982,2.765-2.906,3.945-4.551a7.573,7.573,0,0,0,1.385-5.755c-.082-.57.183-.827.7-.945a1.271,1.271,0,0,1,1.448.45,10.233,10.233,0,0,1,1.117,3.318,11.926,11.926,0,0,1-.344,2.849c-.086.7-.246,1.384-.375,2.09.17.123.367.058.55.06q3.211-.006,6.423-.019c.9,0,1.345.254,1.472.853a1.716,1.716,0,0,1-.926,1.86c-.16.081-.449.009-.468.26s.28.228.428.331c.777.529.637,1.626-.258,2.263-.215.152-.634.084-.643.4,0,.252.388.248.565.425a1.449,1.449,0,0,1-.612,2.241,2.791,2.791,0,0,0-.376.146c-.106.072-.21.152,0,.3a1.262,1.262,0,0,1-.019,2.257l-.279.2a1.806,1.806,0,0,1-1.126.25q-5.037.027-10.072.036a1.2,1.2,0,0,1-.885-.243" transform="translate(-200.368 -9.039)" fill="#824ffb" fill-rule="evenodd"/>
              <path id="Trazado_892330" data-name="Trazado 892330" d="M313.395,46.993c-.006-1.61,0-3.221-.022-4.83,0-.328.03-.489.431-.485q2.947.026,5.891-.018c.385-.005.445.127.444.469q0,4.861.035,9.721c0,.412-.108.529-.522.524-1.905-.015-3.81-.014-5.714.023-.474.01-.54-.157-.536-.572.019-1.61,0-3.22-.007-4.831" transform="translate(-188.671 -25.082)" fill="#824ffb" fill-rule="evenodd"/>
              <path id="Trazado_892331" data-name="Trazado 892331" d="M69.592,148.446v25.626H66v6.216l-6.216-6.216H33.431V148.446Z" transform="translate(-20.128 -89.374)" fill="#fff"/>
              <path id="Trazado_892332" data-name="Trazado 892332" d="M69.294,148.23c0,7.632.128,18.211.111,25.737h-.111l-3.6.006.118-.118.011,6.216v.312l-.221-.22-6.227-6.2c.546.132-26.365.046-26.245.095h-.2v-.2l.054-25.626v-.142h.142c9.016.021,27.149.076,36.161.142m0,0c-9.011.068-27.152.124-36.161.142l.142-.142.055,25.626-.2-.2,26.408.052.043.043,6.2,6.227-.22.092.011-6.216v-.118H65.7l3.6.006-.111.111q0-6.386.049-12.787Z" transform="translate(-19.83 -89.159)" fill="#1a2e35"/>
              <path id="Trazado_892333" data-name="Trazado 892333" d="M72.432,164.2c-.379.238-.709.584-1.216.536-.195-.019-.152.142-.153.248q0,2.865,0,5.725c0,.139.008.253.16.329,1.457.735,2.09,2.181,2.982,3.417a5.706,5.706,0,0,1,1.058,4.33c-.061.429.139.622.526.71a.958.958,0,0,0,1.09-.343,7.7,7.7,0,0,0,.832-2.5,8.96,8.96,0,0,0-.266-2.144c-.066-.524-.189-1.042-.288-1.573.128-.093.276-.045.413-.047q2.419,0,4.837,0c.679,0,1.012-.195,1.106-.646a1.292,1.292,0,0,0-.7-1.4c-.121-.061-.338-.006-.353-.195s.21-.173.321-.25c.584-.4.476-1.226-.2-1.7-.162-.114-.478-.061-.485-.3,0-.19.291-.188.425-.322a1.092,1.092,0,0,0-.467-1.686,2.091,2.091,0,0,1-.283-.109c-.08-.054-.159-.114,0-.224a.95.95,0,0,0-.02-1.7l-.21-.151a1.361,1.361,0,0,0-.849-.186q-3.792-.008-7.584,0a.9.9,0,0,0-.666.185" transform="translate(-42.782 -98.748)" fill="#375a64" fill-rule="evenodd"/>
              <path id="Trazado_892334" data-name="Trazado 892334" d="M56.434,166.785c0,1.212.006,2.426,0,3.638,0,.246.023.367.326.364q2.219-.027,4.436,0c.29,0,.335-.1.333-.355q-.012-3.66,0-7.32c0-.31-.083-.4-.394-.393-1.435.016-2.869.019-4.3,0-.357-.006-.406.12-.4.432.018,1.213.007,2.425.007,3.638" transform="translate(-33.973 -97.965)" fill="#375a64" fill-rule="evenodd"/>
              <path id="Trazado_892335" data-name="Trazado 892335" d="M66.564,51.375V82.529H62.191v7.557l-7.557-7.557H13.162V51.375Z" transform="translate(-7.925 -30.931)" fill="#fff"/>
              <path id="Trazado_892336" data-name="Trazado 892336" d="M66.273,51.155l.111,31.154v.111h-.112l-4.373.006.118-.118.011,7.557v.312l-.221-.22-7.568-7.546c.554.136-41.5.037-41.369.089H12.68v-.191l.047-31.154V51.01h.145c13.313.023,40.093.077,53.4.145m0,0c-13.307.07-40.1.124-53.4.145.335-.9.108,31.2.191,31.009l-.191-.191c.1.042,41.514-.035,41.573.088l7.546,7.568-.22.091.011-7.557v-.118H61.9l4.373.006c-.279.671.077-31.176,0-31.043" transform="translate(-7.634 -30.711)" fill="#1a2e35"/>
              <rect id="Rectángulo_401936" data-name="Rectángulo 401936" width="44.155" height="0.477" transform="translate(9.861 25.95)" fill="#1a2e35"/>
              <rect id="Rectángulo_401937" data-name="Rectángulo 401937" width="44.155" height="0.477" transform="translate(9.861 29.736)" fill="#1a2e35"/>
              <rect id="Rectángulo_401938" data-name="Rectángulo 401938" width="44.155" height="0.477" transform="translate(9.861 33.521)" fill="#1a2e35"/>
              <rect id="Rectángulo_401939" data-name="Rectángulo 401939" width="44.155" height="0.477" transform="translate(9.861 37.307)" fill="#1a2e35"/>
              <rect id="Rectángulo_401940" data-name="Rectángulo 401940" width="44.155" height="0.477" transform="translate(9.861 41.093)" fill="#1a2e35"/>
              <rect id="Rectángulo_401941" data-name="Rectángulo 401941" width="28.078" height="0.477" transform="translate(9.861 44.879)" fill="#1a2e35"/>
              <path id="Trazado_892337" data-name="Trazado 892337" d="M140.049,85.905c-1.428,11.573-5.092,25.223-1.027,36.6,3.2,8.915,10.865,15.346,18.975,19.725,17.846,9.618,43.641,12.694,58.016-4.643,5.739-6.928,7.812-22.125-.328-28.379-4.183-3.2-9.369-4.272-14.238-6.006a21.287,21.287,0,0,1-13.44-12.673c-5.008-12.369-3.145-21-3.277-33.967a9.211,9.211,0,0,0-2.612-7,16.4,16.4,0,0,0-7.312-4.837,16.3,16.3,0,0,0-7.725-1.9c-5.753.152-11.637,4.987-16.306,7.92-4.724,2.975-7.048,6.281-7.83,11.858-1.079,7.751-1.931,15.537-2.9,23.305" transform="translate(-82.582 -25.778)" fill="#1a2e35"/>
              <path id="Trazado_892338" data-name="Trazado 892338" d="M133.869,116.876c1.992-10.523,4.188-20.991,6.318-31.484.013-.063.113-.055.1.01-1.5,8.684-2.882,17.378-4.5,26.046-1.583,8.493-3.794,17.119-4.628,25.721-1.87,19.312,17.4,28.733,33.924,29.066.751.015.643,1.21-.118,1.171-14.494-.75-31.371-7.034-34.514-23.093-1.719-8.784,1.785-18.835,3.414-27.438" transform="translate(-78.264 -51.386)" fill="#1a2e35"/>
              <path id="Trazado_892339" data-name="Trazado 892339" d="M253.506,74.423a.16.16,0,0,1,.318.032c-.343,10.674-1.744,23.086,3.591,32.821a27.087,27.087,0,0,0,11.53,11.142c3.865,1.937,8.089,2.409,12.2,3.554,16.08,4.479,14.521,26.54,1.987,34.216-.264.162-.552-.285-.294-.46,8.87-6,12.565-17.888,6.447-27.3-4.91-7.553-15.583-6.109-22.736-10.536-14.825-9.174-14.573-28.05-13.044-43.469" transform="translate(-152.211 -44.724)" fill="#1a2e35"/>
              <path id="Trazado_892340" data-name="Trazado 892340" d="M259.267,244.224c-2.628,11.956-18.478,13.994-20.8,11.325-9.4-10.8-19.054-31.463-29.493-54.514-8.16-18.022-2.487-18.383,4.988-13.386,17.386,11.622,46.719,50.151,45.306,56.575" transform="translate(-123.407 -111.318)" fill="#f96e97"/>
              <g id="Grupo_1101956" data-name="Grupo 1101956" transform="translate(81.565 73.981)" opacity="0.4">
                <g id="Grupo_1101955" data-name="Grupo 1101955">
                  <g id="Grupo_1101954" data-name="Grupo 1101954" clip-path="url(#clip-path-6)">
                    <path id="Trazado_892341" data-name="Trazado 892341" d="M210.058,186.112q-.883.555-1.795,1.062a24.612,24.612,0,0,1-3.291,1.536c0-.171.008-.33.02-.485a27.432,27.432,0,0,0,4.528-2.312c.175.056.354.123.537.2M228.7,201.233a29.227,29.227,0,0,1-7.493,1.3,55.224,55.224,0,0,1-12.288-.995c.016.036.036.076.052.111.056.127.115.251.171.378,5.579.987,11.186,1.488,16.833.406a24.485,24.485,0,0,0,3.1-.812c-.123-.131-.247-.259-.37-.386m19.244,29.2a23.085,23.085,0,0,0,.883-5.086c-.135-.187-.271-.374-.41-.561a20.728,20.728,0,0,1-1.707,7.676c-1.019,2.22-2.682,4.676-5.1,5.5-2.376.812-4.517-.573-5.714-2.583-2.9-4.851-.43-10.776-.525-16-.068-3.776-1.468-8.2-5.344-9.626-3.589-1.321-7.672.629-9.909,3.486a11.916,11.916,0,0,0-2.308,7.557c.171.358.342.712.509,1.066-.223-3.729.673-7.461,3.729-9.944a8.868,8.868,0,0,1,6.041-2.113,6.825,6.825,0,0,1,5.559,3.9c2.571,5.03.434,10.692.418,15.985-.012,3.442,1.425,8.325,5.436,8.918,4.437.653,7.386-4.636,8.444-8.182m7.123,4.23c-.832.991-1.7,1.962-2.595,2.9-3.569,3.745-7.553,7.362-9.745,12.145a16.745,16.745,0,0,0-1.608,7.441c.159.016.322.028.493.04a13.366,13.366,0,0,1,.37-4.015c1.317-5.4,5.177-9.491,8.938-13.359,1.512-1.556,2.981-3.136,4.377-4.771-.076-.127-.151-.255-.231-.382" transform="translate(-204.972 -185.913)" fill="#fff"/>
                  </g>
                </g>
              </g>
              <g id="Grupo_1101959" data-name="Grupo 1101959" transform="translate(81.64 74.048)" opacity="0.1">
                <g id="Grupo_1101958" data-name="Grupo 1101958">
                  <g id="Grupo_1101957" data-name="Grupo 1101957" clip-path="url(#clip-path-7)">
                    <path id="Trazado_892342" data-name="Trazado 892342" d="M259.381,244.942c-2.627,11.952-18.476,13.992-20.8,11.323-9.4-10.8-19.053-31.465-29.494-54.515-3.952-8.731-4.805-14.141-3.074-15.669l53.229,56.46a5.583,5.583,0,0,1,.139,2.4" transform="translate(-205.161 -186.081)"/>
                  </g>
                </g>
              </g>
              <path id="Trazado_892343" data-name="Trazado 892343" d="M293.5,272.354c-4.849-6.3-3.174-19.363.316-50.675.483-4.333,33.107-6.238,32.829-1.585-.35,5.862-5.052,29.185-6.4,32.646-6.62,16.943-23.453,23.884-26.741,19.613" transform="translate(-174.894 -130.886)" fill="#ffaba1"/>
              <path id="Trazado_892344" data-name="Trazado 892344" d="M334.387,171.555c.743,6.3-2.776,19.782-4.876,22.707s-25.217-2.3-26.778-5.645-2.422-24.757,1-30.25,29.88,6.66,30.65,13.188" transform="translate(-181.441 -94.513)" fill="#ffaba1"/>
              <path id="Trazado_892345" data-name="Trazado 892345" d="M294.913,133.578c3.1,1.31,4.009-1.3,4.009-1.3s-1.428,6.363,1.758,8.274c3.076,1.834,5.257-3.022,5.417-3.368-.073.337-1.232,6.218,2.168,7.809,3.534,1.651,4.886-3.6,4.972-3.94.032.34.523,4.828,3.38,5.45,4.911,1.066,3.971-10.445,6.733-13.433,0,0,5.6,4.1,5.786,4.187,0,0-.671-10.969-4.909-14.469a3.509,3.509,0,0,0-4.395-.126s.175-3.561-2.462-4.9c-1.355-.682-3.653.878-3.653.878a4.4,4.4,0,0,0-2.4-3.9c-1.929-.839-3.934.857-3.934.857s3.031-14.252-.616-15.482c-6.28-2.117-11.052,28.736-13.671,30.037-1.3.645.468,2.852,1.816,3.422" transform="translate(-176.191 -60.216)" fill="#ffaba1"/>
              <path id="Trazado_892346" data-name="Trazado 892346" d="M316.33,139.614a.047.047,0,0,0-.072-.061,31.273,31.273,0,0,0-8.159,16.723c-.025.2.392,1.039.435.817,1.057-5.549,4.176-12.111,7.8-17.478" transform="translate(-185.496 -84.011)" fill="#1a2e35"/>
              <path id="Trazado_892347" data-name="Trazado 892347" d="M333.718,146.451c.039-.058-.057-.124-.108-.069a29.294,29.294,0,0,0-7.766,18.8c0,.245.242.466.265.185.4-4.736,4.324-14.1,7.609-18.912" transform="translate(-196.18 -88.12)" fill="#1a2e35"/>
              <path id="Trazado_892348" data-name="Trazado 892348" d="M344.105,175.943c.322-6.831,2.8-12.872,6.239-18.711.045-.076-.067-.131-.122-.078-2.46,2.4-4.264,6.348-5.407,9.54a18.032,18.032,0,0,0-.948,9.238c.02.124.232.157.239.011" transform="translate(-206.891 -94.604)" fill="#1a2e35"/>
              <path id="Trazado_892349" data-name="Trazado 892349" d="M307.552,181.231c-.03.24.608-.145.588.1-.224,2.618-.4,7.322,1.692,7.987,1.675.529,3.548-1.355,3.984-2.36l1.1-2.529-.15,2.756a11.3,11.3,0,0,0,.363,3.635,4.034,4.034,0,0,0,1.936,2.669,2.3,2.3,0,0,0,2.859-.487,6.97,6.97,0,0,0,1.513-3.148l.74-3.181.34,3.234a10.614,10.614,0,0,0,.62,2.632,4.366,4.366,0,0,0,1.448,2.061,2.076,2.076,0,0,0,2.183.146,4.591,4.591,0,0,0,1.557-2.042,36.078,36.078,0,0,0,1.7-5.4c.247-.923.494-1.851.786-2.767a6.815,6.815,0,0,1,1.28-2.564,7.349,7.349,0,0,0-1.025,2.636c-.218.926-.393,1.863-.569,2.8a30.746,30.746,0,0,1-1.445,5.608,5.365,5.365,0,0,1-1.789,2.508,2.944,2.944,0,0,1-3.228-.092,5.339,5.339,0,0,1-1.866-2.509,11.6,11.6,0,0,1-.733-2.921l1.079.053a8,8,0,0,1-1.75,3.737,3.339,3.339,0,0,1-1.985,1.081,3.774,3.774,0,0,1-2.2-.394,5.089,5.089,0,0,1-2.453-3.379,12.249,12.249,0,0,1-.337-4l.946.228c-.6,1.259-2.461,3.593-5.162,3.1-3.424-1.171-2.306-7.963-2.013-9.19" transform="translate(-184.921 -109.113)" fill="#1a2e35"/>
              <path id="Trazado_892350" data-name="Trazado 892350" d="M289.185,184.949s-10.735-13.879-10.311-19.8,12.038-12.121,16.633-13.707c6.343-2.189,7.272,2.58,5.169,5.535-2.437,3.423-7.637,7.129-7.994,7.393,0,0,9.26,4.476,10.034,11.927s-13.531,8.649-13.531,8.649" transform="translate(-167.894 -90.844)" fill="#ffaba1"/>
              <path id="Trazado_892351" data-name="Trazado 892351" d="M299.331,155.245a44.824,44.824,0,0,1,6.923-3.939,13.065,13.065,0,0,1,3.864-1.21c3.615-.395,5.3,2.594,3.68,5.7a15.56,15.56,0,0,1-2.408,3.282,27.192,27.192,0,0,1-6.213,5.106l-.049-.641a16.88,16.88,0,0,1,9.7,11.04,17.683,17.683,0,0,0-10.627-10.639,28.035,28.035,0,0,0,6.6-5.4c.328-.361.964-1.111,1.267-1.493,1.468-1.673,2.713-5.092-.077-6.105-1.851-.637-3.765.143-5.549.81a57.266,57.266,0,0,0-7.112,3.49" transform="translate(-180.217 -90.347)" fill="#1a2e35"/>
              <path id="Trazado_892352" data-name="Trazado 892352" d="M323.019,267.163l-35.676-7.981s-8.045,34.3-2.945,40.3c2.279,2.68,9.621,9.293,15.861,8.075,14.351-2.8,22.76-40.395,22.76-40.395" transform="translate(-170.207 -156.045)" fill="#f96e97"/>
              <g id="Grupo_1101962" data-name="Grupo 1101962" transform="translate(113.193 104.813)" opacity="0.4">
                <g id="Grupo_1101961" data-name="Grupo 1101961">
                  <g id="Grupo_1101960" data-name="Grupo 1101960" clip-path="url(#clip-path-8)">
                    <path id="Trazado_892353" data-name="Trazado 892353" d="M287.353,285.259a5.016,5.016,0,0,1-2.9-1.5c.028-.223.056-.442.08-.665a4.516,4.516,0,0,0,4.93,1.512c2.419-.828,4.083-3.283,5.1-5.5,2.081-4.56,1.938-9.845,1.425-14.723-.036-.33-.072-.661-.111-.991l.462.1c.5,4.517.772,9.184-.541,13.585-1.059,3.546-4.007,8.834-8.444,8.181m25.038-18.174-.462-.1a61.446,61.446,0,0,1-11.6,17.227c-3.569,3.745-7.553,7.362-9.745,12.145a15.713,15.713,0,0,0-1.413,9.2c.215.175.434.346.657.517a12.722,12.722,0,0,1,.012-6.248c1.317-5.4,5.177-9.491,8.938-13.359a71.316,71.316,0,0,0,9.61-11.835,60.771,60.771,0,0,0,4.007-7.541m1.759,25.738a6.868,6.868,0,0,0-4.509,2.634c-2.845,3.351-3.04,7.68-4.485,11.651a13.576,13.576,0,0,1-.828,1.858c.239-.131.474-.271.708-.422a28.908,28.908,0,0,0,1.679-5.249,20.062,20.062,0,0,1,2.32-6.259c1.182-1.842,3.02-3.7,5.348-3.776a4.36,4.36,0,0,1,1.675.267c.064-.135.127-.271.187-.41a4.837,4.837,0,0,0-2.1-.294" transform="translate(-284.452 -263.393)" fill="#fff"/>
                  </g>
                </g>
              </g>
              <path id="Trazado_892354" data-name="Trazado 892354" d="M293.214,282.444c4.046.779,8.124,1.342,12.2,1.893s8.165,1.112,12.26,1.562c2.313.254,4.626.522,6.946.7.061,0,.082-.1.019-.108-4.039-.78-8.12-1.36-12.19-1.938s-8.168-1.115-12.257-1.614c-2.311-.281-4.626-.521-6.946-.7-.115-.009-.154.181-.035.2" transform="translate(-176.491 -169.928)" fill="#1a2e35"/>
              <path id="Trazado_892355" data-name="Trazado 892355" d="M288.6,258.446c-.364-.149-.873-.316-.893-.232-.541,2.231-.893,4.66-1.242,6.928-.345,2.238-.637,4.485-.9,6.734-.14,1.211-.257,2.424-.337,3.636a12.967,12.967,0,0,0-1.086,4.741c0,.082.139.092.145.009A16.1,16.1,0,0,1,285.2,276a29.65,29.65,0,0,0,.66,8.847c0,.019.031.008.027-.01-.955-4.334-.075-8.945.438-13.28.257-2.174.56-4.339.878-6.5s.716-4.308,1-6.47c0,0,.381.092.461.1s0-.215-.071-.243" transform="translate(-171.073 -155.449)" fill="#1a2e35"/>
              <path id="Trazado_892356" data-name="Trazado 892356" d="M164,262.345l-2.953-31.071s5.258-11.02-.376-20.577c-2.846-4.842-10.122-22.564-18.768-28.949-10.174-7.513-19.939-.6-23.738,4.551-7.606,10.309-18.9,32.16-25.122,76.059Z" transform="translate(-56.02 -107.431)" fill="#f96e97"/>
              <g id="Grupo_1101965" data-name="Grupo 1101965" transform="translate(41.366 73.078)" opacity="0.4">
                <g id="Grupo_1101964" data-name="Grupo 1101964">
                  <g id="Grupo_1101963" data-name="Grupo 1101963" clip-path="url(#clip-path-9)">
                    <path id="Trazado_892357" data-name="Trazado 892357" d="M148.719,185.064c-.422.259-.848.505-1.277.744-3.569,1.978-7.927,3.414-11.994,2.181-2.6-.788-3.94-2.272-4.417-4.123.127-.076.263-.151.394-.223a4.694,4.694,0,0,0,.768,1.691c1.472,2.025,4.214,2.666,6.586,2.638a19.077,19.077,0,0,0,9.546-3.2l.147.107c.084.06.163.123.247.183m.752,53.411c-2.969-1.874-7.008-1.608-10.024,0-3.752,2.006-5.73,6.216-6.435,10.247-.971,5.551.318,11.178,1.082,16.761h.41c-.732-5.352-1.938-10.748-1.15-16.065.665-4.5,2.873-9.248,7.342-11.031,3.721-1.48,8.731-.9,10.82,2.893,2.694,4.907-.911,10.8-2.877,15.289a22.011,22.011,0,0,0-2.065,8.91h.466a15.162,15.162,0,0,1,.064-1.7c.47-5.233,3.53-9.566,5.062-14.477,1.2-3.836,1.051-8.468-2.694-10.832m-37,1.2a15.543,15.543,0,0,0-8.4,1.186c-.04.179-.08.358-.123.541a14.612,14.612,0,0,1,9.431-1.082,8.232,8.232,0,0,1,4.934,3.359,9.468,9.468,0,0,1,1.082,7.3c-1.142,5.285-4.859,9.9-8.4,13.816-.215.239-.434.47-.657.7h.625a59.454,59.454,0,0,0,4.891-6.045c2.547-3.6,4.95-8.233,4.131-12.79a8.706,8.706,0,0,0-7.513-6.984m25.392-31.154c-4.453.68-8.536,2.754-12.579,4.636-4.079,1.9-8.432,3.856-13.036,3.7-.422-.016-.852-.048-1.281-.1l-.155.43c4.194.541,8.293-.812,12.1-2.463,4.341-1.882,8.528-4.258,13.156-5.384,4.5-1.1,10.649-.907,12.877,3.955,2.081,4.54-.267,9.833-3.713,12.961a21.325,21.325,0,0,1-12.794,5.038c-8.508.625-16.459-2.694-24.485-5.308-.04.135-.08.267-.119.4,9.65,3.092,19.873,7.433,30.088,4.361a18.37,18.37,0,0,0,9.952-6.821c2.268-3.267,3.227-7.987,1.09-11.564-2.26-3.784-7.1-4.453-11.1-3.844m22.833-7.374c-.1.008-.207.016-.31.02-11.878.557-23.152-4.33-34.935-4.895a40.856,40.856,0,0,0-5.221.064c-.088.155-.179.314-.271.474a49.031,49.031,0,0,1,11.349.505c9.8,1.444,19.658,4.922,29.634,4.282-.08-.147-.163-.3-.247-.45m7.859,43.14c-4.015-6.017-8.178-11.958-10.207-18.993-1.445-5.006-1.52-11.166,2.877-14.739a9.767,9.767,0,0,1,3.386-1.807c-.068-.135-.135-.271-.207-.41a10.539,10.539,0,0,0-5.109,3.538c-2.977,3.8-2.65,9.148-1.385,13.538,2.121,7.354,6.55,13.55,10.736,19.861Z" transform="translate(-103.952 -183.643)" fill="#fff"/>
                  </g>
                </g>
              </g>
              <path id="Trazado_892358" data-name="Trazado 892358" d="M192.994,304.049a70.174,70.174,0,0,1,10.351.5c1.7.234,3.385.544,5.068.891.839.173,1.679.318,2.524.458a11.066,11.066,0,0,0,2.674.192.062.062,0,0,1,.012.123,18.79,18.79,0,0,1-2.526.243,18.24,18.24,0,0,1-2.455-.177c-1.73-.22-3.449-.521-5.177-.758-3.485-.48-6.969-.959-10.482-1.187-.162-.011-.153-.285.01-.287" transform="translate(-116.119 -183.052)" fill="#1a2e35"/>
              <path id="Trazado_892359" data-name="Trazado 892359" d="M172.663,311.649a75.793,75.793,0,0,1,8.439-1.381c1.421-.146,2.838-.208,4.267-.234.681-.012,1.363-.012,2.045,0,.75.009,1.5.119,2.249.117.078,0,.092.12.012.123-.707.023-1.413.163-2.117.227s-1.416.123-2.124.187c-1.417.128-2.832.271-4.252.386-2.84.229-5.665.486-8.5.813-.153.018-.167-.2-.023-.233" transform="translate(-103.895 -186.655)" fill="#1a2e35"/>
              <path id="Trazado_892360" data-name="Trazado 892360" d="M89.243,189.523c-20.288,20.118-46,62.622-41.391,71.347,5.135,9.718,33.389-18.486,33.3-20.152-.067-1.259,10.048-27.138,17.712-45.957,7.657-18.8-4.6-10.213-9.62-5.238" transform="translate(-28.484 -110.289)" fill="#ffaba1"/>
              <path id="Trazado_892361" data-name="Trazado 892361" d="M73.036,239.75c.884-2.769,14.636-36.89,18.579-47.684,3.539-9.689,1.779-13.7-6.373-7.761-15.007,10.937-44.856,44.633-50.512,62.171-5.448,16.894,8.59,18.436,20.192,10.749,9.5-6.294,18.114-17.474,18.114-17.474" transform="translate(-20.181 -109.287)" fill="#f96e97"/>
              <g id="Grupo_1101968" data-name="Grupo 1101968" transform="translate(14.072 72.783)" opacity="0.4">
                <g id="Grupo_1101967" data-name="Grupo 1101967">
                  <g id="Grupo_1101966" data-name="Grupo 1101966" clip-path="url(#clip-path-10)">
                    <path id="Trazado_892362" data-name="Trazado 892362" d="M71.176,239.226a9.851,9.851,0,0,1,3.088,1.011q-.078.215-.119.346l-.04.052a8.937,8.937,0,0,0-2.018-.764A15.323,15.323,0,0,0,60.2,242.322c-4.29,2.893-7.437,7.131-11.214,10.6-3.108,2.853-6.6,5-10.864,5.487a14.256,14.256,0,0,1-2.543.068,4.656,4.656,0,0,1-.219-.474,13.317,13.317,0,0,0,2.519-.016c4.684-.47,8.392-3.044,11.691-6.24,3.494-3.382,6.57-7.362,10.7-10.016a16.163,16.163,0,0,1,10.9-2.507M58.243,223.269a36.593,36.593,0,0,0-7.708-.7c-.111.151-.227.3-.342.454,5.432-.2,10.812,1.166,15.957,2.8,3.983,1.265,8.066,2.762,12.2,3.88.048-.115.092-.231.139-.35-6.789-1.83-13.414-4.767-20.251-6.076m12.71-6.86a10.3,10.3,0,0,1-7.016-2.591,7.313,7.313,0,0,1-1.95-5.189c-.143.167-.29.33-.438.5a7.729,7.729,0,0,0,1.882,4.815,9.651,9.651,0,0,0,5.834,2.766c4.282.629,8.468-.748,12.348-2.431,1.158-.5,2.308-1.039,3.458-1.58l.239-.609c-.442.211-.883.418-1.321.621-4.079,1.9-8.432,3.856-13.036,3.7m13.2-20.585a34.99,34.99,0,0,0-11.13,1.078c-.231.223-.462.454-.692.684.2-.068.41-.127.613-.187,5.539-1.6,11.417-1.365,17.067-.533.386.056.768.115,1.154.179.056-.139.107-.279.159-.418a61.952,61.952,0,0,0-7.171-.8M90.9,184.889a4.719,4.719,0,0,1-.828-1.986c-.131.056-.271.119-.41.187.4,2,1.735,3.617,4.493,4.453.032.008.06.02.092.028.028-.151.052-.3.072-.446a6.244,6.244,0,0,1-3.418-2.236" transform="translate(-35.362 -182.903)" fill="#fff"/>
                  </g>
                </g>
              </g>
              <path id="Trazado_892363" data-name="Trazado 892363" d="M128.411,280.837q6.775-19.49,15.08-38.4-6.769,19.492-15.08,38.4" transform="translate(-77.312 -145.962)" fill="#1a2e35"/>
              <path id="Trazado_892364" data-name="Trazado 892364" d="M159.3,254.394a22.88,22.88,0,0,1,2.99-4.522,14.855,14.855,0,0,1-2.99,4.522" transform="translate(-95.911 -150.44)" fill="#1a2e35"/>
              <path id="Trazado_892365" data-name="Trazado 892365" d="M48.755,339.553c5.453,5.691,17.792,5.023,49.016,6.258,4.32.171,13.729-30,9.125-30.416-5.8-.528-28.422-1.323-30.084-1.172-14.014,1.272-31.756,21.47-28.057,25.33" transform="translate(-29.055 -189.172)" fill="#ffaba1"/>
              <path id="Trazado_892366" data-name="Trazado 892366" d="M170.853,314.7s11.733-3.543,18.474-3.5c9.026.062,16.793,3.833,19.952,5.609,6.6,3.708,19.978,17.233,16.755,21.767-2.918,4.1-15.9-10.412-15.9-10.412s15.677,12.616,11.256,16.913-18.532-13.412-18.532-13.412,15.817,13.324,10.557,17.033c-3.975,2.8-17.659-12.516-17.659-12.516s13.516,11.546,9.552,14.6c-4.38,3.38-17.9-9.968-17.9-9.968-11.385,6.078-19.292,4.315-24.768,2.392-1.326-.466,8.209-28.513,8.209-28.513" transform="translate(-97.846 -187.363)" fill="#ffaba1"/>
              <path id="Trazado_892367" data-name="Trazado 892367" d="M269.14,341.978c1.895,1.415,3.823,2.835,5.586,4.414s3.472,3.221,5.08,4.957a40.427,40.427,0,0,1,5.614,7.35c-3.157-4.509-9.38-10.259-11.145-11.838s-3.439-3.24-5.2-4.818c-.044-.04.018-.1.063-.065" transform="translate(-161.994 -205.888)" fill="#1a2e35"/>
              <path id="Trazado_892368" data-name="Trazado 892368" d="M254.546,357.716c2.342,1.912,4.737,3.724,6.995,5.741s4.2,4.106,6.306,6.261c.162.166.02.2-.15.039-2.187-2.07-4.369-3.815-6.58-5.859s-4.345-4.175-6.621-6.13c-.035-.031.014-.081.05-.052" transform="translate(-153.216 -215.364)" fill="#1a2e35"/>
              <path id="Trazado_892369" data-name="Trazado 892369" d="M239.485,368.958a67.538,67.538,0,0,1,10.024,9.6c.153.171-.035.192-.2.027-3.272-3.253-5.816-5.828-9.918-9.493-.064-.057.017-.187.1-.13" transform="translate(-144.115 -222.129)" fill="#1a2e35"/>
              <path id="Trazado_892370" data-name="Trazado 892370" d="M95.659,308.13,73.9,348.453s-30.878-6.171-34.717-12.5c-2.744-4.522,15.958-23.634,31.435-25.544Z" transform="translate(-23.428 -185.515)" fill="#f96e97"/>
              <g id="Grupo_1101971" data-name="Grupo 1101971" transform="translate(15.616 128.95)" opacity="0.4">
                <g id="Grupo_1101970" data-name="Grupo 1101970">
                  <g id="Grupo_1101969" data-name="Grupo 1101969" clip-path="url(#clip-path-11)">
                    <path id="Trazado_892371" data-name="Trazado 892371" d="M76.894,343.98a60.036,60.036,0,0,1-5,6.168c-1.791,1.934-3.844,3.6-5.619,5.539-.147.163-.29.326-.422.493-.159-.04-.318-.08-.478-.115a13.012,13.012,0,0,1,1.011-1.146c1.854-1.9,3.864-3.621,5.651-5.595,3.546-3.916,7.262-8.532,8.4-13.816a9.468,9.468,0,0,0-1.082-7.3,8.232,8.232,0,0,0-4.934-3.359A15.323,15.323,0,0,0,62.537,327.3c-4.29,2.893-7.437,7.131-11.214,10.6-3.108,2.853-6.6,5-10.864,5.488-.4.048-.808.076-1.218.091a3.591,3.591,0,0,1,.131-.454c.283-.012.565-.032.844-.06,4.684-.47,8.392-3.044,11.691-6.24,3.494-3.382,6.57-7.362,10.7-10.016a16.163,16.163,0,0,1,10.9-2.507,8.706,8.706,0,0,1,7.513,6.984c.82,4.556-1.584,9.188-4.131,12.79" transform="translate(-39.242 -324.05)" fill="#fff"/>
                  </g>
                </g>
              </g>
              <path id="Trazado_892372" data-name="Trazado 892372" d="M74.739,322.548c1.938-2.388,8.527-7.52,17.454-8.755.078-.011.114.112.035.131-6.56,1.563-15.342,6.576-17.4,8.716-.054.056-.135-.032-.086-.092" transform="translate(-44.989 -188.924)" fill="#1a2e35"/>
              <path id="Trazado_892373" data-name="Trazado 892373" d="M114.681,344.963c1.79-4.05,3.794-8,5.809-11.946s4.025-7.9,6.14-11.8c1.195-2.2,2.378-4.412,3.649-6.572.033-.056.136-.015.108.048-1.785,4.044-3.776,8.008-5.761,11.959s-4.024,7.9-6.093,11.826c-1.169,2.216-2.378,4.411-3.649,6.572-.063.107-.257.029-.2-.09" transform="translate(-69.04 -189.423)" fill="#1a2e35"/>
              <path id="Trazado_892374" data-name="Trazado 892374" d="M140.469,307.11a38.253,38.253,0,0,0-5.161.2c-1.719.132-3.437.294-5.153.471-3.412.353-10.684.712-16.72,2.349-.067.018.362.251.428.229,2.834-.927,24.548-2.357,26.273-2.69a2.757,2.757,0,0,0-.09.393c-.012.093.1.179.173.094.173-.2.277-.418.435-.628a.251.251,0,0,0-.184-.416" transform="translate(-68.291 -184.882)" fill="#1a2e35"/>
              <path id="Trazado_892375" data-name="Trazado 892375" d="M160.882,182.9s10.631,12.6,19.585,13.134,9.978-10.4,9.978-10.4-5.672-6.389-13.419-7.524a20.042,20.042,0,0,0-16.145,4.789" transform="translate(-96.862 -107.104)" fill="#ffaba1"/>
              <path id="Trazado_892376" data-name="Trazado 892376" d="M181.918,151.837c.277,1.406,5.986,10.184,12.313,9.036,4.451-.808,3.141-9.785,3.141-9.785l3.27-12.476L185.19,128.019s-3.38,23.221-3.271,23.818" transform="translate(-109.525 -77.076)" fill="#ffaba1"/>
              <path id="Trazado_892377" data-name="Trazado 892377" d="M187.182,136.179A24.635,24.635,0,0,0,200.725,150.4l3.091-11.778-15.454-10.595s-.534,3.684-1.18,8.156" transform="translate(-112.696 -77.078)" fill="#1a2e35"/>
              <path id="Trazado_892378" data-name="Trazado 892378" d="M212.657,70.013c2.838,20.937-9.4,24.992-13.928,25.6-4.106.548-18.158,1.893-23.148-18.641s3.865-28.465,13.189-30.214,21.048,2.321,23.886,23.259" transform="translate(-104.845 -27.93)" fill="#ffaba1"/>
              <path id="Trazado_892379" data-name="Trazado 892379" d="M253.83,96.518a13.793,13.793,0,0,1-1.452-.218,2.378,2.378,0,0,1-1.439-.5.755.755,0,0,1-.053-.92,1.877,1.877,0,0,1,1.82-.544,2.761,2.761,0,0,1,1.783.871.8.8,0,0,1-.66,1.317" transform="translate(-150.972 -56.776)" fill="#1a2e35"/>
              <path id="Trazado_892380" data-name="Trazado 892380" d="M220.489,100.017a13.985,13.985,0,0,0,1.416-.385,2.372,2.372,0,0,0,1.369-.668.754.754,0,0,0-.055-.92,1.878,1.878,0,0,0-1.871-.329,2.754,2.754,0,0,0-1.669,1.071.806.806,0,0,0,.81,1.232" transform="translate(-132.173 -58.77)" fill="#1a2e35"/>
              <path id="Trazado_892381" data-name="Trazado 892381" d="M228.515,114.9c-.016-.053-.107.077-.1.136.164,1.436.11,3.109-1.156,3.692-.039.019-.029.091.018.08,1.574-.354,1.624-2.574,1.238-3.909" transform="translate(-136.811 -69.167)" fill="#1a2e35"/>
              <path id="Trazado_892382" data-name="Trazado 892382" d="M224.372,111.4c-2.335.013-2.134,4.673.029,4.661,2.129-.012,1.928-4.672-.029-4.661" transform="translate(-134.08 -67.07)" fill="#1a2e35"/>
              <path id="Trazado_892383" data-name="Trazado 892383" d="M220.465,112.069c-.4.281-.776.763-1.265.832-.567.08-1.017-.39-1.409-.843-.041-.047-.079,0-.077.057.025.894.408,1.8,1.373,1.887.88.084,1.474-.733,1.659-1.639.035-.168-.121-.407-.28-.294" transform="translate(-131.078 -67.455)" fill="#1a2e35"/>
              <path id="Trazado_892384" data-name="Trazado 892384" d="M251.191,112.812c.009-.055.115.064.116.124,0,1.445.254,3.1,1.579,3.534.041.014.04.086-.009.081-1.6-.169-1.914-2.369-1.686-3.739" transform="translate(-151.194 -67.912)" fill="#1a2e35"/>
              <path id="Trazado_892385" data-name="Trazado 892385" d="M252.465,108.917c2.32-.257,2.667,4.394.517,4.632-2.115.234-2.462-4.417-.517-4.632" transform="translate(-151.229 -65.569)" fill="#1a2e35"/>
              <path id="Trazado_892386" data-name="Trazado 892386" d="M256.562,108.871c.386.219.784.641,1.226.637.512,0,.852-.535,1.141-1.041.03-.053.07-.016.076.045.091.887-.135,1.835-.978,2.069-.769.213-1.4-.507-1.677-1.377-.052-.161.056-.421.211-.332" transform="translate(-154.333 -65.289)" fill="#1a2e35"/>
              <path id="Trazado_892387" data-name="Trazado 892387" d="M233.344,144.062c.345.339.69.806,1.215.852a3.833,3.833,0,0,0,1.557-.359.051.051,0,0,1,.062.074,1.95,1.95,0,0,1-1.839.779,1.54,1.54,0,0,1-1.135-1.281c-.022-.084.089-.115.139-.065" transform="translate(-140.403 -86.721)" fill="#1a2e35"/>
              <path id="Trazado_892388" data-name="Trazado 892388" d="M240.5,108.96s.416,2.138.472,3.155c0,.1-.239.154-.584.193-.016.006-.025.013-.04,0a4.853,4.853,0,0,1-4.8-1.55c-.076-.1.047-.208.144-.149a7.317,7.317,0,0,0,4.489,1.025c.056-.285-.836-3.639-.675-3.659a8.873,8.873,0,0,1,2.341.4c-.737-4.48-2.189-8.805-2.856-13.277a.139.139,0,0,1,.262-.08c1.842,4.426,2.8,9.562,3.686,14.169.115.573-2.023-.076-2.439-.227" transform="translate(-141.802 -57.16)" fill="#1a2e35"/>
              <path id="Trazado_892389" data-name="Trazado 892389" d="M239.505,136.068a5.1,5.1,0,0,1-1.888,1.764,2.3,2.3,0,0,1-1.38.215c-1.029-.171-1.139-1.09-1.028-1.9a5.5,5.5,0,0,1,.339-1.249,6.6,6.6,0,0,0,3.957,1.165" transform="translate(-141.591 -81.221)" fill="#1a2e35"/>
              <path id="Trazado_892390" data-name="Trazado 892390" d="M237.618,139.722a2.3,2.3,0,0,1-1.38.215c-1.029-.171-1.139-1.09-1.028-1.9a2.371,2.371,0,0,1,2.408,1.68" transform="translate(-141.591 -83.111)" fill="#ff9cbf"/>
              <path id="Trazado_892391" data-name="Trazado 892391" d="M174.3,77.629c3.826.569,5-8.2,5-8.2s16.41-2.414,18.086-15.7A27.411,27.411,0,0,0,209.549,66.08s-1.83-16.515-13.338-19.6c0,0-12.638-4.782-21.585,6.272-9.17,11.33-2.9,24.5-.327,24.879" transform="translate(-102.236 -27.363)" fill="#1a2e35"/>
              <path id="Trazado_892392" data-name="Trazado 892392" d="M216.706,63.8a14.474,14.474,0,0,1-.862,6.061,15.071,15.071,0,0,1-3.2,5.308,12.851,12.851,0,0,1-1.127,1.08l-.579.524c-.206.158-.421.306-.634.454-.431.29-.85.6-1.289.872-.456.245-.919.479-1.382.707-.232.113-.459.236-.695.339l-.727.263-1.449.521c-.993.253-2,.455-2.994.641.948-.389,1.916-.676,2.842-1.068l1.368-.629.681-.312c.22-.119.429-.257.643-.384.425-.261.85-.517,1.282-.763.409-.279.795-.593,1.193-.885l.594-.444.54-.506a12.269,12.269,0,0,0,1.053-1.036,17.3,17.3,0,0,0,3.224-4.941,18.006,18.006,0,0,0,.977-2.826,17.472,17.472,0,0,0,.544-2.975" transform="translate(-121.475 -38.41)" fill="#1a2e35"/>
              <path id="Trazado_892393" data-name="Trazado 892393" d="M238.629,113.869l-.61-.64c.907-.948,3.072-2.31,4.787-.693l-.579.673c-1.534-1.451-3.515.574-3.6.66" transform="translate(-143.303 -67.303)" fill="#2b454e"/>
              <path id="Trazado_892394" data-name="Trazado 892394" d="M164.4,121.194l-.883-.2c.093-.412.952-4.048,2.823-4.88,1.75-.772,13.769-2.764,14.28-2.847l.147.893c-3.447.567-12.708,2.18-14.059,2.781-1.235.549-2.084,3.254-2.308,4.25" transform="translate(-98.447 -68.196)" fill="#2b454e"/>
              <path id="Trazado_892395" data-name="Trazado 892395" d="M209.847,115.68a7.06,7.06,0,0,1-3.655-.987c-2.152-1.617-3.477-7.616-3.532-7.871l-.127-.583h.6c.457,0,11.226.05,13.7,2.428,1.333,1.279.637,4.437-.256,5.386-1.1,1.173-4.123,1.762-6.731,1.627m-6.111-8.474c.482,1.939,1.642,5.673,3.034,6.719,1.876,1.409,7.814.845,9.108-.53.62-.658,1.15-3.21.291-4.034-1.716-1.645-9.052-2.1-12.433-2.154" transform="translate(-121.938 -63.963)" fill="#2b454e"/>
              <path id="Trazado_892396" data-name="Trazado 892396" d="M252.358,110.066a4.025,4.025,0,0,1-2.718-1.037,5.358,5.358,0,0,1-.94-4.906c.987-2.661,7.536-3.8,8.279-3.918l.568-.092-.01.575c0,.238-.115,5.858-1.032,7.657a3.668,3.668,0,0,1-2.873,1.663,6.62,6.62,0,0,1-1.273.057m4.2-8.809c-2.155.419-6.347,1.55-6.96,3.2a4.426,4.426,0,0,0,.738,3.912,3.9,3.9,0,0,0,3.156.689,2.808,2.808,0,0,0,2.154-1.149c.606-1.19.848-4.786.911-6.653" transform="translate(-149.583 -60.275)" fill="#2b454e"/>
              <path id="Trazado_892397" data-name="Trazado 892397" d="M175.373,115.078s-4.93-6.368-7.846-4.584,1.013,11.168,4.591,12.308a3.578,3.578,0,0,0,4.7-2.145Z" transform="translate(-100.251 -66.335)" fill="#ffaba1"/>
              <path id="Trazado_892398" data-name="Trazado 892398" d="M171.992,117.66a.049.049,0,0,0-.015.095c2.513.88,3.92,3.1,4.943,5.422a1.979,1.979,0,0,0-2.979-.4c-.062.049,0,.146.073.129a2.2,2.2,0,0,1,2.457.651,10.648,10.648,0,0,1,1.253,1.9c.126.215.518.078.422-.171-.007-.018-.016-.037-.023-.056-.088-3.14-2.742-7.414-6.131-7.57" transform="translate(-103.522 -70.839)" fill="#1a2e35"/>
            </g>
          </g>
        </g>
      </g>
    </g>
  </g>
</svg>
