<svg xmlns="http://www.w3.org/2000/svg" xmlns:xlink="http://www.w3.org/1999/xlink" width="91.113" height="91.167" viewBox="0 0 91.113 91.167">
  <defs>
    <clipPath id="clip-path">
      <rect id="Rectángulo_401950" data-name="Rectángulo 401950" width="91.113" height="91.168" fill="#824ffb"/>
    </clipPath>
  </defs>
  <g id="Grupo_1103312" data-name="Grupo 1103312" transform="translate(-810 -4570.294)">
    <g id="Grupo_1101978" data-name="Grupo 1101978" transform="translate(810 4570.294)">
      <g id="Grupo_1101977" data-name="Grupo 1101977" clip-path="url(#clip-path)">
        <path id="Trazado_892399" data-name="Trazado 892399" d="M25.808,25.591H24.625q-10.114,0-20.227,0C1.557,25.589.007,24.047,0,21.226Q0,16.783.005,12.34A3.905,3.905,0,0,1,4.2,8.149q10.3-.009,20.605,0h1.015c-.01-4.734,4.134-6.46,7.318-4.58C35.194.678,37.288.221,40.315,2,43.11-.681,45.44-.673,48.037,2.06a4.549,4.549,0,0,1,5.893.025c1.971,1.551,1.643,3.8,1.65,6.061h1.047c5.8,0,11.594-.012,17.391.018a4.267,4.267,0,0,1,1.8.407c4.719,2.31,9.417,4.663,14.122,7,.568.282,1.188.533,1.175,1.314s-.641,1.013-1.206,1.294c-4.676,2.326-9.344,4.667-14.036,6.961a4.537,4.537,0,0,1-1.887.428c-3.686.039-7.372.019-11.058.019H61.857a7.5,7.5,0,0,1-2.622,5.26c-1.906,1.881-3.734,3.84-5.625,5.736a4.677,4.677,0,0,0-1.476,3.641c.039,1,.007,2.008.007,3.165.867,0,1.671-.01,2.475,0,1.234.02,1.571.354,1.572,1.582q.009,6.144,0,12.289A2.118,2.118,0,0,0,57.7,59.024a1.646,1.646,0,0,0,1.525-1.432q.225-1.158.452-2.316a1.14,1.14,0,0,1,1.262-1.014q3.213.012,6.427,0A1.156,1.156,0,0,1,68.6,55.318c.15.74.279,1.485.409,2.229.248,1.425,1.172,1.8,2.39.975.6-.407,1.206-.8,1.792-1.228a1.214,1.214,0,0,1,1.77.137q2.2,2.212,4.412,4.41a1.25,1.25,0,0,1,.172,1.778q-.667.974-1.334,1.949a1.323,1.323,0,0,0,.943,2.22c.8.16,1.6.318,2.408.469a1.162,1.162,0,0,1,1.03,1.262q.016,3.167,0,6.334a1.236,1.236,0,0,1-1.182,1.337c-.714.113-1.422.264-2.135.389-1.414.247-1.8,1.189-.982,2.388q.614.9,1.232,1.789a1.294,1.294,0,0,1-.191,1.855q-2.189,2.155-4.347,4.341a1.242,1.242,0,0,1-1.775.174q-.971-.672-1.948-1.335a1.331,1.331,0,0,0-2.242.956c-.138.774-.268,1.55-.42,2.322a1.216,1.216,0,0,1-1.312,1.1q-3.166-.005-6.333,0a1.2,1.2,0,0,1-1.3-1.1c-.163-.866-.318-1.733-.487-2.6a1.351,1.351,0,0,0-1.951-.85,1.828,1.828,0,0,0-1.054,1.878c.068,2.671.024,2.672-2.618,2.672H28.783c-1.517,0-1.781-.255-1.781-1.735q0-22.12,0-44.24c0-1.518.251-1.771,1.742-1.778.721,0,1.442,0,2.3,0,0-1.692.01-3.318-.014-4.944a.968.968,0,0,0-.308-.553A16.759,16.759,0,0,1,25.9,25.965a2.062,2.062,0,0,0-.095-.374m33.721,0c-1.645,0-3.185.007-4.726,0-1.18-.007-1.494-.329-1.5-1.533-.006-2.237,0-4.475,0-6.712q0-5.577,0-11.155a5.065,5.065,0,0,0-.082-1.126,2.278,2.278,0,0,0-2.356-1.781,2.223,2.223,0,0,0-2.1,2.161c-.048,1.889-.021,3.781-.026,5.671,0,.63.014,1.261,0,1.891-.028.909-.479,1.449-1.187,1.389-.829-.07-1.082-.621-1.08-1.382.008-2.71.017-5.42,0-8.13a2.306,2.306,0,1,0-4.58,0c-.024,2.237-.007,4.474-.008,6.712,0,.5.006,1.009-.006,1.512-.017.717-.313,1.26-1.091,1.277-.831.018-1.157-.535-1.165-1.3-.013-1.2,0-2.395-.008-3.592-.007-1.386.03-2.775-.046-4.157a2.172,2.172,0,0,0-2.147-2.1,2.247,2.247,0,0,0-2.332,1.912A5.887,5.887,0,0,0,35.02,6.19q-.008,3.45,0,6.9c0,.731-.292,1.26-1.061,1.3-.826.038-1.16-.507-1.2-1.267-.012-.22,0-.441,0-.662,0-1.607.011-3.214,0-4.821a2.249,2.249,0,0,0-2.3-2.533,2.293,2.293,0,0,0-2.263,2.586c-.007,6.239-.039,12.479.013,18.717a13.682,13.682,0,0,0,4.12,9.851,3.1,3.1,0,0,1,1.018,2.579c-.071,1.256-.021,2.52-.013,3.78a6.3,6.3,0,0,0,.08.7H49.869c0-.916.047-1.764-.009-2.6a7.4,7.4,0,0,1,2.464-6.078c1.991-1.928,3.886-3.956,5.822-5.94a4.188,4.188,0,0,0,1.384-3.106M29.337,52.2V88.818H53.979a2.071,2.071,0,0,0-.244-.481c-1.59-1.57-3.178-3.141-4.787-4.69a1.329,1.329,0,0,1-.152-2c.434-.578.827-1.188,1.235-1.786a1.33,1.33,0,0,0-.9-2.254c-.771-.152-1.544-.3-2.32-.424a1.186,1.186,0,0,1-1.125-1.276q-.008-3.212,0-6.424a1.138,1.138,0,0,1,1.048-1.236c.774-.135,1.546-.29,2.316-.446,1.347-.273,1.706-1.195.919-2.346-.408-.6-.8-1.211-1.225-1.792a1.245,1.245,0,0,1,.157-1.841q2.359-2.315,4.692-4.656a.922.922,0,0,0,.313-.518c.025-1.469.014-2.938.014-4.444ZM51.056,63.016a21.475,21.475,0,0,1,1.526,2.31,2.57,2.57,0,0,1,.143,1.561,3.692,3.692,0,0,1-4.052,3.3c-.634-.012-.763.371-.744.931a20.622,20.622,0,0,1-.012,2.832c-.1.942.26,1.32,1.158,1.347,1.772.053,3.078.721,3.408,2.648a1.741,1.741,0,0,0,.24.511,1.424,1.424,0,0,1-.122,1.67c-.55.757-1.054,1.548-1.549,2.281l3.372,3.369a6.818,6.818,0,0,0,.885-.6C56.62,83.985,58,83.5,59.6,84.644a1.056,1.056,0,0,0,.356.119,1.622,1.622,0,0,1,1.318,1.518c.112.864.318,1.715.479,2.55h4.745a3.842,3.842,0,0,0,.178-.8,3.5,3.5,0,0,1,3.037-3.853.622.622,0,0,0,.172-.076,1.42,1.42,0,0,1,1.671.125c.76.542,1.542,1.052,2.217,1.51l3.4-3.386c-.468-.687-.986-1.43-1.488-2.185-.6-.9.4-4.071,1.4-4.45a4.037,4.037,0,0,1,.645-.138l2.522-.5a1.656,1.656,0,0,0,.068-.277c.006-1.2-.037-2.4.029-3.59.041-.735-.216-1.033-.929-1.052-1.946-.053-3.368-.8-3.743-2.9a.465.465,0,0,0-.074-.173,1.543,1.543,0,0,1,.166-1.987c.525-.691.982-1.432,1.486-2.176-1.061-1.056-2.041-2.033-3.025-3.007-.11-.108-.237-.2-.365-.305a3.634,3.634,0,0,0-.57.373c-1.523,1.48-3.17,1.9-5.034.626-.05-.034-.139-.023-.175-.064-.351-.394-.851-.742-1.007-1.205a22.382,22.382,0,0,1-.583-2.807c-1.468,0-2.881-.027-4.291.03a.873.873,0,0,0-.556.641c-.04,2.234-1.059,3.667-3.294,4.077a2.828,2.828,0,0,1-1.648-.149,19.051,19.051,0,0,1-2.259-1.488l-3.389,3.373M53.88,45.744H29.345v4.078H53.88Zm1.732-30.025c5.876,0,11.659.026,17.442-.018a2.542,2.542,0,0,0,2.437-2.72,2.608,2.608,0,0,0-2.8-2.56q-8.257-.018-16.515,0a5.333,5.333,0,0,0-.562.06Zm.011,7.6H56.7q5.9,0,11.8,0c1.51,0,3.021.024,4.529-.022a2.622,2.622,0,0,0,1.131-4.911,3.857,3.857,0,0,0-1.624-.372C67.089,17.99,61.648,18,56.206,18c-.18,0-.361.023-.582.039ZM6.794,10.424c-1.05,0-2.021-.035-2.987.01a1.554,1.554,0,0,0-1.521,1.613q-.039,4.813,0,9.627A1.461,1.461,0,0,0,3.6,23.264a31.882,31.882,0,0,0,3.192.025Zm80.652,6.449-9.755-4.85a5.1,5.1,0,0,1-1.544,4.737,13.672,13.672,0,0,1,1.312,2.258,14.376,14.376,0,0,1,.417,2.617l9.57-4.762m-69.977-1.2h8.383V10.46H17.47Zm8.409,2.409H17.473v5.175h8.405ZM10.92,10.467H9.168V23.293H10.92Zm2.4,12.807h1.749V10.444H13.323Z" transform="translate(0 0)" fill="#824ffb"/>
        <path id="Trazado_892400" data-name="Trazado 892400" d="M223.1,267.481a10.4,10.4,0,1,1,10.423-10.355A10.422,10.422,0,0,1,223.1,267.481m.047-2.271a8.133,8.133,0,0,0,.019-16.265,8.133,8.133,0,1,0-.019,16.265" transform="translate(-159.004 -184.388)" fill="#824ffb"/>
        <path id="Trazado_892401" data-name="Trazado 892401" d="M237.749,278.054c1.393-1.4,2.61-2.618,3.828-3.838a8.5,8.5,0,0,1,.678-.655,1.07,1.07,0,0,1,1.536.033,1.019,1.019,0,0,1,.051,1.527c-1.734,1.78-3.479,3.553-5.3,5.244a1.462,1.462,0,0,1-1.4-.053,27.7,27.7,0,0,1-2.628-2.57,1.043,1.043,0,0,1,.037-1.6,1.016,1.016,0,0,1,1.523.01c.577.574,1.084,1.219,1.677,1.9" transform="translate(-175.031 -204.253)" fill="#824ffb"/>
      </g>
    </g>
  </g>
</svg>
