<svg xmlns="http://www.w3.org/2000/svg" xmlns:xlink="http://www.w3.org/1999/xlink" width="420.033" height="318.233" viewBox="0 0 420.033 318.233">
  <defs>
    <clipPath id="clip-path">
      <rect id="Rectángulo_401736" data-name="Rectángulo 401736" width="420.033" height="318.233" transform="translate(179.983 5327.412)" fill="#ffe6fb"/>
    </clipPath>
    <clipPath id="clip-path-2">
      <rect id="Rectángulo_401973" data-name="Rectángulo 401973" width="488.652" height="469.262" fill="none"/>
    </clipPath>
    <clipPath id="clip-path-3">
      <rect id="Rectángulo_401972" data-name="Rectángulo 401972" width="467.922" height="284.67" fill="none"/>
    </clipPath>
    <clipPath id="clip-path-4">
      <rect id="Rectángulo_401970" data-name="Rectángulo 401970" width="32.021" height="103.242" fill="none"/>
    </clipPath>
    <clipPath id="clip-path-5">
      <rect id="Rectángulo_401971" data-name="Rectángulo 401971" width="43.095" height="108.804" fill="none"/>
    </clipPath>
  </defs>
  <g id="Grupo_1103314" data-name="Grupo 1103314" transform="translate(-179.983 -5337)">
    <rect id="Rectángulo_401974" data-name="Rectángulo 401974" width="420.033" height="318.233" transform="translate(179.983 5337)" fill="#ffe6fb"/>
    <g id="Grupo_1103313" data-name="Grupo 1103313">
      <g id="Enmascarar_grupo_1098731" data-name="Enmascarar grupo 1098731" transform="translate(0 9.588)" clip-path="url(#clip-path)">
        <g id="Grupo_1102005" data-name="Grupo 1102005" transform="translate(142.612 5366.232)">
          <g id="Grupo_1102004" data-name="Grupo 1102004" clip-path="url(#clip-path-2)">
            <g id="Grupo_1102003" data-name="Grupo 1102003" transform="translate(10.366 0.001)">
              <g id="Grupo_1102002" data-name="Grupo 1102002" clip-path="url(#clip-path-3)">
                <path id="Trazado_892547" data-name="Trazado 892547" d="M642.43,524.314c-1.735-14.9-.539-31.418-2.779-54.712-.359-5.979-.844-12.38-1.491-18.058-2.179-19.1-5.509-25.53-5.943-29.216,0,0-.2-37.624-3.2-79.5-1.413-19.7-7.582-25.429-12.743-35.706l-58.646,2.3c-5.237,26.088-4.036,84.962-2.765,111.577.648,13.569,4.192,62.277,4.375,84.363.054,6.477-1.253,8.814-3.56,11.4-4.83,5.423-11.041,9.291-16.954,13.528-1.629,3.547,6.632,5.6,13.527,1.823,5.833-3.2,12.537-7.105,14.529-8.653,5.041-3.918,10.474-6.566,11.49-12.121.413-2.259,11.01-54.093,11.215-65.391.176-9.713-1.717-26.109-1.717-26.109l4.813-41.314s6.448,31.474,10.289,48.1,8.078,36.374,12.458,52.82c4.335,18.974,10.195,37.354,11.488,46.888.365,2.274,3.961,24.594,5.279,29.686s12.933,4.755,13.318-4.11c.256-5.9-2.652-24.8-2.978-27.608" transform="translate(-234.908 -128.063)" fill="#ffaaa9"/>
                <path id="Trazado_892548" data-name="Trazado 892548" d="M628.009,307.744c7.144,11.456,12.481,20.838,14.575,55.678s1.895,56.017,2.207,60.215,2.547,7.272,5.617,27.892,1.567,45.722,1.567,45.722S650,501.1,641.821,502.141c-7.549.963-11.412-1.626-11.412-1.626s-10.269-38.2-13.649-52.395c-2.969-12.463-13.618-60.74-13.618-60.74l-3.6,33.468s3.095,12.191.647,30.483c-2.432,18.17-6.518,36.223-6.518,36.223s-3.774,1.3-11.773,1.529c-6.484.188-13.675-2.53-13.675-2.53s-3.874-52.674-4.711-73.26-2.476-77.78,4.028-102.693Z" transform="translate(-244.991 -128.32)" fill="#375a64"/>
                <path id="Trazado_892549" data-name="Trazado 892549" d="M680.848,434.787c-2.482-9.547-2.52-27.916-3.136-43.866-.187-4.82-.379-9.8-.642-15.1-1.033-20.762-3.639-43.949-15.141-58.5l-.854.628c7.732,9.784,11.381,23.609,13.246,37.954-10.865-.943-13.652-11.145-17.451-25.192-.52-1.919-1.057-3.906-1.635-5.943l-1.036.276c.577,2.034,1.114,4.015,1.632,5.931,3.791,14.018,6.8,25.121,18.621,26,.781,6.318,1.236,12.718,1.544,18.9.263,5.289.455,10.269.642,15.087.617,16.011.656,34.428,3.167,44.079.28,1.076.582,2.2.9,3.389,3.3,12.337,7.167,32.909,6.406,65.511a11.755,11.755,0,0,0,1.092-.7c.676-32.3-3.164-52.766-6.458-65.069-.318-1.183-.619-2.308-.9-3.382" transform="translate(-283.147 -132.314)" fill="#2b454e"/>
                <path id="Trazado_892550" data-name="Trazado 892550" d="M609.936,410.441l-8.373-39.311s-14.313-.4-22.573-8.082c1.787,6.79,13.358,12.1,18.554,13.078l1.586,6.918c-.1,3.717-.219,7.62-.34,11.649-.667,22.209-1.143,45.125.028,50.293,2.271,10.021,1.665,19.657.363,32.761-1.174,11.822-3.206,26.475-4.475,33.97.376-.045.736-.091,1.075-.138,1.28-7.426,2.956-20.487,4.613-33.776,1.67-13.4,2.1-22.564-.538-33.081-1.253-5-.627-28.9.008-50q.116-3.839.223-7.51l5.589,24.359.66,32.341Z" transform="translate(-251.787 -151.38)" fill="#2b454e"/>
                <path id="Trazado_892551" data-name="Trazado 892551" d="M635.7,93.9c5.933-5.12,17.108-5.364,23,4.732s5.767,29.861,5.767,42.08v35.532s-.376,5.453-14.382,5.453-16.639-2.444-16.639-2.444v-79.5Z" transform="translate(-274.492 -37.709)" fill="#1a2e35"/>
                <path id="Trazado_892552" data-name="Trazado 892552" d="M650.793,95.348a16.935,16.935,0,0,1,2.981,5.3,4.025,4.025,0,0,1-.378,3.742,3.175,3.175,0,0,1-2.8.949c-3.434-.415-6.556-4.084-8.368-6.781-1.553-2.312-3.616-6.852.712-7.586,2.78-.471,5.7,1.714,7.85,4.374" transform="translate(-277.373 -37.907)" fill="#d268cc"/>
                <path id="Trazado_892553" data-name="Trazado 892553" d="M617.23,139.3c0-4,5.579-10.854,8.675-17.894s3.5-18.164-2.958-22.216c-.768-11.016-22.923-16.869-37.113-8.765s-13.188,23.918-4.175,28.216,35.57,20.66,35.57,20.66" transform="translate(-250.125 -36.127)" fill="#1a2e35"/>
                <path id="Trazado_892554" data-name="Trazado 892554" d="M425.86,180.049a5.919,5.919,0,0,1,3.54-.044,38.731,38.731,0,0,1,5.282,2.358c2.7,1.167,7.047,3.088,10.015,2.687.6-.082,1.832-.437.94-1.117a25.672,25.672,0,0,1-3.407-2.756,5.268,5.268,0,0,1-1.591-3.951,1.8,1.8,0,0,1,.507-1.188c.466-.416.831-.212,1.251.048a12.029,12.029,0,0,0,1.407.688c.983.445,1.965.892,2.942,1.351,5.7,2.68,11.45,5.9,15.153,11.159.538.764,3.909,6.854,6.037,10.27,1.767,3.129,12.414,18.971,12.414,18.971s14.462-12.915,20.946-18.818c6.951-6.329,11.386-10.749,22.057-11.247l-10.27,33.961s-18.8,14.375-22.5,16.959c-9.31,6.5-11.278,8.6-17.279,3.652-7.358-6.062-9.481-13.48-12.705-21.482-3.631-9.012-4.872-13.38-6.725-16.036s-4.5-2.611-6.4-3.021a28.9,28.9,0,0,1-7.573-2.523,26.6,26.6,0,0,1-5.973-3.627,8.178,8.178,0,0,1-2.4-2.4,24.628,24.628,0,0,0-.771-2.72c-.535-.97-1.513-1.662-1.939-2.685a10.162,10.162,0,0,1-.4-2.571c-.188-1.371-1.1-2.093-2.14-2.885a4.1,4.1,0,0,1-1.338-1.319c-.445-.914.16-1.433.923-1.715" transform="translate(-187.488 -73.305)" fill="#ffaaa9"/>
                <path id="Trazado_892555" data-name="Trazado 892555" d="M520.087,247.658c4.236,5.989,4.647,11.931,4.25,14.28a18.65,18.65,0,0,0-2.023-16.27Z" transform="translate(-227.226 -102.437)" fill="#ff9090"/>
                <path id="Trazado_892556" data-name="Trazado 892556" d="M464.568,195.507c1.551,3.286,5.322,6.828,7.411,7.765,0,0-3.284-.037-5.178-2.08a7.5,7.5,0,0,1-2.233-5.685" transform="translate(-204.073 -81.521)" fill="#ff9090"/>
                <path id="Trazado_892557" data-name="Trazado 892557" d="M635.738,278.627c-4.193-12.935-8.47-19.079-7.764-25.112,1.087-9.284,4.859-20.97,5.124-27.39.942-22.8-3.509-25.087-7.564-26.837l-14.862-3.608-21.8-.6s-9.561,1.414-9.568,1.42a97.2,97.2,0,0,0-14,15.324c-7.111,9.627-9.84,21.1.457,29.649,0,0,.484,8.99.4,13.015-.419,5.78-2.333,16.165-3.252,28.126,15.824,14.64,55.032,11.208,72.827-3.987" transform="translate(-243.444 -81.343)" fill="#d268cc"/>
                <path id="Trazado_892558" data-name="Trazado 892558" d="M701,370.184c1.444-1.575,3.3-2.968,3.9-5.107a3.655,3.655,0,0,0-.518-3.262,1.682,1.682,0,0,1-.39-.593,1.376,1.376,0,0,1,.03-.589,3.981,3.981,0,0,0-.159-2.43,2.5,2.5,0,0,0-1.551-1.318,5.845,5.845,0,0,0-.031-3.674c-.479-1.393-1.92-2.506-2.864-.944a12.941,12.941,0,0,0-1.091,2.441,28.5,28.5,0,0,0-1.391,6.511c-.233,2.31-.785,8.841,2.79,9.15.279.024,1.069.039,1.273-.184" transform="translate(-300.892 -146.568)" fill="#ff9090"/>
                <path id="Trazado_892559" data-name="Trazado 892559" d="M670.509,202.194c14.876,2.274,17.357,8.678,25.554,19.965a268.881,268.881,0,0,1,17.564,26.747c3.582,6.591,4.1,8.971-2.492,17.42-3.254,4.174-6.579,7.691-12.7,14.4-3.895,4.268-8.127,8.635-12.195,12.953a5.032,5.032,0,0,0-1.1,4.475,24.931,24.931,0,0,1,.723,2.759,23.328,23.328,0,0,1-.292,3.656,3.2,3.2,0,0,0,1.442,3.147,3.524,3.524,0,0,0,1.746.205,12.533,12.533,0,0,1-3.361,1.832,5.134,5.134,0,0,1-3.75-.124c-1.119-.54-1.963-1.6-3.155-1.959-.643-.192-1.334-.159-1.983-.331a3.257,3.257,0,0,1-1.7-1.112c-.681-.856-.962-2.087-1.922-2.61a13.56,13.56,0,0,0-1.487-.486,3.324,3.324,0,0,1-1.846-2.46,9.084,9.084,0,0,1,.076-3.187,79.432,79.432,0,0,1,1.736-8.431,8.364,8.364,0,0,1,1.36-2.593c.645-.928,1.26-1.887,1.957-2.775,4.73-6.027,16.812-28.722,16.812-28.722l-16.814-21.7s-13.083-19.081-4.169-31.073" transform="translate(-288.65 -84.309)" fill="#ffaaa9"/>
                <path id="Trazado_892560" data-name="Trazado 892560" d="M707.753,292.71c4.186,4.1,10.68,4.429,13.073,4.282a14.333,14.333,0,0,1-14.427-1.763Z" transform="translate(-304.912 -122.052)" fill="#ff9090"/>
                <path id="Trazado_892561" data-name="Trazado 892561" d="M623.563,143.462a7.265,7.265,0,0,0,6.718-2.541c3.68-3.948,3.261-8.01,1.6-10.738-1.362-2.242-4.772-3.707-7.193-2.232-2.59,1.578-2.687,2.891-3.681,4.7-1.02,1.854-3.466.356-2.541-6.943-4.959-2.409-2.211-9.247-4.865-12.69-3.382-4.387-9.82-2.284-13.323-.688a2.834,2.834,0,0,1-3.082-.461,7.444,7.444,0,0,0-8.4-1.2c-3.058,1.589-4.542,3.825-4.094,11.24a19.694,19.694,0,0,1-.33,5.058,50.518,50.518,0,0,0-.907,5.344c-.447,6.981,1.621,15.227,5.236,18.719a14.48,14.48,0,0,0,10.516,3.681v5.078s-11.875,12.687,1.493,12.687c15.294,0,20.008-12.1,20.008-12.1l.009-19.027s.273,1.6,2.828,2.115" transform="translate(-253.631 -45.811)" fill="#ffaaa9"/>
                <path id="Trazado_892562" data-name="Trazado 892562" d="M605.134,133.771l-1.726,13.91-7.337-3.427Z" transform="translate(-258.909 -55.779)" fill="#ff9090"/>
                <path id="Trazado_892563" data-name="Trazado 892563" d="M617.51,159.977a4.3,4.3,0,0,0-.834-.278,4.143,4.143,0,0,0-1.425.1,13.786,13.786,0,0,0-1.707.394,12.394,12.394,0,0,0-1.634.613,11.094,11.094,0,0,0-1.073.574,1.592,1.592,0,0,0-.57.483.427.427,0,0,0,.433.6,14.973,14.973,0,0,0,1.886-.707,16.322,16.322,0,0,1,1.628-.522,13.89,13.89,0,0,1,1.675-.335,3.432,3.432,0,0,0,1.76-.525c.136-.11-.024-.349-.139-.4" transform="translate(-264.808 -66.576)" fill="#c76668"/>
                <path id="Trazado_892564" data-name="Trazado 892564" d="M620.741,124.213l4.486,2.293a2.643,2.643,0,0,0-1.139-3.477,2.458,2.458,0,0,0-3.347,1.184" transform="translate(-269.195 -51.188)" fill="#1a2e35"/>
                <path id="Trazado_892565" data-name="Trazado 892565" d="M592.7,124.314l4.1,3a2.436,2.436,0,0,0-.461-3.507,2.666,2.666,0,0,0-3.636.509" transform="translate(-257.504 -51.416)" fill="#1a2e35"/>
                <path id="Trazado_892566" data-name="Trazado 892566" d="M617.789,137.824a2.063,2.063,0,1,0,2.12-2.091,2.1,2.1,0,0,0-2.12,2.091" transform="translate(-267.964 -56.597)" fill="#1a2e35"/>
                <path id="Trazado_892567" data-name="Trazado 892567" d="M591.7,136.658a2.063,2.063,0,1,0,1.93-2.268,2.1,2.1,0,0,0-1.93,2.268" transform="translate(-257.083 -56.036)" fill="#1a2e35"/>
                <path id="Trazado_892568" data-name="Trazado 892568" d="M610.535,180.96c8.06-.178,15.384-3.917,17.989-8.129-.97,5.6-7.4,8.4-11.215,9.288a30.455,30.455,0,0,1-6.774,1.018Z" transform="translate(-264.94 -72.066)" fill="#ff9090"/>
                <path id="Trazado_892569" data-name="Trazado 892569" d="M701.4,183.908l1.2-2.152c.89-1.594,1.778-3.189,2.681-4.777,1.789-3.145,3.438-6.581,5.734-9.39.246-.3,1.086-.406.9.2a29.944,29.944,0,0,1-2.292,4.951c-.824,1.6-1.7,3.173-2.562,4.756q-1.307,2.412-2.637,4.812l-1.37,2.486c-.454.824-.627,1.442-1.649,1.492a.508.508,0,0,1-.5-.2c-.442-.877.049-1.384.494-2.178" transform="translate(-302.552 -69.779)" fill="#e1e1e1"/>
                <path id="Trazado_892570" data-name="Trazado 892570" d="M710.626,193.051c.2-.589.737-.863,1.233-1.177.533-.336,1.066-.672,1.609-.993q1.761-1.043,3.556-2.032c1.143-.627,2.3-1.206,3.478-1.77a15.932,15.932,0,0,1,3.683-1.474.587.587,0,0,1,.553.992,15.6,15.6,0,0,1-3.1,1.933q-1.5.877-3,1.746-1.678.972-3.322,2l-1.428.9q-.3.191-.605.384l-.4.258q-.288.265-.163.042a1.127,1.127,0,0,1-2.09-.806" transform="translate(-306.65 -77.387)" fill="#e1e1e1"/>
                <path id="Trazado_892571" data-name="Trazado 892571" d="M715.08,205.308c.814-.588,2.109-.539,3.068-.673,1.245-.175,2.491-.353,3.738-.522,1.347-.184,2.7-.324,4.05-.492a21.214,21.214,0,0,1,3.737-.289c.728.04.317.879-.088,1.056a15.592,15.592,0,0,1-3.487.781c-1.2.216-2.406.44-3.611.641-1.181.2-2.366.374-3.549.56l-1.7.267c-.624.1-1.136.383-1.757.436a.534.534,0,0,1-.513-.227l-.17-.248a.894.894,0,0,1,.285-1.288" transform="translate(-308.343 -84.778)" fill="#e1e1e1"/>
                <path id="Trazado_892572" data-name="Trazado 892572" d="M464.523,105.609l-8.466-14.523c8.372-9.745,6.83-21.691.543-30.074-6.721-8.964-20.986-15.431-41.217-16.221-35.966-1.4-55.953,6.432-61.257,27.547-4.494,17.893,12.515,31.028,42.692,32.814,20.4,1.207,28.14-.234,34.058-1.335a55.008,55.008,0,0,0,13.673-4.139Z" transform="translate(-157.728 -18.611)" fill="#375a64"/>
                <path id="Trazado_892573" data-name="Trazado 892573" d="M276.9,357.686a1.9,1.9,0,0,0-2.1.908c-.284-.221-.447-.609-.791-.719-.418-.135-.826.22-1.1.565a8.107,8.107,0,0,0-.163,9.523,1.384,1.384,0,0,0,.45.438,1.448,1.448,0,0,0,.71.107,16.337,16.337,0,0,0,3.791-.548,4.166,4.166,0,0,0,3.024-2.121,4.712,4.712,0,0,0-.077-2.74,7.152,7.152,0,0,0-1.49-3.29c-.558-.64-1.447-1.9-2.256-2.122" transform="translate(-123.483 -149.12)" fill="#c66150"/>
                <path id="Trazado_892574" data-name="Trazado 892574" d="M244.38,196.158c12.231,2.748,14.9,2.873,21.562,14.266,7.8,13.336,17.114,30.1,18.683,33.846,2.876,6.868,2.855,9.373-7.033,21.12-6.166,7.323-12.846,16.17-15.025,18.786-1.02,1.223-.008,3.742.54,5.237.86,2.346-.22,4.879.408,9.366a20.386,20.386,0,0,1,5.042-1.6s-3.332-3.579-1.887-5.968a.752.752,0,0,1,1.1-.227c.8.617,2.034,2.02,3.492,3.433,2.567,2.487,1.886,3.014.66,7.247-.49,1.691-1.815,2.17-6.924,3.17s-6.644.318-12.9-4.984-4.9-18.76-1.772-23.88c3.1-5.076,13.772-24.851,13.772-24.851L245.16,220.753Z" transform="translate(-112.265 -81.792)" fill="#dd8669"/>
                <path id="Trazado_892575" data-name="Trazado 892575" d="M247.582,196.158c8.358,1.889,12.058,3.006,16.476,9.225s22.2,37.182,22.483,39.9c-2.775,4.242-14.545,7.228-21.114,5.839l-.277.511-14.714-22.188Z" transform="translate(-113.6 -81.792)" fill="#2b454e"/>
                <path id="Trazado_892576" data-name="Trazado 892576" d="M274.983,279.689l.8,1.213a23.962,23.962,0,0,0,12.725-1.538,12.112,12.112,0,0,0,6.891-9.2s-.712-1.366-.714-1.368a3.188,3.188,0,0,1,.411-.139,1.792,1.792,0,0,1,.992.06,3.692,3.692,0,0,1,1.849,1.944,8.6,8.6,0,0,1,.626,2.32,10.007,10.007,0,0,0,.542,2.114c.156.388.429.75.622,1.124a8.3,8.3,0,0,1,.947,3.557,4.513,4.513,0,0,1-1.317,3.795c-2.743,3.045-7.066,4.188-11.163,4.258a22.16,22.16,0,0,1-12.661-3.444,1.664,1.664,0,0,1-.865-1.068c-.052-.466.278-.9.257-1.373a3.329,3.329,0,0,0-.311-.929,1.747,1.747,0,0,1,.366-1.327" transform="translate(-124.861 -112.004)" fill="#1a2e35"/>
                <path id="Trazado_892577" data-name="Trazado 892577" d="M109.5,529.178c.894-13.021,1.356-19.112,2.6-42.375.111-5.962.326-12.35.726-18.025,1.345-19.092,3.8-23.638,5.444-30.187s1.426-24.273,3.928-65.33a211.483,211.483,0,0,1,7.577-46.387h58.8c6.042,25.741,7.763,81.475,7.583,108-.092,13.526-.239,83.4.1,88.988a18.832,18.832,0,0,0,5.656,12.117c4.846,5.2,8.322,7.3,14.394,11.837-.88,2.323-13.607,2.238-17.223.469a134.172,134.172,0,0,1-15.191-8.924c-4.99-3.694-6.158-5.924-6.24-11.545a16.1,16.1,0,0,1,.051-1.835c-.094-3.281-9.559-52.247-11.622-63.3-1.6-8.588.153-25.222.153-25.222l-6.23-40.9s-5.487,32.629-9.242,49.168c-2.761,12.153-9.587,31.35-14.058,50.788-5.221,19.757-5.639,21.5-8.718,35.646-1.553,7.133-5.351,31.121-7.081,36.055-5.582,15.925-18.219,8.015-18.935-.79-.476-5.861,7.335-35.437,7.528-38.242" transform="translate(-52.874 -136.297)" fill="#dd8669"/>
                <path id="Trazado_892578" data-name="Trazado 892578" d="M201.519,419.388l4.555-29.507s17.61-2.091,24.014-8.244c0,0-8.076,11.395-20.024,13.252l-5.022,24.46,2.654,40.594Z" transform="translate(-94.393 -159.131)" fill="#c66150"/>
                <path id="Trazado_892579" data-name="Trazado 892579" d="M134.1,326.875c-4.183,16.051-5.87,20-8.269,55.753-2.327,34.673-.975,45.236-1.316,49.414-.784,9.582-5.031,12.89-6.269,35.494-1.135,20.718-1.816,46.269-1.816,46.269s2.788,3.833,10.679,4.54c7.28.652,10.921-2.08,10.921-2.08s13.5-48.286,17.265-60.449c5.111-16.5,10.745-50.951,10.745-50.951l4.761,33.149s-1.533,15.88,1.547,30.874c3.818,18.591,7.716,38.792,7.716,38.792a24.74,24.74,0,0,0,10.967,1.366c8.52-.861,11.369-2.841,11.369-2.841s2.391-56.164,2.391-76.677-.458-70.726-3.228-102.654Z" transform="translate(-58.913 -136.297)" fill="#375a64"/>
                <path id="Trazado_892580" data-name="Trazado 892580" d="M201.519,427.031l5.914-35.891s11.878-3.136,19.5-11.109c-.566,5.944-11.129,13.568-16.076,14.753l-6.6,31.8,2.023,33.593Z" transform="translate(-94.393 -158.462)" fill="#2b454e"/>
                <path id="Trazado_892581" data-name="Trazado 892581" d="M170.721,336.409a48.946,48.946,0,0,0-4.453,9.418,91.436,91.436,0,0,0-2.967,9.981c-.784,3.38-1.433,6.787-1.88,10.226a67.611,67.611,0,0,0-.686,10.379c.828-3.375,1.6-6.724,2.365-10.077.784-3.346,1.516-6.7,2.327-10.026.77-3.339,1.608-6.657,2.462-9.975.874-3.315,1.8-6.61,2.831-9.927" transform="translate(-77.383 -140.273)" fill="#2b454e"/>
                <path id="Trazado_892582" data-name="Trazado 892582" d="M160.8,338.561a37.054,37.054,0,0,0-4.693,5.264,50.943,50.943,0,0,0-3.816,5.926,45.235,45.235,0,0,0-2.894,6.444,27.783,27.783,0,0,0-1.589,6.891l3.155-6.213c1.07-2.036,2.13-4.068,3.246-6.074,1.082-2.025,2.221-4.021,3.325-6.05s2.239-4.053,3.266-6.187" transform="translate(-71.998 -141.17)" fill="#2b454e"/>
                <path id="Trazado_892583" data-name="Trazado 892583" d="M165.294,409.752c-1.5,10.755-2.841,21.525-4.195,32.282-1.392,10.751-2.435,28.1-4.414,38.731-2.032,10.613-14.536,52.252-16.18,62.982,2.48-10.575,16.243-51.895,18.329-62.586,1.951-10.718,2.906-28.128,3.954-38.937,1.07-10.808,1.851-21.634,2.506-32.472" transform="translate(-68.952 -170.854)" fill="#2b454e"/>
                <path id="Trazado_892584" data-name="Trazado 892584" d="M249.269,409.751l1.771,28.3c.261,4.715.564,9.425.779,14.138s.494,9.436.417,14.088c-.1,4.674-.391,49.857.246,59.314,1.111-10.533,1.619-49.761,1.939-59.279-.03-9.564-.839-18.958-1.686-28.392-.874-9.42-2.009-18.817-3.466-28.166" transform="translate(-114.303 -170.854)" fill="#2b454e"/>
                <path id="Trazado_892585" data-name="Trazado 892585" d="M201.615,211.834c-1.363-9.886-7.669-18.493-18.93-22.209L163.705,187.1c-4.867,1.266-35.506,10.089-35.506,10.089l9.625,51.7s-2.181,21.626-2.639,34.97c14.158,8.978,53.856,8.461,68.815-.551.574-13.664-1.034-61.683-2.384-71.474" transform="translate(-63.821 -78.015)" fill="#fafafa"/>
                <path id="Trazado_892586" data-name="Trazado 892586" d="M246.1,359.314v5.57a38.639,38.639,0,0,0,13.351-6.6l.135-6.245Z" transform="translate(-112.98 -146.788)" fill="#1a2e35"/>
                <path id="Trazado_892587" data-name="Trazado 892587" d="M243.944,224.04c-.529-12.528-5.34-27.556-9.609-31.516,0,0-12.53-4.189-18.523-5.082v1.281c1.286.115,3.51,1.805,4.542,3.471,1.925,3.111,3.822,8.256,6.174,17.193,3.2,12.175,6.777,36.994,6.942,51.64s0,29.657,0,29.657,11.192-3.574,13.486-7.279c2.059-5.5-.152-6.7-.12-10.226.15-16.551-2.5-39.973-2.89-49.139" transform="translate(-100.352 -78.158)" fill="#d268cc"/>
                <g id="Grupo_1101998" data-name="Grupo 1101998" transform="translate(115.459 109.284)" opacity="0.1">
                  <g id="Grupo_1101997" data-name="Grupo 1101997">
                    <g id="Grupo_1101996" data-name="Grupo 1101996" clip-path="url(#clip-path-4)">
                      <path id="Trazado_892588" data-name="Trazado 892588" d="M243.944,224.04c-.529-12.528-5.34-27.556-9.609-31.516,0,0-12.53-4.189-18.523-5.082v1.281c1.286.115,3.51,1.805,4.542,3.471,1.925,3.111,3.822,8.256,6.174,17.193,3.2,12.175,6.777,36.994,6.942,51.64s0,29.657,0,29.657,11.192-3.574,13.486-7.279c2.059-5.5-.152-6.7-.12-10.226.15-16.551-2.5-39.973-2.89-49.139" transform="translate(-215.811 -187.442)"/>
                    </g>
                  </g>
                </g>
                <path id="Trazado_892589" data-name="Trazado 892589" d="M134.323,355.459s-1.211,4.691-.956,6.051,2.169,3.217,8.895,5.5c6.02,2.047,17.5,5.778,27.63,5.433l.353-6.343Z" transform="translate(-65.961 -148.216)" fill="#1a2e35"/>
                <path id="Trazado_892590" data-name="Trazado 892590" d="M160.029,207.437c-1.575-6.673-6.953-13.846-8.565-20.337,0,0-6.91,2.787-15.563,5.748,0,0-3.529,1.586-6.6,2.919-6.179,2.685-7.224,9.086-4.764,18.066,0,0,4.048,19.341,6.2,31.239a66.986,66.986,0,0,1-.417,27.815c-.876,3.808-3.387,9.761-.113,12.4,8.974,7.754,35.857,10.618,35.857,10.618s.759-16.8,0-50.573c-.425-18.927-4.029-29.385-6.038-37.894" transform="translate(-61.781 -78.015)" fill="#d268cc"/>
                <g id="Grupo_1102001" data-name="Grupo 1102001" transform="translate(61.527 109.084)" opacity="0.1">
                  <g id="Grupo_1102000" data-name="Grupo 1102000">
                    <g id="Grupo_1101999" data-name="Grupo 1101999" clip-path="url(#clip-path-5)">
                      <path id="Trazado_892591" data-name="Trazado 892591" d="M160.029,207.437c-1.575-6.673-6.953-13.846-8.565-20.337,0,0-6.91,2.787-15.563,5.748,0,0-3.529,1.586-6.6,2.919-6.179,2.685-7.224,9.086-4.764,18.066,0,0,4.048,19.341,6.2,31.239a66.986,66.986,0,0,1-.417,27.815c-.876,3.808-3.387,9.761-.113,12.4,8.974,7.754,35.857,10.618,35.857,10.618s.759-16.8,0-50.573c-.425-18.927-4.029-29.385-6.038-37.894" transform="translate(-123.308 -187.1)"/>
                    </g>
                  </g>
                </g>
                <path id="Trazado_892592" data-name="Trazado 892592" d="M215.613,186c5.646,7.277,13.2,27.4,15.065,42.9.677-6.677,1.465-23.706,0-27.99a40.735,40.735,0,0,0-4.76-8.856s1.046-3.355.725-3.783c-1.5-2-11.092-7.8-11.092-7.8Z" transform="translate(-100.244 -75.248)" fill="#1a2e35"/>
                <path id="Trazado_892593" data-name="Trazado 892593" d="M168.788,181.152l-.208,4.311c2.78,5.313,5.75,10.145,8.013,19.824a189.071,189.071,0,0,1,4.011,26.579s-10.934-18.336-13.458-23.227c-1.6-3.1-.649-12.384-.649-12.384s-5.7-1.539-6.448-2.34c-1.027-1.1.9-7.168.9-7.168Z" transform="translate(-76.976 -75.535)" fill="#1a2e35"/>
                <path id="Trazado_892594" data-name="Trazado 892594" d="M115.26,197.229c-14.227,3.72-16.172,7.315-22.055,19.542-3.022,6.28-10.573,20.965-12.789,25.913-6.886,15.377-7.335,23.958-2.8,27.539,5.2,4.1,34.378-32.289,34.378-32.289s14.587-30,3.262-40.7" transform="translate(-41.491 -82.239)" fill="#2b454e"/>
                <path id="Trazado_892595" data-name="Trazado 892595" d="M89.9,286.6c1.23-1.263,2.625-2.765,4.093-4.385,7.217-8.634,20.265-21.3,20.265-21.3a89.808,89.808,0,0,0,3.553-8.568c-4.785,2.556-23.858,12-29.41,16.375-6.028,4.753-6.7,9.047-8.327,13.977Z" transform="translate(-43.756 -105.223)" fill="#1a2e35"/>
                <path id="Trazado_892596" data-name="Trazado 892596" d="M96.206,271.82c-6.444-.788-19.528,5.4-22.342,9.624s-1.407,7.738-2.252,10.411-1.2,7.6,1.513,10.27,10.757,5.571,18.48-.661Z" transform="translate(-39.971 -113.313)" fill="#1a2e35"/>
                <path id="Trazado_892597" data-name="Trazado 892597" d="M112.384,243.943c5.791-2.937,7.806-3.769,12.01-7.961,4.306-4.3,7.918-6.331,10.893-8.386s4.91-5.548,6.531-7.024c1.126-1.024,2.554.83,2.143,3.529-.284,1.863-1.707,4.014-3.677,6.126-1.989,2.133-.932,1.881,1.508,1.55a85.6,85.6,0,0,1,13.388-.008c2.456.367,4.83,1.254,4.446,2.813,0,0,3.936-.365,4.142,1.707s-2.783,3.566-2.783,3.566.148,1.732-2.9,2.765c-1.716.582-6.91,1.344-8.765,1.823-2.113.545-4.372,1.364-4.372,1.364s6.877-.3,9.068-.006c2.487.329,2.151,2.072-.733,3.242s-11.2,1.15-13.669,2.153-4.653,1.441-9.455,1.981a9.932,9.932,0,0,0-6.65,3.394c-2.906,3.027-15.877,13.7-19.2,17.185a25.979,25.979,0,0,1-12.634,7.083c-6.4,1.731-11.809.049-12.993-1.141-1.3-1.308-1.836-5.2.839-11.39,3.525-8.148,5.291-9.695,11.094-13.369,6.408-4.057,18.655-9.418,21.762-10.994" transform="translate(-42.729 -91.853)" fill="#dd8669"/>
                <path id="Trazado_892598" data-name="Trazado 892598" d="M182.463,232.954c-1.2,1.291-1.287,1.707-.627,1.761-.947.051-2.842.4-3.05-.358s1.648-1.828,3.5-3.114a12.88,12.88,0,0,0,3.853-4.415c-.283,1.862-1.707,4.013-3.676,6.125" transform="translate(-84.907 -94.581)" fill="#c66150"/>
                <path id="Trazado_892599" data-name="Trazado 892599" d="M203.434,244.617c-3.082-.452-8.372-.209-11.462-.094a34.2,34.2,0,0,0-4.7.642,45.164,45.164,0,0,0-4.6,1.124q2.351-.059,4.675-.285c1.547-.121,3.1-.342,4.6-.4,1.561-.082,5.264-.3,6.816-.456,1.552-.138,3.1-.353,4.661-.536" transform="translate(-86.537 -101.889)" fill="#c66150"/>
                <path id="Trazado_892600" data-name="Trazado 892600" d="M205.035,252.763a1.136,1.136,0,0,0-.117-.625,1.239,1.239,0,0,0-.492-.444,3.986,3.986,0,0,0-1.265-.366,15.007,15.007,0,0,0-2.592-.051c-1.7.075-5.554.3-7.26.49-.852.108-1.707.213-2.566.378-.877.169-1.708.417-2.523.637-1.657.434-3.315.911-4.963,1.448,1.711-.128,3.412-.329,5.106-.626.862-.13,1.688-.351,2.5-.45.827-.121,1.668-.223,2.51-.309,1.684-.2,5.533-.474,7.228-.712a23.575,23.575,0,0,1,2.5-.261c.78-.034,1.771-.011,1.937.891" transform="translate(-86.778 -104.762)" fill="#c66150"/>
                <path id="Trazado_892601" data-name="Trazado 892601" d="M184.5,263.127s2.793-.6,4.384-1.006,6.8-.94,6.8-.94c-.431.074-1.442.221-1.8.312-2.114.545-4.372,1.365-4.372,1.365a46.986,46.986,0,0,0-5.02.269" transform="translate(-87.296 -108.905)" fill="#c66150"/>
                <path id="Trazado_892602" data-name="Trazado 892602" d="M167.527,126.938c-.867-5.819-6.514-11.986-9.01-17.094-2.407-4.925-3.822-8.737-3.446-13.314.223-2.711,2.008-6.355,4.037-7.086-2.125-10.135,5.436-14.027,8.864-15.151,1.507-.494,4.823-1.24,6.31-1.827,2.2-.869,2.734-2.618,4.527-4.078,3.086-2.515,8.2-2.47,10.064,1.469,2.072-2.571,4.81-2.448,7.958-1.579a5.4,5.4,0,0,1,4.018,6.191c4.278-2.282,8.1.784,8.438,3.28.25,1.841-.173,3.381,1,5.05,1.315,1.88,3.873,1.9,4.679.42.385,2.615-.673,4.581-3.5,4.38a5.921,5.921,0,0,1,.636,4.99,5.4,5.4,0,0,1-4.96,3.628c-.329,1.425-.416,2.734-1.34,3.949a9.348,9.348,0,0,1-3.389,2.934c-4.321,1.954-9.069,2.521-13.7,3.382l-5.5,1.023c-.32.059-1.974.126-2.176.406l-13.514,19.031" transform="translate(-75.001 -27.799)" fill="#1a2e35"/>
                <path id="Trazado_892603" data-name="Trazado 892603" d="M161.368,132.863c4.027,2.517,6.842-.062,6.842-.062l-.891,18.492c3.11,5.475,9.879,13.943,18.419,13.624s7.543-7.735,5.345-12.8l.3-5.515a55.813,55.813,0,0,0,6.9-.167c4.558-.531,8.054-4.148,9.452-9.046a51.175,51.175,0,0,0,.954-19.5,17.023,17.023,0,0,1-.149-4.78c.524-4.22-.187-6.7-1.208-10.27-4.921-4.133-16.463-5.739-27.386.6,1.116,6.445-1.483,11.482-6.2,13.834.183,1.737.31,6.122-2.538,5.983-2.051-.1-2.136-2.678-4.2-4.989-2.1-2.359-6.969-3.021-8.941.285-2.759,4.625-1.119,11.551,3.292,14.309" transform="translate(-75.714 -41.366)" fill="#dd8669"/>
                <path id="Trazado_892604" data-name="Trazado 892604" d="M210.068,155.98a4.3,4.3,0,0,1,.8-.333,4.078,4.078,0,0,1,1.406-.008,13.755,13.755,0,0,1,1.7.263,12.148,12.148,0,0,1,1.649.484,10.9,10.9,0,0,1,1.095.486,1.564,1.564,0,0,1,.595.433.42.42,0,0,1-.381.624,14.912,14.912,0,0,1-1.9-.557,15.946,15.946,0,0,0-1.636-.395,13.617,13.617,0,0,0-1.669-.209,3.367,3.367,0,0,1-1.767-.388c-.142-.1,0-.344.108-.4" transform="translate(-97.887 -64.873)" fill="#c66150"/>
                <path id="Trazado_892605" data-name="Trazado 892605" d="M208.9,115.941l-4.7,1.6a2.6,2.6,0,0,1,1.6-3.225,2.419,2.419,0,0,1,3.092,1.629" transform="translate(-95.464 -47.611)" fill="#1a2e35"/>
                <path id="Trazado_892606" data-name="Trazado 892606" d="M236.607,115.852l-4.033,2.951a2.4,2.4,0,0,1,.453-3.452,2.625,2.625,0,0,1,3.58.5" transform="translate(-107.119 -47.894)" fill="#1a2e35"/>
                <path id="Trazado_892607" data-name="Trazado 892607" d="M185.716,123.993l-12.83,3.84a5.5,5.5,0,0,1,1.931,2.241l11.366-3.586Z" transform="translate(-82.454 -51.702)" fill="#2b454e"/>
                <path id="Trazado_892608" data-name="Trazado 892608" d="M225.3,118.562c-.286-.012-.584-.021-.892-.024-2.873-.043-6.587.224-8.738,1.144-2.7,1.162-3.587,2.255-5.145,2.415-1.667.154-2.821-.744-5.906-1.345-2.451-.472-6.412,0-9.428.619-.324.066-.638.135-.937.2a1.608,1.608,0,0,0-.929,1.736,3.705,3.705,0,0,0,1.049,1.825,2.364,2.364,0,0,1,.369.744c.426,1.307.826,3.871,1.572,5.255a6.768,6.768,0,0,0,1.382,1.834,5.241,5.241,0,0,0,.674.518c.126.078.251.152.384.224a5.42,5.42,0,0,0,1.126.443c.063.017.125.034.187.046.1.021.2.044.3.063s.2.033.307.05a6.864,6.864,0,0,0,.97.066c.133,0,.271,0,.412,0,.164-.009.337-.019.514-.036,3.959-.369,5.414-2.536,6.185-4.686.768-2.13.227-4.962,2.021-5.129a1.338,1.338,0,0,1,.172-.006,1.032,1.032,0,0,1,.161.012c1.36.2,1.48,2.828,2.528,4.649a8.141,8.141,0,0,0,1.516,1.966c.111.1.223.2.343.294.06.049.12.094.181.137s.124.089.188.131.113.075.171.11c.1.059.142.085.184.108s.1.053.145.077c.032.019.066.036.1.053a5.706,5.706,0,0,0,1.65.519l.15.022a7.979,7.979,0,0,0,1.948.018,5.364,5.364,0,0,0,5.081-4.307,35.2,35.2,0,0,0,.408-5.438,1.585,1.585,0,0,1,.237-.724,3.553,3.553,0,0,0,.555-2.013c-.069-.84-.7-1.548-1.192-1.569m-17.753,9.271a6.227,6.227,0,0,1-1.084,2.979h0a5.381,5.381,0,0,1-4.144,2.058,4.682,4.682,0,0,1-4.307-1.693c-.052-.064-.1-.129-.148-.192s-.094-.128-.136-.192-.08-.12-.117-.181-.067-.11-.1-.164-.052-.087-.074-.131-.045-.079-.064-.118c-.034-.065-.068-.132-.1-.2v0q-.145-.3-.252-.578s0-.008-.006-.014c-.046-.119-.089-.236-.129-.348-.071-.2-.129-.394-.18-.561-.01-.037-.021-.074-.031-.108l-.031-.1c-.412-1.388-.981-4.116-.362-4.8.6-.657,2.326-1.492,5.23-1.477.1-.005.2,0,.31,0a11.959,11.959,0,0,1,1.337.108c.176.023.35.051.522.082a11.356,11.356,0,0,1,1.324.312c.142.043.279.087.409.133.156.053.3.111.445.171.03.012.06.024.09.039a1.457,1.457,0,0,1,.164.076,2.707,2.707,0,0,1,.936.648c.663.8.67,2.643.5,4.251m16.892-2.252c-.081,1.125-.255,3.57-2.171,4.826a4.762,4.762,0,0,1-2.117.719,4.816,4.816,0,0,1-4.628-1.722.16.16,0,0,1-.014-.02c-.035-.042-.066-.083-.1-.123s-.073-.1-.1-.144c-.018-.023-.036-.05-.053-.075-.047-.071-.1-.144-.138-.215s-.1-.166-.146-.253c-.024-.04-.046-.081-.068-.122l-.034-.069c-.019-.036-.035-.07-.051-.1s-.028-.056-.038-.08a7.85,7.85,0,0,1-.4-1.032c-.472-1.543-.831-3.347-.382-4.258s2.464-2.049,4.474-2.511a12.1,12.1,0,0,1,1.308-.23l.156-.017.169-.016c.156-.015.311-.023.459-.031.056,0,.111-.005.167-.006.075,0,.149,0,.219,0,.124,0,.246,0,.364.008a6.588,6.588,0,0,1,.677.059c.054.008.109.016.162.025a.172.172,0,0,1,.042.006c.035.006.072.011.11.02.055.008.113.022.165.033.068.013.136.031.2.047a3.4,3.4,0,0,1,.329.1.438.438,0,0,1,.059.02,2.691,2.691,0,0,1,.77.4c.7.552.71,3.333.61,4.767" transform="translate(-90.971 -49.425)" fill="#2b454e"/>
                <path id="Trazado_892609" data-name="Trazado 892609" d="M229.878,138.374l-6.912,3.424-2.178-10.884c.189-1.138.457-2.026,1.442-2.106a.671.671,0,0,1,.168-.005.31.31,0,0,1,.168.01.635.635,0,0,1,.242.06c.1.1.233.2.349.312a2.462,2.462,0,0,1,.289.293,20.35,20.35,0,0,1,2.048,2.434c.738.993,1.5,2.1,2.26,3.243.339.495.661,1,.984,1.514.1.143.183.271.282.415.28.445.577.861.859,1.291" transform="translate(-102.427 -53.704)" fill="#c66150"/>
                <path id="Trazado_892610" data-name="Trazado 892610" d="M201.532,169.178c-7.193-1-12.658-1.893-16.307-7.195a45.109,45.109,0,0,1-4.173-8.637s.608,6.4,2.874,10.777c1.746,3.372,6.144,7.037,17.43,8.241Z" transform="translate(-85.859 -63.941)" fill="#c66150"/>
                <path id="Trazado_892611" data-name="Trazado 892611" d="M211.73,133.237a2.031,2.031,0,1,1-2.087-2.059,2.063,2.063,0,0,1,2.087,2.059" transform="translate(-96.958 -54.698)" fill="#1a2e35"/>
                <path id="Trazado_892612" data-name="Trazado 892612" d="M237.963,130.879a2.031,2.031,0,1,1-1.9-2.233,2.063,2.063,0,0,1,1.9,2.233" transform="translate(-107.898 -53.641)" fill="#1a2e35"/>
                <path id="Trazado_892613" data-name="Trazado 892613" d="M139.7,163.383l-1.2-2.152c-.89-1.594-1.778-3.189-2.681-4.777-1.789-3.145-3.438-6.581-5.734-9.39-.246-.3-1.086-.406-.9.2a29.96,29.96,0,0,0,2.292,4.951c.824,1.6,1.7,3.173,2.562,4.756q1.307,2.412,2.637,4.812l1.37,2.486c.454.824.628,1.442,1.649,1.492a.508.508,0,0,0,.5-.2c.442-.877-.05-1.384-.494-2.178" transform="translate(-64.22 -61.221)" fill="#e1e1e1"/>
                <path id="Trazado_892614" data-name="Trazado 892614" d="M128.234,172.527c-.2-.589-.737-.863-1.233-1.177-.533-.336-1.066-.672-1.609-.993q-1.761-1.043-3.556-2.032c-1.143-.627-2.3-1.206-3.478-1.77a15.93,15.93,0,0,0-3.683-1.474.587.587,0,0,0-.553.992,15.6,15.6,0,0,0,3.1,1.933q1.5.877,3,1.746,1.678.972,3.322,2l1.428.9q.3.191.605.384l.4.258q.288.265.163.042a1.127,1.127,0,0,0,2.09-.806" transform="translate(-57.873 -68.829)" fill="#e1e1e1"/>
                <path id="Trazado_892615" data-name="Trazado 892615" d="M123,184.784c-.814-.589-2.109-.539-3.068-.673-1.246-.175-2.491-.353-3.738-.522-1.347-.184-2.7-.324-4.05-.492a21.214,21.214,0,0,0-3.737-.289c-.728.04-.317.879.088,1.056a15.594,15.594,0,0,0,3.487.781c1.2.216,2.406.44,3.611.641,1.181.2,2.366.374,3.549.56l1.7.267c.624.1,1.136.383,1.757.436a.534.534,0,0,0,.512-.227l.17-.248a.893.893,0,0,0-.285-1.288" transform="translate(-55.402 -76.22)" fill="#e1e1e1"/>
                <path id="Trazado_892616" data-name="Trazado 892616" d="M347.839,43.335c-41.216-2.1-58.022,10.244-61.167,25.836A28.183,28.183,0,0,0,288.2,86.465l-10.142,14.542,19.969-4.2a58.029,58.029,0,0,0,15.489,5.689c19.143,3.05,50.31,3.011,65.768-9.7a27.558,27.558,0,0,0,5.912-6.611c6.183-9.773,9.49-40.462-37.36-42.847" transform="translate(-126.309 -17.973)" fill="#d268cc"/>
                <path id="Trazado_892617" data-name="Trazado 892617" d="M391.815,46.1c-21.3,2.541-33.684,10.91-37.688,26.852-3.815,15.19,7.872,26.947,29.95,31.246,10.318-1.532,19.944-4.656,26.63-10.152a27.6,27.6,0,0,0,5.912-6.612c5.566-8.8,8.794-34.546-24.8-41.334" transform="translate(-157.728 -19.221)" fill="#fff"/>
                <path id="Trazado_892618" data-name="Trazado 892618" d="M387.167,107.71a17.917,17.917,0,0,1-2.927-35.589,18.129,18.129,0,0,1,2.966-.247,17.917,17.917,0,0,1,2.91,35.591,18.009,18.009,0,0,1-2.948.245m.02-35.361a17.432,17.432,0,0,0-14.193,7.3,17.434,17.434,0,0,0,14.181,27.586A17.672,17.672,0,0,0,390.04,107a17.445,17.445,0,0,0-2.853-34.652" transform="translate(-164.334 -29.97)" fill="#375a64"/>
                <path id="Trazado_892619" data-name="Trazado 892619" d="M398.78,107.583a18,18,0,0,1-2.941-35.76,18.27,18.27,0,0,1,2.983-.25,18,18,0,0,1,2.919,35.763,18.064,18.064,0,0,1-2.962.247m.037-35.535a17.609,17.609,0,0,0-2.9.24,17.53,17.53,0,0,0,2.87,34.822,17.527,17.527,0,0,0,17.3-20.406,17.563,17.563,0,0,0-17.264-14.656" transform="translate(-169.142 -29.845)" fill="#375a64"/>
                <path id="Trazado_892620" data-name="Trazado 892620" d="M411.759,106.193a18,18,0,0,1-2.942-35.76,18.166,18.166,0,0,1,2.981-.248,18,18,0,0,1,2.922,35.761,18.151,18.151,0,0,1-2.961.247m.036-35.535a17.706,17.706,0,0,0-2.9.24,17.53,17.53,0,0,0,2.864,34.822,17.534,17.534,0,0,0,17.3-20.406,17.563,17.563,0,0,0-17.265-14.656" transform="translate(-174.553 -29.266)" fill="#375a64"/>
                <path id="Trazado_892621" data-name="Trazado 892621" d="M388.043,97.7a18,18,0,0,1-2.924-35.762,18.146,18.146,0,0,1,2.968-.247,18,18,0,0,1,2.934,35.761,18.362,18.362,0,0,1-2.979.248m.036-35.536a17.594,17.594,0,0,0-2.884.239,17.533,17.533,0,0,0,2.851,34.826,17.8,17.8,0,0,0,2.9-.241,17.531,17.531,0,0,0-2.869-34.824" transform="translate(-164.672 -25.723)" fill="#375a64"/>
                <path id="Trazado_892622" data-name="Trazado 892622" d="M393.2,98.835a18,18,0,0,1-2.923-35.762,18.173,18.173,0,0,1,2.983-.248,18,18,0,0,1,2.92,35.761,18.189,18.189,0,0,1-2.98.25m.054-35.537a17.523,17.523,0,0,0-10.215,31.784,17.381,17.381,0,0,0,10.166,3.28,17.669,17.669,0,0,0,2.9-.24,17.533,17.533,0,0,0-2.85-34.824" transform="translate(-166.824 -26.197)" fill="#375a64"/>
                <path id="Trazado_892623" data-name="Trazado 892623" d="M400.182,106.9a10.624,10.624,0,0,1-1.724-21.1,10.741,10.741,0,0,1,1.751-.146,10.625,10.625,0,0,1-.027,21.25m.013-20.775a10.385,10.385,0,0,0-1.662.135,10.154,10.154,0,0,0,1.652,20.168,10.351,10.351,0,0,0,1.679-.139A10.151,10.151,0,0,0,400.2,86.121" transform="translate(-172.807 -35.712)" fill="#375a64"/>
                <path id="Trazado_892624" data-name="Trazado 892624" d="M408.561,94.022a10.624,10.624,0,0,1-1.735-21.1,10.825,10.825,0,0,1,1.761-.147,10.625,10.625,0,0,1-.026,21.249m.017-20.776a10.253,10.253,0,0,0-1.677.138,10.127,10.127,0,1,0,1.677-.138" transform="translate(-176.295 -30.345)" fill="#375a64"/>
                <path id="Trazado_892625" data-name="Trazado 892625" d="M404.657,97.019a10.624,10.624,0,0,1-1.724-21.1,10.727,10.727,0,0,1,1.76-.146,10.647,10.647,0,0,1,10.461,8.882,10.639,10.639,0,0,1-10.5,12.367m.032-20.777a10.371,10.371,0,0,0-1.681.138,10.154,10.154,0,0,0,1.652,20.168,10.37,10.37,0,0,0,1.68-.139,10.153,10.153,0,0,0-1.651-20.167" transform="translate(-174.672 -31.594)" fill="#375a64"/>
                <path id="Trazado_892626" data-name="Trazado 892626" d="M413.011,86.813a10.659,10.659,0,1,1,1.758-.148,10.683,10.683,0,0,1-1.758.148m.024-20.776a10.387,10.387,0,0,0-1.67.136,10.153,10.153,0,0,0,1.653,20.166,10.4,10.4,0,0,0,1.677-.137,10.152,10.152,0,0,0-1.66-20.166" transform="translate(-178.156 -27.339)" fill="#375a64"/>
                <path id="Trazado_892627" data-name="Trazado 892627" d="M407.206,88.855a10.066,10.066,0,0,1-1.646-20,10.192,10.192,0,0,1,1.668-.14,10.067,10.067,0,0,1,1.633,20,10.1,10.1,0,0,1-1.655.138m.013-19.662a9.676,9.676,0,0,0-1.583.13,9.576,9.576,0,1,0,1.583-.13" transform="translate(-175.962 -28.654)" fill="#375a64"/>
                <path id="Trazado_892628" data-name="Trazado 892628" d="M390.917,91.255a10.644,10.644,0,1,1,1.747-.146,10.588,10.588,0,0,1-1.747.146m.012-20.775a10.234,10.234,0,0,0-1.673.138,10.152,10.152,0,0,0,1.66,20.165,10.137,10.137,0,0,0,8.26-4.249,10.147,10.147,0,0,0-8.248-16.054" transform="translate(-168.939 -29.191)" fill="#375a64"/>
                <path id="Trazado_892629" data-name="Trazado 892629" d="M398.15,91.677a18,18,0,0,1-2.944-35.76,18.181,18.181,0,0,1,2.983-.248,18,18,0,0,1-.039,36.007m.037-35.536a17.833,17.833,0,0,0-2.905.241,17.44,17.44,0,1,0,2.905-.241" transform="translate(-168.878 -23.213)" fill="#375a64"/>
                <path id="Trazado_892630" data-name="Trazado 892630" d="M409.749,94.09a18,18,0,0,1-2.942-35.761,18.182,18.182,0,0,1,2.983-.248,18,18,0,0,1,2.92,35.762,18.056,18.056,0,0,1-2.961.247m.032-35.536a17.542,17.542,0,0,0-17.315,20.408A17.467,17.467,0,0,0,409.75,93.617a17.528,17.528,0,0,0,17.3-20.407,17.563,17.563,0,0,0-17.268-14.656" transform="translate(-173.715 -24.219)" fill="#375a64"/>
                <path id="Trazado_892631" data-name="Trazado 892631" d="M795.5,419a4.609,4.609,0,0,0-1.521-1.133,4.785,4.785,0,0,0-3.639-.2,4.508,4.508,0,0,0-1.53.936,4.954,4.954,0,0,0-1.581,3.347,4.442,4.442,0,0,0,1.192,3.293,4.886,4.886,0,0,0,1.542,1.125,4.76,4.76,0,0,0,3.611.22,4.655,4.655,0,0,0,1.552-.909,4.726,4.726,0,0,0,1.3-5.137A4.977,4.977,0,0,0,795.5,419m20.6-24.27a11.14,11.14,0,0,0-2.546-3.569,15.472,15.472,0,0,0-4.158-2.793,18.178,18.178,0,0,0-3.515-1.263,17,17,0,0,0-3.3-.471,16.779,16.779,0,0,0-3.1.16,21.94,21.94,0,0,0-2.865.616l.461,3.777a1.705,1.705,0,0,0,1.069,1.541,1.991,1.991,0,0,0,1.127.1q.7-.1,1.687-.17a11.081,11.081,0,0,1,2.267.1,10.128,10.128,0,0,1,2.893.935,7.224,7.224,0,0,1,1.9,1.277,5.294,5.294,0,0,1,1.2,1.658,4.539,4.539,0,0,1,.4,1.884,4.638,4.638,0,0,1-.479,2,5.915,5.915,0,0,1-1.951,2.413,9.843,9.843,0,0,1-2.627,1.281,20.545,20.545,0,0,1-2.919.695,21.276,21.276,0,0,0-2.808.643,7.817,7.817,0,0,0-2.337,1.142,4.139,4.139,0,0,0-1.482,2.15l-1.695,4.831,4.774,2.255,2.6-3.818a3.21,3.21,0,0,1,1.629-1.217,18.108,18.108,0,0,1,2.4-.661l2.857-.6a13.019,13.019,0,0,0,3-1.038,11.592,11.592,0,0,0,2.841-1.992,11.128,11.128,0,0,0,2.375-3.422,10.743,10.743,0,0,0,1.091-4.356,9.529,9.529,0,0,0-.8-4.091" transform="translate(-338.613 -161.21)" fill="#f96e97"/>
                <path id="Trazado_892632" data-name="Trazado 892632" d="M471.7,332.667a4.782,4.782,0,0,0,2.213-2.895,4.527,4.527,0,0,0,.089-1.791,4.82,4.82,0,0,0-.625-1.771,4.758,4.758,0,0,0-1.251-1.421,4.441,4.441,0,0,0-3.391-.869,4.883,4.883,0,0,0-1.8.64,4.765,4.765,0,0,0-2.216,2.859,4.673,4.673,0,0,0-.122,1.794,4.726,4.726,0,0,0,3.51,3.97,4.973,4.973,0,0,0,1.8.1,4.594,4.594,0,0,0,1.793-.619M492,350.255a1.7,1.7,0,0,0-1.876.016,1.989,1.989,0,0,0-.718.875q-.315.638-.81,1.49a11.045,11.045,0,0,1-1.362,1.816,10.108,10.108,0,0,1-2.4,1.864,7.238,7.238,0,0,1-2.126.851,5.285,5.285,0,0,1-2.048.062,4.539,4.539,0,0,1-1.785-.727,4.62,4.62,0,0,1-1.385-1.523,5.908,5.908,0,0,1-.895-2.972,9.813,9.813,0,0,1,.42-2.892,20.551,20.551,0,0,1,1.07-2.8,21.43,21.43,0,0,0,1.05-2.682,7.826,7.826,0,0,0,.372-2.574,4.139,4.139,0,0,0-.942-2.436l-3.038-4.121-4.552,2.676,1.693,4.3a3.22,3.22,0,0,1,.089,2.031,18.276,18.276,0,0,1-.807,2.358q-.523,1.267-1.112,2.7a13.065,13.065,0,0,0-.83,3.06,11.57,11.57,0,0,0,.047,3.469,11.129,11.129,0,0,0,1.49,3.891,10.755,10.755,0,0,0,2.985,3.355,9.527,9.527,0,0,0,3.83,1.644,11.131,11.131,0,0,0,4.383-.093,15.467,15.467,0,0,0,4.65-1.863,18.131,18.131,0,0,0,3.023-2.193,17.022,17.022,0,0,0,2.249-2.463,16.8,16.8,0,0,0,1.613-2.651,21.8,21.8,0,0,0,1.1-2.715Z" transform="translate(-204.073 -135.044)" fill="#f96e97"/>
                <path id="Trazado_892633" data-name="Trazado 892633" d="M336.042,203.743a3.621,3.621,0,0,1,.25-2.278,20.488,20.488,0,0,1,1.3-2.489q.8-1.322,1.7-2.818a14.716,14.716,0,0,0,1.448-3.267,13.059,13.059,0,0,0,.543-3.873,12.549,12.549,0,0,0-.993-4.589,12.13,12.13,0,0,0-2.751-4.249,10.742,10.742,0,0,0-3.985-2.487,12.554,12.554,0,0,0-4.9-.647,17.452,17.452,0,0,0-5.5,1.279,20.508,20.508,0,0,0-3.743,1.925,19.243,19.243,0,0,0-2.927,2.358,18.892,18.892,0,0,0-2.25,2.677,24.576,24.576,0,0,0-1.7,2.835l3.468,2.524a1.92,1.92,0,0,0,2.092.3,2.239,2.239,0,0,0,.949-.852q.461-.656,1.157-1.521a12.513,12.513,0,0,1,1.828-1.789,11.374,11.374,0,0,1,2.994-1.665,8.137,8.137,0,0,1,2.515-.584,5.955,5.955,0,0,1,2.292.282,5.128,5.128,0,0,1,1.864,1.115,5.226,5.226,0,0,1,1.281,1.934,6.658,6.658,0,0,1,.488,3.464,11.078,11.078,0,0,1-.964,3.15,23.153,23.153,0,0,1-1.672,2.94,24.089,24.089,0,0,0-1.63,2.808,8.823,8.823,0,0,0-.855,2.8,4.663,4.663,0,0,0,.632,2.874l2.678,5.112,5.53-2.2Zm6.511,12.932a5.31,5.31,0,0,0-2.849-2.922,5.614,5.614,0,0,0-1.987-.422,5.2,5.2,0,0,0-2.1.382,5.393,5.393,0,0,0-2.961,2.846,5.079,5.079,0,0,0-.405,1.98,5.577,5.577,0,0,0,1.543,3.877,5.009,5.009,0,0,0,3.629,1.55,5.521,5.521,0,0,0,2.114-.4,5.368,5.368,0,0,0,2.957-2.807,5.248,5.248,0,0,0,.444-1.977,5.174,5.174,0,0,0-.382-2.1" transform="translate(-140.686 -73.814)" fill="#f96e97"/>
                <path id="Trazado_892634" data-name="Trazado 892634" d="M738.009,53.032a3.783,3.783,0,0,1-1.822,1.546,21.409,21.409,0,0,1-2.772.951l-3.308.915a15.316,15.316,0,0,0-3.439,1.436,13.607,13.607,0,0,0-3.187,2.544,13.066,13.066,0,0,0-2.537,4.187,12.621,12.621,0,0,0-.963,5.19,11.2,11.2,0,0,0,1.235,4.741,13.079,13.079,0,0,0,3.246,4,18.2,18.2,0,0,0,5.081,2.974,21.378,21.378,0,0,0,4.215,1.225,20.038,20.038,0,0,0,3.907.312,19.694,19.694,0,0,0,3.624-.414,25.691,25.691,0,0,0,3.317-.931l-.817-4.4a2,2,0,0,0-1.367-1.73,2.344,2.344,0,0,0-1.329-.036q-.819.167-1.967.322a13.008,13.008,0,0,1-2.667.044A11.886,11.886,0,0,1,733,75.028a8.506,8.506,0,0,1-2.323-1.36,6.213,6.213,0,0,1-1.534-1.857,5.339,5.339,0,0,1-.612-2.181,5.448,5.448,0,0,1,.416-2.383,6.94,6.94,0,0,1,2.113-2.973,11.55,11.55,0,0,1,2.988-1.694,24.057,24.057,0,0,1,3.373-1.028,25.17,25.17,0,0,0,3.247-.959,9.184,9.184,0,0,0,2.657-1.511,4.862,4.862,0,0,0,1.582-2.63l1.636-5.791-5.766-2.3Zm14.663-14.578a5.311,5.311,0,0,0-1.21-1.727,5.744,5.744,0,0,0-1.89-1.208,5.6,5.6,0,0,0-4.252.005,5.483,5.483,0,0,0-1.754,1.179,5.558,5.558,0,0,0-1.155,6.121,5.864,5.864,0,0,0,1.2,1.744,5.414,5.414,0,0,0,1.866,1.218,5.625,5.625,0,0,0,4.283-.033,5.32,5.32,0,0,0,1.726-1.209A5.821,5.821,0,0,0,753.1,40.5a5.352,5.352,0,0,0-.429-2.049" transform="translate(-310.572 -14.637)" fill="#f96e97"/>
                <path id="Trazado_892635" data-name="Trazado 892635" d="M804.063,265.443a5.556,5.556,0,0,0-4.012-4.764,5.852,5.852,0,0,0-2.112-.171,5.4,5.4,0,0,0-2.124.676,5.627,5.627,0,0,0-2.682,3.34,5.3,5.3,0,0,0-.155,2.1,5.819,5.819,0,0,0,2.113,3.8,5.218,5.218,0,0,0,3.961,1.118,5.737,5.737,0,0,0,2.131-.7,5.6,5.6,0,0,0,2.684-3.3,5.466,5.466,0,0,0,.195-2.1m-9.137-14.628a3.778,3.778,0,0,1-.047-2.389,21.358,21.358,0,0,1,1.016-2.748q.65-1.474,1.382-3.142a15.321,15.321,0,0,0,1.062-3.573,13.584,13.584,0,0,0,.043-4.078,13.067,13.067,0,0,0-1.64-4.613,12.649,12.649,0,0,0-3.412-4.027,11.211,11.211,0,0,0-4.454-2.04,13.093,13.093,0,0,0-5.153-.015,18.206,18.206,0,0,0-5.516,2.058,21.333,21.333,0,0,0-3.614,2.492,19.977,19.977,0,0,0-2.712,2.83,19.726,19.726,0,0,0-1.971,3.069,25.752,25.752,0,0,0-1.375,3.158l3.924,2.147a2,2,0,0,0,2.2.034,2.332,2.332,0,0,0,.868-1.007q.388-.74.993-1.728a13.065,13.065,0,0,1,1.652-2.094,11.871,11.871,0,0,1,2.874-2.122,8.49,8.49,0,0,1,2.523-.94,6.2,6.2,0,0,1,2.408-.015,5.348,5.348,0,0,1,2.077.9,5.455,5.455,0,0,1,1.584,1.829,6.948,6.948,0,0,1,.967,3.517,11.538,11.538,0,0,1-.576,3.386,24.038,24.038,0,0,1-1.336,3.264,25.145,25.145,0,0,0-1.31,3.122,9.211,9.211,0,0,0-.51,3.014A4.867,4.867,0,0,0,787.915,254l3.453,4.929,5.425-3.015Z" transform="translate(-330.821 -93.377)" fill="#f96e97"/>
                <path id="Trazado_892636" data-name="Trazado 892636" d="M761.182,372.621a1.461,1.461,0,0,0-.824.1q-.49.18-1.184.384a8.1,8.1,0,0,1-1.642.279,7.419,7.419,0,0,1-2.22-.22,5.286,5.286,0,0,1-1.563-.62,3.877,3.877,0,0,1-1.122-1,3.33,3.33,0,0,1-.583-1.289,3.4,3.4,0,0,1,.031-1.511,4.341,4.341,0,0,1,1.024-2.034,7.228,7.228,0,0,1,1.685-1.328,15.081,15.081,0,0,1,1.985-.952,15.708,15.708,0,0,0,1.915-.9,5.741,5.741,0,0,0,1.5-1.183,3.038,3.038,0,0,0,.729-1.772l.464-3.729-3.776-.875-1.269,3.142a2.359,2.359,0,0,1-.979,1.126,13.306,13.306,0,0,1-1.621.848q-.918.41-1.956.877a9.55,9.55,0,0,0-1.988,1.21,8.469,8.469,0,0,0-1.727,1.871,8.154,8.154,0,0,0-1.172,2.824,7.882,7.882,0,0,0-.1,3.294,7,7,0,0,0,1.209,2.81,8.192,8.192,0,0,0,2.381,2.164,11.385,11.385,0,0,0,3.417,1.357,13.374,13.374,0,0,0,2.718.359,12.5,12.5,0,0,0,2.441-.175,12.341,12.341,0,0,0,2.2-.6,15.964,15.964,0,0,0,1.96-.887l-.919-2.638a1.251,1.251,0,0,0-1.006-.939m3.285-22.659a3.263,3.263,0,0,0-1.367-2.176,3.583,3.583,0,0,0-1.281-.567,3.491,3.491,0,0,0-2.624.4,3.411,3.411,0,0,0-.971.893,3.469,3.469,0,0,0-.136,3.886,3.654,3.654,0,0,0,.907.964,3.39,3.39,0,0,0,1.267.576,3.511,3.511,0,0,0,2.641-.424,3.321,3.321,0,0,0,.952-.909,3.643,3.643,0,0,0,.613-2.647" transform="translate(-321.699 -144.739)" fill="#f96e97"/>
                <path id="Trazado_892637" data-name="Trazado 892637" d="M425.571,289.429a3.655,3.655,0,0,0-.912-.958,3.374,3.374,0,0,0-1.27-.57,3.516,3.516,0,0,0-2.638.437,3.315,3.315,0,0,0-.947.914,3.631,3.631,0,0,0-.6,2.65,3.344,3.344,0,0,0,.464,1.222,3.3,3.3,0,0,0,.914.947,3.592,3.592,0,0,0,1.284.561,3.5,3.5,0,0,0,2.622-.417,3.416,3.416,0,0,0,.967-.9,3.362,3.362,0,0,0,.57-1.27,3.455,3.455,0,0,0-.452-2.618m11.21-18.821a6.989,6.989,0,0,0-1.223-2.8,8.176,8.176,0,0,0-2.392-2.153,11.362,11.362,0,0,0-3.424-1.34,13.335,13.335,0,0,0-2.719-.345,12.467,12.467,0,0,0-2.44.188,12.3,12.3,0,0,0-2.2.608,16.005,16.005,0,0,0-1.955.9l.932,2.633a1.251,1.251,0,0,0,1.011.934,1.461,1.461,0,0,0,.823-.107q.489-.183,1.182-.391a8.122,8.122,0,0,1,1.641-.286,7.4,7.4,0,0,1,2.221.209,5.284,5.284,0,0,1,1.565.613,3.871,3.871,0,0,1,1.126,1,3.337,3.337,0,0,1,.59,1.286,3.409,3.409,0,0,1-.025,1.511,4.335,4.335,0,0,1-1.014,2.039,7.2,7.2,0,0,1-1.679,1.336,15.048,15.048,0,0,1-1.981.963,15.734,15.734,0,0,0-1.91.907,5.745,5.745,0,0,0-1.492,1.191,3.037,3.037,0,0,0-.72,1.776L422.26,285l3.78.856,1.254-3.148a2.356,2.356,0,0,1,.973-1.132,13.409,13.409,0,0,1,1.617-.856l1.951-.886a9.562,9.562,0,0,0,1.982-1.221,8.5,8.5,0,0,0,1.718-1.879,8.179,8.179,0,0,0,1.158-2.829,7.892,7.892,0,0,0,.089-3.295" transform="translate(-185.14 -110.066)" fill="#f96e97"/>
                <path id="Trazado_892638" data-name="Trazado 892638" d="M343.825,358.83a1.461,1.461,0,0,0-.823.107q-.489.183-1.181.391a8.161,8.161,0,0,1-1.641.287,7.428,7.428,0,0,1-2.221-.209,5.293,5.293,0,0,1-1.565-.613,3.872,3.872,0,0,1-1.126-1,3.337,3.337,0,0,1-.59-1.286A3.407,3.407,0,0,1,334.7,355a4.34,4.34,0,0,1,1.014-2.039,7.2,7.2,0,0,1,1.679-1.336,15.056,15.056,0,0,1,1.981-.963,15.679,15.679,0,0,0,1.909-.907,5.741,5.741,0,0,0,1.493-1.191,3.037,3.037,0,0,0,.72-1.776l.445-3.731-3.78-.856-1.253,3.148a2.36,2.36,0,0,1-.974,1.132,13.312,13.312,0,0,1-1.617.856l-1.951.887a9.573,9.573,0,0,0-1.982,1.22,8.51,8.51,0,0,0-1.718,1.879,8.164,8.164,0,0,0-1.157,2.829,7.894,7.894,0,0,0-.089,3.295,7,7,0,0,0,1.223,2.8,8.186,8.186,0,0,0,2.392,2.153,11.362,11.362,0,0,0,3.424,1.34,13.342,13.342,0,0,0,2.719.345,12.474,12.474,0,0,0,2.441-.188,12.31,12.31,0,0,0,2.194-.608,16,16,0,0,0,1.955-.9l-.932-2.633a1.252,1.252,0,0,0-1.012-.934M347,336.155a3.261,3.261,0,0,0-1.378-2.169,3.593,3.593,0,0,0-1.284-.561,3.5,3.5,0,0,0-2.622.418,3.412,3.412,0,0,0-.967.9,3.47,3.47,0,0,0-.117,3.888,3.642,3.642,0,0,0,.911.958,3.374,3.374,0,0,0,1.27.57,3.511,3.511,0,0,0,2.638-.437,3.308,3.308,0,0,0,.947-.914,3.631,3.631,0,0,0,.6-2.65" transform="translate(-147.668 -138.989)" fill="#f96e97"/>
                <path id="Trazado_892639" data-name="Trazado 892639" d="M805.454,122.737a3.653,3.653,0,0,0-.907-.964,3.38,3.38,0,0,0-1.267-.576,3.511,3.511,0,0,0-2.641.424,3.316,3.316,0,0,0-.952.909,3.634,3.634,0,0,0-.613,2.647,3.265,3.265,0,0,0,1.367,2.176,3.592,3.592,0,0,0,1.281.567,3.5,3.5,0,0,0,2.624-.4,3.41,3.41,0,0,0,.971-.893,3.469,3.469,0,0,0,.137-3.886m11.3-18.766a7,7,0,0,0-1.209-2.81A8.178,8.178,0,0,0,813.167,99a11.358,11.358,0,0,0-3.417-1.357,13.37,13.37,0,0,0-2.717-.359,12.508,12.508,0,0,0-2.442.175,12.327,12.327,0,0,0-2.2.6,15.967,15.967,0,0,0-1.96.887l.919,2.638a1.25,1.25,0,0,0,1.006.939,1.456,1.456,0,0,0,.824-.1q.49-.18,1.184-.384a8.1,8.1,0,0,1,1.642-.279,7.424,7.424,0,0,1,2.22.22,5.289,5.289,0,0,1,1.562.62,3.877,3.877,0,0,1,1.122,1,3.339,3.339,0,0,1,.584,1.288,3.406,3.406,0,0,1-.033,1.511,4.335,4.335,0,0,1-1.024,2.034,7.209,7.209,0,0,1-1.684,1.327,15.042,15.042,0,0,1-1.985.953,15.652,15.652,0,0,0-1.914.9,5.753,5.753,0,0,0-1.5,1.183,3.037,3.037,0,0,0-.729,1.772l-.464,3.729,3.775.875,1.269-3.142a2.359,2.359,0,0,1,.979-1.126,13.289,13.289,0,0,1,1.621-.848q.919-.41,1.956-.877a9.551,9.551,0,0,0,1.988-1.21,8.484,8.484,0,0,0,1.728-1.871,8.156,8.156,0,0,0,1.172-2.824,7.894,7.894,0,0,0,.1-3.294" transform="translate(-343.535 -40.563)" fill="#f96e97"/>
                <path id="Trazado_892640" data-name="Trazado 892640" d="M79.56,407.293a12.248,12.248,0,0,0-2.8-3.923,17.028,17.028,0,0,0-4.57-3.07,19.972,19.972,0,0,0-3.863-1.388,18.737,18.737,0,0,0-3.628-.518,18.492,18.492,0,0,0-3.406.176,24.084,24.084,0,0,0-3.15.677l.508,4.151a1.873,1.873,0,0,0,1.175,1.694,2.181,2.181,0,0,0,1.238.11q.774-.108,1.854-.187a12.181,12.181,0,0,1,2.492.113,11.1,11.1,0,0,1,3.179,1.027,7.929,7.929,0,0,1,2.09,1.4A5.788,5.788,0,0,1,72,409.383a4.985,4.985,0,0,1,.445,2.071,5.1,5.1,0,0,1-.526,2.2,6.492,6.492,0,0,1-2.145,2.652,10.787,10.787,0,0,1-2.887,1.408,22.533,22.533,0,0,1-3.208.764,23.554,23.554,0,0,0-3.087.707,8.6,8.6,0,0,0-2.568,1.256A4.548,4.548,0,0,0,56.4,422.8l-1.863,5.31,5.248,2.478,2.855-4.2a3.534,3.534,0,0,1,1.79-1.338,20.033,20.033,0,0,1,2.642-.726l3.141-.662a14.339,14.339,0,0,0,3.293-1.141,12.729,12.729,0,0,0,3.122-2.189,12.234,12.234,0,0,0,2.611-3.761,11.817,11.817,0,0,0,1.2-4.787,10.49,10.49,0,0,0-.878-4.5M56.918,433.968a5.06,5.06,0,0,0-1.671-1.245,5.261,5.261,0,0,0-4-.217,4.972,4.972,0,0,0-1.681,1.028,5.444,5.444,0,0,0-1.738,3.68,4.882,4.882,0,0,0,1.31,3.618,5.366,5.366,0,0,0,1.694,1.238,5.238,5.238,0,0,0,3.968.241,5.114,5.114,0,0,0,1.705-1,5.2,5.2,0,0,0,1.433-5.645,5.473,5.473,0,0,0-1.021-1.7" transform="translate(-30.306 -166.113)" fill="#f96e97"/>
                <path id="Trazado_892641" data-name="Trazado 892641" d="M98.373,69.4a13.088,13.088,0,0,0-3.246-4,18.218,18.218,0,0,0-5.081-2.973A21.374,21.374,0,0,0,85.829,61.2a20.079,20.079,0,0,0-3.907-.312A19.8,19.8,0,0,0,78.3,61.3a25.693,25.693,0,0,0-3.317.932l.817,4.4a2,2,0,0,0,1.367,1.73A2.333,2.333,0,0,0,78.5,68.4q.819-.167,1.967-.322a13.051,13.051,0,0,1,2.667-.044,11.871,11.871,0,0,1,3.461.886,8.491,8.491,0,0,1,2.323,1.36,6.208,6.208,0,0,1,1.533,1.856,5.335,5.335,0,0,1,.612,2.181,5.441,5.441,0,0,1-.416,2.383,6.952,6.952,0,0,1-2.113,2.973,11.566,11.566,0,0,1-2.988,1.694,24.162,24.162,0,0,1-3.373,1.028,25.054,25.054,0,0,0-3.247.959,9.2,9.2,0,0,0-2.657,1.51,4.866,4.866,0,0,0-1.582,2.631l-1.636,5.791,5.766,2.3L81.58,90.91A3.781,3.781,0,0,1,83.4,89.363a21.325,21.325,0,0,1,2.772-.95l3.308-.915a15.346,15.346,0,0,0,3.439-1.437,13.6,13.6,0,0,0,3.187-2.544,13.073,13.073,0,0,0,2.537-4.187,12.634,12.634,0,0,0,.963-5.19A11.2,11.2,0,0,0,98.373,69.4m-22.4,29.973a5.405,5.405,0,0,0-1.866-1.218,5.625,5.625,0,0,0-4.283.033A5.3,5.3,0,0,0,68.1,99.4a5.82,5.82,0,0,0-1.611,4.042,5.224,5.224,0,0,0,1.638,3.775,5.754,5.754,0,0,0,1.891,1.209,5.6,5.6,0,0,0,4.252-.006,5.471,5.471,0,0,0,1.754-1.179,5.558,5.558,0,0,0,1.155-6.121,5.857,5.857,0,0,0-1.2-1.744" transform="translate(-38.089 -25.387)" fill="#f96e97"/>
                <path id="Trazado_892642" data-name="Trazado 892642" d="M27.608,245.934a5.43,5.43,0,0,0-1.513-1.5,5.86,5.86,0,0,0-1.958-.81,5.4,5.4,0,0,0-2.229-.007,5.622,5.622,0,0,0-3.576,2.357,5.3,5.3,0,0,0-.791,1.954,5.819,5.819,0,0,0,.847,4.268,5.224,5.224,0,0,0,3.428,2.277,5.746,5.746,0,0,0,2.244-.015,5.6,5.6,0,0,0,3.565-2.317,5.466,5.466,0,0,0,.83-1.943,5.393,5.393,0,0,0,.008-2.229,5.447,5.447,0,0,0-.854-2.039m4.651-31.455a12.636,12.636,0,0,0-2.015-4.878,11.217,11.217,0,0,0-3.614-3.307,13.1,13.1,0,0,0-4.9-1.592,18.2,18.2,0,0,0-5.882.268,21.344,21.344,0,0,0-4.2,1.265A20.022,20.022,0,0,0,8.2,208.1a19.742,19.742,0,0,0-2.815,2.318A25.589,25.589,0,0,0,3.1,213l3.077,3.246a2,2,0,0,0,2.087.708,2.336,2.336,0,0,0,1.135-.693q.6-.586,1.475-1.34a13.012,13.012,0,0,1,2.214-1.488,11.876,11.876,0,0,1,3.386-1.14,8.484,8.484,0,0,1,2.69-.122,6.209,6.209,0,0,1,2.3.724,5.341,5.341,0,0,1,1.7,1.5,5.443,5.443,0,0,1,.947,2.226,6.939,6.939,0,0,1-.156,3.644,11.534,11.534,0,0,1-1.585,3.047,24.193,24.193,0,0,1-2.272,2.7,25.1,25.1,0,0,0-2.2,2.571,9.177,9.177,0,0,0-1.409,2.713,4.862,4.862,0,0,0,.1,3.067l1.777,5.75,6.088-1.208-.216-5.423a3.777,3.777,0,0,1,.688-2.289,21.291,21.291,0,0,1,1.809-2.3q1.07-1.2,2.278-2.568a15.333,15.333,0,0,0,2.1-3.076,13.6,13.6,0,0,0,1.291-3.868,13.077,13.077,0,0,0-.148-4.894" transform="translate(-11.66 -85.302)" fill="#f96e97"/>
                <path id="Trazado_892643" data-name="Trazado 892643" d="M23.794,387.06a1.608,1.608,0,0,0-.905.114q-.539.2-1.3.423a8.922,8.922,0,0,1-1.8.306,8.151,8.151,0,0,1-2.44-.242,5.829,5.829,0,0,1-1.717-.683,4.242,4.242,0,0,1-1.233-1.1,3.659,3.659,0,0,1-.641-1.416,3.739,3.739,0,0,1,.035-1.66,4.77,4.77,0,0,1,1.126-2.236,7.917,7.917,0,0,1,1.852-1.459,16.51,16.51,0,0,1,2.182-1.047,17.283,17.283,0,0,0,2.1-.986,6.316,6.316,0,0,0,1.646-1.3,3.339,3.339,0,0,0,.8-1.948l.51-4.1-4.149-.961-1.395,3.454a2.592,2.592,0,0,1-1.076,1.238,14.686,14.686,0,0,1-1.782.932l-2.15.963a10.539,10.539,0,0,0-2.185,1.33,9.331,9.331,0,0,0-1.9,2.056,8.966,8.966,0,0,0-1.288,3.1,8.671,8.671,0,0,0-.115,3.621A7.689,7.689,0,0,0,9.3,388.551a8.983,8.983,0,0,0,2.617,2.379,12.488,12.488,0,0,0,3.755,1.491,14.664,14.664,0,0,0,2.986.394,13.8,13.8,0,0,0,2.684-.192,13.543,13.543,0,0,0,2.416-.656,17.644,17.644,0,0,0,2.153-.975l-1.01-2.9a1.375,1.375,0,0,0-1.106-1.032m3.611-24.9a3.686,3.686,0,0,0-.5-1.346,3.638,3.638,0,0,0-1-1.046,3.949,3.949,0,0,0-1.407-.624,3.84,3.84,0,0,0-2.884.444,3.744,3.744,0,0,0-1.068.982,3.814,3.814,0,0,0-.15,4.272,4.019,4.019,0,0,0,1,1.059,3.7,3.7,0,0,0,1.392.633,3.862,3.862,0,0,0,2.9-.466,3.65,3.65,0,0,0,1.046-1,3.877,3.877,0,0,0,.617-1.383,3.836,3.836,0,0,0,.057-1.526" transform="translate(-13.631 -149.706)" fill="#f96e97"/>
                <path id="Trazado_892644" data-name="Trazado 892644" d="M14.525,67.9a1.456,1.456,0,0,0-.824.1q-.49.18-1.184.384a8.1,8.1,0,0,1-1.642.279,7.425,7.425,0,0,1-2.22-.22,5.3,5.3,0,0,1-1.562-.62,3.876,3.876,0,0,1-1.122-1,3.33,3.33,0,0,1-.583-1.288,3.4,3.4,0,0,1,.032-1.511,4.34,4.34,0,0,1,1.024-2.034,7.23,7.23,0,0,1,1.685-1.328,15.122,15.122,0,0,1,1.985-.952,15.655,15.655,0,0,0,1.914-.9,5.743,5.743,0,0,0,1.5-1.183,3.038,3.038,0,0,0,.729-1.772l.464-3.729-3.776-.875L9.675,54.392A2.356,2.356,0,0,1,8.7,55.518a13.289,13.289,0,0,1-1.621.848q-.919.41-1.956.877a9.55,9.55,0,0,0-1.988,1.21A8.485,8.485,0,0,0,1.4,60.325,8.168,8.168,0,0,0,.232,63.149a7.894,7.894,0,0,0-.1,3.294,7,7,0,0,0,1.209,2.81,8.174,8.174,0,0,0,2.381,2.164,11.351,11.351,0,0,0,3.417,1.357,13.33,13.33,0,0,0,2.718.359,12.5,12.5,0,0,0,2.441-.175,12.348,12.348,0,0,0,2.2-.6,16,16,0,0,0,1.959-.887l-.919-2.638a1.25,1.25,0,0,0-1.006-.939M17.81,45.237a3.263,3.263,0,0,0-1.367-2.176,3.585,3.585,0,0,0-1.28-.567,3.491,3.491,0,0,0-2.624.4,3.4,3.4,0,0,0-.971.893,3.364,3.364,0,0,0-.576,1.267,3.457,3.457,0,0,0,.44,2.62,3.646,3.646,0,0,0,.907.964,3.383,3.383,0,0,0,1.266.576,3.513,3.513,0,0,0,2.641-.424,3.328,3.328,0,0,0,.952-.909,3.635,3.635,0,0,0,.613-2.647" transform="translate(-10.366 -17.678)" fill="#f96e97"/>
              </g>
            </g>
          </g>
        </g>
      </g>
    </g>
  </g>
</svg>
