<svg xmlns="http://www.w3.org/2000/svg" xmlns:xlink="http://www.w3.org/1999/xlink" width="580.617" height="202.02" viewBox="0 0 580.617 202.02">
  <defs>
    <clipPath id="clip-path">
      <rect id="Rectángulo_401962" data-name="Rectángulo 401962" width="580.617" height="202.02" fill="none"/>
    </clipPath>
  </defs>
  <g id="Grupo_1103300" data-name="Grupo 1103300" transform="translate(-198 -6574.893)">
    <g id="Grupo_1101979" data-name="Grupo 1101979" transform="translate(198 6574.893)" clip-path="url(#clip-path)">
      <path id="Trazado_892402" data-name="Trazado 892402" d="M172.971,31.85H50.032A26.148,26.148,0,0,0,23.885,58V180.936a26.148,26.148,0,0,0,26.147,26.147H172.971a26.148,26.148,0,0,0,26.147-26.147V58A26.148,26.148,0,0,0,172.971,31.85" transform="translate(-12.406 -16.543)" fill="#fee3b3"/>
      <path id="Trazado_892403" data-name="Trazado 892403" d="M198.337,81.475h-.109V43.25A34.344,34.344,0,0,0,163.884,8.906H35.285A34.344,34.344,0,0,0,.941,43.25v128.6a34.344,34.344,0,0,0,34.344,34.344h128.6a34.344,34.344,0,0,0,34.344-34.344V134.806h.034A29.9,29.9,0,0,1,219.55,107.55" transform="translate(-0.489 -4.626)" fill="none" stroke="#7dc8ff" stroke-linecap="round" stroke-linejoin="round" stroke-width="1.882"/>
      <path id="Trazado_892404" data-name="Trazado 892404" d="M845.775,205.892H968.714a26.147,26.147,0,0,0,26.147-26.147V56.805a26.147,26.147,0,0,0-26.147-26.147H845.775a26.148,26.148,0,0,0-26.147,26.147V179.744a26.148,26.148,0,0,0,26.147,26.147" transform="translate(-425.724 -15.924)" fill="#fee3b3"/>
      <path id="Trazado_892405" data-name="Trazado 892405" d="M796.457,132.432h.109v38.224A34.344,34.344,0,0,0,830.91,205h128.6a34.344,34.344,0,0,0,34.344-34.344V42.057A34.344,34.344,0,0,0,959.508,7.713H830.91a34.344,34.344,0,0,0-34.344,34.344V79.1h-.034" transform="translate(-413.688 -4.006)" fill="none" stroke="#7dc8ff" stroke-linecap="round" stroke-linejoin="round" stroke-width="1.882"/>
      <path id="Trazado_892406" data-name="Trazado 892406" d="M451.453,214.2a27.359,27.359,0,0,1,8.136-1.23H563.044" transform="translate(-234.49 -110.618)" fill="none" stroke="#7dc8ff" stroke-linecap="round" stroke-linejoin="round" stroke-width="1.882"/>
      <path id="Trazado_892407" data-name="Trazado 892407" d="M524.26,173.625H627.714a27.361,27.361,0,0,0,27.36-27.36v-9.043" transform="translate(-272.306 -71.275)" fill="none" stroke="#7dc8ff" stroke-linecap="round" stroke-linejoin="round" stroke-width="1.882"/>
      <path id="Trazado_892408" data-name="Trazado 892408" d="M114.1,164.761V151.094h4.459a5.406,5.406,0,0,1,3.351.925,3.271,3.271,0,0,1,1.211,2.774,2.508,2.508,0,0,1-.544,1.582,3.414,3.414,0,0,1-1.446,1.065,3.179,3.179,0,0,1,2.126,1.164,3.564,3.564,0,0,1,.784,2.3,3.478,3.478,0,0,1-1.22,2.868,5.091,5.091,0,0,1-3.3.99Zm1.849-7.857h2.994a2.456,2.456,0,0,0,1.681-.568,2.285,2.285,0,0,0-.052-3.239,3.2,3.2,0,0,0-2.013-.549h-2.61Zm0,1.446v4.965h3.567a2.852,2.852,0,0,0,1.967-.624,2.25,2.25,0,0,0,.7-1.769,2.439,2.439,0,0,0-.714-1.831,2.805,2.805,0,0,0-1.924-.742h-3.595Z" transform="translate(-59.263 -78.48)" fill="#12263f"/>
      <path id="Trazado_892409" data-name="Trazado 892409" d="M138.1,163.181a5.592,5.592,0,0,1,1.22-3.712,4.523,4.523,0,0,1,6.65,0,5.572,5.572,0,0,1,1.225,3.717v.207a5.565,5.565,0,0,1-1.22,3.717,4.542,4.542,0,0,1-6.65,0,5.556,5.556,0,0,1-1.225-3.713Zm1.849.207a4.817,4.817,0,0,0,.681,2.666,2.459,2.459,0,0,0,4.032,0,4.793,4.793,0,0,0,.685-2.666v-.207a4.778,4.778,0,0,0-.69-2.656,2.262,2.262,0,0,0-2.023-1.061,2.231,2.231,0,0,0-2,1.061,4.828,4.828,0,0,0-.681,2.656Z" transform="translate(-71.731 -82.072)" fill="#12263f"/>
      <path id="Trazado_892410" data-name="Trazado 892410" d="M161.049,163.462a6.778,6.778,0,0,1,1.047-3.952,3.364,3.364,0,0,1,2.924-1.5,3.565,3.565,0,0,1,1.7.39,3.418,3.418,0,0,1,1.23,1.122l.225-1.324h1.473v10.213a3.876,3.876,0,0,1-1.136,3,4.667,4.667,0,0,1-3.276,1.047,6.871,6.871,0,0,1-1.582-.2,6.179,6.179,0,0,1-1.5-.549l.282-1.436a5.344,5.344,0,0,0,1.291.455,6.622,6.622,0,0,0,1.487.174,2.693,2.693,0,0,0,1.967-.615,2.547,2.547,0,0,0,.615-1.872v-1.155a3.265,3.265,0,0,1-1.192.967,3.713,3.713,0,0,1-1.605.329A3.472,3.472,0,0,1,162.1,167.2a5.614,5.614,0,0,1-1.047-3.543Zm1.849.2a4.316,4.316,0,0,0,.629,2.459,2.182,2.182,0,0,0,1.943.929,2.446,2.446,0,0,0,1.4-.38,2.884,2.884,0,0,0,.929-1.075v-4.674a2.871,2.871,0,0,0-.929-1.028,2.438,2.438,0,0,0-1.38-.38,2.106,2.106,0,0,0-1.957,1.1,5.67,5.67,0,0,0-.633,2.854Z" transform="translate(-83.651 -82.071)" fill="#12263f"/>
      <path id="Trazado_892411" data-name="Trazado 892411" d="M183.569,163.181a5.592,5.592,0,0,1,1.22-3.712,4.523,4.523,0,0,1,6.65,0,5.572,5.572,0,0,1,1.225,3.717v.207a5.565,5.565,0,0,1-1.22,3.717,4.542,4.542,0,0,1-6.65,0,5.556,5.556,0,0,1-1.225-3.713Zm1.849.207a4.817,4.817,0,0,0,.681,2.666,2.459,2.459,0,0,0,4.032,0,4.793,4.793,0,0,0,.685-2.666v-.207a4.778,4.778,0,0,0-.69-2.656,2.262,2.262,0,0,0-2.023-1.061,2.231,2.231,0,0,0-2,1.061,4.828,4.828,0,0,0-.681,2.656Z" transform="translate(-95.348 -82.072)" fill="#12263f"/>
      <path id="Trazado_892412" data-name="Trazado 892412" d="M208.81,153.3v2.45h1.924v1.37H208.81v6.167a1.381,1.381,0,0,0,.3,1,1.069,1.069,0,0,0,.784.291,1.733,1.733,0,0,0,.357-.042,2.606,2.606,0,0,0,.329-.089l.253,1.267a1.639,1.639,0,0,1-.61.277,3.1,3.1,0,0,1-.8.108,2.4,2.4,0,0,1-1.793-.68,2.955,2.955,0,0,1-.667-2.136v-6.167h-1.614v-1.37h1.614V153.3Z" transform="translate(-106.659 -79.626)" fill="#12263f"/>
      <path id="Trazado_892413" data-name="Trazado 892413" d="M226.545,163.9q-.094-.46-.146-.812a6.016,6.016,0,0,1-.061-.708,4.31,4.31,0,0,1-1.347,1.225,3.445,3.445,0,0,1-1.788.493,3.318,3.318,0,0,1-2.417-.812,2.984,2.984,0,0,1-.831-2.239,2.623,2.623,0,0,1,1.178-2.276,5.5,5.5,0,0,1,3.2-.821h2.008v-1a1.863,1.863,0,0,0-.544-1.412,2.136,2.136,0,0,0-1.539-.521,2.234,2.234,0,0,0-1.455.45,1.351,1.351,0,0,0-.554,1.079l-1.756.019-.019-.056a2.432,2.432,0,0,1,1.037-2.028,4.3,4.3,0,0,1,2.849-.92,4.194,4.194,0,0,1,2.778.878,3.111,3.111,0,0,1,1.052,2.53v4.89a9.525,9.525,0,0,0,.056,1.051,5.418,5.418,0,0,0,.207,1Zm-3.07-1.352a3.292,3.292,0,0,0,1.812-.516,2.453,2.453,0,0,0,1.051-1.183V159.2h-2.074a2.691,2.691,0,0,0-1.788.563,1.685,1.685,0,0,0-.671,1.324,1.393,1.393,0,0,0,.422,1.07,1.768,1.768,0,0,0,1.248.394m1.586-13.113h2.159l.019.056-2.525,2.44h-1.389Z" transform="translate(-114.248 -77.618)" fill="#12263f"/>
      <path id="Trazado_892414" data-name="Trazado 892414" d="M256.35,168.55a4.294,4.294,0,0,1-3.412-1.4,5.383,5.383,0,0,1-1.225-3.679v-.413a5.271,5.271,0,0,1,1.262-3.618,3.96,3.96,0,0,1,3.083-1.431,3.686,3.686,0,0,1,3.055,1.267,5.218,5.218,0,0,1,1.019,3.37v.976h-6.5l-.028.047a4.2,4.2,0,0,0,.676,2.483,2.36,2.36,0,0,0,2.065.953,4.654,4.654,0,0,0,1.647-.267,3.671,3.671,0,0,0,1.215-.737l.723,1.2a4.436,4.436,0,0,1-1.436.887,5.723,5.723,0,0,1-2.15.361m-.291-9.086a2.01,2.01,0,0,0-1.6.746,3.528,3.528,0,0,0-.774,1.91l.019.047h4.58v-.15a2.958,2.958,0,0,0-.544-1.83,1.967,1.967,0,0,0-1.68-.723" transform="translate(-130.742 -82.072)" fill="#12263f"/>
      <path id="Trazado_892415" data-name="Trazado 892415" d="M279.106,165.621a1.232,1.232,0,0,0-.465-.995,4.48,4.48,0,0,0-1.76-.676,7.377,7.377,0,0,1-2.755-1.079,2.179,2.179,0,0,1-.962-1.858,2.678,2.678,0,0,1,1.056-2.121,4.66,4.66,0,0,1,5.534.056,2.691,2.691,0,0,1,1.023,2.187l-.019.056h-1.765a1.6,1.6,0,0,0-.578-1.192,2.063,2.063,0,0,0-1.46-.535,2.107,2.107,0,0,0-1.46.441,1.379,1.379,0,0,0-.483,1.052,1.114,1.114,0,0,0,.418.929,4.623,4.623,0,0,0,1.722.6,7.277,7.277,0,0,1,2.835,1.117,2.25,2.25,0,0,1,.966,1.887,2.673,2.673,0,0,1-1.094,2.205,5.225,5.225,0,0,1-5.918-.131,2.812,2.812,0,0,1-1.061-2.3l.019-.056h1.765a1.711,1.711,0,0,0,.732,1.441A2.832,2.832,0,0,0,277,167.1a2.53,2.53,0,0,0,1.544-.418,1.278,1.278,0,0,0,.559-1.065" transform="translate(-141.736 -82.071)" fill="#12263f"/>
      <rect id="Rectángulo_401951" data-name="Rectángulo 401951" width="1.849" height="14.643" transform="translate(61.348 93.265)" fill="#12263f"/>
      <path id="Trazado_892416" data-name="Trazado 892416" d="M143.283,213.352q-.094-.46-.146-.812a6.015,6.015,0,0,1-.061-.709,4.3,4.3,0,0,1-1.347,1.225,3.442,3.442,0,0,1-1.788.493,3.32,3.32,0,0,1-2.417-.812,2.987,2.987,0,0,1-.83-2.239,2.623,2.623,0,0,1,1.178-2.276,5.5,5.5,0,0,1,3.2-.821h2.009v-1a1.864,1.864,0,0,0-.545-1.413,2.139,2.139,0,0,0-1.539-.521,2.233,2.233,0,0,0-1.455.451,1.351,1.351,0,0,0-.554,1.079l-1.755.019-.019-.056a2.431,2.431,0,0,1,1.037-2.028,4.3,4.3,0,0,1,2.849-.92,4.2,4.2,0,0,1,2.778.878,3.11,3.11,0,0,1,1.052,2.53v4.89a9.529,9.529,0,0,0,.056,1.051,5.418,5.418,0,0,0,.207,1ZM140.214,212a3.293,3.293,0,0,0,1.812-.516,2.452,2.452,0,0,0,1.051-1.183v-1.652H141a2.691,2.691,0,0,0-1.788.563,1.684,1.684,0,0,0-.671,1.324,1.393,1.393,0,0,0,.422,1.07,1.768,1.768,0,0,0,1.249.394" transform="translate(-71 -105.445)" fill="#12263f"/>
      <path id="Trazado_892417" data-name="Trazado 892417" d="M172.92,212.1a2.173,2.173,0,0,0,1.492-.568,1.793,1.793,0,0,0,.639-1.394h1.671l.028.056a2.918,2.918,0,0,1-1.126,2.333,4.3,4.3,0,0,1-6.007-.437,5.617,5.617,0,0,1-1.164-3.623v-.394a5.593,5.593,0,0,1,1.169-3.609,3.985,3.985,0,0,1,3.3-1.46,3.833,3.833,0,0,1,2.783,1.052,3.334,3.334,0,0,1,1.047,2.581l-.019.056h-1.68a2.241,2.241,0,0,0-.606-1.582,1.992,1.992,0,0,0-1.525-.652,2.135,2.135,0,0,0-1.985,1.056,4.942,4.942,0,0,0-.624,2.558v.394a5.034,5.034,0,0,0,.615,2.581,2.132,2.132,0,0,0,1.994,1.052" transform="translate(-87.496 -105.445)" fill="#12263f"/>
      <path id="Trazado_892418" data-name="Trazado 892418" d="M196.154,213.352q-.094-.46-.146-.812a6.009,6.009,0,0,1-.061-.709,4.3,4.3,0,0,1-1.347,1.225,3.442,3.442,0,0,1-1.788.493,3.32,3.32,0,0,1-2.417-.812,2.987,2.987,0,0,1-.83-2.239,2.623,2.623,0,0,1,1.178-2.276,5.5,5.5,0,0,1,3.2-.821h2.009v-1a1.864,1.864,0,0,0-.545-1.413,2.139,2.139,0,0,0-1.539-.521,2.233,2.233,0,0,0-1.455.451,1.351,1.351,0,0,0-.554,1.079l-1.755.019-.019-.056a2.431,2.431,0,0,1,1.037-2.028,4.3,4.3,0,0,1,2.849-.92,4.2,4.2,0,0,1,2.778.878,3.11,3.11,0,0,1,1.052,2.53v4.89a9.529,9.529,0,0,0,.056,1.051,5.418,5.418,0,0,0,.207,1ZM193.085,212a3.293,3.293,0,0,0,1.812-.516,2.452,2.452,0,0,0,1.051-1.183v-1.652h-2.074a2.691,2.691,0,0,0-1.788.563,1.684,1.684,0,0,0-.671,1.324,1.393,1.393,0,0,0,.422,1.07,1.768,1.768,0,0,0,1.249.394" transform="translate(-98.462 -105.445)" fill="#12263f"/>
      <path id="Trazado_892419" data-name="Trazado 892419" d="M220.934,208.659a5.6,5.6,0,0,1-1.052,3.543,3.475,3.475,0,0,1-2.9,1.347,4.033,4.033,0,0,1-1.647-.314,3.155,3.155,0,0,1-1.206-.943v4.965H212.28V203.2H213.7l.291,1.314a3.355,3.355,0,0,1,1.239-1.117,3.7,3.7,0,0,1,1.727-.385,3.376,3.376,0,0,1,2.934,1.5,6.773,6.773,0,0,1,1.047,3.956Zm-1.849-.2a5.366,5.366,0,0,0-.681-2.839,2.206,2.206,0,0,0-2-1.113,2.469,2.469,0,0,0-1.361.361,2.71,2.71,0,0,0-.911.99v4.909a2.632,2.632,0,0,0,.911.981,2.555,2.555,0,0,0,1.38.352,2.276,2.276,0,0,0,1.99-.962,4.225,4.225,0,0,0,.676-2.483Z" transform="translate(-110.26 -105.445)" fill="#12263f"/>
      <path id="Trazado_892420" data-name="Trazado 892420" d="M237.175,195.95h-1.849v-1.887h1.849Zm0,12.756h-1.849V198.55h1.849Z" transform="translate(-122.231 -100.798)" fill="#12263f"/>
      <path id="Trazado_892421" data-name="Trazado 892421" d="M246.7,198.3v2.45h1.924v1.37H246.7v6.167a1.381,1.381,0,0,0,.3,1,1.069,1.069,0,0,0,.784.291,1.733,1.733,0,0,0,.357-.042,2.607,2.607,0,0,0,.329-.089l.253,1.267a1.639,1.639,0,0,1-.61.277,3.1,3.1,0,0,1-.8.108,2.4,2.4,0,0,1-1.793-.68,2.955,2.955,0,0,1-.667-2.136v-6.167h-1.614v-1.37h1.614V198.3Z" transform="translate(-126.34 -103)" fill="#12263f"/>
      <path id="Trazado_892422" data-name="Trazado 892422" d="M264.435,213.352q-.094-.46-.146-.812a6.006,6.006,0,0,1-.061-.709,4.3,4.3,0,0,1-1.347,1.225,3.442,3.442,0,0,1-1.788.493,3.32,3.32,0,0,1-2.417-.812,2.987,2.987,0,0,1-.83-2.239,2.623,2.623,0,0,1,1.178-2.276,5.5,5.5,0,0,1,3.2-.821h2.009v-1a1.864,1.864,0,0,0-.544-1.413,2.139,2.139,0,0,0-1.539-.521,2.234,2.234,0,0,0-1.455.451,1.351,1.351,0,0,0-.554,1.079l-1.755.019-.018-.056a2.43,2.43,0,0,1,1.037-2.028,4.3,4.3,0,0,1,2.849-.92,4.194,4.194,0,0,1,2.778.878,3.11,3.11,0,0,1,1.052,2.53v4.89a9.533,9.533,0,0,0,.056,1.051,5.459,5.459,0,0,0,.207,1ZM261.366,212a3.293,3.293,0,0,0,1.811-.516,2.453,2.453,0,0,0,1.051-1.183v-1.652h-2.074a2.691,2.691,0,0,0-1.788.563,1.684,1.684,0,0,0-.671,1.324,1.393,1.393,0,0,0,.422,1.07,1.769,1.769,0,0,0,1.249.394" transform="translate(-133.928 -105.445)" fill="#12263f"/>
      <rect id="Rectángulo_401952" data-name="Rectángulo 401952" width="1.849" height="14.643" transform="translate(134.985 93.265)" fill="#12263f"/>
      <path id="Trazado_892423" data-name="Trazado 892423" d="M90.629,248.816a6.778,6.778,0,0,1,1.047-3.952,3.373,3.373,0,0,1,2.934-1.5,3.634,3.634,0,0,1,1.582.329,3.244,3.244,0,0,1,1.178.957v-5.585h1.849v14.643H97.8l-.282-1.286a3.3,3.3,0,0,1-1.229,1.108,3.68,3.68,0,0,1-1.7.375,3.484,3.484,0,0,1-2.91-1.347,5.6,5.6,0,0,1-1.052-3.543Zm1.849.2a4.312,4.312,0,0,0,.629,2.464,2.195,2.195,0,0,0,1.952.925,2.45,2.45,0,0,0,1.389-.375,2.805,2.805,0,0,0,.92-1.052v-4.74a2.847,2.847,0,0,0-.925-1,2.445,2.445,0,0,0-1.366-.371,2.115,2.115,0,0,0-1.967,1.1,5.67,5.67,0,0,0-.633,2.854Z" transform="translate(-47.074 -124.172)" fill="#12263f"/>
      <path id="Trazado_892424" data-name="Trazado 892424" d="M117.981,258.55a4.3,4.3,0,0,1-3.412-1.4,5.383,5.383,0,0,1-1.225-3.679v-.413a5.271,5.271,0,0,1,1.263-3.618,3.96,3.96,0,0,1,3.083-1.431,3.686,3.686,0,0,1,3.055,1.267,5.218,5.218,0,0,1,1.019,3.37v.976h-6.5l-.028.047a4.2,4.2,0,0,0,.676,2.483,2.36,2.36,0,0,0,2.065.953,4.655,4.655,0,0,0,1.647-.267,3.671,3.671,0,0,0,1.215-.737l.723,1.2a4.436,4.436,0,0,1-1.436.887,5.723,5.723,0,0,1-2.15.361m-.291-9.086a2.011,2.011,0,0,0-1.6.746,3.529,3.529,0,0,0-.774,1.91l.019.047h4.58v-.15a2.958,2.958,0,0,0-.545-1.83,1.967,1.967,0,0,0-1.68-.723" transform="translate(-58.872 -128.819)" fill="#12263f"/>
      <path id="Trazado_892425" data-name="Trazado 892425" d="M154.874,250.174l.019.056a4.106,4.106,0,0,1-1.351,3.219,5.166,5.166,0,0,1-3.67,1.3,4.819,4.819,0,0,1-3.778-1.643,6.041,6.041,0,0,1-1.46-4.168V246.5a6.058,6.058,0,0,1,1.46-4.172,4.812,4.812,0,0,1,3.778-1.647,5.307,5.307,0,0,1,3.689,1.234,4.082,4.082,0,0,1,1.333,3.271l-.019.056H153.1a3.05,3.05,0,0,0-.845-2.271,3.245,3.245,0,0,0-2.384-.836,2.912,2.912,0,0,0-2.469,1.249,5.079,5.079,0,0,0-.92,3.1v2.45a5.11,5.11,0,0,0,.92,3.116,2.912,2.912,0,0,0,2.469,1.249,3.255,3.255,0,0,0,2.384-.831,3.071,3.071,0,0,0,.845-2.295Z" transform="translate(-75.124 -125.014)" fill="#12263f"/>
      <path id="Trazado_892426" data-name="Trazado 892426" d="M169.555,253.181a5.592,5.592,0,0,1,1.22-3.712,4.523,4.523,0,0,1,6.65,0,5.572,5.572,0,0,1,1.225,3.717v.207a5.565,5.565,0,0,1-1.22,3.717,4.542,4.542,0,0,1-6.65,0,5.556,5.556,0,0,1-1.225-3.713Zm1.849.207a4.817,4.817,0,0,0,.681,2.666,2.459,2.459,0,0,0,4.032,0,4.793,4.793,0,0,0,.685-2.666v-.207a4.778,4.778,0,0,0-.69-2.656,2.262,2.262,0,0,0-2.023-1.061,2.231,2.231,0,0,0-2,1.061,4.828,4.828,0,0,0-.681,2.656Z" transform="translate(-88.069 -128.819)" fill="#12263f"/>
      <rect id="Rectángulo_401953" data-name="Rectángulo 401953" width="1.849" height="14.643" transform="translate(92.994 114.891)" fill="#12263f"/>
      <path id="Trazado_892427" data-name="Trazado 892427" d="M202.367,253.181a5.593,5.593,0,0,1,1.22-3.712,4.523,4.523,0,0,1,6.65,0,5.571,5.571,0,0,1,1.225,3.717v.207a5.565,5.565,0,0,1-1.22,3.717,4.542,4.542,0,0,1-6.65,0,5.556,5.556,0,0,1-1.225-3.713Zm1.849.207a4.817,4.817,0,0,0,.681,2.666,2.459,2.459,0,0,0,4.032,0,4.793,4.793,0,0,0,.685-2.666v-.207a4.778,4.778,0,0,0-.69-2.656,2.262,2.262,0,0,0-2.023-1.061,2.231,2.231,0,0,0-2,1.061,4.828,4.828,0,0,0-.681,2.656Z" transform="translate(-105.112 -128.819)" fill="#12263f"/>
      <path id="Trazado_892428" data-name="Trazado 892428" d="M227.652,248.2l.131,1.333a3.46,3.46,0,0,1,1.262-1.122,3.8,3.8,0,0,1,1.779-.4,3.142,3.142,0,0,1,1.741.47,2.843,2.843,0,0,1,1.093,1.408,3.806,3.806,0,0,1,1.272-1.375,3.331,3.331,0,0,1,1.835-.5,3.042,3.042,0,0,1,2.45,1.065,4.867,4.867,0,0,1,.9,3.206v6.073h-1.849V252.26a3.38,3.38,0,0,0-.516-2.126,1.883,1.883,0,0,0-1.54-.624,1.959,1.959,0,0,0-1.535.657,2.862,2.862,0,0,0-.69,1.661v6.524h-1.859V252.26a3.333,3.333,0,0,0-.53-2.089,1.84,1.84,0,0,0-1.525-.662,2.544,2.544,0,0,0-1.389.347,2.246,2.246,0,0,0-.835.976v7.519H226V248.2Z" transform="translate(-117.387 -128.818)" fill="#12263f"/>
      <path id="Trazado_892429" data-name="Trazado 892429" d="M269.635,249.013a5.58,5.58,0,0,1-1.056,3.543,3.487,3.487,0,0,1-2.905,1.347,3.684,3.684,0,0,1-1.76-.4,3.264,3.264,0,0,1-1.234-1.178l-.3,1.38h-1.417V239.063h1.849v5.688A3.208,3.208,0,0,1,264,243.719a3.64,3.64,0,0,1,1.657-.357,3.375,3.375,0,0,1,2.929,1.5,6.758,6.758,0,0,1,1.052,3.952Zm-1.849-.2a5.608,5.608,0,0,0-.643-2.849,2.116,2.116,0,0,0-1.957-1.1,2.421,2.421,0,0,0-1.441.418,2.952,2.952,0,0,0-.934,1.122v4.4a3.027,3.027,0,0,0,.934,1.173,2.407,2.407,0,0,0,1.46.422,2.2,2.2,0,0,0,1.943-.929,4.264,4.264,0,0,0,.638-2.459Z" transform="translate(-135.546 -124.172)" fill="#12263f"/>
      <path id="Trazado_892430" data-name="Trazado 892430" d="M285.857,240.95h-1.849v-1.887h1.849Zm0,12.756h-1.849V243.55h1.849Z" transform="translate(-147.517 -124.172)" fill="#12263f"/>
      <path id="Trazado_892431" data-name="Trazado 892431" d="M299.64,258.352q-.094-.46-.146-.812a6.006,6.006,0,0,1-.061-.709,4.3,4.3,0,0,1-1.347,1.225,3.442,3.442,0,0,1-1.788.493,3.319,3.319,0,0,1-2.417-.812,2.986,2.986,0,0,1-.83-2.239,2.623,2.623,0,0,1,1.178-2.276,5.5,5.5,0,0,1,3.2-.821h2.009v-1a1.864,1.864,0,0,0-.545-1.413,2.139,2.139,0,0,0-1.539-.521,2.233,2.233,0,0,0-1.455.451,1.351,1.351,0,0,0-.554,1.079l-1.755.019-.019-.056a2.431,2.431,0,0,1,1.037-2.028,4.3,4.3,0,0,1,2.849-.92,4.2,4.2,0,0,1,2.778.878,3.11,3.11,0,0,1,1.051,2.53v4.89a9.525,9.525,0,0,0,.056,1.051,5.419,5.419,0,0,0,.207,1ZM296.571,257a3.293,3.293,0,0,0,1.812-.516,2.453,2.453,0,0,0,1.051-1.183v-1.652h-2.074a2.691,2.691,0,0,0-1.788.563,1.684,1.684,0,0,0-.671,1.324,1.393,1.393,0,0,0,.422,1.07,1.768,1.768,0,0,0,1.249.394" transform="translate(-152.214 -128.818)" fill="#12263f"/>
      <rect id="Rectángulo_401954" data-name="Rectángulo 401954" width="1.849" height="1.896" transform="translate(151.922 127.638)" fill="#12263f"/>
      <path id="Trazado_892432" data-name="Trazado 892432" d="M919.09,113.24h-5.144l-1.22,3.52h-1.887l4.928-13.667h1.587l4.825,13.667h-1.887Zm-4.609-1.549h4.083l-1.99-5.867h-.056Z" transform="translate(-473.1 -53.548)" fill="#12263f"/>
      <path id="Trazado_892433" data-name="Trazado 892433" d="M942.89,111.829l-.948-.056a2.119,2.119,0,0,0-1.234.347,2.235,2.235,0,0,0-.774.977v7.255h-1.849V110.2h1.652l.178,1.483a3.519,3.519,0,0,1,1.065-1.23,2.492,2.492,0,0,1,1.46-.441,2.316,2.316,0,0,1,.394.033,2.634,2.634,0,0,1,.31.071Z" transform="translate(-487.251 -57.139)" fill="#12263f"/>
      <path id="Trazado_892434" data-name="Trazado 892434" d="M954.25,102.949H952.4v-1.887h1.849Zm0,12.756H952.4V105.549h1.849Z" transform="translate(-494.687 -52.493)" fill="#12263f"/>
      <path id="Trazado_892435" data-name="Trazado 892435" d="M967.723,117.621a1.232,1.232,0,0,0-.465-.995,4.484,4.484,0,0,0-1.76-.676,7.374,7.374,0,0,1-2.755-1.079,2.179,2.179,0,0,1-.962-1.858,2.677,2.677,0,0,1,1.056-2.121,4.66,4.66,0,0,1,5.534.056,2.692,2.692,0,0,1,1.023,2.187l-.019.056h-1.765a1.6,1.6,0,0,0-.578-1.192,2.063,2.063,0,0,0-1.459-.535,2.107,2.107,0,0,0-1.46.441,1.377,1.377,0,0,0-.483,1.052,1.114,1.114,0,0,0,.418.929,4.622,4.622,0,0,0,1.722.6,7.272,7.272,0,0,1,2.834,1.117,2.25,2.25,0,0,1,.967,1.887,2.673,2.673,0,0,1-1.094,2.205,4.509,4.509,0,0,1-2.858.854,4.464,4.464,0,0,1-3.06-.986,2.811,2.811,0,0,1-1.061-2.3l.019-.056h1.765a1.711,1.711,0,0,0,.732,1.441,2.83,2.83,0,0,0,1.605.455,2.531,2.531,0,0,0,1.544-.418,1.279,1.279,0,0,0,.558-1.065" transform="translate(-499.412 -57.139)" fill="#12263f"/>
      <path id="Trazado_892436" data-name="Trazado 892436" d="M984.693,105.3v2.45h1.924v1.37h-1.924v6.167a1.381,1.381,0,0,0,.3,1,1.069,1.069,0,0,0,.784.291,1.731,1.731,0,0,0,.357-.042,2.6,2.6,0,0,0,.329-.089l.253,1.267a1.639,1.639,0,0,1-.61.277,3.1,3.1,0,0,1-.8.108,2.4,2.4,0,0,1-1.793-.681,2.955,2.955,0,0,1-.667-2.136v-6.167h-1.614v-1.37h1.614V105.3Z" transform="translate(-509.661 -54.694)" fill="#12263f"/>
      <path id="Trazado_892437" data-name="Trazado 892437" d="M995.663,110.727a5.594,5.594,0,0,1,1.22-3.713,4.522,4.522,0,0,1,6.65,0,5.573,5.573,0,0,1,1.225,3.717v.207a5.566,5.566,0,0,1-1.22,3.717,4.542,4.542,0,0,1-6.651,0,5.552,5.552,0,0,1-1.225-3.712Zm1.849.207a4.812,4.812,0,0,0,.68,2.665,2.458,2.458,0,0,0,4.031,0,4.793,4.793,0,0,0,.685-2.665v-.207a4.778,4.778,0,0,0-.69-2.656,2.261,2.261,0,0,0-2.023-1.061,2.23,2.23,0,0,0-2,1.061,4.824,4.824,0,0,0-.68,2.656Zm3.595-9.5h2.159l.019.056-2.525,2.44h-1.389Z" transform="translate(-517.158 -52.686)" fill="#12263f"/>
      <path id="Trazado_892438" data-name="Trazado 892438" d="M1020.9,105.3v2.45h1.924v1.37H1020.9v6.167a1.381,1.381,0,0,0,.3,1,1.069,1.069,0,0,0,.784.291,1.732,1.732,0,0,0,.357-.042,2.6,2.6,0,0,0,.329-.089l.253,1.267a1.639,1.639,0,0,1-.61.277,3.1,3.1,0,0,1-.8.108,2.4,2.4,0,0,1-1.793-.681,2.955,2.955,0,0,1-.667-2.136v-6.167h-1.614v-1.37h1.614V105.3Z" transform="translate(-528.469 -54.694)" fill="#12263f"/>
      <path id="Trazado_892439" data-name="Trazado 892439" d="M1036.51,120.549a4.294,4.294,0,0,1-3.412-1.4,5.383,5.383,0,0,1-1.225-3.679v-.413a5.271,5.271,0,0,1,1.263-3.618,3.96,3.96,0,0,1,3.084-1.431,3.686,3.686,0,0,1,3.055,1.267,5.216,5.216,0,0,1,1.019,3.37v.976h-6.5l-.028.047a4.2,4.2,0,0,0,.676,2.483,2.36,2.36,0,0,0,2.065.953,4.653,4.653,0,0,0,1.647-.267,3.671,3.671,0,0,0,1.215-.737l.723,1.2a4.435,4.435,0,0,1-1.436.887,5.722,5.722,0,0,1-2.15.361m-.29-9.086a2.011,2.011,0,0,0-1.6.746,3.528,3.528,0,0,0-.774,1.91l.019.047h4.581v-.15a2.958,2.958,0,0,0-.545-1.83,1.967,1.967,0,0,0-1.68-.723" transform="translate(-535.966 -57.139)" fill="#12263f"/>
      <rect id="Rectángulo_401955" data-name="Rectángulo 401955" width="1.849" height="14.643" transform="translate(506.552 48.569)" fill="#12263f"/>
      <path id="Trazado_892440" data-name="Trazado 892440" d="M1067.526,120.549a4.294,4.294,0,0,1-3.412-1.4,5.382,5.382,0,0,1-1.225-3.679v-.413a5.272,5.272,0,0,1,1.262-3.618,3.96,3.96,0,0,1,3.084-1.431,3.686,3.686,0,0,1,3.055,1.267,5.218,5.218,0,0,1,1.019,3.37v.976h-6.5l-.028.047a4.2,4.2,0,0,0,.676,2.483,2.361,2.361,0,0,0,2.065.953,4.653,4.653,0,0,0,1.647-.267,3.67,3.67,0,0,0,1.215-.737l.723,1.2a4.437,4.437,0,0,1-1.436.887,5.721,5.721,0,0,1-2.15.361m-.291-9.086a2.01,2.01,0,0,0-1.6.746,3.529,3.529,0,0,0-.774,1.91l.019.047h4.58v-.15a2.958,2.958,0,0,0-.544-1.83,1.967,1.967,0,0,0-1.68-.723" transform="translate(-552.076 -57.139)" fill="#12263f"/>
      <path id="Trazado_892441" data-name="Trazado 892441" d="M1090.281,117.621a1.232,1.232,0,0,0-.465-.995,4.482,4.482,0,0,0-1.76-.676,7.372,7.372,0,0,1-2.755-1.079,2.179,2.179,0,0,1-.962-1.858,2.678,2.678,0,0,1,1.056-2.121,4.66,4.66,0,0,1,5.533.056,2.692,2.692,0,0,1,1.023,2.187l-.019.056h-1.765a1.6,1.6,0,0,0-.578-1.192,2.063,2.063,0,0,0-1.46-.535,2.107,2.107,0,0,0-1.459.441,1.377,1.377,0,0,0-.484,1.052,1.114,1.114,0,0,0,.418.929,4.623,4.623,0,0,0,1.722.6,7.27,7.27,0,0,1,2.834,1.117,2.25,2.25,0,0,1,.967,1.887,2.673,2.673,0,0,1-1.094,2.205,5.225,5.225,0,0,1-5.918-.131,2.812,2.812,0,0,1-1.061-2.3l.019-.056h1.765a1.712,1.712,0,0,0,.732,1.441,2.83,2.83,0,0,0,1.6.455,2.531,2.531,0,0,0,1.544-.418,1.279,1.279,0,0,0,.558-1.065" transform="translate(-563.07 -57.139)" fill="#12263f"/>
      <path id="Trazado_892442" data-name="Trazado 892442" d="M906.184,160.492v-8.786H904.6v-1.371h1.586V149.05a3.484,3.484,0,0,1,.85-2.511,3.125,3.125,0,0,1,2.37-.887,4.054,4.054,0,0,1,.643.052q.324.051.718.145l-.225,1.408q-.169-.037-.408-.066a4.314,4.314,0,0,0-.5-.028,1.46,1.46,0,0,0-1.2.483,2.175,2.175,0,0,0-.394,1.4v1.286h1.84v1.371h-1.84v8.786Z" transform="translate(-469.858 -75.653)" fill="#12263f"/>
      <path id="Trazado_892443" data-name="Trazado 892443" d="M925.87,164.052a3.439,3.439,0,0,1-1.23,1.258,3.363,3.363,0,0,1-1.736.441,3.263,3.263,0,0,1-2.591-1.061,4.925,4.925,0,0,1-.929-3.3V155.4h1.85v6.007a3.782,3.782,0,0,0,.478,2.234,1.78,1.78,0,0,0,1.492.61,3.04,3.04,0,0,0,1.629-.4,2.5,2.5,0,0,0,.971-1.131V155.4h1.85v10.156h-1.662Z" transform="translate(-477.537 -80.715)" fill="#12263f"/>
      <path id="Trazado_892444" data-name="Trazado 892444" d="M945.934,165.549a4.294,4.294,0,0,1-3.412-1.4,5.382,5.382,0,0,1-1.225-3.679v-.413a5.271,5.271,0,0,1,1.262-3.618,3.96,3.96,0,0,1,3.083-1.431,3.687,3.687,0,0,1,3.055,1.267,5.219,5.219,0,0,1,1.019,3.37v.976h-6.5l-.028.047a4.2,4.2,0,0,0,.676,2.483,2.36,2.36,0,0,0,2.065.953,4.654,4.654,0,0,0,1.647-.267,3.671,3.671,0,0,0,1.215-.737l.723,1.2a4.437,4.437,0,0,1-1.436.887,5.723,5.723,0,0,1-2.15.361m-.291-9.086a2.011,2.011,0,0,0-1.6.746,3.53,3.53,0,0,0-.774,1.91l.019.047h4.58v-.15a2.958,2.958,0,0,0-.544-1.83,1.967,1.967,0,0,0-1.68-.723" transform="translate(-488.92 -80.513)" fill="#12263f"/>
      <path id="Trazado_892445" data-name="Trazado 892445" d="M981.729,160.658a5.6,5.6,0,0,1-1.052,3.543,3.475,3.475,0,0,1-2.9,1.347,4.033,4.033,0,0,1-1.647-.314,3.155,3.155,0,0,1-1.206-.943v4.965h-1.849V155.195h1.417l.291,1.314a3.356,3.356,0,0,1,1.239-1.117,3.7,3.7,0,0,1,1.727-.385,3.376,3.376,0,0,1,2.934,1.5,6.773,6.773,0,0,1,1.047,3.956Zm-1.849-.2a5.367,5.367,0,0,0-.681-2.839,2.205,2.205,0,0,0-2-1.113,2.469,2.469,0,0,0-1.361.361,2.71,2.71,0,0,0-.911.991v4.909a2.633,2.633,0,0,0,.911.981,2.555,2.555,0,0,0,1.38.352,2.276,2.276,0,0,0,1.99-.962,4.225,4.225,0,0,0,.676-2.483Z" transform="translate(-505.426 -80.512)" fill="#12263f"/>
      <path id="Trazado_892446" data-name="Trazado 892446" d="M1000.615,156.829l-.948-.056a2.12,2.12,0,0,0-1.234.347,2.235,2.235,0,0,0-.774.977v7.255h-1.849V155.2h1.652l.178,1.483a3.52,3.52,0,0,1,1.065-1.23,2.492,2.492,0,0,1,1.46-.441,2.313,2.313,0,0,1,.394.033,2.634,2.634,0,0,1,.31.071Z" transform="translate(-517.234 -80.513)" fill="#12263f"/>
      <path id="Trazado_892447" data-name="Trazado 892447" d="M1011.974,147.949h-1.849v-1.887h1.849Zm0,12.756h-1.849V150.549h1.849Z" transform="translate(-524.67 -75.866)" fill="#12263f"/>
      <path id="Trazado_892448" data-name="Trazado 892448" d="M1021.543,155.195l.131,1.333a3.46,3.46,0,0,1,1.263-1.122,3.8,3.8,0,0,1,1.779-.4,3.143,3.143,0,0,1,1.741.47,2.843,2.843,0,0,1,1.093,1.408,3.806,3.806,0,0,1,1.272-1.375,3.331,3.331,0,0,1,1.835-.5,3.042,3.042,0,0,1,2.45,1.065,4.867,4.867,0,0,1,.9,3.206v6.073h-1.849v-6.092a3.379,3.379,0,0,0-.516-2.126,1.883,1.883,0,0,0-1.54-.624,1.959,1.959,0,0,0-1.535.657,2.862,2.862,0,0,0-.69,1.661v6.524h-1.859v-6.092a3.333,3.333,0,0,0-.53-2.089,1.841,1.841,0,0,0-1.525-.662,2.544,2.544,0,0,0-1.389.347,2.243,2.243,0,0,0-.835.976v7.519h-1.849V155.195Z" transform="translate(-529.742 -80.512)" fill="#12263f"/>
      <path id="Trazado_892449" data-name="Trazado 892449" d="M1058.59,165.549a4.294,4.294,0,0,1-3.412-1.4,5.38,5.38,0,0,1-1.226-3.679v-.413a5.269,5.269,0,0,1,1.263-3.618,3.96,3.96,0,0,1,3.083-1.431,3.687,3.687,0,0,1,3.055,1.267,5.219,5.219,0,0,1,1.019,3.37v.976h-6.5l-.028.047a4.2,4.2,0,0,0,.676,2.483,2.36,2.36,0,0,0,2.065.953,4.654,4.654,0,0,0,1.647-.267,3.668,3.668,0,0,0,1.215-.737l.723,1.2a4.438,4.438,0,0,1-1.437.887,5.718,5.718,0,0,1-2.149.361m-.291-9.086a2.011,2.011,0,0,0-1.6.746,3.521,3.521,0,0,0-.774,1.91l.018.047h4.581v-.15a2.958,2.958,0,0,0-.544-1.83,1.967,1.967,0,0,0-1.68-.723" transform="translate(-547.434 -80.513)" fill="#12263f"/>
      <path id="Trazado_892450" data-name="Trazado 892450" d="M1080.6,156.829l-.948-.056a2.119,2.119,0,0,0-1.234.347,2.233,2.233,0,0,0-.775.977v7.255h-1.849V155.2h1.652l.178,1.483a3.523,3.523,0,0,1,1.064-1.23,2.494,2.494,0,0,1,1.46-.441,2.306,2.306,0,0,1,.394.033,2.668,2.668,0,0,1,.31.071Z" transform="translate(-558.777 -80.513)" fill="#12263f"/>
      <path id="Trazado_892451" data-name="Trazado 892451" d="M1088.5,160.18a5.592,5.592,0,0,1,1.22-3.712,4.523,4.523,0,0,1,6.651,0,5.573,5.573,0,0,1,1.225,3.717v.207a5.566,5.566,0,0,1-1.22,3.717,4.542,4.542,0,0,1-6.65,0,5.555,5.555,0,0,1-1.225-3.713Zm1.849.207a4.817,4.817,0,0,0,.68,2.666,2.459,2.459,0,0,0,4.032,0,4.792,4.792,0,0,0,.685-2.666v-.207a4.778,4.778,0,0,0-.69-2.656,2.262,2.262,0,0,0-2.023-1.061,2.231,2.231,0,0,0-2,1.061,4.829,4.829,0,0,0-.68,2.656Z" transform="translate(-565.381 -80.513)" fill="#12263f"/>
      <path id="Trazado_892452" data-name="Trazado 892452" d="M920.514,210.549a4.294,4.294,0,0,1-3.412-1.4,5.382,5.382,0,0,1-1.225-3.679v-.413a5.271,5.271,0,0,1,1.263-3.618,3.959,3.959,0,0,1,3.083-1.431,3.686,3.686,0,0,1,3.055,1.267,5.218,5.218,0,0,1,1.019,3.37v.976h-6.5l-.028.047a4.2,4.2,0,0,0,.676,2.483,2.36,2.36,0,0,0,2.065.953,4.654,4.654,0,0,0,1.647-.267,3.67,3.67,0,0,0,1.215-.737l.723,1.2a4.436,4.436,0,0,1-1.436.887,5.723,5.723,0,0,1-2.15.361m-.291-9.086a2.01,2.01,0,0,0-1.6.746,3.529,3.529,0,0,0-.774,1.91l.019.047h4.581v-.15a2.958,2.958,0,0,0-.544-1.83,1.967,1.967,0,0,0-1.68-.723" transform="translate(-475.716 -103.886)" fill="#12263f"/>
      <path id="Trazado_892453" data-name="Trazado 892453" d="M939.365,200.195l.131,1.511a3.692,3.692,0,0,1,1.272-1.253,3.4,3.4,0,0,1,1.741-.446,3.317,3.317,0,0,1,2.544.962,4.225,4.225,0,0,1,.9,2.971v6.411h-1.849v-6.374a2.749,2.749,0,0,0-.53-1.906,2.126,2.126,0,0,0-1.619-.563,2.869,2.869,0,0,0-1.45.343,2.494,2.494,0,0,0-.943.962v7.538h-1.849V200.195Z" transform="translate(-487.058 -103.886)" fill="#12263f"/>
      <path id="Trazado_892454" data-name="Trazado 892454" d="M976.256,210.352c-.062-.307-.111-.578-.146-.812a5.967,5.967,0,0,1-.061-.709,4.3,4.3,0,0,1-1.347,1.225,3.442,3.442,0,0,1-1.788.493,3.32,3.32,0,0,1-2.417-.812,2.987,2.987,0,0,1-.83-2.239,2.623,2.623,0,0,1,1.178-2.276,5.5,5.5,0,0,1,3.2-.821h2.009v-1a1.865,1.865,0,0,0-.545-1.413,2.139,2.139,0,0,0-1.539-.521,2.233,2.233,0,0,0-1.455.451,1.351,1.351,0,0,0-.554,1.079l-1.755.019-.019-.056a2.431,2.431,0,0,1,1.037-2.028,4.3,4.3,0,0,1,2.849-.92,4.2,4.2,0,0,1,2.778.878,3.11,3.11,0,0,1,1.052,2.53v4.89a9.563,9.563,0,0,0,.056,1.051,5.427,5.427,0,0,0,.207,1ZM973.187,209a3.293,3.293,0,0,0,1.812-.516,2.453,2.453,0,0,0,1.051-1.183v-1.652h-2.074a2.691,2.691,0,0,0-1.788.563,1.684,1.684,0,0,0-.671,1.324,1.393,1.393,0,0,0,.422,1.07,1.768,1.768,0,0,0,1.249.394" transform="translate(-503.655 -103.886)" fill="#12263f"/>
      <path id="Trazado_892455" data-name="Trazado 892455" d="M1001.036,205.658a5.6,5.6,0,0,1-1.052,3.543,3.475,3.475,0,0,1-2.9,1.347,4.034,4.034,0,0,1-1.648-.314,3.154,3.154,0,0,1-1.206-.943v4.965h-1.849V200.195H993.8l.291,1.314a3.355,3.355,0,0,1,1.239-1.117,3.7,3.7,0,0,1,1.727-.385,3.376,3.376,0,0,1,2.934,1.5,6.773,6.773,0,0,1,1.047,3.956Zm-1.849-.2a5.367,5.367,0,0,0-.681-2.839,2.206,2.206,0,0,0-2-1.113,2.469,2.469,0,0,0-1.361.361,2.71,2.71,0,0,0-.911.991v4.909a2.633,2.633,0,0,0,.911.981,2.555,2.555,0,0,0,1.38.352,2.276,2.276,0,0,0,1.99-.962,4.226,4.226,0,0,0,.676-2.483Z" transform="translate(-515.454 -103.886)" fill="#12263f"/>
      <path id="Trazado_892456" data-name="Trazado 892456" d="M1014.217,205.18a5.592,5.592,0,0,1,1.22-3.712,4.523,4.523,0,0,1,6.65,0,5.574,5.574,0,0,1,1.225,3.717v.207a5.565,5.565,0,0,1-1.22,3.717,4.542,4.542,0,0,1-6.65,0,5.556,5.556,0,0,1-1.225-3.713Zm1.849.207a4.816,4.816,0,0,0,.681,2.666,2.459,2.459,0,0,0,4.032,0,4.793,4.793,0,0,0,.685-2.666v-.207a4.778,4.778,0,0,0-.69-2.656,2.262,2.262,0,0,0-2.023-1.061,2.231,2.231,0,0,0-2,1.061,4.828,4.828,0,0,0-.681,2.656Z" transform="translate(-526.795 -103.886)" fill="#12263f"/>
      <path id="Trazado_892457" data-name="Trazado 892457" d="M1042.656,201.829l-.948-.056a2.119,2.119,0,0,0-1.234.347,2.234,2.234,0,0,0-.774.977v7.255h-1.849V200.2h1.652l.178,1.483a3.52,3.52,0,0,1,1.065-1.23,2.493,2.493,0,0,1,1.46-.441,2.313,2.313,0,0,1,.394.033,2.628,2.628,0,0,1,.309.071Z" transform="translate(-539.07 -103.886)" fill="#12263f"/>
      <path id="Trazado_892458" data-name="Trazado 892458" d="M1053.794,195.3v2.45h1.924v1.37h-1.924v6.167a1.381,1.381,0,0,0,.3,1,1.069,1.069,0,0,0,.784.291,1.737,1.737,0,0,0,.357-.042,2.624,2.624,0,0,0,.329-.089l.253,1.267a1.644,1.644,0,0,1-.61.277,3.1,3.1,0,0,1-.8.108,2.4,2.4,0,0,1-1.792-.68,2.952,2.952,0,0,1-.667-2.136v-6.167h-1.614v-1.37h1.614V195.3Z" transform="translate(-545.553 -101.441)" fill="#12263f"/>
      <path id="Trazado_892459" data-name="Trazado 892459" d="M1071.529,210.352q-.094-.46-.146-.812a6.045,6.045,0,0,1-.061-.709,4.3,4.3,0,0,1-1.347,1.225,3.441,3.441,0,0,1-1.788.493,3.319,3.319,0,0,1-2.417-.812,2.986,2.986,0,0,1-.831-2.239,2.623,2.623,0,0,1,1.178-2.276,5.5,5.5,0,0,1,3.2-.821h2.009v-1a1.864,1.864,0,0,0-.544-1.413,2.139,2.139,0,0,0-1.539-.521,2.233,2.233,0,0,0-1.455.451,1.351,1.351,0,0,0-.554,1.079l-1.755.019-.019-.056a2.431,2.431,0,0,1,1.037-2.028,4.3,4.3,0,0,1,2.849-.92,4.2,4.2,0,0,1,2.778.878,3.11,3.11,0,0,1,1.052,2.53v4.89a9.5,9.5,0,0,0,.056,1.051,5.4,5.4,0,0,0,.207,1ZM1068.46,209a3.293,3.293,0,0,0,1.812-.516,2.451,2.451,0,0,0,1.051-1.183v-1.652h-2.074a2.692,2.692,0,0,0-1.788.563,1.684,1.684,0,0,0-.671,1.324,1.393,1.393,0,0,0,.422,1.07,1.768,1.768,0,0,0,1.249.394" transform="translate(-553.141 -103.886)" fill="#12263f"/>
      <path id="Trazado_892460" data-name="Trazado 892460" d="M1092.461,201.829l-.948-.056a2.119,2.119,0,0,0-1.234.347,2.234,2.234,0,0,0-.774.977v7.255h-1.849V200.2h1.652l.178,1.483a3.52,3.52,0,0,1,1.065-1.23,2.492,2.492,0,0,1,1.46-.441,2.315,2.315,0,0,1,.394.033,2.634,2.634,0,0,1,.309.071Z" transform="translate(-564.94 -103.886)" fill="#12263f"/>
      <path id="Trazado_892461" data-name="Trazado 892461" d="M908.864,255.549a4.294,4.294,0,0,1-3.412-1.4,5.382,5.382,0,0,1-1.225-3.679v-.413a5.271,5.271,0,0,1,1.262-3.618,3.96,3.96,0,0,1,3.083-1.431,3.686,3.686,0,0,1,3.055,1.267,5.218,5.218,0,0,1,1.019,3.37v.976h-6.5l-.028.047a4.2,4.2,0,0,0,.676,2.483,2.36,2.36,0,0,0,2.065.953,4.655,4.655,0,0,0,1.647-.267,3.672,3.672,0,0,0,1.215-.737l.723,1.2a4.435,4.435,0,0,1-1.436.887,5.722,5.722,0,0,1-2.15.361m-.291-9.086a2.01,2.01,0,0,0-1.6.746,3.528,3.528,0,0,0-.774,1.91l.019.047H910.8v-.15a2.959,2.959,0,0,0-.544-1.83,1.967,1.967,0,0,0-1.68-.723" transform="translate(-469.665 -127.26)" fill="#12263f"/>
      <rect id="Rectángulo_401956" data-name="Rectángulo 401956" width="1.849" height="14.643" transform="translate(445.206 113.449)" fill="#12263f"/>
      <path id="Trazado_892462" data-name="Trazado 892462" d="M949.652,254.1a2.173,2.173,0,0,0,1.492-.568,1.793,1.793,0,0,0,.639-1.394h1.67l.028.056a2.918,2.918,0,0,1-1.127,2.333,4.3,4.3,0,0,1-6.007-.437,5.617,5.617,0,0,1-1.164-3.623v-.394a5.593,5.593,0,0,1,1.169-3.609,3.986,3.986,0,0,1,3.3-1.46,3.833,3.833,0,0,1,2.783,1.052,3.334,3.334,0,0,1,1.047,2.581l-.019.056h-1.68a2.241,2.241,0,0,0-.606-1.582,1.993,1.993,0,0,0-1.525-.652,2.136,2.136,0,0,0-1.985,1.056,4.942,4.942,0,0,0-.624,2.558v.394a5.035,5.035,0,0,0,.615,2.581,2.133,2.133,0,0,0,1.995,1.052" transform="translate(-490.939 -127.26)" fill="#12263f"/>
      <path id="Trazado_892463" data-name="Trazado 892463" d="M966.121,250.18a5.593,5.593,0,0,1,1.22-3.712,4.523,4.523,0,0,1,6.65,0,5.571,5.571,0,0,1,1.225,3.717v.207A5.566,5.566,0,0,1,974,254.1a4.543,4.543,0,0,1-6.651,0,5.557,5.557,0,0,1-1.225-3.713Zm1.849.207a4.816,4.816,0,0,0,.681,2.666,2.459,2.459,0,0,0,4.032,0,4.793,4.793,0,0,0,.685-2.666v-.207a4.779,4.779,0,0,0-.69-2.656,2.262,2.262,0,0,0-2.023-1.061,2.23,2.23,0,0,0-2,1.061,4.828,4.828,0,0,0-.681,2.656Z" transform="translate(-501.814 -127.26)" fill="#12263f"/>
      <path id="Trazado_892464" data-name="Trazado 892464" d="M991.406,245.195l.131,1.511a3.692,3.692,0,0,1,1.272-1.253,3.394,3.394,0,0,1,1.741-.446,3.317,3.317,0,0,1,2.544.962,4.225,4.225,0,0,1,.9,2.971v6.411h-1.849v-6.374a2.749,2.749,0,0,0-.53-1.906,2.126,2.126,0,0,0-1.619-.563,2.868,2.868,0,0,0-1.45.343,2.494,2.494,0,0,0-.943.962v7.538h-1.849V245.195Z" transform="translate(-514.089 -127.259)" fill="#12263f"/>
      <path id="Trazado_892465" data-name="Trazado 892465" d="M1016.058,254.1a2.173,2.173,0,0,0,1.492-.568,1.793,1.793,0,0,0,.639-1.394h1.671l.028.056a2.92,2.92,0,0,1-1.126,2.333,4.3,4.3,0,0,1-6.007-.437,5.617,5.617,0,0,1-1.164-3.623v-.394a5.593,5.593,0,0,1,1.169-3.609,3.986,3.986,0,0,1,3.3-1.46,3.833,3.833,0,0,1,2.783,1.052,3.335,3.335,0,0,1,1.047,2.581l-.019.056h-1.68a2.241,2.241,0,0,0-.605-1.582,1.992,1.992,0,0,0-1.525-.652,2.135,2.135,0,0,0-1.985,1.056,4.943,4.943,0,0,0-.624,2.558v.394a5.035,5.035,0,0,0,.615,2.581,2.132,2.132,0,0,0,1.995,1.052" transform="translate(-525.431 -127.26)" fill="#12263f"/>
      <path id="Trazado_892466" data-name="Trazado 892466" d="M1037.165,255.549a4.294,4.294,0,0,1-3.412-1.4,5.383,5.383,0,0,1-1.225-3.679v-.413a5.271,5.271,0,0,1,1.263-3.618,3.96,3.96,0,0,1,3.083-1.431,3.686,3.686,0,0,1,3.055,1.267,5.218,5.218,0,0,1,1.019,3.37v.976h-6.5l-.028.047a4.2,4.2,0,0,0,.676,2.483,2.36,2.36,0,0,0,2.065.953,4.655,4.655,0,0,0,1.647-.267,3.671,3.671,0,0,0,1.215-.737l.723,1.2a4.436,4.436,0,0,1-1.436.887,5.723,5.723,0,0,1-2.15.361m-.291-9.086a2.011,2.011,0,0,0-1.6.746,3.528,3.528,0,0,0-.774,1.91l.019.047h4.581v-.15a2.959,2.959,0,0,0-.545-1.83,1.967,1.967,0,0,0-1.68-.723" transform="translate(-536.306 -127.26)" fill="#12263f"/>
      <path id="Trazado_892467" data-name="Trazado 892467" d="M1063.018,250.658a5.6,5.6,0,0,1-1.051,3.543,3.475,3.475,0,0,1-2.9,1.347,4.034,4.034,0,0,1-1.647-.314,3.157,3.157,0,0,1-1.206-.943v4.965h-1.849V245.195h1.417l.291,1.314a3.356,3.356,0,0,1,1.239-1.117,3.7,3.7,0,0,1,1.727-.385,3.375,3.375,0,0,1,2.933,1.5,6.772,6.772,0,0,1,1.047,3.956Zm-1.849-.2a5.365,5.365,0,0,0-.681-2.839,2.206,2.206,0,0,0-2-1.113,2.47,2.47,0,0,0-1.361.361,2.71,2.71,0,0,0-.911.991v4.909a2.632,2.632,0,0,0,.911.981,2.556,2.556,0,0,0,1.38.352,2.276,2.276,0,0,0,1.99-.962,4.224,4.224,0,0,0,.676-2.483Z" transform="translate(-547.648 -127.259)" fill="#12263f"/>
      <path id="Trazado_892468" data-name="Trazado 892468" d="M1078.707,240.3v2.45h1.924v1.37h-1.924v6.167a1.381,1.381,0,0,0,.3,1,1.069,1.069,0,0,0,.784.291,1.734,1.734,0,0,0,.357-.042,2.605,2.605,0,0,0,.329-.089l.253,1.267a1.64,1.64,0,0,1-.61.277,3.1,3.1,0,0,1-.8.108,2.4,2.4,0,0,1-1.793-.681,2.955,2.955,0,0,1-.667-2.136v-6.167h-1.614v-1.37h1.614V240.3Z" transform="translate(-558.493 -124.815)" fill="#12263f"/>
      <path id="Trazado_892469" data-name="Trazado 892469" d="M1089.676,250.18a5.592,5.592,0,0,1,1.22-3.712,4.523,4.523,0,0,1,6.65,0,5.571,5.571,0,0,1,1.225,3.717v.207a5.565,5.565,0,0,1-1.22,3.717,4.542,4.542,0,0,1-6.65,0,5.555,5.555,0,0,1-1.225-3.713Zm1.849.207a4.817,4.817,0,0,0,.68,2.666,2.459,2.459,0,0,0,4.032,0,4.793,4.793,0,0,0,.685-2.666v-.207a4.779,4.779,0,0,0-.69-2.656,2.262,2.262,0,0,0-2.023-1.061,2.231,2.231,0,0,0-2,1.061,4.829,4.829,0,0,0-.68,2.656Z" transform="translate(-565.989 -127.26)" fill="#12263f"/>
      <path id="Trazado_892470" data-name="Trazado 892470" d="M870.164,290.816a6.778,6.778,0,0,1,1.047-3.952,3.372,3.372,0,0,1,2.933-1.5,3.642,3.642,0,0,1,1.582.329,3.244,3.244,0,0,1,1.178.957v-5.585h1.849v14.643h-1.417l-.282-1.286a3.3,3.3,0,0,1-1.229,1.108,3.681,3.681,0,0,1-1.7.375,3.484,3.484,0,0,1-2.91-1.347,5.6,5.6,0,0,1-1.052-3.543Zm1.849.2a4.311,4.311,0,0,0,.629,2.464,2.195,2.195,0,0,0,1.952.925,2.45,2.45,0,0,0,1.389-.375,2.8,2.8,0,0,0,.92-1.052v-4.74a2.847,2.847,0,0,0-.925-1,2.444,2.444,0,0,0-1.366-.371,2.115,2.115,0,0,0-1.967,1.1,5.67,5.67,0,0,0-.633,2.854Z" transform="translate(-451.972 -145.987)" fill="#12263f"/>
      <path id="Trazado_892471" data-name="Trazado 892471" d="M897.516,300.549a4.294,4.294,0,0,1-3.412-1.4,5.382,5.382,0,0,1-1.225-3.679v-.413a5.271,5.271,0,0,1,1.263-3.618,3.96,3.96,0,0,1,3.083-1.431,3.686,3.686,0,0,1,3.055,1.267,5.218,5.218,0,0,1,1.019,3.37v.976h-6.5l-.028.047a4.2,4.2,0,0,0,.676,2.483,2.361,2.361,0,0,0,2.065.953,4.654,4.654,0,0,0,1.647-.267,3.67,3.67,0,0,0,1.215-.737l.723,1.2a4.436,4.436,0,0,1-1.436.887,5.723,5.723,0,0,1-2.15.361m-.291-9.086a2.011,2.011,0,0,0-1.6.746,3.528,3.528,0,0,0-.774,1.91l.019.047h4.58v-.15a2.958,2.958,0,0,0-.544-1.83,1.968,1.968,0,0,0-1.68-.723" transform="translate(-463.771 -150.633)" fill="#12263f"/>
      <path id="Trazado_892472" data-name="Trazado 892472" d="M933.311,295.658a5.6,5.6,0,0,1-1.051,3.543,3.475,3.475,0,0,1-2.9,1.347,4.034,4.034,0,0,1-1.648-.314,3.151,3.151,0,0,1-1.206-.943v4.965h-1.849V290.195h1.417l.291,1.314a3.355,3.355,0,0,1,1.239-1.117,3.7,3.7,0,0,1,1.727-.385,3.375,3.375,0,0,1,2.933,1.5,6.772,6.772,0,0,1,1.047,3.956Zm-1.849-.2a5.366,5.366,0,0,0-.681-2.839,2.206,2.206,0,0,0-2-1.113,2.469,2.469,0,0,0-1.361.361,2.71,2.71,0,0,0-.911.991v4.909a2.629,2.629,0,0,0,.911.981,2.555,2.555,0,0,0,1.38.352,2.276,2.276,0,0,0,1.99-.962,4.225,4.225,0,0,0,.676-2.483Z" transform="translate(-480.277 -150.633)" fill="#12263f"/>
      <path id="Trazado_892473" data-name="Trazado 892473" d="M952.2,291.829l-.948-.056a2.119,2.119,0,0,0-1.234.347,2.237,2.237,0,0,0-.774.977v7.255h-1.849V290.2h1.652l.178,1.483a3.52,3.52,0,0,1,1.065-1.23,2.5,2.5,0,0,1,1.46-.441,2.319,2.319,0,0,1,.394.033,2.634,2.634,0,0,1,.309.071Z" transform="translate(-492.085 -150.633)" fill="#12263f"/>
      <path id="Trazado_892474" data-name="Trazado 892474" d="M960.106,295.18a5.593,5.593,0,0,1,1.22-3.712,4.523,4.523,0,0,1,6.65,0,5.571,5.571,0,0,1,1.225,3.717v.207a5.565,5.565,0,0,1-1.22,3.717,4.543,4.543,0,0,1-6.65,0,5.556,5.556,0,0,1-1.225-3.713Zm1.849.207a4.817,4.817,0,0,0,.681,2.666,2.459,2.459,0,0,0,4.032,0,4.794,4.794,0,0,0,.685-2.666v-.207a4.778,4.778,0,0,0-.69-2.656,2.261,2.261,0,0,0-2.023-1.061,2.231,2.231,0,0,0-2,1.061,4.829,4.829,0,0,0-.681,2.656Z" transform="translate(-498.689 -150.633)" fill="#12263f"/>
      <path id="Trazado_892475" data-name="Trazado 892475" d="M992.393,295.658a5.6,5.6,0,0,1-1.052,3.543,3.475,3.475,0,0,1-2.9,1.347,4.033,4.033,0,0,1-1.647-.314,3.149,3.149,0,0,1-1.206-.943v4.965h-1.849V290.195h1.417l.291,1.314a3.356,3.356,0,0,1,1.239-1.117,3.7,3.7,0,0,1,1.727-.385,3.375,3.375,0,0,1,2.933,1.5,6.772,6.772,0,0,1,1.047,3.956Zm-1.849-.2a5.366,5.366,0,0,0-.681-2.839,2.205,2.205,0,0,0-2-1.113,2.469,2.469,0,0,0-1.361.361,2.71,2.71,0,0,0-.911.991v4.909a2.629,2.629,0,0,0,.911.981,2.555,2.555,0,0,0,1.38.352,2.276,2.276,0,0,0,1.99-.962,4.225,4.225,0,0,0,.676-2.483Z" transform="translate(-510.965 -150.633)" fill="#12263f"/>
      <path id="Trazado_892476" data-name="Trazado 892476" d="M1005.574,295.18a5.592,5.592,0,0,1,1.22-3.712,4.523,4.523,0,0,1,6.65,0,5.571,5.571,0,0,1,1.225,3.717v.207a5.566,5.566,0,0,1-1.22,3.717,4.543,4.543,0,0,1-6.651,0,5.555,5.555,0,0,1-1.225-3.713Zm1.849.207a4.816,4.816,0,0,0,.681,2.666,2.459,2.459,0,0,0,4.032,0,4.793,4.793,0,0,0,.685-2.666v-.207a4.778,4.778,0,0,0-.69-2.656,2.261,2.261,0,0,0-2.023-1.061,2.23,2.23,0,0,0-2,1.061,4.828,4.828,0,0,0-.681,2.656Z" transform="translate(-522.306 -150.633)" fill="#12263f"/>
      <path id="Trazado_892477" data-name="Trazado 892477" d="M1034.764,297.621a1.232,1.232,0,0,0-.465-.995,4.49,4.49,0,0,0-1.76-.676,7.374,7.374,0,0,1-2.755-1.079,2.179,2.179,0,0,1-.962-1.858,2.679,2.679,0,0,1,1.056-2.121,4.66,4.66,0,0,1,5.533.056,2.691,2.691,0,0,1,1.023,2.187l-.019.056h-1.765a1.6,1.6,0,0,0-.578-1.192,2.063,2.063,0,0,0-1.46-.535,2.107,2.107,0,0,0-1.459.441,1.377,1.377,0,0,0-.484,1.052,1.113,1.113,0,0,0,.418.929,4.615,4.615,0,0,0,1.723.6,7.278,7.278,0,0,1,2.834,1.117,2.249,2.249,0,0,1,.967,1.887,2.673,2.673,0,0,1-1.094,2.205,5.225,5.225,0,0,1-5.918-.131,2.811,2.811,0,0,1-1.061-2.3l.019-.056h1.765a1.71,1.71,0,0,0,.732,1.441,2.831,2.831,0,0,0,1.605.455,2.527,2.527,0,0,0,1.544-.418,1.279,1.279,0,0,0,.559-1.065" transform="translate(-534.234 -150.633)" fill="#12263f"/>
      <path id="Trazado_892478" data-name="Trazado 892478" d="M1052.287,282.949h-1.849v-1.887h1.849Zm0,12.756h-1.849V285.549h1.849Z" transform="translate(-545.609 -145.987)" fill="#12263f"/>
      <path id="Trazado_892479" data-name="Trazado 892479" d="M1063.773,299.1a2.173,2.173,0,0,0,1.492-.568,1.793,1.793,0,0,0,.639-1.394h1.671l.028.056a2.918,2.918,0,0,1-1.126,2.333,4.3,4.3,0,0,1-6.007-.437,5.616,5.616,0,0,1-1.164-3.623v-.394a5.594,5.594,0,0,1,1.169-3.609,3.986,3.986,0,0,1,3.3-1.46,3.833,3.833,0,0,1,2.783,1.052,3.334,3.334,0,0,1,1.047,2.581l-.019.056h-1.68a2.241,2.241,0,0,0-.605-1.582,1.994,1.994,0,0,0-1.525-.652,2.135,2.135,0,0,0-1.985,1.056,4.943,4.943,0,0,0-.624,2.558v.394a5.033,5.033,0,0,0,.615,2.581,2.132,2.132,0,0,0,1.994,1.052" transform="translate(-550.214 -150.633)" fill="#12263f"/>
      <path id="Trazado_892480" data-name="Trazado 892480" d="M1083.3,282.949h-1.849v-1.887h1.849Zm0,12.756h-1.849V285.549h1.849Z" transform="translate(-561.718 -145.987)" fill="#12263f"/>
      <path id="Trazado_892481" data-name="Trazado 892481" d="M1090.321,290.727a5.6,5.6,0,0,1,1.22-3.713,4.092,4.092,0,0,1,3.313-1.46,4.133,4.133,0,0,1,3.337,1.455,5.574,5.574,0,0,1,1.225,3.717v.207a5.566,5.566,0,0,1-1.22,3.717,4.542,4.542,0,0,1-6.65,0,5.551,5.551,0,0,1-1.225-3.712Zm1.849.207a4.811,4.811,0,0,0,.681,2.665,2.457,2.457,0,0,0,4.031,0,4.792,4.792,0,0,0,.685-2.665v-.207a4.777,4.777,0,0,0-.69-2.656,2.261,2.261,0,0,0-2.023-1.061,2.23,2.23,0,0,0-2,1.061,4.824,4.824,0,0,0-.681,2.656Zm3.595-9.5h2.159l.019.056-2.525,2.44h-1.389Z" transform="translate(-566.324 -146.18)" fill="#12263f"/>
      <path id="Trazado_892482" data-name="Trazado 892482" d="M1115.605,290.195l.131,1.511a3.691,3.691,0,0,1,1.272-1.253,3.393,3.393,0,0,1,1.741-.446,3.317,3.317,0,0,1,2.544.962,4.225,4.225,0,0,1,.9,2.971v6.411h-1.849v-6.374a2.75,2.75,0,0,0-.53-1.906,2.125,2.125,0,0,0-1.619-.563,2.874,2.874,0,0,0-1.45.343,2.494,2.494,0,0,0-.943.962v7.538h-1.849V290.195Z" transform="translate(-578.599 -150.633)" fill="#12263f"/>
      <rect id="Rectángulo_401957" data-name="Rectángulo 401957" width="1.849" height="1.896" transform="translate(546.449 147.823)" fill="#12263f"/>
      <path id="Trazado_892483" data-name="Trazado 892483" d="M503.333,272.935H497.72v4.89h6.571v1.446h-8.419V265.6h8.316v1.455H497.72v4.421h5.613Z" transform="translate(-257.561 -137.957)" fill="#12263f"/>
      <path id="Trazado_892484" data-name="Trazado 892484" d="M522.97,280.13a1.232,1.232,0,0,0-.465-.995,4.485,4.485,0,0,0-1.76-.676,7.384,7.384,0,0,1-2.755-1.079,2.18,2.18,0,0,1-.962-1.858,2.678,2.678,0,0,1,1.056-2.121,4.66,4.66,0,0,1,5.534.056,2.69,2.69,0,0,1,1.023,2.187l-.019.056h-1.765a1.6,1.6,0,0,0-.578-1.192,2.063,2.063,0,0,0-1.46-.535,2.1,2.1,0,0,0-1.459.441,1.375,1.375,0,0,0-.484,1.051,1.114,1.114,0,0,0,.418.93,4.615,4.615,0,0,0,1.722.6,7.285,7.285,0,0,1,2.834,1.117A2.25,2.25,0,0,1,524.82,280a2.672,2.672,0,0,1-1.094,2.205,5.225,5.225,0,0,1-5.918-.131,2.811,2.811,0,0,1-1.061-2.3l.019-.056h1.765a1.71,1.71,0,0,0,.732,1.441,2.83,2.83,0,0,0,1.605.455,2.528,2.528,0,0,0,1.544-.418,1.278,1.278,0,0,0,.558-1.065" transform="translate(-268.403 -141.549)" fill="#12263f"/>
      <path id="Trazado_892485" data-name="Trazado 892485" d="M539.94,267.811v2.45h1.924v1.37H539.94V277.8a1.381,1.381,0,0,0,.3,1,1.068,1.068,0,0,0,.784.291,1.7,1.7,0,0,0,.357-.042,2.534,2.534,0,0,0,.329-.089l.253,1.267a1.631,1.631,0,0,1-.61.277,3.074,3.074,0,0,1-.8.108,2.394,2.394,0,0,1-1.793-.68,2.953,2.953,0,0,1-.667-2.135v-6.167h-1.614v-1.37h1.614v-2.45Z" transform="translate(-278.651 -139.104)" fill="#12263f"/>
      <path id="Trazado_892486" data-name="Trazado 892486" d="M557.675,282.862c-.062-.306-.111-.578-.146-.812a6.023,6.023,0,0,1-.061-.709,4.3,4.3,0,0,1-1.347,1.225,3.441,3.441,0,0,1-1.788.493,3.32,3.32,0,0,1-2.417-.812,2.985,2.985,0,0,1-.831-2.239,2.623,2.623,0,0,1,1.178-2.276,5.5,5.5,0,0,1,3.2-.821h2.009v-1a1.864,1.864,0,0,0-.544-1.412,2.137,2.137,0,0,0-1.539-.521,2.233,2.233,0,0,0-1.455.45,1.351,1.351,0,0,0-.554,1.079l-1.755.019-.019-.057a2.43,2.43,0,0,1,1.037-2.027,4.3,4.3,0,0,1,2.849-.92,4.192,4.192,0,0,1,2.778.878,3.109,3.109,0,0,1,1.052,2.529v4.89a9.542,9.542,0,0,0,.056,1.051,5.413,5.413,0,0,0,.207,1Zm-3.07-1.352a3.289,3.289,0,0,0,1.812-.516,2.449,2.449,0,0,0,1.051-1.183v-1.652h-2.074a2.689,2.689,0,0,0-1.788.563,1.683,1.683,0,0,0-.671,1.323,1.393,1.393,0,0,0,.422,1.07,1.768,1.768,0,0,0,1.249.394" transform="translate(-286.24 -141.549)" fill="#12263f"/>
      <path id="Trazado_892487" data-name="Trazado 892487" d="M579.357,280.13a1.233,1.233,0,0,0-.465-.995,4.485,4.485,0,0,0-1.76-.676,7.387,7.387,0,0,1-2.755-1.079,2.18,2.18,0,0,1-.962-1.858,2.678,2.678,0,0,1,1.056-2.121,4.66,4.66,0,0,1,5.533.056,2.691,2.691,0,0,1,1.024,2.187l-.019.056h-1.764a1.6,1.6,0,0,0-.578-1.192,2.063,2.063,0,0,0-1.46-.535,2.1,2.1,0,0,0-1.459.441,1.374,1.374,0,0,0-.484,1.051,1.114,1.114,0,0,0,.418.93,4.619,4.619,0,0,0,1.722.6,7.289,7.289,0,0,1,2.835,1.117,2.251,2.251,0,0,1,.966,1.887,2.672,2.672,0,0,1-1.094,2.205,5.225,5.225,0,0,1-5.917-.131,2.811,2.811,0,0,1-1.061-2.3l.019-.056h1.765a1.71,1.71,0,0,0,.732,1.441,2.832,2.832,0,0,0,1.606.455,2.527,2.527,0,0,0,1.544-.418,1.277,1.277,0,0,0,.559-1.065" transform="translate(-297.69 -141.549)" fill="#12263f"/>
      <path id="Trazado_892488" data-name="Trazado 892488" d="M604.546,278v-8.786H602.96v-1.37h1.586v-1.286a3.485,3.485,0,0,1,.85-2.511,3.126,3.126,0,0,1,2.37-.887,4.112,4.112,0,0,1,.643.051q.324.052.718.146l-.225,1.408c-.113-.025-.249-.047-.409-.065a4.3,4.3,0,0,0-.5-.028,1.46,1.46,0,0,0-1.2.483,2.173,2.173,0,0,0-.394,1.4v1.286h1.84v1.37H606.4V278Z" transform="translate(-313.184 -136.69)" fill="#12263f"/>
      <path id="Trazado_892489" data-name="Trazado 892489" d="M622.63,274.339l-.948-.056a2.119,2.119,0,0,0-1.234.347,2.234,2.234,0,0,0-.774.977v7.255h-1.849V272.706h1.652l.178,1.483a3.52,3.52,0,0,1,1.065-1.23,2.493,2.493,0,0,1,1.46-.441,2.315,2.315,0,0,1,.394.033,2.638,2.638,0,0,1,.31.071Z" transform="translate(-320.904 -141.549)" fill="#12263f"/>
      <path id="Trazado_892490" data-name="Trazado 892490" d="M637.694,282.862c-.063-.306-.112-.578-.146-.812a6.023,6.023,0,0,1-.061-.709,4.3,4.3,0,0,1-1.347,1.225,3.442,3.442,0,0,1-1.788.493,3.32,3.32,0,0,1-2.417-.812,2.985,2.985,0,0,1-.83-2.239,2.623,2.623,0,0,1,1.178-2.276,5.5,5.5,0,0,1,3.2-.821h2.009v-1a1.864,1.864,0,0,0-.544-1.412,2.137,2.137,0,0,0-1.539-.521,2.233,2.233,0,0,0-1.455.45,1.351,1.351,0,0,0-.554,1.079l-1.755.019-.019-.057a2.43,2.43,0,0,1,1.037-2.027,4.3,4.3,0,0,1,2.849-.92,4.193,4.193,0,0,1,2.778.878,3.109,3.109,0,0,1,1.052,2.529v4.89a9.527,9.527,0,0,0,.056,1.051,5.413,5.413,0,0,0,.207,1Zm-3.07-1.352a3.289,3.289,0,0,0,1.812-.516,2.448,2.448,0,0,0,1.051-1.183v-1.652h-2.074a2.689,2.689,0,0,0-1.788.563,1.683,1.683,0,0,0-.671,1.323,1.393,1.393,0,0,0,.422,1.07,1.768,1.768,0,0,0,1.249.394" transform="translate(-327.803 -141.549)" fill="#12263f"/>
      <path id="Trazado_892491" data-name="Trazado 892491" d="M659.376,280.13a1.232,1.232,0,0,0-.465-.995,4.485,4.485,0,0,0-1.76-.676,7.383,7.383,0,0,1-2.755-1.079,2.18,2.18,0,0,1-.962-1.858,2.678,2.678,0,0,1,1.056-2.121,4.66,4.66,0,0,1,5.533.056,2.69,2.69,0,0,1,1.023,2.187l-.019.056h-1.765a1.6,1.6,0,0,0-.578-1.192,2.063,2.063,0,0,0-1.46-.535,2.1,2.1,0,0,0-1.46.441,1.376,1.376,0,0,0-.483,1.051,1.114,1.114,0,0,0,.418.93,4.615,4.615,0,0,0,1.722.6,7.286,7.286,0,0,1,2.835,1.117,2.25,2.25,0,0,1,.967,1.887,2.672,2.672,0,0,1-1.094,2.205,5.225,5.225,0,0,1-5.918-.131,2.811,2.811,0,0,1-1.061-2.3l.019-.056h1.765a1.71,1.71,0,0,0,.732,1.441,2.83,2.83,0,0,0,1.605.455,2.527,2.527,0,0,0,1.544-.418,1.278,1.278,0,0,0,.558-1.065" transform="translate(-339.253 -141.549)" fill="#12263f"/>
      <path id="Trazado_892492" data-name="Trazado 892492" d="M678.476,283.059a4.294,4.294,0,0,1-3.412-1.4,5.383,5.383,0,0,1-1.225-3.679v-.413a5.271,5.271,0,0,1,1.263-3.618,3.96,3.96,0,0,1,3.083-1.431,3.686,3.686,0,0,1,3.055,1.267,5.218,5.218,0,0,1,1.019,3.37v.976h-6.5l-.028.047a4.2,4.2,0,0,0,.676,2.483,2.36,2.36,0,0,0,2.065.953,4.652,4.652,0,0,0,1.647-.268,3.662,3.662,0,0,0,1.215-.737l.723,1.2a4.412,4.412,0,0,1-1.436.887,5.713,5.713,0,0,1-2.15.361m-.291-9.086a2.011,2.011,0,0,0-1.6.746,3.528,3.528,0,0,0-.774,1.91l.019.047h4.581v-.15a2.958,2.958,0,0,0-.545-1.83,1.967,1.967,0,0,0-1.68-.723" transform="translate(-349.999 -141.549)" fill="#12263f"/>
      <path id="Trazado_892493" data-name="Trazado 892493" d="M701.232,280.13a1.233,1.233,0,0,0-.465-.995,4.484,4.484,0,0,0-1.76-.676,7.387,7.387,0,0,1-2.755-1.079,2.18,2.18,0,0,1-.962-1.858,2.678,2.678,0,0,1,1.056-2.121,4.66,4.66,0,0,1,5.533.056,2.691,2.691,0,0,1,1.024,2.187l-.019.056h-1.764a1.6,1.6,0,0,0-.578-1.192,2.063,2.063,0,0,0-1.46-.535,2.1,2.1,0,0,0-1.459.441,1.375,1.375,0,0,0-.484,1.051,1.114,1.114,0,0,0,.418.93,4.618,4.618,0,0,0,1.722.6,7.288,7.288,0,0,1,2.835,1.117,2.251,2.251,0,0,1,.966,1.887,2.672,2.672,0,0,1-1.094,2.205,5.225,5.225,0,0,1-5.917-.131,2.81,2.81,0,0,1-1.061-2.3l.019-.056h1.765a1.71,1.71,0,0,0,.732,1.441,2.832,2.832,0,0,0,1.606.455,2.527,2.527,0,0,0,1.544-.418,1.277,1.277,0,0,0,.559-1.065" transform="translate(-360.993 -141.549)" fill="#12263f"/>
      <path id="Trazado_892494" data-name="Trazado 892494" d="M522.413,318.325a6.777,6.777,0,0,1,1.047-3.952,3.374,3.374,0,0,1,2.934-1.5,3.642,3.642,0,0,1,1.582.329,3.255,3.255,0,0,1,1.178.957v-5.585H531v14.643h-1.417l-.282-1.286a3.3,3.3,0,0,1-1.229,1.108,3.674,3.674,0,0,1-1.7.375,3.484,3.484,0,0,1-2.91-1.347,5.6,5.6,0,0,1-1.052-3.543Zm1.849.2a4.309,4.309,0,0,0,.629,2.464,2.195,2.195,0,0,0,1.952.925,2.45,2.45,0,0,0,1.389-.375,2.8,2.8,0,0,0,.92-1.052v-4.74a2.857,2.857,0,0,0-.925-1,2.445,2.445,0,0,0-1.366-.371,2.115,2.115,0,0,0-1.967,1.1,5.671,5.671,0,0,0-.633,2.854Z" transform="translate(-271.347 -160.276)" fill="#12263f"/>
      <path id="Trazado_892495" data-name="Trazado 892495" d="M549.765,328.059a4.294,4.294,0,0,1-3.412-1.4,5.382,5.382,0,0,1-1.225-3.679v-.413a5.271,5.271,0,0,1,1.263-3.618,3.961,3.961,0,0,1,3.083-1.431,3.687,3.687,0,0,1,3.055,1.267,5.219,5.219,0,0,1,1.019,3.37v.976h-6.5l-.028.047a4.194,4.194,0,0,0,.676,2.483,2.36,2.36,0,0,0,2.065.953,4.654,4.654,0,0,0,1.647-.267,3.662,3.662,0,0,0,1.215-.737l.723,1.2a4.419,4.419,0,0,1-1.436.887,5.714,5.714,0,0,1-2.15.361m-.291-9.086a2.01,2.01,0,0,0-1.6.746,3.53,3.53,0,0,0-.774,1.91l.019.047H551.7v-.15a2.96,2.96,0,0,0-.545-1.83,1.968,1.968,0,0,0-1.68-.723" transform="translate(-283.145 -164.922)" fill="#12263f"/>
      <path id="Trazado_892496" data-name="Trazado 892496" d="M570.534,326.613a2.171,2.171,0,0,0,1.492-.568,1.793,1.793,0,0,0,.639-1.394h1.671l.028.056a2.917,2.917,0,0,1-1.127,2.333,4.3,4.3,0,0,1-6.007-.437,5.616,5.616,0,0,1-1.164-3.623v-.394a5.6,5.6,0,0,1,1.169-3.609,3.987,3.987,0,0,1,3.3-1.46,3.835,3.835,0,0,1,2.783,1.052,3.335,3.335,0,0,1,1.047,2.581l-.019.056h-1.68a2.242,2.242,0,0,0-.606-1.582,1.994,1.994,0,0,0-1.525-.652,2.135,2.135,0,0,0-1.985,1.056,4.944,4.944,0,0,0-.624,2.558v.394a5.033,5.033,0,0,0,.615,2.581,2.132,2.132,0,0,0,1.994,1.052" transform="translate(-294.021 -164.922)" fill="#12263f"/>
      <rect id="Rectángulo_401958" data-name="Rectángulo 401958" width="1.849" height="14.643" transform="translate(282.689 148.296)" fill="#12263f"/>
      <path id="Trazado_892497" data-name="Trazado 892497" d="M603.847,327.861c-.062-.306-.111-.578-.146-.812a6.01,6.01,0,0,1-.061-.709,4.3,4.3,0,0,1-1.347,1.225,3.442,3.442,0,0,1-1.788.493,3.319,3.319,0,0,1-2.417-.812,2.985,2.985,0,0,1-.83-2.239,2.623,2.623,0,0,1,1.178-2.276,5.5,5.5,0,0,1,3.2-.821h2.009v-1a1.865,1.865,0,0,0-.544-1.413,2.139,2.139,0,0,0-1.539-.521,2.233,2.233,0,0,0-1.455.451,1.352,1.352,0,0,0-.554,1.079l-1.755.019-.019-.056a2.433,2.433,0,0,1,1.037-2.028,4.3,4.3,0,0,1,2.849-.92,4.2,4.2,0,0,1,2.778.878,3.111,3.111,0,0,1,1.052,2.53v4.891a9.527,9.527,0,0,0,.056,1.051,5.408,5.408,0,0,0,.207,1Zm-3.07-1.352a3.288,3.288,0,0,0,1.812-.516,2.448,2.448,0,0,0,1.051-1.183v-1.652h-2.074a2.691,2.691,0,0,0-1.788.563,1.684,1.684,0,0,0-.671,1.324,1.393,1.393,0,0,0,.422,1.07,1.769,1.769,0,0,0,1.249.394" transform="translate(-310.222 -164.922)" fill="#12263f"/>
      <path id="Trazado_892498" data-name="Trazado 892498" d="M624.778,319.339l-.948-.056a2.124,2.124,0,0,0-1.234.347,2.24,2.24,0,0,0-.774.977v7.255h-1.849V317.706h1.652l.178,1.483a3.523,3.523,0,0,1,1.065-1.23,2.5,2.5,0,0,1,1.46-.441,2.314,2.314,0,0,1,.394.033,2.839,2.839,0,0,1,.31.071Z" transform="translate(-322.02 -164.922)" fill="#12263f"/>
      <path id="Trazado_892499" data-name="Trazado 892499" d="M639.843,327.861c-.062-.306-.112-.578-.146-.812a6,6,0,0,1-.061-.709,4.3,4.3,0,0,1-1.347,1.225,3.442,3.442,0,0,1-1.788.493,3.319,3.319,0,0,1-2.417-.812,2.985,2.985,0,0,1-.83-2.239,2.623,2.623,0,0,1,1.178-2.276,5.5,5.5,0,0,1,3.2-.821h2.009v-1a1.865,1.865,0,0,0-.545-1.413,2.139,2.139,0,0,0-1.539-.521,2.233,2.233,0,0,0-1.455.451,1.352,1.352,0,0,0-.554,1.079l-1.755.019-.019-.056a2.433,2.433,0,0,1,1.037-2.028,4.3,4.3,0,0,1,2.849-.92,4.2,4.2,0,0,1,2.778.878,3.111,3.111,0,0,1,1.052,2.53v4.891a9.527,9.527,0,0,0,.056,1.051,5.413,5.413,0,0,0,.207,1Zm-3.07-1.352a3.289,3.289,0,0,0,1.812-.516,2.448,2.448,0,0,0,1.051-1.183v-1.652h-2.074a2.692,2.692,0,0,0-1.788.563,1.684,1.684,0,0,0-.671,1.324,1.393,1.393,0,0,0,.422,1.07,1.768,1.768,0,0,0,1.249.394" transform="translate(-328.919 -164.922)" fill="#12263f"/>
      <path id="Trazado_892500" data-name="Trazado 892500" d="M657.62,317.7l.131,1.511a3.692,3.692,0,0,1,1.272-1.253,3.4,3.4,0,0,1,1.741-.446,3.317,3.317,0,0,1,2.544.962,4.226,4.226,0,0,1,.9,2.971v6.411H662.36v-6.374a2.749,2.749,0,0,0-.53-1.905,2.125,2.125,0,0,0-1.619-.563,2.874,2.874,0,0,0-1.45.343,2.5,2.5,0,0,0-.943.962v7.538h-1.849V317.7Z" transform="translate(-340.717 -164.922)" fill="#12263f"/>
      <path id="Trazado_892501" data-name="Trazado 892501" d="M512.728,371.562a3.433,3.433,0,0,1-1.23,1.258,3.364,3.364,0,0,1-1.736.441,3.261,3.261,0,0,1-2.591-1.061,4.924,4.924,0,0,1-.929-3.3v-5.989h1.849v6.007a3.781,3.781,0,0,0,.479,2.234,1.779,1.779,0,0,0,1.492.61,3.035,3.035,0,0,0,1.629-.4,2.5,2.5,0,0,0,.971-1.131v-7.322h1.849v10.156H512.85Z" transform="translate(-262.948 -188.498)" fill="#12263f"/>
      <path id="Trazado_892502" data-name="Trazado 892502" d="M530.706,362.7l.131,1.511a3.691,3.691,0,0,1,1.272-1.253,3.4,3.4,0,0,1,1.741-.446,3.317,3.317,0,0,1,2.544.962,4.226,4.226,0,0,1,.9,2.971v6.411h-1.849v-6.374a2.75,2.75,0,0,0-.53-1.906,2.126,2.126,0,0,0-1.619-.563,2.874,2.874,0,0,0-1.45.343,2.5,2.5,0,0,0-.943.962v7.538h-1.849V362.7Z" transform="translate(-274.796 -188.295)" fill="#12263f"/>
      <path id="Trazado_892503" data-name="Trazado 892503" d="M557.655,372.861c-.062-.306-.112-.578-.146-.812a6,6,0,0,1-.061-.709,4.3,4.3,0,0,1-1.347,1.225,3.442,3.442,0,0,1-1.788.493,3.319,3.319,0,0,1-2.417-.812,2.985,2.985,0,0,1-.831-2.239,2.623,2.623,0,0,1,1.178-2.276,5.5,5.5,0,0,1,3.2-.821h2.009v-1a1.865,1.865,0,0,0-.544-1.413,2.139,2.139,0,0,0-1.539-.521,2.233,2.233,0,0,0-1.455.451,1.352,1.352,0,0,0-.554,1.079l-1.755.019-.019-.056a2.433,2.433,0,0,1,1.037-2.028,4.3,4.3,0,0,1,2.849-.92,4.2,4.2,0,0,1,2.778.878,3.111,3.111,0,0,1,1.052,2.53v4.89a9.511,9.511,0,0,0,.056,1.051,5.4,5.4,0,0,0,.207,1Zm-3.07-1.352a3.288,3.288,0,0,0,1.812-.516,2.448,2.448,0,0,0,1.051-1.183v-1.652h-2.074a2.691,2.691,0,0,0-1.788.563,1.684,1.684,0,0,0-.671,1.324,1.393,1.393,0,0,0,.422,1.07,1.768,1.768,0,0,0,1.249.394" transform="translate(-286.23 -188.295)" fill="#12263f"/>
      <path id="Trazado_892504" data-name="Trazado 892504" d="M586.127,370.07l.16.713h.056l.178-.713,2.338-7.162h1.886l-3.736,10.156h-1.4l-3.783-10.156h1.9Z" transform="translate(-302.208 -188.499)" fill="#12263f"/>
      <path id="Trazado_892505" data-name="Trazado 892505" d="M607.324,373.059a4.294,4.294,0,0,1-3.412-1.4,5.382,5.382,0,0,1-1.225-3.679v-.413a5.271,5.271,0,0,1,1.263-3.618,3.961,3.961,0,0,1,3.083-1.431,3.686,3.686,0,0,1,3.055,1.267,5.218,5.218,0,0,1,1.019,3.37v.976h-6.5l-.028.047a4.194,4.194,0,0,0,.676,2.483,2.361,2.361,0,0,0,2.065.953,4.652,4.652,0,0,0,1.647-.267,3.661,3.661,0,0,0,1.215-.737l.723,1.2a4.42,4.42,0,0,1-1.436.887,5.713,5.713,0,0,1-2.15.361m-.291-9.086a2.01,2.01,0,0,0-1.6.746,3.529,3.529,0,0,0-.774,1.91l.019.047h4.58v-.15a2.96,2.96,0,0,0-.544-1.83,1.968,1.968,0,0,0-1.68-.723" transform="translate(-313.042 -188.296)" fill="#12263f"/>
      <path id="Trazado_892506" data-name="Trazado 892506" d="M629.329,364.339l-.948-.056a2.123,2.123,0,0,0-1.234.347,2.24,2.24,0,0,0-.774.977v7.255h-1.849V362.706h1.652l.178,1.483a3.524,3.524,0,0,1,1.065-1.23,2.5,2.5,0,0,1,1.46-.441,2.312,2.312,0,0,1,.394.033,2.852,2.852,0,0,1,.31.071Z" transform="translate(-324.384 -188.296)" fill="#12263f"/>
      <path id="Trazado_892507" data-name="Trazado 892507" d="M637.277,363.325a6.778,6.778,0,0,1,1.047-3.952,3.374,3.374,0,0,1,2.933-1.5,3.641,3.641,0,0,1,1.582.329,3.254,3.254,0,0,1,1.178.957v-5.585h1.849v14.643h-1.417l-.282-1.286a3.3,3.3,0,0,1-1.229,1.108,3.675,3.675,0,0,1-1.7.375,3.484,3.484,0,0,1-2.91-1.347,5.6,5.6,0,0,1-1.052-3.543Zm1.849.2a4.309,4.309,0,0,0,.629,2.464,2.2,2.2,0,0,0,1.952.925,2.45,2.45,0,0,0,1.389-.375,2.8,2.8,0,0,0,.92-1.052v-4.74a2.856,2.856,0,0,0-.925-1,2.445,2.445,0,0,0-1.366-.371,2.114,2.114,0,0,0-1.967,1.1,5.671,5.671,0,0,0-.633,2.854Z" transform="translate(-331.009 -183.649)" fill="#12263f"/>
      <path id="Trazado_892508" data-name="Trazado 892508" d="M666.757,372.861c-.062-.306-.111-.578-.146-.812a6.01,6.01,0,0,1-.061-.709,4.3,4.3,0,0,1-1.347,1.225,3.442,3.442,0,0,1-1.788.493,3.319,3.319,0,0,1-2.417-.812,2.985,2.985,0,0,1-.83-2.239,2.623,2.623,0,0,1,1.178-2.276,5.5,5.5,0,0,1,3.2-.821h2.009v-1a1.865,1.865,0,0,0-.544-1.413,2.139,2.139,0,0,0-1.539-.521,2.233,2.233,0,0,0-1.455.451,1.352,1.352,0,0,0-.554,1.079l-1.755.019-.019-.056a2.433,2.433,0,0,1,1.037-2.028,4.3,4.3,0,0,1,2.849-.92,4.2,4.2,0,0,1,2.778.878,3.112,3.112,0,0,1,1.052,2.53v4.89a9.526,9.526,0,0,0,.056,1.051,5.407,5.407,0,0,0,.207,1Zm-3.069-1.352a3.289,3.289,0,0,0,1.812-.516,2.448,2.448,0,0,0,1.051-1.183v-1.652h-2.074a2.691,2.691,0,0,0-1.788.563,1.684,1.684,0,0,0-.671,1.324,1.393,1.393,0,0,0,.422,1.07,1.769,1.769,0,0,0,1.249.394" transform="translate(-342.898 -188.295)" fill="#12263f"/>
      <path id="Trazado_892509" data-name="Trazado 892509" d="M682,363.325a6.777,6.777,0,0,1,1.047-3.952,3.374,3.374,0,0,1,2.933-1.5,3.641,3.641,0,0,1,1.582.329,3.255,3.255,0,0,1,1.178.957v-5.585h1.849v14.643h-1.417l-.282-1.286a3.3,3.3,0,0,1-1.229,1.108,3.675,3.675,0,0,1-1.7.375,3.484,3.484,0,0,1-2.91-1.347A5.6,5.6,0,0,1,682,363.522Zm1.849.2a4.309,4.309,0,0,0,.629,2.464,2.195,2.195,0,0,0,1.952.925,2.45,2.45,0,0,0,1.389-.375,2.8,2.8,0,0,0,.92-1.052v-4.74a2.856,2.856,0,0,0-.925-1,2.444,2.444,0,0,0-1.366-.371,2.114,2.114,0,0,0-1.967,1.1,5.671,5.671,0,0,0-.633,2.854Z" transform="translate(-354.24 -183.649)" fill="#12263f"/>
      <path id="Trazado_892510" data-name="Trazado 892510" d="M514.764,77.741H509.7v3.9h6.026v2.1h-8.767V70.081H515.7v2.112H509.7v3.435h5.069Z" transform="translate(-263.318 -36.401)" fill="#824ffb"/>
      <path id="Trazado_892511" data-name="Trazado 892511" d="M529.6,72.537V83.069a3.782,3.782,0,0,1-.948,2.755,3.518,3.518,0,0,1-2.638.971,5.258,5.258,0,0,1-1.342-.16l.132-2.093a3.521,3.521,0,0,0,.432.084,3.569,3.569,0,0,0,.46.028,1.015,1.015,0,0,0,.855-.39,1.951,1.951,0,0,0,.3-1.2V72.537Zm-.056-2.45h-2.75V68.051h2.75Z" transform="translate(-272.519 -35.346)" fill="#824ffb"/>
      <path id="Trazado_892512" data-name="Trazado 892512" d="M543.323,87.536a4.571,4.571,0,0,1-3.548-1.394,5.111,5.111,0,0,1-1.276-3.59v-.375a5.561,5.561,0,0,1,1.239-3.736,4.214,4.214,0,0,1,3.407-1.446,3.943,3.943,0,0,1,3.14,1.253,4.952,4.952,0,0,1,1.094,3.374V83.04h-6.054l-.028.056a2.742,2.742,0,0,0,.634,1.689,2.121,2.121,0,0,0,1.685.648,5.628,5.628,0,0,0,1.563-.188,6.364,6.364,0,0,0,1.328-.572l.742,1.69a5.093,5.093,0,0,1-1.652.835,7.325,7.325,0,0,1-2.272.338m-.178-8.429a1.521,1.521,0,0,0-1.272.568,2.846,2.846,0,0,0-.54,1.506l.019.047h3.342v-.207a2.373,2.373,0,0,0-.366-1.4,1.355,1.355,0,0,0-1.183-.511" transform="translate(-279.702 -39.992)" fill="#824ffb"/>
      <path id="Trazado_892513" data-name="Trazado 892513" d="M562.838,77.183l.112,1.342a3.417,3.417,0,0,1,1.225-1.131,3.527,3.527,0,0,1,1.7-.4,3.1,3.1,0,0,1,1.672.432,2.662,2.662,0,0,1,1.051,1.3,3.531,3.531,0,0,1,1.22-1.277,3.319,3.319,0,0,1,1.765-.46,2.9,2.9,0,0,1,2.37,1.065,5.085,5.085,0,0,1,.868,3.253v6.026h-2.741V81.3a2.846,2.846,0,0,0-.376-1.7,1.332,1.332,0,0,0-1.116-.479,1.916,1.916,0,0,0-1.01.258,1.887,1.887,0,0,0-.681.718c0,.119,0,.221.01.305s.009.171.009.258v6.674h-2.731V81.3a2.86,2.86,0,0,0-.375-1.685,1.328,1.328,0,0,0-1.127-.493,2.123,2.123,0,0,0-.971.211,1.863,1.863,0,0,0-.69.6v7.406h-2.732V77.183Z" transform="translate(-291.023 -39.992)" fill="#824ffb"/>
      <path id="Trazado_892514" data-name="Trazado 892514" d="M604.065,82.542a5.834,5.834,0,0,1-1.042,3.623,3.446,3.446,0,0,1-2.91,1.371,3.255,3.255,0,0,1-1.417-.3,2.923,2.923,0,0,1-1.061-.868v4.872H594.9V77.183h2.468l.16,1.2a3.256,3.256,0,0,1,1.084-1.028,2.935,2.935,0,0,1,1.478-.361,3.38,3.38,0,0,1,2.929,1.474,6.577,6.577,0,0,1,1.042,3.876Zm-2.741-.2a4.916,4.916,0,0,0-.479-2.328,1.561,1.561,0,0,0-1.464-.891,2.071,2.071,0,0,0-1.056.253,1.81,1.81,0,0,0-.69.723v4.449a1.679,1.679,0,0,0,.69.657,2.319,2.319,0,0,0,1.075.225,1.576,1.576,0,0,0,1.46-.779,4.112,4.112,0,0,0,.465-2.112Z" transform="translate(-309 -39.992)" fill="#824ffb"/>
      <rect id="Rectángulo_401959" data-name="Rectángulo 401959" width="2.741" height="14.643" transform="translate(296.896 32.704)" fill="#824ffb"/>
      <path id="Trazado_892515" data-name="Trazado 892515" d="M627.286,82.167a5.449,5.449,0,0,1,1.267-3.722,4.417,4.417,0,0,1,3.511-1.45,4.464,4.464,0,0,1,3.529,1.446,5.423,5.423,0,0,1,1.276,3.726v.2A5.429,5.429,0,0,1,635.6,86.1a5.02,5.02,0,0,1-7.04,0,5.429,5.429,0,0,1-1.272-3.731Zm2.732.2a4.419,4.419,0,0,0,.488,2.229,1.875,1.875,0,0,0,3.13,0,4.388,4.388,0,0,0,.493-2.225v-.2a4.345,4.345,0,0,0-.5-2.206,1.684,1.684,0,0,0-1.568-.854,1.662,1.662,0,0,0-1.554.859,4.386,4.386,0,0,0-.493,2.2Z" transform="translate(-325.819 -39.992)" fill="#824ffb"/>
      <path id="Trazado_892516" data-name="Trazado 892516" d="M659.825,77.7a6.6,6.6,0,0,1,1.038-3.877,3.367,3.367,0,0,1,2.924-1.473,2.843,2.843,0,0,1,1.37.329,3.3,3.3,0,0,1,1.07.939V68.051h2.75V82.694H666.64l-.234-1.248a3.4,3.4,0,0,1-1.136,1.075,3.006,3.006,0,0,1-1.5.371,3.434,3.434,0,0,1-2.905-1.371,5.852,5.852,0,0,1-1.038-3.623Zm2.732.2a4.136,4.136,0,0,0,.45,2.1,1.568,1.568,0,0,0,1.464.765,2.133,2.133,0,0,0,1.033-.239,1.911,1.911,0,0,0,.723-.7V75.494a2.114,2.114,0,0,0-.718-.746,1.911,1.911,0,0,0-1.019-.267,1.546,1.546,0,0,0-1.469.891,5.036,5.036,0,0,0-.465,2.328Z" transform="translate(-342.72 -35.346)" fill="#824ffb"/>
      <path id="Trazado_892517" data-name="Trazado 892517" d="M687.229,87.536a4.571,4.571,0,0,1-3.548-1.394,5.111,5.111,0,0,1-1.276-3.59v-.375a5.561,5.561,0,0,1,1.239-3.736,4.214,4.214,0,0,1,3.407-1.446,3.943,3.943,0,0,1,3.14,1.253,4.952,4.952,0,0,1,1.094,3.374V83.04h-6.054l-.028.056a2.742,2.742,0,0,0,.634,1.689,2.121,2.121,0,0,0,1.685.648,5.628,5.628,0,0,0,1.563-.188,6.362,6.362,0,0,0,1.328-.572l.742,1.69a5.094,5.094,0,0,1-1.652.835,7.325,7.325,0,0,1-2.272.338m-.178-8.429a1.521,1.521,0,0,0-1.272.568,2.846,2.846,0,0,0-.54,1.506l.019.047H688.6v-.207a2.373,2.373,0,0,0-.366-1.4,1.355,1.355,0,0,0-1.183-.511" transform="translate(-354.448 -39.992)" fill="#824ffb"/>
      <path id="Trazado_892518" data-name="Trazado 892518" d="M502.815,127.542a5.834,5.834,0,0,1-1.042,3.623,3.446,3.446,0,0,1-2.91,1.371,3.255,3.255,0,0,1-1.417-.3,2.923,2.923,0,0,1-1.061-.868v4.872h-2.731V122.183h2.468l.16,1.2a3.256,3.256,0,0,1,1.084-1.028,2.935,2.935,0,0,1,1.478-.361,3.38,3.38,0,0,1,2.929,1.474,6.577,6.577,0,0,1,1.042,3.876Zm-2.741-.2a4.916,4.916,0,0,0-.479-2.328,1.561,1.561,0,0,0-1.464-.891,2.071,2.071,0,0,0-1.056.253,1.81,1.81,0,0,0-.69.723v4.449a1.679,1.679,0,0,0,.69.657,2.319,2.319,0,0,0,1.075.225,1.576,1.576,0,0,0,1.46-.779,4.112,4.112,0,0,0,.465-2.112Z" transform="translate(-256.409 -63.366)" fill="#824ffb"/>
      <path id="Trazado_892519" data-name="Trazado 892519" d="M521.573,124.54l-1-.028a1.823,1.823,0,0,0-1,.254,1.6,1.6,0,0,0-.6.713v6.861h-2.731V122.184h2.544l.122,1.5a3.2,3.2,0,0,1,.924-1.244,2.162,2.162,0,0,1,1.69-.413q.174.033.352.08Z" transform="translate(-268.136 -63.366)" fill="#824ffb"/>
      <path id="Trazado_892520" data-name="Trazado 892520" d="M529.044,127.167a5.449,5.449,0,0,1,1.267-3.722,4.417,4.417,0,0,1,3.511-1.45,4.465,4.465,0,0,1,3.529,1.446,5.423,5.423,0,0,1,1.276,3.726v.2a5.429,5.429,0,0,1-1.272,3.731,5.02,5.02,0,0,1-7.04,0,5.429,5.429,0,0,1-1.272-3.731Zm2.732.2a4.419,4.419,0,0,0,.488,2.229,1.684,1.684,0,0,0,1.577.84,1.667,1.667,0,0,0,1.553-.845,4.387,4.387,0,0,0,.493-2.225v-.2a4.345,4.345,0,0,0-.5-2.206,1.684,1.684,0,0,0-1.568-.854,1.662,1.662,0,0,0-1.554.859,4.385,4.385,0,0,0-.493,2.2Z" transform="translate(-274.791 -63.366)" fill="#824ffb"/>
      <path id="Trazado_892521" data-name="Trazado 892521" d="M561.663,127.542a5.834,5.834,0,0,1-1.042,3.623,3.446,3.446,0,0,1-2.91,1.371,3.255,3.255,0,0,1-1.417-.3,2.922,2.922,0,0,1-1.061-.868v4.872H552.5V122.183h2.468l.159,1.2a3.256,3.256,0,0,1,1.084-1.028,2.935,2.935,0,0,1,1.478-.361,3.38,3.38,0,0,1,2.929,1.474,6.578,6.578,0,0,1,1.042,3.876Zm-2.741-.2a4.917,4.917,0,0,0-.479-2.328,1.562,1.562,0,0,0-1.464-.891,2.072,2.072,0,0,0-1.056.253,1.81,1.81,0,0,0-.69.723v4.449a1.679,1.679,0,0,0,.69.657,2.32,2.32,0,0,0,1.075.225,1.576,1.576,0,0,0,1.459-.779,4.111,4.111,0,0,0,.465-2.112Z" transform="translate(-286.975 -63.366)" fill="#824ffb"/>
      <path id="Trazado_892522" data-name="Trazado 892522" d="M574.2,127.167a5.449,5.449,0,0,1,1.267-3.722,4.417,4.417,0,0,1,3.511-1.45,4.465,4.465,0,0,1,3.529,1.446,5.423,5.423,0,0,1,1.276,3.726v.2a5.429,5.429,0,0,1-1.272,3.731,5.02,5.02,0,0,1-7.04,0,5.429,5.429,0,0,1-1.272-3.731Zm2.732.2a4.419,4.419,0,0,0,.488,2.229,1.684,1.684,0,0,0,1.577.84,1.667,1.667,0,0,0,1.553-.845,4.388,4.388,0,0,0,.493-2.225v-.2a4.345,4.345,0,0,0-.5-2.206,1.684,1.684,0,0,0-1.568-.854,1.662,1.662,0,0,0-1.554.859,4.386,4.386,0,0,0-.493,2.2Z" transform="translate(-298.246 -63.366)" fill="#824ffb"/>
      <path id="Trazado_892523" data-name="Trazado 892523" d="M602.66,129.524a.946.946,0,0,0-.436-.774,4.433,4.433,0,0,0-1.619-.568A6.457,6.457,0,0,1,597.9,127.1a2.359,2.359,0,0,1-.925-1.962,2.8,2.8,0,0,1,1.108-2.225,4.466,4.466,0,0,1,2.947-.92,4.821,4.821,0,0,1,3.083.92,2.688,2.688,0,0,1,1.112,2.29l-.019.056h-2.647a1.331,1.331,0,0,0-.394-1,1.844,1.844,0,0,0-2.177-.056,1.021,1.021,0,0,0-.385.807.911.911,0,0,0,.4.765,4.443,4.443,0,0,0,1.619.53,6.59,6.59,0,0,1,2.783,1.1,2.42,2.42,0,0,1,.915,2,2.679,2.679,0,0,1-1.173,2.243,5.065,5.065,0,0,1-3.1.873,4.706,4.706,0,0,1-3.206-1.028,2.874,2.874,0,0,1-1.122-2.342l.019-.056h2.506a1.425,1.425,0,0,0,.535,1.183,2.211,2.211,0,0,0,1.323.366,1.884,1.884,0,0,0,1.159-.3.989.989,0,0,0,.4-.831" transform="translate(-309.94 -63.366)" fill="#824ffb"/>
      <path id="Trazado_892524" data-name="Trazado 892524" d="M621.317,115.106h-2.741v-2.055h2.741Zm0,12.587h-2.741V117.537h2.741Z" transform="translate(-321.295 -58.72)" fill="#824ffb"/>
      <path id="Trazado_892525" data-name="Trazado 892525" d="M632.7,130.434a1.524,1.524,0,0,0,1.136-.427,1.55,1.55,0,0,0,.422-1.14h2.5l.019.056a3.181,3.181,0,0,1-1.145,2.577,4.283,4.283,0,0,1-2.929,1.037,4.328,4.328,0,0,1-3.482-1.441,5.476,5.476,0,0,1-1.23-3.684v-.282a5.513,5.513,0,0,1,1.225-3.684,4.289,4.289,0,0,1,3.468-1.45,4.188,4.188,0,0,1,2.994,1.07,3.576,3.576,0,0,1,1.1,2.816l-.019.057h-2.5a2.028,2.028,0,0,0-.418-1.31,1.4,1.4,0,0,0-1.159-.521,1.564,1.564,0,0,0-1.507.85,4.66,4.66,0,0,0-.446,2.173v.282a4.645,4.645,0,0,0,.446,2.187,1.585,1.585,0,0,0,1.525.835" transform="translate(-326.184 -63.366)" fill="#824ffb"/>
      <path id="Trazado_892526" data-name="Trazado 892526" d="M652.625,115.106h-2.741v-2.055h2.741Zm0,12.587h-2.741V117.537h2.741Z" transform="translate(-337.557 -58.72)" fill="#824ffb"/>
      <path id="Trazado_892527" data-name="Trazado 892527" d="M659.4,122.684a5.451,5.451,0,0,1,1.267-3.722,4.418,4.418,0,0,1,3.511-1.45,4.463,4.463,0,0,1,3.529,1.446,5.42,5.42,0,0,1,1.277,3.726v.2a5.427,5.427,0,0,1-1.272,3.731,5.02,5.02,0,0,1-7.04,0,5.427,5.427,0,0,1-1.272-3.731Zm2.732.2a4.422,4.422,0,0,0,.488,2.229,1.876,1.876,0,0,0,3.131,0,4.388,4.388,0,0,0,.493-2.225v-.2a4.341,4.341,0,0,0-.5-2.206,1.683,1.683,0,0,0-1.567-.854,1.663,1.663,0,0,0-1.554.859,4.388,4.388,0,0,0-.493,2.2Zm2.6-9.518h3.051l.019.056-2.6,2.44H662.86Z" transform="translate(-342.497 -58.882)" fill="#824ffb"/>
      <path id="Trazado_892528" data-name="Trazado 892528" d="M685.309,122.183l.122,1.455a3.717,3.717,0,0,1,1.249-1.211,3.239,3.239,0,0,1,1.661-.432,3.02,3.02,0,0,1,2.4.99,4.7,4.7,0,0,1,.863,3.131v6.223h-2.75v-6.214a2.433,2.433,0,0,0-.38-1.544,1.4,1.4,0,0,0-1.14-.455,2.4,2.4,0,0,0-1.075.23,2.1,2.1,0,0,0-.765.634v7.35h-2.741V122.183Z" transform="translate(-354.631 -63.366)" fill="#824ffb"/>
      <rect id="Rectángulo_401960" data-name="Rectángulo 401960" width="2.741" height="2.403" transform="translate(339.323 66.571)" fill="#824ffb"/>
      <path id="Trazado_892529" data-name="Trazado 892529" d="M381.075,89.562H365.984V37.456H352.9V25.936l28.174-2.322Z" transform="translate(-183.301 -12.266)" fill="#7dc8ff"/>
      <rect id="Rectángulo_401961" data-name="Rectángulo 401961" width="15.238" height="57.807" transform="translate(377.185 4.28)" fill="#fff"/>
      <path id="Trazado_892530" data-name="Trazado 892530" d="M838.911,65.947H793.725V56.125l20-21.968a43.159,43.159,0,0,0,5.893-8.126,13.814,13.814,0,0,0,1.876-6.206,9.628,9.628,0,0,0-1.7-6.005q-1.7-2.21-5.447-2.21a6.223,6.223,0,0,0-5.469,2.88,12.869,12.869,0,0,0-1.943,7.345H792.163l-.089-.268a20.239,20.239,0,0,1,5.938-15.292Q804.173,0,814.353,0q10.671,0,16.477,5.246t5.8,14.445a19.028,19.028,0,0,1-3.215,10.917A136.274,136.274,0,0,1,821.632,44.65l-7.9,9.466.089.223h25.093Z" transform="translate(-411.407)" fill="#7dc8ff"/>
    </g>
  </g>
</svg>
