<svg xmlns="http://www.w3.org/2000/svg" xmlns:xlink="http://www.w3.org/1999/xlink" width="581.051" height="270.089" viewBox="0 0 581.051 270.089">
  <defs>
    <clipPath id="clip-path">
      <rect id="Rectángulo_401963" data-name="Rectángulo 401963" width="581.051" height="270.09" fill="none"/>
    </clipPath>
  </defs>
  <g id="Grupo_1103301" data-name="Grupo 1103301" transform="translate(-197 -7529)">
    <g id="Grupo_1101982" data-name="Grupo 1101982" transform="translate(197 7529)">
      <g id="Grupo_1101981" data-name="Grupo 1101981" clip-path="url(#clip-path)">
        <path id="Trazado_892531" data-name="Trazado 892531" d="M537.869,23.885H59.518A35.633,35.633,0,0,0,23.885,59.518V227.056a35.633,35.633,0,0,0,35.633,35.633H537.869A35.633,35.633,0,0,0,573.5,227.056V59.518a35.633,35.633,0,0,0-35.633-35.633" transform="translate(-8.242 -8.242)" fill="#fee3b3"/>
      </g>
    </g>
    <path id="Trazado_895781" data-name="Trazado 895781" d="M11.572,0H2.295V-17.5h8.887v1.855H4.346v5.823h6.323v1.843H4.346v6.128h7.227Zm5.1,0h-2V-18.506h2ZM26.819-.452V-2.6a5.925,5.925,0,0,0,3.6,1.208q2.637,0,2.637-1.758A1.525,1.525,0,0,0,32.831-4a2.251,2.251,0,0,0-.61-.616,4.7,4.7,0,0,0-.9-.482Q30.8-5.31,30.2-5.542a14.385,14.385,0,0,1-1.459-.665,4.407,4.407,0,0,1-1.05-.757,2.816,2.816,0,0,1-.635-.958,3.39,3.39,0,0,1-.214-1.257,2.987,2.987,0,0,1,.4-1.556,3.572,3.572,0,0,1,1.074-1.135,5.009,5.009,0,0,1,1.532-.69,6.8,6.8,0,0,1,1.776-.232,7.172,7.172,0,0,1,2.905.562v2.026a5.662,5.662,0,0,0-3.174-.9,3.71,3.71,0,0,0-1.013.128,2.48,2.48,0,0,0-.775.36,1.664,1.664,0,0,0-.5.555,1.463,1.463,0,0,0-.177.714,1.713,1.713,0,0,0,.177.818,1.8,1.8,0,0,0,.519.586,3.965,3.965,0,0,0,.83.464q.488.208,1.111.452a15.46,15.46,0,0,1,1.489.653,5.108,5.108,0,0,1,1.123.757,2.957,2.957,0,0,1,.714.97,3.13,3.13,0,0,1,.25,1.306A3.08,3.08,0,0,1,34.7-1.733,3.5,3.5,0,0,1,33.606-.6a5,5,0,0,1-1.575.671,7.775,7.775,0,0,1-1.868.22A7.092,7.092,0,0,1,26.819-.452Zm12.39-15.222a1.268,1.268,0,0,1-.916-.366,1.236,1.236,0,0,1-.378-.928,1.256,1.256,0,0,1,.378-.934,1.258,1.258,0,0,1,.916-.372,1.293,1.293,0,0,1,.934.372,1.246,1.246,0,0,1,.385.934,1.237,1.237,0,0,1-.385.916A1.282,1.282,0,0,1,39.209-15.674ZM40.186,0h-2V-12.5h2ZM54.907-1q0,6.885-6.592,6.885A8.851,8.851,0,0,1,44.263,5V3a8.323,8.323,0,0,0,4.028,1.172q4.614,0,4.614-4.907V-2.1h-.049A4.682,4.682,0,0,1,48.56.293a4.693,4.693,0,0,1-3.754-1.666,6.661,6.661,0,0,1-1.422-4.474,7.782,7.782,0,0,1,1.532-5.066,5.118,5.118,0,0,1,4.193-1.88,4.074,4.074,0,0,1,3.748,2.026h.049V-12.5h2Zm-2-4.651V-7.5A3.576,3.576,0,0,0,51.9-10.046a3.315,3.315,0,0,0-2.509-1.062A3.476,3.476,0,0,0,46.484-9.76a6.021,6.021,0,0,0-1.05,3.778,5.169,5.169,0,0,0,1.007,3.339,3.254,3.254,0,0,0,2.667,1.251,3.484,3.484,0,0,0,2.74-1.2A4.459,4.459,0,0,0,52.905-5.652ZM69.067,0h-2V-1.978h-.049A4.111,4.111,0,0,1,63.159.293q-4.468,0-4.468-5.322V-12.5h1.99v7.153q0,3.955,3.027,3.955a3.063,3.063,0,0,0,2.411-1.08A4.134,4.134,0,0,0,67.065-5.3v-7.2h2Zm5.066-15.674a1.268,1.268,0,0,1-.916-.366,1.236,1.236,0,0,1-.378-.928,1.256,1.256,0,0,1,.378-.934,1.258,1.258,0,0,1,.916-.372,1.293,1.293,0,0,1,.934.372,1.246,1.246,0,0,1,.385.934,1.237,1.237,0,0,1-.385.916A1.282,1.282,0,0,1,74.133-15.674ZM75.11,0h-2V-12.5h2Zm14.1-5.75H80.383a4.675,4.675,0,0,0,1.123,3.223A3.872,3.872,0,0,0,84.46-1.392a6.142,6.142,0,0,0,3.882-1.392V-.9a7.255,7.255,0,0,1-4.358,1.2,5.283,5.283,0,0,1-4.163-1.7A6.97,6.97,0,0,1,78.308-6.2a6.835,6.835,0,0,1,1.654-4.755,5.3,5.3,0,0,1,4.108-1.837,4.7,4.7,0,0,1,3.8,1.587A6.616,6.616,0,0,1,89.209-6.8Zm-2.051-1.7a4.073,4.073,0,0,0-.836-2.7,2.849,2.849,0,0,0-2.289-.964,3.234,3.234,0,0,0-2.4,1.013,4.6,4.6,0,0,0-1.221,2.649ZM102.612,0h-2V-7.129q0-3.979-2.905-3.979a3.151,3.151,0,0,0-2.484,1.129,4.185,4.185,0,0,0-.983,2.85V0h-2V-12.5h2v2.075h.049a4.511,4.511,0,0,1,4.1-2.368,3.824,3.824,0,0,1,3.137,1.324,5.9,5.9,0,0,1,1.086,3.827Zm9.57-.122a3.86,3.86,0,0,1-1.868.391q-3.284,0-3.284-3.662v-7.4h-2.148V-12.5h2.148v-3.052l2-.647v3.7h3.149v1.709h-3.149v7.043a2.92,2.92,0,0,0,.427,1.794,1.7,1.7,0,0,0,1.416.537,2.1,2.1,0,0,0,1.306-.415ZM124.9-5.75h-8.826A4.675,4.675,0,0,0,117.2-2.527a3.872,3.872,0,0,0,2.954,1.135,6.142,6.142,0,0,0,3.882-1.392V-.9a7.255,7.255,0,0,1-4.358,1.2,5.283,5.283,0,0,1-4.163-1.7A6.97,6.97,0,0,1,114-6.2a6.835,6.835,0,0,1,1.654-4.755,5.3,5.3,0,0,1,4.108-1.837,4.7,4.7,0,0,1,3.8,1.587A6.616,6.616,0,0,1,124.9-6.8Zm-2.051-1.7a4.073,4.073,0,0,0-.836-2.7,2.849,2.849,0,0,0-2.289-.964,3.234,3.234,0,0,0-2.4,1.013A4.6,4.6,0,0,0,116.1-7.446ZM145.447,0h-2V-2.124H143.4A4.621,4.621,0,0,1,139.1.293a4.669,4.669,0,0,1-3.766-1.678,6.886,6.886,0,0,1-1.41-4.572,7.491,7.491,0,0,1,1.563-4.968,5.153,5.153,0,0,1,4.163-1.868,4.007,4.007,0,0,1,3.748,2.026h.049v-7.739h2Zm-2-5.652V-7.5a3.576,3.576,0,0,0-1-2.563,3.357,3.357,0,0,0-2.539-1.05,3.457,3.457,0,0,0-2.881,1.343,5.884,5.884,0,0,0-1.05,3.711,5.292,5.292,0,0,0,1.007,3.412,3.291,3.291,0,0,0,2.7,1.251A3.419,3.419,0,0,0,142.4-2.6,4.5,4.5,0,0,0,143.445-5.652Zm7.08-10.022a1.268,1.268,0,0,1-.916-.366,1.236,1.236,0,0,1-.378-.928,1.256,1.256,0,0,1,.378-.934,1.257,1.257,0,0,1,.916-.372,1.293,1.293,0,0,1,.934.372,1.246,1.246,0,0,1,.385.934,1.237,1.237,0,0,1-.385.916A1.282,1.282,0,0,1,150.525-15.674ZM151.5,0h-2V-12.5h2Zm13,0h-2V-1.953h-.049A4.191,4.191,0,0,1,158.606.293,4.109,4.109,0,0,1,155.682-.7a3.426,3.426,0,0,1-1.056-2.625q0-3.5,4.126-4.077l3.748-.525q0-3.186-2.576-3.186a6.154,6.154,0,0,0-4.077,1.538v-2.051a7.746,7.746,0,0,1,4.248-1.172q4.407,0,4.407,4.663Zm-2-6.323-3.015.415a4.9,4.9,0,0,0-2.1.69,1.989,1.989,0,0,0-.708,1.752,1.908,1.908,0,0,0,.653,1.5,2.524,2.524,0,0,0,1.74.58,3.213,3.213,0,0,0,2.46-1.044,3.729,3.729,0,0,0,.97-2.643ZM178.943-1q0,6.885-6.592,6.885A8.851,8.851,0,0,1,168.3,5V3a8.323,8.323,0,0,0,4.028,1.172q4.614,0,4.614-4.907V-2.1h-.049A4.682,4.682,0,0,1,172.6.293a4.693,4.693,0,0,1-3.754-1.666,6.661,6.661,0,0,1-1.422-4.474,7.782,7.782,0,0,1,1.532-5.066,5.118,5.118,0,0,1,4.193-1.88,4.074,4.074,0,0,1,3.748,2.026h.049V-12.5h2Zm-2-4.651V-7.5a3.576,3.576,0,0,0-1.007-2.551,3.315,3.315,0,0,0-2.509-1.062A3.476,3.476,0,0,0,170.52-9.76a6.021,6.021,0,0,0-1.05,3.778,5.169,5.169,0,0,0,1.007,3.339,3.254,3.254,0,0,0,2.667,1.251,3.484,3.484,0,0,0,2.74-1.2A4.459,4.459,0,0,0,176.941-5.652Zm12.573-4.822a2.448,2.448,0,0,0-1.514-.4,2.555,2.555,0,0,0-2.142,1.208,5.587,5.587,0,0,0-.861,3.3V0h-2V-12.5h2v2.576h.049a4.365,4.365,0,0,1,1.306-2.057,2.978,2.978,0,0,1,1.965-.739,3.268,3.268,0,0,1,1.2.171ZM200.635,0h-2V-1.953h-.049A4.191,4.191,0,0,1,194.739.293,4.109,4.109,0,0,1,191.815-.7a3.426,3.426,0,0,1-1.056-2.625q0-3.5,4.126-4.077l3.748-.525q0-3.186-2.576-3.186A6.154,6.154,0,0,0,191.98-9.57v-2.051a7.746,7.746,0,0,1,4.248-1.172q4.407,0,4.407,4.663Zm-2-6.323-3.015.415a4.9,4.9,0,0,0-2.1.69,1.989,1.989,0,0,0-.708,1.752,1.908,1.908,0,0,0,.653,1.5,2.524,2.524,0,0,0,1.74.58,3.213,3.213,0,0,0,2.46-1.044,3.729,3.729,0,0,0,.97-2.643ZM222.156,0h-2V-7.178a5.415,5.415,0,0,0-.641-3,2.43,2.43,0,0,0-2.155-.928,2.668,2.668,0,0,0-2.179,1.172,4.483,4.483,0,0,0-.9,2.808V0h-2V-7.422q0-3.687-2.844-3.687a2.635,2.635,0,0,0-2.173,1.1,4.567,4.567,0,0,0-.854,2.875V0h-2V-12.5h2v1.978h.049a4.247,4.247,0,0,1,3.882-2.271,3.619,3.619,0,0,1,2.234.714,3.592,3.592,0,0,1,1.306,1.874,4.461,4.461,0,0,1,4.15-2.588q4.126,0,4.126,5.09Zm12.732,0h-2V-1.953h-.049A4.191,4.191,0,0,1,228.992.293,4.109,4.109,0,0,1,226.068-.7a3.426,3.426,0,0,1-1.056-2.625q0-3.5,4.126-4.077l3.748-.525q0-3.186-2.576-3.186a6.154,6.154,0,0,0-4.077,1.538v-2.051a7.746,7.746,0,0,1,4.248-1.172q4.407,0,4.407,4.663Zm-2-6.323-3.015.415a4.9,4.9,0,0,0-2.1.69,1.989,1.989,0,0,0-.708,1.752,1.908,1.908,0,0,0,.653,1.5,2.524,2.524,0,0,0,1.74.58,3.213,3.213,0,0,0,2.46-1.044,3.729,3.729,0,0,0,.97-2.643Z" transform="translate(258.876 7646.22)" fill="#12263f"/>
    <path id="Trazado_895782" data-name="Trazado 895782" d="M12.7,0h-2V-2.124h-.049A4.621,4.621,0,0,1,6.348.293,4.669,4.669,0,0,1,2.582-1.385a6.886,6.886,0,0,1-1.41-4.572,7.491,7.491,0,0,1,1.563-4.968A5.153,5.153,0,0,1,6.9-12.793a4.007,4.007,0,0,1,3.748,2.026h.049v-7.739h2Zm-2-5.652V-7.5a3.576,3.576,0,0,0-1-2.563,3.357,3.357,0,0,0-2.539-1.05A3.457,3.457,0,0,0,4.272-9.766a5.884,5.884,0,0,0-1.05,3.711A5.292,5.292,0,0,0,4.23-2.643a3.291,3.291,0,0,0,2.7,1.251A3.419,3.419,0,0,0,9.65-2.6,4.5,4.5,0,0,0,10.693-5.652Zm16.1-.1H17.969a4.675,4.675,0,0,0,1.123,3.223,3.872,3.872,0,0,0,2.954,1.135,6.142,6.142,0,0,0,3.882-1.392V-.9A7.255,7.255,0,0,1,21.57.293a5.283,5.283,0,0,1-4.163-1.7A6.97,6.97,0,0,1,15.894-6.2a6.835,6.835,0,0,1,1.654-4.755,5.3,5.3,0,0,1,4.108-1.837,4.7,4.7,0,0,1,3.8,1.587A6.616,6.616,0,0,1,26.794-6.8Zm-2.051-1.7a4.073,4.073,0,0,0-.836-2.7,2.849,2.849,0,0,0-2.289-.964,3.234,3.234,0,0,0-2.4,1.013,4.6,4.6,0,0,0-1.221,2.649ZM29.065-.452V-2.6a5.925,5.925,0,0,0,3.6,1.208q2.637,0,2.637-1.758A1.525,1.525,0,0,0,35.077-4a2.251,2.251,0,0,0-.61-.616,4.7,4.7,0,0,0-.9-.482q-.519-.214-1.117-.446a14.385,14.385,0,0,1-1.459-.665,4.407,4.407,0,0,1-1.05-.757,2.816,2.816,0,0,1-.635-.958,3.39,3.39,0,0,1-.214-1.257,2.987,2.987,0,0,1,.4-1.556,3.572,3.572,0,0,1,1.074-1.135,5.009,5.009,0,0,1,1.532-.69,6.8,6.8,0,0,1,1.776-.232,7.172,7.172,0,0,1,2.905.562v2.026a5.662,5.662,0,0,0-3.174-.9,3.71,3.71,0,0,0-1.013.128,2.48,2.48,0,0,0-.775.36,1.664,1.664,0,0,0-.5.555,1.463,1.463,0,0,0-.177.714,1.713,1.713,0,0,0,.177.818,1.8,1.8,0,0,0,.519.586,3.965,3.965,0,0,0,.83.464q.488.208,1.111.452a15.46,15.46,0,0,1,1.489.653,5.108,5.108,0,0,1,1.123.757,2.957,2.957,0,0,1,.714.97,3.13,3.13,0,0,1,.25,1.306,3.08,3.08,0,0,1-.409,1.611A3.5,3.5,0,0,1,35.852-.6a5,5,0,0,1-1.575.671,7.775,7.775,0,0,1-1.868.22A7.092,7.092,0,0,1,29.065-.452ZM48.95-.574a6.5,6.5,0,0,1-3.418.867,5.659,5.659,0,0,1-4.315-1.74,6.3,6.3,0,0,1-1.642-4.51,6.93,6.93,0,0,1,1.77-4.962,6.192,6.192,0,0,1,4.724-1.874,6.576,6.576,0,0,1,2.905.61v2.051A5.09,5.09,0,0,0,46-11.108a4.025,4.025,0,0,0-3.143,1.373,5.211,5.211,0,0,0-1.227,3.607A4.962,4.962,0,0,0,42.78-2.661a3.976,3.976,0,0,0,3.094,1.27A5.017,5.017,0,0,0,48.95-2.478Zm9.546-9.9a2.448,2.448,0,0,0-1.514-.4A2.555,2.555,0,0,0,54.84-9.668a5.587,5.587,0,0,0-.861,3.3V0h-2V-12.5h2v2.576h.049a4.365,4.365,0,0,1,1.306-2.057A2.978,2.978,0,0,1,57.3-12.72a3.268,3.268,0,0,1,1.2.171Zm3.2-5.2a1.268,1.268,0,0,1-.916-.366,1.236,1.236,0,0,1-.378-.928,1.256,1.256,0,0,1,.378-.934,1.258,1.258,0,0,1,.916-.372,1.293,1.293,0,0,1,.934.372,1.246,1.246,0,0,1,.385.934,1.237,1.237,0,0,1-.385.916A1.282,1.282,0,0,1,61.694-15.674ZM62.671,0h-2V-12.5h2Zm6.1-1.807h-.049V0h-2V-18.506h2v8.2h.049a4.734,4.734,0,0,1,4.321-2.49,4.582,4.582,0,0,1,3.766,1.678,6.931,6.931,0,0,1,1.361,4.5A7.748,7.748,0,0,1,76.7-1.593,5.08,5.08,0,0,1,72.522.293,4.111,4.111,0,0,1,68.774-1.807Zm-.049-5.042V-5.1a3.717,3.717,0,0,0,1.007,2.631,3.344,3.344,0,0,0,2.557,1.08,3.351,3.351,0,0,0,2.85-1.392,6.384,6.384,0,0,0,1.031-3.87,5.04,5.04,0,0,0-.964-3.271A3.191,3.191,0,0,0,72.6-11.108a3.547,3.547,0,0,0-2.808,1.215A4.46,4.46,0,0,0,68.726-6.848Zm22.742,1.1H82.642a4.675,4.675,0,0,0,1.123,3.223,3.872,3.872,0,0,0,2.954,1.135A6.142,6.142,0,0,0,90.6-2.783V-.9a7.255,7.255,0,0,1-4.358,1.2,5.283,5.283,0,0,1-4.163-1.7A6.97,6.97,0,0,1,80.566-6.2a6.835,6.835,0,0,1,1.654-4.755,5.3,5.3,0,0,1,4.108-1.837,4.7,4.7,0,0,1,3.8,1.587A6.616,6.616,0,0,1,91.467-6.8Zm-2.051-1.7a4.073,4.073,0,0,0-.836-2.7,2.849,2.849,0,0,0-2.289-.964,3.234,3.234,0,0,0-2.4,1.013,4.6,4.6,0,0,0-1.221,2.649ZM103.345,0h-2V-18.506h2Zm13,0h-2V-1.953h-.049A4.191,4.191,0,0,1,110.449.293,4.109,4.109,0,0,1,107.526-.7,3.426,3.426,0,0,1,106.47-3.32q0-3.5,4.126-4.077l3.748-.525q0-3.186-2.576-3.186A6.154,6.154,0,0,0,107.69-9.57v-2.051a7.746,7.746,0,0,1,4.248-1.172q4.407,0,4.407,4.663Zm-2-6.323-3.015.415a4.9,4.9,0,0,0-2.1.69,1.989,1.989,0,0,0-.708,1.752,1.908,1.908,0,0,0,.653,1.5,2.524,2.524,0,0,0,1.74.58,3.213,3.213,0,0,0,2.46-1.044,3.729,3.729,0,0,0,.97-2.643Zm22.668.574h-8.826a4.675,4.675,0,0,0,1.123,3.223,3.872,3.872,0,0,0,2.954,1.135,6.142,6.142,0,0,0,3.882-1.392V-.9a7.255,7.255,0,0,1-4.358,1.2,5.283,5.283,0,0,1-4.163-1.7A6.97,6.97,0,0,1,126.111-6.2a6.835,6.835,0,0,1,1.654-4.755,5.3,5.3,0,0,1,4.108-1.837,4.7,4.7,0,0,1,3.8,1.587A6.616,6.616,0,0,1,137.012-6.8Zm-2.051-1.7a4.073,4.073,0,0,0-.836-2.7,2.849,2.849,0,0,0-2.289-.964,3.234,3.234,0,0,0-2.4,1.013,4.6,4.6,0,0,0-1.221,2.649Zm4.321,6.995V-2.6a5.925,5.925,0,0,0,3.6,1.208q2.637,0,2.637-1.758A1.525,1.525,0,0,0,145.294-4a2.251,2.251,0,0,0-.61-.616,4.7,4.7,0,0,0-.9-.482q-.519-.214-1.117-.446a14.385,14.385,0,0,1-1.459-.665,4.407,4.407,0,0,1-1.05-.757,2.816,2.816,0,0,1-.635-.958,3.39,3.39,0,0,1-.214-1.257,2.987,2.987,0,0,1,.4-1.556,3.572,3.572,0,0,1,1.074-1.135,5.009,5.009,0,0,1,1.532-.69,6.8,6.8,0,0,1,1.776-.232,7.172,7.172,0,0,1,2.905.562v2.026a5.662,5.662,0,0,0-3.174-.9,3.71,3.71,0,0,0-1.013.128,2.48,2.48,0,0,0-.775.36,1.664,1.664,0,0,0-.5.555,1.463,1.463,0,0,0-.177.714,1.713,1.713,0,0,0,.177.818,1.8,1.8,0,0,0,.519.586,3.965,3.965,0,0,0,.83.464q.488.208,1.111.452a15.46,15.46,0,0,1,1.489.653,5.108,5.108,0,0,1,1.123.757,2.957,2.957,0,0,1,.714.97,3.13,3.13,0,0,1,.25,1.306,3.08,3.08,0,0,1-.409,1.611A3.5,3.5,0,0,1,146.069-.6a5,5,0,0,1-1.575.671,7.775,7.775,0,0,1-1.868.22A7.092,7.092,0,0,1,139.282-.452Zm17.163.33a3.86,3.86,0,0,1-1.868.391q-3.284,0-3.284-3.662v-7.4h-2.148V-12.5h2.148v-3.052l2-.647v3.7h3.149v1.709H153.3v7.043a2.92,2.92,0,0,0,.427,1.794,1.7,1.7,0,0,0,1.416.537,2.1,2.1,0,0,0,1.306-.415Zm9.192-10.352a2.448,2.448,0,0,0-1.514-.4,2.555,2.555,0,0,0-2.142,1.208,5.587,5.587,0,0,0-.861,3.3V0h-2V-12.5h2v2.576h.049a4.365,4.365,0,0,1,1.306-2.057,2.978,2.978,0,0,1,1.965-.739,3.268,3.268,0,0,1,1.2.171ZM177.917,0h-2V-1.978h-.049A4.111,4.111,0,0,1,172.009.293q-4.468,0-4.468-5.322V-12.5h1.99v7.153q0,3.955,3.027,3.955a3.063,3.063,0,0,0,2.411-1.08,4.134,4.134,0,0,0,.946-2.826v-7.2h2Zm12.561-.574a6.5,6.5,0,0,1-3.418.867,5.659,5.659,0,0,1-4.315-1.74,6.3,6.3,0,0,1-1.642-4.51,6.93,6.93,0,0,1,1.77-4.962,6.192,6.192,0,0,1,4.724-1.874,6.576,6.576,0,0,1,2.905.61v2.051a5.09,5.09,0,0,0-2.979-.977,4.025,4.025,0,0,0-3.143,1.373,5.211,5.211,0,0,0-1.227,3.607,4.962,4.962,0,0,0,1.154,3.467,3.976,3.976,0,0,0,3.094,1.27,5.017,5.017,0,0,0,3.076-1.086Zm8.826.452a3.86,3.86,0,0,1-1.868.391q-3.284,0-3.284-3.662v-7.4H192V-12.5h2.148v-3.052l2-.647v3.7H199.3v1.709h-3.149v7.043a2.92,2.92,0,0,0,.427,1.794A1.7,1.7,0,0,0,198-1.416a2.1,2.1,0,0,0,1.306-.415ZM212.085,0h-2V-1.978h-.049A4.111,4.111,0,0,1,206.177.293q-4.468,0-4.468-5.322V-12.5h1.99v7.153q0,3.955,3.027,3.955a3.063,3.063,0,0,0,2.411-1.08,4.134,4.134,0,0,0,.946-2.826v-7.2h2Zm10.559-10.474a2.448,2.448,0,0,0-1.514-.4,2.555,2.555,0,0,0-2.142,1.208,5.587,5.587,0,0,0-.861,3.3V0h-2V-12.5h2v2.576h.049a4.365,4.365,0,0,1,1.306-2.057,2.978,2.978,0,0,1,1.965-.739,3.268,3.268,0,0,1,1.2.171ZM233.765,0h-2V-1.953h-.049A4.191,4.191,0,0,1,227.869.293,4.109,4.109,0,0,1,224.945-.7a3.426,3.426,0,0,1-1.056-2.625q0-3.5,4.126-4.077l3.748-.525q0-3.186-2.576-3.186A6.154,6.154,0,0,0,225.11-9.57v-2.051a7.746,7.746,0,0,1,4.248-1.172q4.407,0,4.407,4.663Zm-2-6.323-3.015.415a4.9,4.9,0,0,0-2.1.69,1.989,1.989,0,0,0-.708,1.752,1.908,1.908,0,0,0,.653,1.5,2.524,2.524,0,0,0,1.74.58,3.213,3.213,0,0,0,2.46-1.044,3.729,3.729,0,0,0,.97-2.643Z" transform="translate(258.876 7675.692)" fill="#12263f"/>
    <path id="Trazado_895783" data-name="Trazado 895783" d="M12.7,0h-2V-2.124h-.049A4.621,4.621,0,0,1,6.348.293,4.669,4.669,0,0,1,2.582-1.385a6.886,6.886,0,0,1-1.41-4.572,7.491,7.491,0,0,1,1.563-4.968A5.153,5.153,0,0,1,6.9-12.793a4.007,4.007,0,0,1,3.748,2.026h.049v-7.739h2Zm-2-5.652V-7.5a3.576,3.576,0,0,0-1-2.563,3.357,3.357,0,0,0-2.539-1.05A3.457,3.457,0,0,0,4.272-9.766a5.884,5.884,0,0,0-1.05,3.711A5.292,5.292,0,0,0,4.23-2.643a3.291,3.291,0,0,0,2.7,1.251A3.419,3.419,0,0,0,9.65-2.6,4.5,4.5,0,0,0,10.693-5.652Zm16.1-.1H17.969a4.675,4.675,0,0,0,1.123,3.223,3.872,3.872,0,0,0,2.954,1.135,6.142,6.142,0,0,0,3.882-1.392V-.9A7.255,7.255,0,0,1,21.57.293a5.283,5.283,0,0,1-4.163-1.7A6.97,6.97,0,0,1,15.894-6.2a6.835,6.835,0,0,1,1.654-4.755,5.3,5.3,0,0,1,4.108-1.837,4.7,4.7,0,0,1,3.8,1.587A6.616,6.616,0,0,1,26.794-6.8Zm-2.051-1.7a4.073,4.073,0,0,0-.836-2.7,2.849,2.849,0,0,0-2.289-.964,3.234,3.234,0,0,0-2.4,1.013,4.6,4.6,0,0,0-1.221,2.649ZM31.824,0h-2V-18.506h2ZM51.672,0h-2V-1.953h-.049A4.191,4.191,0,0,1,45.776.293,4.109,4.109,0,0,1,42.853-.7,3.426,3.426,0,0,1,41.8-3.32q0-3.5,4.126-4.077l3.748-.525q0-3.186-2.576-3.186A6.154,6.154,0,0,0,43.018-9.57v-2.051a7.746,7.746,0,0,1,4.248-1.172q4.407,0,4.407,4.663Zm-2-6.323-3.015.415a4.9,4.9,0,0,0-2.1.69,1.989,1.989,0,0,0-.708,1.752,1.908,1.908,0,0,0,.653,1.5,2.524,2.524,0,0,0,1.74.58A3.213,3.213,0,0,0,48.7-2.435a3.729,3.729,0,0,0,.97-2.643Zm12.292-4.15a2.448,2.448,0,0,0-1.514-.4,2.555,2.555,0,0,0-2.142,1.208,5.587,5.587,0,0,0-.861,3.3V0h-2V-12.5h2v2.576H57.5A4.365,4.365,0,0,1,58.8-11.981a2.978,2.978,0,0,1,1.965-.739,3.268,3.268,0,0,1,1.2.171ZM74.58-1q0,6.885-6.592,6.885A8.851,8.851,0,0,1,63.935,5V3a8.323,8.323,0,0,0,4.028,1.172q4.614,0,4.614-4.907V-2.1h-.049a4.682,4.682,0,0,1-4.3,2.393,4.693,4.693,0,0,1-3.754-1.666,6.661,6.661,0,0,1-1.422-4.474,7.782,7.782,0,0,1,1.532-5.066,5.118,5.118,0,0,1,4.193-1.88,4.074,4.074,0,0,1,3.748,2.026h.049V-12.5h2Zm-2-4.651V-7.5a3.576,3.576,0,0,0-1.007-2.551,3.315,3.315,0,0,0-2.509-1.062A3.476,3.476,0,0,0,66.157-9.76a6.021,6.021,0,0,0-1.05,3.778,5.169,5.169,0,0,0,1.007,3.339,3.254,3.254,0,0,0,2.667,1.251,3.484,3.484,0,0,0,2.74-1.2A4.459,4.459,0,0,0,72.578-5.652ZM88.74,0h-2V-1.978h-.049A4.111,4.111,0,0,1,82.832.293q-4.468,0-4.468-5.322V-12.5h1.99v7.153q0,3.955,3.027,3.955a3.063,3.063,0,0,0,2.411-1.08A4.134,4.134,0,0,0,86.738-5.3v-7.2h2Zm21.79,0h-2V-7.178a5.415,5.415,0,0,0-.641-3,2.43,2.43,0,0,0-2.155-.928,2.668,2.668,0,0,0-2.179,1.172,4.483,4.483,0,0,0-.9,2.808V0h-2V-7.422q0-3.687-2.844-3.687A2.635,2.635,0,0,0,95.637-10a4.567,4.567,0,0,0-.854,2.875V0h-2V-12.5h2v1.978h.049a4.247,4.247,0,0,1,3.882-2.271,3.619,3.619,0,0,1,2.234.714,3.592,3.592,0,0,1,1.306,1.874,4.461,4.461,0,0,1,4.15-2.588q4.126,0,4.126,5.09ZM124.36-5.75h-8.826a4.675,4.675,0,0,0,1.123,3.223,3.872,3.872,0,0,0,2.954,1.135,6.142,6.142,0,0,0,3.882-1.392V-.9a7.255,7.255,0,0,1-4.358,1.2,5.283,5.283,0,0,1-4.163-1.7A6.97,6.97,0,0,1,113.459-6.2a6.835,6.835,0,0,1,1.654-4.755,5.3,5.3,0,0,1,4.108-1.837,4.7,4.7,0,0,1,3.8,1.587A6.616,6.616,0,0,1,124.36-6.8Zm-2.051-1.7a4.073,4.073,0,0,0-.836-2.7,2.849,2.849,0,0,0-2.289-.964,3.234,3.234,0,0,0-2.4,1.013,4.6,4.6,0,0,0-1.221,2.649ZM137.763,0h-2V-7.129q0-3.979-2.905-3.979a3.151,3.151,0,0,0-2.484,1.129,4.185,4.185,0,0,0-.983,2.85V0h-2V-12.5h2v2.075h.049a4.512,4.512,0,0,1,4.1-2.368,3.824,3.824,0,0,1,3.137,1.324,5.9,5.9,0,0,1,1.086,3.827Zm9.57-.122a3.86,3.86,0,0,1-1.868.391q-3.284,0-3.284-3.662v-7.4h-2.148V-12.5h2.148v-3.052l2-.647v3.7h3.149v1.709h-3.149v7.043a2.92,2.92,0,0,0,.427,1.794,1.7,1.7,0,0,0,1.416.537,2.1,2.1,0,0,0,1.306-.415Zm7.9.415a5.8,5.8,0,0,1-4.425-1.752A6.488,6.488,0,0,1,149.152-6.1a6.759,6.759,0,0,1,1.721-4.919,6.188,6.188,0,0,1,4.651-1.77,5.606,5.606,0,0,1,4.364,1.721A6.825,6.825,0,0,1,161.457-6.3a6.715,6.715,0,0,1-1.691,4.791A5.924,5.924,0,0,1,155.232.293Zm.146-11.4A3.808,3.808,0,0,0,152.326-9.8,5.389,5.389,0,0,0,151.2-6.177a5.1,5.1,0,0,0,1.135,3.5,3.858,3.858,0,0,0,3.04,1.282,3.66,3.66,0,0,0,2.985-1.257,5.456,5.456,0,0,0,1.044-3.577,5.55,5.55,0,0,0-1.044-3.613A3.644,3.644,0,0,0,155.378-11.108Zm9.973,1.05a1.3,1.3,0,0,1-.958-.4,1.326,1.326,0,0,1-.4-.964,1.286,1.286,0,0,1,.4-.952,1.316,1.316,0,0,1,.958-.391,1.351,1.351,0,0,1,.977.391,1.276,1.276,0,0,1,.4.952,1.316,1.316,0,0,1-.4.964A1.33,1.33,0,0,1,165.351-10.059Zm0,10.327a1.3,1.3,0,0,1-.958-.4A1.326,1.326,0,0,1,164-1.1a1.346,1.346,0,0,1,.4-.97,1.286,1.286,0,0,1,.958-.409,1.32,1.32,0,0,1,.977.409,1.336,1.336,0,0,1,.4.97,1.316,1.316,0,0,1-.4.964A1.33,1.33,0,0,1,165.351.269Z" transform="translate(258.876 7705.164)" fill="#12263f"/>
    <g id="Grupo_1101984" data-name="Grupo 1101984" transform="translate(197 7529)">
      <g id="Grupo_1101983" data-name="Grupo 1101983" clip-path="url(#clip-path)">
        <path id="Trazado_892532" data-name="Trazado 892532" d="M580.76,99.835h-.149V47.744a46.8,46.8,0,0,0-46.8-46.8H47.744a46.8,46.8,0,0,0-46.8,46.8v175.25a46.8,46.8,0,0,0,46.8,46.8H533.808a46.8,46.8,0,0,0,46.8-46.8V99.569l.046,72.946" transform="translate(-0.325 -0.325)" fill="none" stroke="#7dc8ff" stroke-linecap="round" stroke-linejoin="round" stroke-width="1.882"/>
      </g>
    </g>
    <path id="Trazado_895784" data-name="Trazado 895784" d="M11.633-4.956A5.1,5.1,0,0,1,11.188-2.8,4.757,4.757,0,0,1,9.93-1.141,5.8,5.8,0,0,1,7.983-.073a7.876,7.876,0,0,1-2.5.378A7.272,7.272,0,0,1,1.5-.647V-2.8A6.377,6.377,0,0,0,5.554-1.4a5.508,5.508,0,0,0,1.654-.232,3.709,3.709,0,0,0,1.27-.671A2.982,2.982,0,0,0,9.3-3.369a3.317,3.317,0,0,0,.287-1.4Q9.583-8.2,4.7-8.2H3.247V-9.9H4.626q4.321,0,4.321-3.223,0-2.979-3.3-2.979a5.612,5.612,0,0,0-3.479,1.245V-16.8a7.606,7.606,0,0,1,3.979-1,6.115,6.115,0,0,1,1.99.305,4.559,4.559,0,0,1,1.526.854,3.787,3.787,0,0,1,.983,1.318,4.069,4.069,0,0,1,.348,1.7A4.273,4.273,0,0,1,7.507-9.18v.049A5.522,5.522,0,0,1,9.155-8.7a4.4,4.4,0,0,1,1.306.873,3.891,3.891,0,0,1,.861,1.263A4.034,4.034,0,0,1,11.633-4.956Z" transform="translate(622.24 7740.584)" fill="#12263f"/>
    <g id="Grupo_1101986" data-name="Grupo 1101986" transform="translate(197 7529)">
      <g id="Grupo_1101985" data-name="Grupo 1101985" clip-path="url(#clip-path)">
        <path id="Trazado_892533" data-name="Trazado 892533" d="M679.443,315.327a3.31,3.31,0,0,0,2-1.605,6.046,6.046,0,0,0,.6-2.833v-2.622a4.8,4.8,0,0,1,.576-2.392,3.757,3.757,0,0,1,1.778-1.573,3.622,3.622,0,0,1-1.778-1.548,4.853,4.853,0,0,1-.576-2.418V297.7a6.124,6.124,0,0,0-.6-2.846,3.253,3.253,0,0,0-2-1.605l.525-1.5a6.128,6.128,0,0,1,3.537,2.232,6.381,6.381,0,0,1,1.055,3.716v2.635a3.433,3.433,0,0,0,.646,2.233,2.474,2.474,0,0,0,2.028.787v1.88a2.452,2.452,0,0,0-2.028.8,3.465,3.465,0,0,0-.646,2.232v2.622a6.39,6.39,0,0,1-1.055,3.71,6.119,6.119,0,0,1-3.537,2.239Z" transform="translate(-234.454 -100.674)" fill="#824ffb"/>
        <path id="Trazado_892534" data-name="Trazado 892534" d="M639.235,293.965a3.31,3.31,0,0,0-2,1.605,6.045,6.045,0,0,0-.6,2.833v2.622a4.8,4.8,0,0,1-.576,2.392,3.756,3.756,0,0,1-1.778,1.573,3.621,3.621,0,0,1,1.778,1.548,4.852,4.852,0,0,1,.576,2.418v2.635a6.124,6.124,0,0,0,.6,2.846,3.252,3.252,0,0,0,2,1.605l-.525,1.5a6.129,6.129,0,0,1-3.537-2.232,6.381,6.381,0,0,1-1.055-3.716v-2.635a3.433,3.433,0,0,0-.646-2.233,2.474,2.474,0,0,0-2.028-.787v-1.88a2.452,2.452,0,0,0,2.028-.8,3.464,3.464,0,0,0,.646-2.232V298.4a6.39,6.39,0,0,1,1.055-3.71,6.119,6.119,0,0,1,3.537-2.239Z" transform="translate(-217.891 -100.917)" fill="#824ffb"/>
        <path id="Trazado_892535" data-name="Trazado 892535" d="M600.889,259.8l-1.539,10.867a1.69,1.69,0,0,1-1.184,1.381l-10.259,3.109a1.691,1.691,0,0,0,.086,3.26l20.9,5.145a1.691,1.691,0,0,0,2.021-2.139l-6.737-21.885a1.691,1.691,0,0,0-3.29.261" transform="translate(-202.453 -89.145)" fill="#f96e97"/>
        <path id="Trazado_892536" data-name="Trazado 892536" d="M709.1,259.8l1.538,10.867a1.691,1.691,0,0,0,1.184,1.381l10.259,3.109a1.691,1.691,0,0,1-.086,3.26l-20.9,5.145a1.691,1.691,0,0,1-2.021-2.139l6.737-21.885a1.691,1.691,0,0,1,3.29.261" transform="translate(-241.2 -89.145)" fill="#f96e97"/>
      </g>
    </g>
    <path id="Trazado_895785" data-name="Trazado 895785" d="M9.424-12.915a3.619,3.619,0,0,0-.25-1.4,2.781,2.781,0,0,0-.684-.995,2.8,2.8,0,0,0-1.019-.592,3.991,3.991,0,0,0-1.27-.2,4.2,4.2,0,0,0-1.147.159,5.578,5.578,0,0,0-1.093.439,6.721,6.721,0,0,0-1.025.671,7.407,7.407,0,0,0-.922.867v-2.148A5.985,5.985,0,0,1,3.9-17.365,6.64,6.64,0,0,1,6.445-17.8a6.144,6.144,0,0,1,1.99.311,4.562,4.562,0,0,1,1.587.909A4.2,4.2,0,0,1,11.078-15.1a4.982,4.982,0,0,1,.385,2.014,6.907,6.907,0,0,1-.238,1.88,5.814,5.814,0,0,1-.72,1.587A7.657,7.657,0,0,1,9.29-8.191,17.2,17.2,0,0,1,7.568-6.8Q6.335-5.92,5.536-5.3a8.985,8.985,0,0,0-1.27,1.166,3.383,3.383,0,0,0-.659,1.086,3.8,3.8,0,0,0-.189,1.251h8.716V0H1.331V-.867a7.222,7.222,0,0,1,.244-1.978A5.135,5.135,0,0,1,2.38-4.468,9.01,9.01,0,0,1,3.851-6.006q.909-.769,2.228-1.733A14.084,14.084,0,0,0,7.672-9.045,6.791,6.791,0,0,0,8.7-10.291a4.472,4.472,0,0,0,.555-1.263A5.448,5.448,0,0,0,9.424-12.915Z" transform="translate(561.688 7610.8)" fill="#12263f"/>
    <g id="Grupo_1101988" data-name="Grupo 1101988" transform="translate(197 7529)">
      <g id="Grupo_1101987" data-name="Grupo 1101987" clip-path="url(#clip-path)">
        <path id="Trazado_892537" data-name="Trazado 892537" d="M586.989,117.162a3.31,3.31,0,0,0,2-1.605,6.045,6.045,0,0,0,.6-2.833V110.1a4.8,4.8,0,0,1,.576-2.392,3.756,3.756,0,0,1,1.778-1.573,3.622,3.622,0,0,1-1.778-1.548,4.853,4.853,0,0,1-.576-2.418V99.535a6.124,6.124,0,0,0-.6-2.846,3.252,3.252,0,0,0-2-1.605l.525-1.5a6.129,6.129,0,0,1,3.537,2.232,6.382,6.382,0,0,1,1.055,3.716v2.635a3.433,3.433,0,0,0,.646,2.233,2.474,2.474,0,0,0,2.028.787v1.88a2.452,2.452,0,0,0-2.028.8,3.464,3.464,0,0,0-.646,2.232v2.622a6.391,6.391,0,0,1-1.055,3.71,6.119,6.119,0,0,1-3.537,2.239Z" transform="translate(-202.551 -32.294)" fill="#824ffb"/>
        <path id="Trazado_892538" data-name="Trazado 892538" d="M546.781,95.8a3.31,3.31,0,0,0-2,1.605,6.044,6.044,0,0,0-.6,2.833v2.622a4.8,4.8,0,0,1-.576,2.392,3.755,3.755,0,0,1-1.778,1.573,3.621,3.621,0,0,1,1.778,1.548,4.852,4.852,0,0,1,.576,2.418v2.635a6.123,6.123,0,0,0,.6,2.846,3.252,3.252,0,0,0,2,1.605l-.525,1.5a6.128,6.128,0,0,1-3.537-2.232,6.381,6.381,0,0,1-1.055-3.716v-2.635a3.433,3.433,0,0,0-.646-2.233,2.474,2.474,0,0,0-2.028-.787v-1.88a2.452,2.452,0,0,0,2.028-.8,3.464,3.464,0,0,0,.646-2.232v-2.622a6.39,6.39,0,0,1,1.055-3.71,6.118,6.118,0,0,1,3.537-2.239Z" transform="translate(-185.988 -32.536)" fill="#824ffb"/>
      </g>
    </g>
    <path id="Trazado_895786" data-name="Trazado 895786" d="M10.376-17.5v11.56h2.246v1.831H10.376V0H8.4V-4.114H.171V-5.847Q1.318-7.141,2.49-8.612T4.73-11.6Q5.8-13.11,6.708-14.618A27.612,27.612,0,0,0,8.24-17.5ZM2.429-5.945H8.4v-8.569q-.916,1.6-1.733,2.856T5.109-9.375Q4.37-8.35,3.7-7.52T2.429-5.945Z" transform="translate(682.791 7610.8)" fill="#12263f"/>
    <g id="Grupo_1101990" data-name="Grupo 1101990" transform="translate(197 7529)">
      <g id="Grupo_1101989" data-name="Grupo 1101989" clip-path="url(#clip-path)">
        <path id="Trazado_892539" data-name="Trazado 892539" d="M771.9,117.162a3.31,3.31,0,0,0,2-1.605,6.044,6.044,0,0,0,.6-2.833V110.1a4.8,4.8,0,0,1,.576-2.392,3.756,3.756,0,0,1,1.778-1.573,3.622,3.622,0,0,1-1.778-1.548,4.853,4.853,0,0,1-.576-2.418V99.535a6.123,6.123,0,0,0-.6-2.846,3.253,3.253,0,0,0-2-1.605l.525-1.5a6.128,6.128,0,0,1,3.537,2.232,6.381,6.381,0,0,1,1.055,3.716v2.635a3.433,3.433,0,0,0,.646,2.233,2.474,2.474,0,0,0,2.028.787v1.88a2.452,2.452,0,0,0-2.028.8,3.464,3.464,0,0,0-.646,2.232v2.622a6.39,6.39,0,0,1-1.055,3.71,6.118,6.118,0,0,1-3.537,2.239Z" transform="translate(-266.357 -32.294)" fill="#824ffb"/>
        <path id="Trazado_892540" data-name="Trazado 892540" d="M731.689,95.8a3.31,3.31,0,0,0-2,1.605,6.045,6.045,0,0,0-.6,2.833v2.622a4.8,4.8,0,0,1-.576,2.392,3.756,3.756,0,0,1-1.778,1.573,3.622,3.622,0,0,1,1.778,1.548,4.853,4.853,0,0,1,.576,2.418v2.635a6.124,6.124,0,0,0,.6,2.846,3.253,3.253,0,0,0,2,1.605l-.525,1.5a6.128,6.128,0,0,1-3.537-2.232,6.381,6.381,0,0,1-1.055-3.716v-2.635a3.433,3.433,0,0,0-.646-2.233,2.474,2.474,0,0,0-2.028-.787v-1.88a2.452,2.452,0,0,0,2.028-.8,3.464,3.464,0,0,0,.646-2.232v-2.622a6.39,6.39,0,0,1,1.055-3.71,6.118,6.118,0,0,1,3.537-2.239Z" transform="translate(-249.794 -32.536)" fill="#824ffb"/>
      </g>
    </g>
    <path id="Trazado_895787" data-name="Trazado 895787" d="M8.838,0h-2V-15.125a4.634,4.634,0,0,1-.677.531,11.043,11.043,0,0,1-1,.592q-.555.293-1.172.549a8.517,8.517,0,0,1-1.2.4v-2.026a11.638,11.638,0,0,0,1.4-.494q.739-.311,1.453-.7t1.349-.806a10.709,10.709,0,0,0,1.1-.824h.757Z" transform="translate(561.688 7689.968)" fill="#12263f"/>
    <g id="Grupo_1101992" data-name="Grupo 1101992" transform="translate(197 7529)">
      <g id="Grupo_1101991" data-name="Grupo 1101991" clip-path="url(#clip-path)">
        <path id="Trazado_892541" data-name="Trazado 892541" d="M586.989,238.043a3.31,3.31,0,0,0,2-1.605,6.045,6.045,0,0,0,.6-2.833v-2.622a4.8,4.8,0,0,1,.576-2.392,3.756,3.756,0,0,1,1.778-1.573,3.622,3.622,0,0,1-1.778-1.548,4.853,4.853,0,0,1-.576-2.418v-2.635a6.123,6.123,0,0,0-.6-2.846,3.252,3.252,0,0,0-2-1.605l.525-1.5a6.128,6.128,0,0,1,3.537,2.232,6.382,6.382,0,0,1,1.055,3.716v2.635a3.433,3.433,0,0,0,.646,2.233,2.474,2.474,0,0,0,2.028.787v1.88a2.452,2.452,0,0,0-2.028.8,3.464,3.464,0,0,0-.646,2.232V233.6a6.391,6.391,0,0,1-1.055,3.71,6.119,6.119,0,0,1-3.537,2.239Z" transform="translate(-202.551 -74.006)" fill="#824ffb"/>
        <path id="Trazado_892542" data-name="Trazado 892542" d="M546.781,216.68a3.309,3.309,0,0,0-2,1.605,6.044,6.044,0,0,0-.6,2.833v2.622a4.8,4.8,0,0,1-.576,2.392,3.755,3.755,0,0,1-1.778,1.573,3.621,3.621,0,0,1,1.778,1.548,4.852,4.852,0,0,1,.576,2.418v2.635a6.123,6.123,0,0,0,.6,2.846,3.252,3.252,0,0,0,2,1.605l-.525,1.5a6.128,6.128,0,0,1-3.537-2.232,6.381,6.381,0,0,1-1.055-3.716v-2.635a3.433,3.433,0,0,0-.646-2.233,2.474,2.474,0,0,0-2.028-.787v-1.88a2.452,2.452,0,0,0,2.028-.8,3.464,3.464,0,0,0,.646-2.232v-2.622a6.39,6.39,0,0,1,1.055-3.71,6.118,6.118,0,0,1,3.537-2.239Z" transform="translate(-185.988 -74.248)" fill="#824ffb"/>
      </g>
    </g>
    <path id="Trazado_895788" data-name="Trazado 895788" d="M11.633-4.956A5.1,5.1,0,0,1,11.188-2.8,4.757,4.757,0,0,1,9.93-1.141,5.8,5.8,0,0,1,7.983-.073a7.876,7.876,0,0,1-2.5.378A7.272,7.272,0,0,1,1.5-.647V-2.8A6.377,6.377,0,0,0,5.554-1.4a5.508,5.508,0,0,0,1.654-.232,3.709,3.709,0,0,0,1.27-.671A2.982,2.982,0,0,0,9.3-3.369a3.317,3.317,0,0,0,.287-1.4Q9.583-8.2,4.7-8.2H3.247V-9.9H4.626q4.321,0,4.321-3.223,0-2.979-3.3-2.979a5.612,5.612,0,0,0-3.479,1.245V-16.8a7.606,7.606,0,0,1,3.979-1,6.115,6.115,0,0,1,1.99.305,4.559,4.559,0,0,1,1.526.854,3.787,3.787,0,0,1,.983,1.318,4.069,4.069,0,0,1,.348,1.7A4.273,4.273,0,0,1,7.507-9.18v.049A5.522,5.522,0,0,1,9.155-8.7a4.4,4.4,0,0,1,1.306.873,3.891,3.891,0,0,1,.861,1.263A4.034,4.034,0,0,1,11.633-4.956Z" transform="translate(682.791 7689.968)" fill="#12263f"/>
    <g id="Grupo_1101994" data-name="Grupo 1101994" transform="translate(197 7529)">
      <g id="Grupo_1101993" data-name="Grupo 1101993" clip-path="url(#clip-path)">
        <path id="Trazado_892543" data-name="Trazado 892543" d="M771.9,238.043a3.31,3.31,0,0,0,2-1.605,6.044,6.044,0,0,0,.6-2.833v-2.622a4.8,4.8,0,0,1,.576-2.392,3.756,3.756,0,0,1,1.778-1.573,3.622,3.622,0,0,1-1.778-1.548,4.853,4.853,0,0,1-.576-2.418v-2.635a6.123,6.123,0,0,0-.6-2.846,3.253,3.253,0,0,0-2-1.605l.525-1.5a6.128,6.128,0,0,1,3.537,2.232,6.381,6.381,0,0,1,1.055,3.716v2.635a3.433,3.433,0,0,0,.646,2.233,2.474,2.474,0,0,0,2.028.787v1.88a2.452,2.452,0,0,0-2.028.8,3.464,3.464,0,0,0-.646,2.232V233.6a6.39,6.39,0,0,1-1.055,3.71,6.119,6.119,0,0,1-3.537,2.239Z" transform="translate(-266.357 -74.006)" fill="#824ffb"/>
        <path id="Trazado_892544" data-name="Trazado 892544" d="M731.689,216.68a3.31,3.31,0,0,0-2,1.605,6.045,6.045,0,0,0-.6,2.833v2.622a4.8,4.8,0,0,1-.576,2.392,3.756,3.756,0,0,1-1.778,1.573,3.622,3.622,0,0,1,1.778,1.548,4.853,4.853,0,0,1,.576,2.418v2.635a6.124,6.124,0,0,0,.6,2.846,3.253,3.253,0,0,0,2,1.605l-.525,1.5a6.128,6.128,0,0,1-3.537-2.232,6.381,6.381,0,0,1-1.055-3.716v-2.635a3.433,3.433,0,0,0-.646-2.233,2.473,2.473,0,0,0-2.028-.787v-1.88a2.452,2.452,0,0,0,2.028-.8,3.464,3.464,0,0,0,.646-2.232v-2.622a6.39,6.39,0,0,1,1.055-3.71,6.118,6.118,0,0,1,3.537-2.239Z" transform="translate(-249.794 -74.248)" fill="#824ffb"/>
        <path id="Trazado_892545" data-name="Trazado 892545" d="M572.193,155.968l-8.773,6.6a1.69,1.69,0,0,1-1.813.139l-9.453-5.056a1.691,1.691,0,0,0-2.245,2.366l11.142,18.419a1.692,1.692,0,0,0,2.942-.084L574.7,158.11a1.691,1.691,0,0,0-2.51-2.142" transform="translate(-189.668 -53.698)" fill="#f96e97"/>
        <path id="Trazado_892546" data-name="Trazado 892546" d="M757.1,155.968l-8.772,6.6a1.691,1.691,0,0,1-1.814.139l-9.452-5.056a1.691,1.691,0,0,0-2.245,2.366l11.142,18.419a1.692,1.692,0,0,0,2.942-.084l10.711-20.238a1.691,1.691,0,0,0-2.511-2.142" transform="translate(-253.474 -53.698)" fill="#f96e97"/>
      </g>
    </g>
  </g>
</svg>
