<svg xmlns="http://www.w3.org/2000/svg" xmlns:xlink="http://www.w3.org/1999/xlink" width="581.051" height="270.089" viewBox="0 0 581.051 270.089">
  <defs>
    <clipPath id="clip-path">
      <rect id="Rectángulo_402784" data-name="Rectángulo 402784" width="581.051" height="270.09" fill="none"/>
    </clipPath>
  </defs>
  <g id="Grupo_1104464" data-name="Grupo 1104464" transform="translate(-197 -7608.096)">
    <g id="Grupo_1103323" data-name="Grupo 1103323" transform="translate(197 7608.096)">
      <g id="Grupo_1103322" data-name="Grupo 1103322" clip-path="url(#clip-path)">
        <path id="Trazado_896487" data-name="Trazado 896487" d="M537.869,23.885H59.518A35.633,35.633,0,0,0,23.885,59.518V227.056a35.633,35.633,0,0,0,35.633,35.633H537.869A35.633,35.633,0,0,0,573.5,227.056V59.518a35.633,35.633,0,0,0-35.633-35.633" transform="translate(-8.242 -8.242)" fill="#fee3b3"/>
        <path id="Trazado_896488" data-name="Trazado 896488" d="M580.76,99.835h-.149V47.744a46.8,46.8,0,0,0-46.8-46.8H47.744a46.8,46.8,0,0,0-46.8,46.8v175.25a46.8,46.8,0,0,0,46.8,46.8H533.808a46.8,46.8,0,0,0,46.8-46.8V99.569l.046,72.946" transform="translate(-0.325 -0.325)" fill="none" stroke="#7dc8ff" stroke-linecap="round" stroke-linejoin="round" stroke-width="1.882"/>
        <path id="Trazado_896489" data-name="Trazado 896489" d="M651.454,306.945l1.075-10.438H663.44v3.352h-7.407l-.473,3.876a4.351,4.351,0,0,1,1.337-.6,7.162,7.162,0,0,1,1.772-.256,4.829,4.829,0,0,1,4,1.593,6.982,6.982,0,0,1,1.4,4.662,6.564,6.564,0,0,1-1.561,4.484q-1.561,1.784-4.912,1.784a7.755,7.755,0,0,1-4.624-1.4,4.152,4.152,0,0,1-1.886-3.7l.012-.077,4.234-.256a1.984,1.984,0,0,0,.62,1.548,2.353,2.353,0,0,0,1.644.563,1.845,1.845,0,0,0,1.676-.729,4.071,4.071,0,0,0,.473-2.187,4.548,4.548,0,0,0-.55-2.417,1.9,1.9,0,0,0-1.74-.883,2.376,2.376,0,0,0-1.388.371,1.931,1.931,0,0,0-.736.934Z" transform="translate(-224.667 -102.315)" fill="#12263f"/>
        <path id="Trazado_896490" data-name="Trazado 896490" d="M679.443,315.327a3.31,3.31,0,0,0,2-1.605,6.045,6.045,0,0,0,.6-2.833v-2.622a4.8,4.8,0,0,1,.576-2.392,3.756,3.756,0,0,1,1.778-1.573,3.622,3.622,0,0,1-1.778-1.548,4.853,4.853,0,0,1-.576-2.418V297.7a6.123,6.123,0,0,0-.6-2.846,3.253,3.253,0,0,0-2-1.605l.525-1.5a6.128,6.128,0,0,1,3.537,2.232,6.381,6.381,0,0,1,1.055,3.716v2.635a3.433,3.433,0,0,0,.646,2.233,2.474,2.474,0,0,0,2.028.787v1.88a2.452,2.452,0,0,0-2.028.8,3.464,3.464,0,0,0-.646,2.232v2.622a6.39,6.39,0,0,1-1.055,3.71,6.119,6.119,0,0,1-3.537,2.239Z" transform="translate(-234.454 -100.674)" fill="#824ffb"/>
        <path id="Trazado_896491" data-name="Trazado 896491" d="M639.235,293.965a3.31,3.31,0,0,0-2,1.605,6.045,6.045,0,0,0-.6,2.833v2.622a4.8,4.8,0,0,1-.576,2.392,3.756,3.756,0,0,1-1.778,1.573,3.621,3.621,0,0,1,1.778,1.548,4.853,4.853,0,0,1,.576,2.418v2.635a6.123,6.123,0,0,0,.6,2.846,3.253,3.253,0,0,0,2,1.605l-.525,1.5a6.128,6.128,0,0,1-3.537-2.232,6.381,6.381,0,0,1-1.055-3.716v-2.635a3.433,3.433,0,0,0-.646-2.233,2.474,2.474,0,0,0-2.028-.787v-1.88a2.452,2.452,0,0,0,2.028-.8,3.464,3.464,0,0,0,.646-2.232V298.4a6.39,6.39,0,0,1,1.055-3.71,6.118,6.118,0,0,1,3.537-2.239Z" transform="translate(-217.891 -100.917)" fill="#824ffb"/>
        <path id="Trazado_896492" data-name="Trazado 896492" d="M600.889,259.8l-1.539,10.867a1.69,1.69,0,0,1-1.184,1.381l-10.259,3.109a1.691,1.691,0,0,0,.086,3.26l20.9,5.145a1.691,1.691,0,0,0,2.021-2.139l-6.737-21.885a1.691,1.691,0,0,0-3.29.261" transform="translate(-202.453 -89.145)" fill="#f96e97"/>
        <path id="Trazado_896493" data-name="Trazado 896493" d="M709.1,259.8l1.538,10.867a1.691,1.691,0,0,0,1.184,1.381l10.259,3.109a1.691,1.691,0,0,1-.086,3.26l-20.9,5.145a1.691,1.691,0,0,1-2.021-2.139l6.737-21.885a1.691,1.691,0,0,1,3.29.261" transform="translate(-241.2 -89.145)" fill="#f96e97"/>
        <path id="Trazado_896494" data-name="Trazado 896494" d="M571.5,116.825H558.556v-2.814l5.731-6.293a12.336,12.336,0,0,0,1.688-2.328,3.955,3.955,0,0,0,.538-1.778,2.759,2.759,0,0,0-.486-1.721,1.845,1.845,0,0,0-1.561-.633,1.784,1.784,0,0,0-1.567.825,3.69,3.69,0,0,0-.556,2.1h-4.234l-.026-.077a5.8,5.8,0,0,1,1.7-4.381,6.268,6.268,0,0,1,4.682-1.8,6.8,6.8,0,0,1,4.72,1.5,5.3,5.3,0,0,1,1.663,4.139,5.454,5.454,0,0,1-.921,3.127,39.084,39.084,0,0,1-3.378,4.023l-2.264,2.711.026.064H571.5Z" transform="translate(-192.575 -33.793)" fill="#12263f"/>
        <path id="Trazado_896495" data-name="Trazado 896495" d="M586.989,117.162a3.31,3.31,0,0,0,2-1.605,6.046,6.046,0,0,0,.6-2.833V110.1a4.8,4.8,0,0,1,.576-2.392,3.756,3.756,0,0,1,1.778-1.573,3.622,3.622,0,0,1-1.778-1.548,4.853,4.853,0,0,1-.576-2.418V99.535a6.124,6.124,0,0,0-.6-2.846,3.253,3.253,0,0,0-2-1.605l.525-1.5a6.128,6.128,0,0,1,3.537,2.232,6.381,6.381,0,0,1,1.055,3.716v2.635a3.433,3.433,0,0,0,.646,2.233,2.474,2.474,0,0,0,2.028.787v1.88a2.452,2.452,0,0,0-2.028.8,3.464,3.464,0,0,0-.646,2.232v2.622a6.39,6.39,0,0,1-1.055,3.71,6.118,6.118,0,0,1-3.537,2.239Z" transform="translate(-202.551 -32.294)" fill="#824ffb"/>
        <path id="Trazado_896496" data-name="Trazado 896496" d="M546.781,95.8a3.31,3.31,0,0,0-2,1.605,6.045,6.045,0,0,0-.6,2.833v2.622a4.8,4.8,0,0,1-.576,2.392,3.756,3.756,0,0,1-1.778,1.573,3.621,3.621,0,0,1,1.778,1.548,4.853,4.853,0,0,1,.576,2.418v2.635a6.124,6.124,0,0,0,.6,2.846,3.253,3.253,0,0,0,2,1.605l-.525,1.5a6.128,6.128,0,0,1-3.537-2.232,6.381,6.381,0,0,1-1.055-3.716v-2.635a3.433,3.433,0,0,0-.646-2.233,2.474,2.474,0,0,0-2.028-.787v-1.88a2.452,2.452,0,0,0,2.028-.8,3.464,3.464,0,0,0,.646-2.232v-2.622a6.39,6.39,0,0,1,1.055-3.71,6.118,6.118,0,0,1,3.537-2.239Z" transform="translate(-185.988 -32.536)" fill="#824ffb"/>
        <path id="Trazado_896497" data-name="Trazado 896497" d="M754.665,109.689h1.88v3.351h-1.88v3.927h-4.324V113.04h-7.406l-.256-2.66,7.662-12v-.038h4.324Zm-8.276,0h3.953v-5.795l-.077-.012-.474.959Z" transform="translate(-256.274 -33.935)" fill="#12263f"/>
        <path id="Trazado_896498" data-name="Trazado 896498" d="M771.9,117.162a3.31,3.31,0,0,0,2-1.605,6.044,6.044,0,0,0,.6-2.833V110.1a4.8,4.8,0,0,1,.576-2.392,3.756,3.756,0,0,1,1.778-1.573,3.622,3.622,0,0,1-1.778-1.548,4.853,4.853,0,0,1-.576-2.418V99.535a6.123,6.123,0,0,0-.6-2.846,3.253,3.253,0,0,0-2-1.605l.525-1.5a6.128,6.128,0,0,1,3.537,2.232,6.381,6.381,0,0,1,1.055,3.716v2.635a3.433,3.433,0,0,0,.646,2.233,2.474,2.474,0,0,0,2.028.787v1.88a2.452,2.452,0,0,0-2.028.8,3.465,3.465,0,0,0-.646,2.232v2.622a6.39,6.39,0,0,1-1.055,3.71,6.119,6.119,0,0,1-3.537,2.239Z" transform="translate(-266.357 -32.294)" fill="#824ffb"/>
        <path id="Trazado_896499" data-name="Trazado 896499" d="M731.689,95.8a3.31,3.31,0,0,0-2,1.605,6.045,6.045,0,0,0-.6,2.833v2.622a4.8,4.8,0,0,1-.576,2.392,3.756,3.756,0,0,1-1.778,1.573,3.622,3.622,0,0,1,1.778,1.548,4.853,4.853,0,0,1,.576,2.418v2.635a6.124,6.124,0,0,0,.6,2.846,3.252,3.252,0,0,0,2,1.605l-.525,1.5a6.128,6.128,0,0,1-3.537-2.232,6.381,6.381,0,0,1-1.055-3.716v-2.635a3.433,3.433,0,0,0-.646-2.233,2.474,2.474,0,0,0-2.028-.787v-1.88a2.452,2.452,0,0,0,2.028-.8,3.464,3.464,0,0,0,.646-2.232v-2.622a6.39,6.39,0,0,1,1.055-3.71,6.118,6.118,0,0,1,3.537-2.239Z" transform="translate(-249.794 -32.536)" fill="#824ffb"/>
        <path id="Trazado_896500" data-name="Trazado 896500" d="M568.968,237.706h-4.324V222.778H560.9v-3.3l8.071-.665Z" transform="translate(-193.547 -75.505)" fill="#12263f"/>
        <path id="Trazado_896501" data-name="Trazado 896501" d="M586.989,238.043a3.31,3.31,0,0,0,2-1.605,6.046,6.046,0,0,0,.6-2.833v-2.622a4.8,4.8,0,0,1,.576-2.392,3.756,3.756,0,0,1,1.778-1.573,3.622,3.622,0,0,1-1.778-1.548,4.853,4.853,0,0,1-.576-2.418v-2.635a6.124,6.124,0,0,0-.6-2.846,3.253,3.253,0,0,0-2-1.605l.525-1.5a6.128,6.128,0,0,1,3.537,2.232,6.381,6.381,0,0,1,1.055,3.716v2.635a3.433,3.433,0,0,0,.646,2.233,2.474,2.474,0,0,0,2.028.787v1.88a2.452,2.452,0,0,0-2.028.8,3.464,3.464,0,0,0-.646,2.232V233.6a6.39,6.39,0,0,1-1.055,3.71,6.118,6.118,0,0,1-3.537,2.239Z" transform="translate(-202.551 -74.006)" fill="#824ffb"/>
        <path id="Trazado_896502" data-name="Trazado 896502" d="M546.781,216.68a3.31,3.31,0,0,0-2,1.605,6.045,6.045,0,0,0-.6,2.833v2.622a4.8,4.8,0,0,1-.576,2.392,3.756,3.756,0,0,1-1.778,1.573,3.621,3.621,0,0,1,1.778,1.548,4.853,4.853,0,0,1,.576,2.418v2.635a6.123,6.123,0,0,0,.6,2.846,3.253,3.253,0,0,0,2,1.605l-.525,1.5a6.128,6.128,0,0,1-3.537-2.232,6.381,6.381,0,0,1-1.055-3.716v-2.635a3.433,3.433,0,0,0-.646-2.233,2.474,2.474,0,0,0-2.028-.787v-1.88a2.452,2.452,0,0,0,2.028-.8,3.464,3.464,0,0,0,.646-2.232v-2.622a6.39,6.39,0,0,1,1.055-3.71,6.118,6.118,0,0,1,3.537-2.239Z" transform="translate(-185.988 -74.248)" fill="#824ffb"/>
        <path id="Trazado_896503" data-name="Trazado 896503" d="M749.653,226.59a2.421,2.421,0,0,0,1.791-.627,2.351,2.351,0,0,0,.627-1.74,1.961,1.961,0,0,0-.639-1.478,2.407,2.407,0,0,0-1.727-.608,2.079,2.079,0,0,0-1.388.48,1.567,1.567,0,0,0-.569,1.259h-4.2l-.026-.077a4.124,4.124,0,0,1,1.746-3.607,7.124,7.124,0,0,1,4.432-1.381,7.814,7.814,0,0,1,4.854,1.388,4.653,4.653,0,0,1,1.823,3.934,3.889,3.889,0,0,1-.767,2.328,5.244,5.244,0,0,1-2.085,1.675,4.883,4.883,0,0,1,2.328,1.657,4.4,4.4,0,0,1,.819,2.692,4.743,4.743,0,0,1-1.964,4.023,8.148,8.148,0,0,1-5.008,1.465,7.724,7.724,0,0,1-4.579-1.375,4.43,4.43,0,0,1-1.88-3.985l.026-.077h4.209a2,2,0,0,0,.627,1.51,2.214,2.214,0,0,0,1.6.6,2.821,2.821,0,0,0,1.912-.646,2.035,2.035,0,0,0,.749-1.605,2.494,2.494,0,0,0-.71-1.976,2.945,2.945,0,0,0-2-.621h-2.047v-3.21Z" transform="translate(-256.469 -75.505)" fill="#12263f"/>
        <path id="Trazado_896504" data-name="Trazado 896504" d="M771.9,238.043a3.31,3.31,0,0,0,2-1.605,6.044,6.044,0,0,0,.6-2.833v-2.622a4.8,4.8,0,0,1,.576-2.392,3.756,3.756,0,0,1,1.778-1.573,3.622,3.622,0,0,1-1.778-1.548,4.853,4.853,0,0,1-.576-2.418v-2.635a6.123,6.123,0,0,0-.6-2.846,3.253,3.253,0,0,0-2-1.605l.525-1.5a6.128,6.128,0,0,1,3.537,2.232,6.381,6.381,0,0,1,1.055,3.716v2.635a3.433,3.433,0,0,0,.646,2.233,2.474,2.474,0,0,0,2.028.787v1.88a2.452,2.452,0,0,0-2.028.8,3.465,3.465,0,0,0-.646,2.232V233.6a6.39,6.39,0,0,1-1.055,3.71,6.119,6.119,0,0,1-3.537,2.239Z" transform="translate(-266.357 -74.006)" fill="#824ffb"/>
        <path id="Trazado_896505" data-name="Trazado 896505" d="M731.689,216.68a3.31,3.31,0,0,0-2,1.605,6.045,6.045,0,0,0-.6,2.833v2.622a4.8,4.8,0,0,1-.576,2.392,3.756,3.756,0,0,1-1.778,1.573,3.622,3.622,0,0,1,1.778,1.548,4.853,4.853,0,0,1,.576,2.418v2.635a6.123,6.123,0,0,0,.6,2.846,3.252,3.252,0,0,0,2,1.605l-.525,1.5a6.128,6.128,0,0,1-3.537-2.232,6.381,6.381,0,0,1-1.055-3.716v-2.635a3.433,3.433,0,0,0-.646-2.233,2.474,2.474,0,0,0-2.028-.787v-1.88a2.452,2.452,0,0,0,2.028-.8,3.464,3.464,0,0,0,.646-2.232v-2.622a6.39,6.39,0,0,1,1.055-3.71,6.118,6.118,0,0,1,3.537-2.239Z" transform="translate(-249.794 -74.248)" fill="#824ffb"/>
        <path id="Trazado_896506" data-name="Trazado 896506" d="M572.193,155.968l-8.773,6.6a1.69,1.69,0,0,1-1.813.139l-9.453-5.056a1.691,1.691,0,0,0-2.245,2.366l11.142,18.419a1.692,1.692,0,0,0,2.942-.084L574.7,158.11a1.691,1.691,0,0,0-2.51-2.142" transform="translate(-189.668 -53.698)" fill="#f96e97"/>
        <path id="Trazado_896507" data-name="Trazado 896507" d="M757.1,155.968l-8.772,6.6a1.691,1.691,0,0,1-1.814.139l-9.452-5.056a1.691,1.691,0,0,0-2.245,2.366l11.142,18.419a1.692,1.692,0,0,0,2.942-.084l10.711-20.238a1.691,1.691,0,0,0-2.511-2.142" transform="translate(-253.474 -53.698)" fill="#f96e97"/>
      </g>
    </g>
    <text id="El_siguiente_diagrama_describe_la_estructura_del_argumento:" data-name="El siguiente diagramadescribe la estructuradel argumento:" transform="translate(265.051 7725)" fill="#12263f" font-size="23" font-family="SegoeUI, Segoe UI"><tspan x="0" y="0">El siguiente diagrama</tspan><tspan x="0" y="25">describe la estructura</tspan><tspan x="0" y="50">del argumento:</tspan></text>
  </g>
</svg>
