<svg xmlns="http://www.w3.org/2000/svg" xmlns:xlink="http://www.w3.org/1999/xlink" width="156.27" height="156.246" viewBox="0 0 156.27 156.246">
  <defs>
    <clipPath id="clip-path">
      <rect id="Rectángulo_402097" data-name="Rectángulo 402097" width="156.27" height="156.246" fill="#824ffb"/>
    </clipPath>
  </defs>
  <g id="Grupo_1103303" data-name="Grupo 1103303" transform="translate(-620.993 -443)">
    <g id="Grupo_1102121" data-name="Grupo 1102121" transform="translate(620.993 443)">
      <g id="Grupo_1102120" data-name="Grupo 1102120" clip-path="url(#clip-path)">
        <path id="Trazado_893941" data-name="Trazado 893941" d="M178.859,70.367c-2.519,5.44-1.948,10.126,1.745,14.667,2.876,3.537,5.223,7.506,7.776,11.3,3.724,5.537,1.547,10.926-4.988,12.423-.979.224-1.948.5-3.047.778a35.044,35.044,0,0,1-.062,5.768,69.65,69.65,0,0,1-1.951,7.21,26.426,26.426,0,0,0-1.271,4.536c-.219,2.319-.014,4.675-.07,7.013-.157,6.572-4.115,10.664-10.67,10.827-5.39.134-10.785,0-16.178.055-3.726.037-4.687,1.05-4.743,4.73-.02,1.321.3,2.787-.173,3.922a4.238,4.238,0,0,1-2.659,2.423,3.847,3.847,0,0,1-3.066-1.784c-1.773-3.54-.159-10.976,3.063-13.171a13.95,13.95,0,0,1,6.7-2.319c5.474-.33,10.983-.075,16.477-.121,3.462-.029,4.778-1.365,4.833-4.8.042-2.644-.2-5.312.081-7.926a13.081,13.081,0,0,1,1.711-5.686,10.683,10.683,0,0,0,1.65-7.519c-.756-6.835.378-8.387,7.058-9.931.944-.219,1.865-.542,3.2-.935-.792-1.284-1.331-2.226-1.936-3.125-2.893-4.3-5.757-8.626-8.721-12.88A14.411,14.411,0,0,1,171.362,73.4c1.57-6.26,1.415-6.279-4.285-9.42-2.492-1.373-5-2.73-7.393-4.269a32.478,32.478,0,1,1,49.9-31.543c1.664,13.749-3.616,24.442-15.122,31.976-1.993,1.306-2.838,2.569-2.606,4.849a47.158,47.158,0,0,1,.031,4.879c-.013,5.484-1.781,6.5-6.721,3.858l-6.3-3.363m6.211-3.674a5.513,5.513,0,0,0,.542-1.067,5.983,5.983,0,0,0,.05-1.52c-.726-4.467.966-7,5.155-9.265C201,49.346,205.653,37.333,202.833,26.052a26.19,26.19,0,0,0-50.059-2.211c-3.828,10.935-.227,23.42,9.392,29.773,7.263,4.8,15.127,8.683,22.9,13.079" transform="translate(-53.834 0)" fill="#824ffb"/>
        <path id="Trazado_893942" data-name="Trazado 893942" d="M76.567,155.3c-.543,12.289-5.362,21.792-15.537,27.926-8.515,5.134-17.4,9.654-26.181,14.346-3.212,1.717-5.617.31-5.245-3.351.618-6.088-1.1-10.03-6.454-13.964-11.5-8.459-14.7-24.48-8.9-37.707,5.812-13.264,19.33-20.767,34.24-19,13.652,1.614,25.065,12.621,27.43,26.5.323,1.895.474,3.82.646,5.255m-41.2,34.246,1.244.346c8.1-4.764,16.794-8.766,24.177-14.462,12.154-9.376,12.481-27.505,1.621-38.3a26.206,26.206,0,0,0-38.277,1.479c-9.973,11.671-8.122,29.573,4.576,38.083,4.839,3.242,8.929,5.884,6.658,12.853" transform="translate(-4.432 -47.828)" fill="#824ffb"/>
        <path id="Trazado_893943" data-name="Trazado 893943" d="M79.03,22.538c4.088.519,8.42,1.014,12.732,1.64,2.117.307,3.835,1.383,3.335,3.83-.518,2.535-2.381,2.752-4.725,2.366-15.646-2.58-30.8-1.351-44.069,8.1C33.169,47.826,27.395,61.142,27.842,77.193c.043,1.523.221,3.043.27,4.566.061,1.909-.817,3.153-2.789,3.3-1.936.143-3.309-.9-3.3-2.787.042-5.954-.507-12.069.641-17.83,4.312-21.646,20.587-36.85,42.438-40.32,4.5-.716,9.07-1.042,13.923-1.583" transform="translate(-8.509 -8.743)" fill="#824ffb"/>
        <path id="Trazado_893944" data-name="Trazado 893944" d="M14.567,18.784c-3.137-3.044-6.534-5.87-9.324-9.2-1.99-2.38-7.76-4.429-4-8.21,3.987-4.005,5.98,1.994,8.426,4,3.339,2.742,6.148,6.13,9.184,9.241l.769-.277c0-2.273.034-4.548-.01-6.821-.043-2.218.7-3.967,3.122-4.029,2.452-.062,3.258,1.705,3.268,3.9.023,4.882.018,9.766.034,14.649.009,2.6-1.237,4.01-3.876,4.016q-7.479.017-14.958-.035C5.131,26,3.477,25.151,3.465,22.89,3.453,20.484,5.1,19.6,7.36,19.633c2.3.031,4.6.007,6.9.007q.154-.428.31-.856" transform="translate(0 -0.008)" fill="#824ffb"/>
        <path id="Trazado_893945" data-name="Trazado 893945" d="M224.348,220.005q5.619,5.521,11.238,11.044c.725.713,1.454,1.425,2.143,2.172,1.377,1.491,1.6,3.11.1,4.589s-3.149,1.246-4.588-.173c-3.7-3.642-7.349-7.327-11.029-10.985-.761-.757-1.569-1.466-2.9-2.7,0,2.95-.029,5.24.008,7.528.036,2.246-.8,3.94-3.21,3.94-2.451,0-3.182-1.814-3.188-3.989q-.018-7.325-.023-14.649c0-2.623,1.339-3.934,3.962-3.93q7.326.011,14.652.03c2.178.009,3.972.759,3.947,3.222-.025,2.428-1.746,3.208-3.974,3.172s-4.467-.008-6.7-.008l-.443.738" transform="translate(-82.592 -82.572)" fill="#824ffb"/>
        <path id="Trazado_893946" data-name="Trazado 893946" d="M48.16,173.276a3.335,3.335,0,1,1-3.336-3.336,3.336,3.336,0,0,1,3.336,3.336" transform="translate(-16.095 -65.925)" fill="#824ffb"/>
        <path id="Trazado_893947" data-name="Trazado 893947" d="M66.325,173.276a3.335,3.335,0,1,1-3.336-3.336,3.336,3.336,0,0,1,3.336,3.336" transform="translate(-23.142 -65.925)" fill="#824ffb"/>
        <path id="Trazado_893948" data-name="Trazado 893948" d="M84.49,173.276a3.335,3.335,0,1,1-3.336-3.336,3.336,3.336,0,0,1,3.336,3.336" transform="translate(-30.188 -65.925)" fill="#824ffb"/>
        <path id="Trazado_893949" data-name="Trazado 893949" d="M185.033,50.579a3.335,3.335,0,1,1-3.336-3.336,3.336,3.336,0,0,1,3.336,3.336" transform="translate(-69.192 -18.327)" fill="#824ffb"/>
        <path id="Trazado_893950" data-name="Trazado 893950" d="M203.2,50.579a3.335,3.335,0,1,1-3.336-3.336,3.336,3.336,0,0,1,3.336,3.336" transform="translate(-76.239 -18.327)" fill="#824ffb"/>
        <path id="Trazado_893951" data-name="Trazado 893951" d="M221.363,50.579a3.335,3.335,0,1,1-3.336-3.336,3.336,3.336,0,0,1,3.336,3.336" transform="translate(-83.286 -18.327)" fill="#824ffb"/>
      </g>
    </g>
  </g>
</svg>
