<svg xmlns="http://www.w3.org/2000/svg" xmlns:xlink="http://www.w3.org/1999/xlink" width="152.663" height="152.663" viewBox="0 0 152.663 152.663">
  <defs>
    <clipPath id="clip-path">
      <rect id="Rectángulo_401763" data-name="Rectángulo 401763" width="152.663" height="152.663" transform="translate(706.73 2847)" fill="#824ffb" stroke="#707070" stroke-width="1"/>
    </clipPath>
  </defs>
  <g id="Grupo_1103310" data-name="Grupo 1103310" transform="translate(-725.668 -3142.759)">
    <g id="Enmascarar_grupo_1098722" data-name="Enmascarar grupo 1098722" transform="translate(18.938 295.759)" clip-path="url(#clip-path)">
      <g id="charla2" transform="translate(706.73 2855.051)">
        <g id="Grupo_1101672" data-name="Grupo 1101672">
          <g id="Grupo_1101671" data-name="Grupo 1101671">
            <path id="Trazado_891121" data-name="Trazado 891121" d="M143.718,56.311H124.933V13.375a8.955,8.955,0,0,0-8.945-8.945H36.675a8.955,8.955,0,0,0-8.945,8.945V40.21H8.945A8.955,8.955,0,0,0,0,49.155v54.863a8.955,8.955,0,0,0,8.945,8.945H35.44l11.053,11.053a2.982,2.982,0,0,0,4.217,0l4.75-4.75v.852a8.955,8.955,0,0,0,8.945,8.945H90.9l11.053,11.053a2.982,2.982,0,0,0,4.217,0l11.053-11.053h26.495a8.955,8.955,0,0,0,8.945-8.945V65.256A8.955,8.955,0,0,0,143.718,56.311ZM33.693,13.375a2.985,2.985,0,0,1,2.982-2.982h79.313a2.985,2.985,0,0,1,2.982,2.982V68.238a2.985,2.985,0,0,1-2.982,2.982H88.258a2.982,2.982,0,0,0-2.108.873l-9.818,9.818-9.818-9.818A2.982,2.982,0,0,0,64.4,71.22H36.675a2.985,2.985,0,0,1-2.982-2.982Zm24.727,94.5L48.6,117.692l-9.818-9.818A2.982,2.982,0,0,0,36.675,107H8.945a2.985,2.985,0,0,1-2.982-2.982V49.155a2.985,2.985,0,0,1,2.982-2.982H27.73V68.238a8.955,8.955,0,0,0,8.945,8.945H63.17L74.223,88.237a2.982,2.982,0,0,0,4.217,0L89.493,77.183H91.24v26.835A2.985,2.985,0,0,1,88.258,107H60.529A2.982,2.982,0,0,0,58.42,107.874ZM146.7,120.12a2.985,2.985,0,0,1-2.982,2.982h-27.73a2.982,2.982,0,0,0-2.108.873l-9.818,9.818-9.818-9.818a2.982,2.982,0,0,0-2.108-.873H64.4a2.985,2.985,0,0,1-2.982-2.982V113.3l.341-.341H88.258a8.955,8.955,0,0,0,8.945-8.945V77.183h18.785a8.955,8.955,0,0,0,8.945-8.945V62.275h18.785a2.985,2.985,0,0,1,2.982,2.982Z" transform="translate(0 -4.43)" fill="#824ffb"/>
          </g>
        </g>
        <g id="Grupo_1101674" data-name="Grupo 1101674" transform="translate(45.664 16.698)">
          <g id="Grupo_1101673" data-name="Grupo 1101673">
            <path id="Trazado_891122" data-name="Trazado 891122" d="M83.523,13.617H28.108a2.982,2.982,0,0,0,0,5.963H83.523a2.982,2.982,0,1,0,0-5.963Z" transform="translate(-25.126 -13.617)" fill="#824ffb"/>
          </g>
        </g>
        <g id="Grupo_1101676" data-name="Grupo 1101676" transform="translate(101.08 33.395)">
          <g id="Grupo_1101675" data-name="Grupo 1101675">
            <path id="Trazado_891123" data-name="Trazado 891123" d="M60.707,23.678a2.98,2.98,0,1,0,.874,2.108A3,3,0,0,0,60.707,23.678Z" transform="translate(-55.617 -22.805)" fill="#824ffb"/>
          </g>
        </g>
        <g id="Grupo_1101678" data-name="Grupo 1101678" transform="translate(45.664 33.395)">
          <g id="Grupo_1101677" data-name="Grupo 1101677">
            <path id="Trazado_891124" data-name="Trazado 891124" d="M68.717,22.8H28.108a2.982,2.982,0,1,0,0,5.963h40.61a2.982,2.982,0,1,0,0-5.963Z" transform="translate(-25.126 -22.805)" fill="#824ffb"/>
          </g>
        </g>
        <g id="Grupo_1101680" data-name="Grupo 1101680" transform="translate(60.252 50.093)">
          <g id="Grupo_1101679" data-name="Grupo 1101679">
            <path id="Trazado_891125" data-name="Trazado 891125" d="M76.962,31.992H36.134a2.982,2.982,0,1,0,0,5.963H76.962a2.982,2.982,0,1,0,0-5.963Z" transform="translate(-33.152 -31.992)" fill="#824ffb"/>
          </g>
        </g>
        <g id="Grupo_1101682" data-name="Grupo 1101682" transform="translate(45.62 50.093)">
          <g id="Grupo_1101681" data-name="Grupo 1101681">
            <path id="Trazado_891126" data-name="Trazado 891126" d="M28.333,31.992h-.25a2.982,2.982,0,1,0,0,5.963h.25a2.982,2.982,0,1,0,0-5.963Z" transform="translate(-25.102 -31.992)" fill="#824ffb"/>
          </g>
        </g>
      </g>
    </g>
  </g>
</svg>
