<svg xmlns="http://www.w3.org/2000/svg" xmlns:xlink="http://www.w3.org/1999/xlink" width="295" height="254.155" viewBox="0 0 295 254.155">
  <defs>
    <clipPath id="clip-path">
      <rect id="Rectángulo_402630" data-name="Rectángulo 402630" width="219.771" height="245.751" fill="none"/>
    </clipPath>
    <clipPath id="clip-path-3">
      <path id="Trazado_894680" data-name="Trazado 894680" d="M161.181,326.05l-.007.017c-2.122,5.9-6.918,42.449-6.761,47.323s8.018,18.551,8.018,18.551h5.845c-.01.033-.015.051-.015.051h53.306s-.371-3.856-.779-10.427c.645.575,5.361,3.271,9.508,1.753,6.377-2.334,13.244-42.1,15.2-54.248a83.8,83.8,0,0,1-14.023-3.683l-5.74,25.478s-3.94-17.287-8.149-24.215c-5.235-8.616-14.855-12.984-19.514-15.374-.019,6.55-.646,14.051-1.641,17.677a167.292,167.292,0,0,1-21.094-21.1c-3.549,2.96-11.629,6.923-14.155,18.2" transform="translate(-154.409 -307.852)" fill="none"/>
    </clipPath>
    <clipPath id="clip-path-4">
      <rect id="Rectángulo_402624" data-name="Rectángulo 402624" width="107.741" height="92.428" fill="none"/>
    </clipPath>
    <clipPath id="clip-path-6">
      <rect id="Rectángulo_402625" data-name="Rectángulo 402625" width="8.05" height="12.043" fill="none"/>
    </clipPath>
    <clipPath id="clip-path-7">
      <rect id="Rectángulo_402626" data-name="Rectángulo 402626" width="6.547" height="6.547" fill="none"/>
    </clipPath>
    <clipPath id="clip-path-9">
      <rect id="Rectángulo_402628" data-name="Rectángulo 402628" width="10.336" height="10.783" fill="none"/>
    </clipPath>
  </defs>
  <g id="Grupo_1103312" data-name="Grupo 1103312" transform="translate(-265 -5407.903)">
    <rect id="Rectángulo_401369" data-name="Rectángulo 401369" width="295" height="247" transform="translate(265 5407.904)" fill="#824ffb"/>
    <rect id="Rectángulo_401475" data-name="Rectángulo 401475" width="295" height="247" transform="translate(265 5407.903)" fill="#824ffb"/>
    <g id="Grupo_1103214" data-name="Grupo 1103214" transform="translate(299.061 5416.307)">
      <g id="Grupo_1103213" data-name="Grupo 1103213" clip-path="url(#clip-path)">
        <g id="Grupo_1103193" data-name="Grupo 1103193">
          <g id="Grupo_1103192" data-name="Grupo 1103192" clip-path="url(#clip-path)">
            <path id="Trazado_894662" data-name="Trazado 894662" d="M142.235,203.9c.409,13.315.122,21.278-7,32.539-2.941,4.654-6.553,9.189-7.337,14.639-.939,6.528,2.44,12.941,6.657,18.012-3.74,5.116-7.657,10.807-7.265,17.132a16.134,16.134,0,0,0,5.776,10.987,23.694,23.694,0,0,0,11.52,5.091c9.312,1.572,17.787,1.442,26.863,4.053s18.764,5.029,27.836,2.407a32.524,32.524,0,0,0,11.817-6.583c3.593-3.039,6.738-6.793,8.214-11.261a18.428,18.428,0,0,0-11.571-23.228c5.031-2.917,6.482-9.729,5.359-15.435s-4.2-10.809-6.279-16.24c-4.025-10.513-4.686-25.616-4.852-36.871" transform="translate(-66.421 -103.933)" fill="#3f2950"/>
            <path id="Trazado_894663" data-name="Trazado 894663" d="M330.956,280.115s1.98-17.45,4.884-17.186-.114,17.163-.114,17.163" transform="translate(-172.724 -137.22)" fill="#fdb5c4"/>
            <path id="Trazado_894664" data-name="Trazado 894664" d="M342.752,316.971l-6.272,14.166-5.511-.911,1.2-10.693Z" transform="translate(-172.731 -165.426)" fill="#fdb5c4"/>
            <path id="Trazado_894665" data-name="Trazado 894665" d="M326.385,297.2s10.819-9,12.447-5.812A2.416,2.416,0,0,1,338.9,294s1.907.144,2.265,1.707a3.166,3.166,0,0,1-.539,2.622A2.269,2.269,0,0,1,342.3,299.8a2.534,2.534,0,0,1-.7,2.824c-.655.516-8.691,3.68-8.691,3.68l-1.528-.664Z" transform="translate(-170.339 -151.718)" fill="#fdb5c4"/>
            <path id="Trazado_894666" data-name="Trazado 894666" d="M342.741,297.292a28.412,28.412,0,0,1-9.1,4.874,45.383,45.383,0,0,1,9.1-4.874" transform="translate(-174.127 -155.155)" fill="#3f2950"/>
            <path id="Trazado_894667" data-name="Trazado 894667" d="M345.146,306.264a33.651,33.651,0,0,1-10.254,5.316,62.4,62.4,0,0,1,10.254-5.316" transform="translate(-174.778 -159.838)" fill="#3f2950"/>
            <path id="Trazado_894668" data-name="Trazado 894668" d="M348.762,315.633a20.771,20.771,0,0,1-8.647,3.833,50.713,50.713,0,0,1,8.647-3.833" transform="translate(-177.504 -164.727)" fill="#3f2950"/>
            <path id="Trazado_894669" data-name="Trazado 894669" d="M320.3,318.571s-4.759-8.071-3.722-12.458,7.568-12.154,8.773-11.977.978,4.138.076,5.845-1.472,1.818-.853,2.89a11.744,11.744,0,0,1,2.136,8.6,16.887,16.887,0,0,1-3.57,7.514Z" transform="translate(-165.143 -153.506)" fill="#fdb5c4"/>
            <path id="Trazado_894670" data-name="Trazado 894670" d="M326.276,315.4a8.461,8.461,0,0,0,2.984-8.995,21.47,21.47,0,0,0-1.7-3.666l-.248-.476a.723.723,0,0,1-.053-.5,1.209,1.209,0,0,1,.165-.33,13.552,13.552,0,0,0,1.7-4.667,4.706,4.706,0,0,0-.012-1.9c-.137-.525-.569-1-1.114-.706a10.835,10.835,0,0,0-2.872,2.751c-.874,1.053-1.675,2.169-2.47,3.291.9-1.533,4.085-7.228,6.074-6.656,2.5,1.124.374,6.6-.685,8.294a1.087,1.087,0,0,0-.076.123c.007-.022-.009-.057.012,0l.226.44c.974,1.841,2.019,3.782,1.959,5.946a8.28,8.28,0,0,1-3.894,7.054" transform="translate(-168.395 -153.177)" fill="#3f2950"/>
            <path id="Trazado_894671" data-name="Trazado 894671" d="M316.428,336.833l13.743,3.86s-.194,1.3-.549,3.5a83.756,83.756,0,0,1-14.022-3.683Z" transform="translate(-164.709 -175.791)" fill="#9492ff"/>
            <path id="Trazado_894672" data-name="Trazado 894672" d="M161.174,326.066l.007-.017c2.526-11.276,10.606-15.238,14.155-18.2a167.3,167.3,0,0,0,21.094,21.1c.995-3.626,1.622-11.127,1.642-17.677,4.659,2.39,14.279,6.759,19.513,15.374,4.21,6.928,8.149,24.215,8.149,24.215l5.741-25.478a83.713,83.713,0,0,0,14.022,3.683c-1.958,12.15-8.824,51.914-15.2,54.248-4.148,1.518-8.863-1.178-9.508-1.753.408,6.572.779,10.428.779,10.428H168.262s.006-.018.015-.051h-5.844s-7.861-13.678-8.018-18.552,4.638-41.427,6.76-47.323" transform="translate(-80.586 -160.666)" fill="#3249f0"/>
          </g>
        </g>
        <g id="Grupo_1103198" data-name="Grupo 1103198" transform="translate(73.824 147.186)">
          <g id="Grupo_1103197" data-name="Grupo 1103197" clip-path="url(#clip-path-3)">
            <g id="Grupo_1103196" data-name="Grupo 1103196" transform="translate(-11.158 5.203)" opacity="0.5">
              <g id="Grupo_1103195" data-name="Grupo 1103195">
                <g id="Grupo_1103194" data-name="Grupo 1103194" clip-path="url(#clip-path-4)">
                  <path id="Trazado_894673" data-name="Trazado 894673" d="M155.588,318.618a17.038,17.038,0,0,1,4.118,14.215,16.685,16.685,0,0,1-2.881,6.882,60.408,60.408,0,0,1-5.062,5.821,27.971,27.971,0,0,0-4.587,6.147,15.874,15.874,0,0,0-1.514,8.31c.2,3.174.931,6.322.767,9.515A11.1,11.1,0,0,1,144,375.995c-3.173,3.913-8.694,5.926-13.541,4.215-1.182-.417-1.691,1.461-.517,1.875,4.768,1.683,10.165.165,13.883-3.109A13.5,13.5,0,0,0,147.787,373c.969-3.045.584-6.3.2-9.408s-.8-6.289.2-9.314a19.134,19.134,0,0,1,4.144-6.468c1.8-2.031,3.747-3.937,5.413-6.087a18.743,18.743,0,0,0-.778-24.478c-.852-.92-2.224.457-1.375,1.375" transform="translate(-130.136 -317.798)" fill="#9492ff"/>
                  <path id="Trazado_894674" data-name="Trazado 894674" d="M218.411,320.556c-2.278,8.193-5.008,17.585-13.108,21.861a14.078,14.078,0,0,1-5.907,1.6c-2.454.121-4.908-.194-7.362-.059a15.7,15.7,0,0,0-10.841,5.312c-5.639,6.223-7.447,16.445-2.178,23.456,5.252,6.989,14.27,8.734,22.141,11.136,4.136,1.263,8.4,2.845,11.625,5.831,2.765,2.56,4.957,6.148,4.926,10.017a9.529,9.529,0,0,1-.412,2.658.973.973,0,0,0,1.874.517,13.378,13.378,0,0,0-2.14-11.21,22.032,22.032,0,0,0-9.841-7.707c-7.769-3.337-16.994-3.908-23.734-9.42a14.7,14.7,0,0,1-5.589-10.317,18.54,18.54,0,0,1,3.33-11.865,14.487,14.487,0,0,1,9.552-6.346,50.631,50.631,0,0,1,7.312-.033,17.2,17.2,0,0,0,6.513-1.111,21.067,21.067,0,0,0,9.31-7.8c2.632-3.825,4.179-8.3,5.473-12.723.32-1.092.625-2.189.93-3.285a.973.973,0,0,0-1.875-.517" transform="translate(-154.456 -319.327)" fill="#9492ff"/>
                  <path id="Trazado_894675" data-name="Trazado 894675" d="M151.464,461.484a17.6,17.6,0,0,1,13.055,3.786c3.626,2.989,5.727,7.29,7.052,11.715a71.354,71.354,0,0,1,1.779,7.828.98.98,0,0,0,1.2.678.993.993,0,0,0,.679-1.2c-.882-4.894-1.99-9.858-4.389-14.262a20.075,20.075,0,0,0-11.064-9.563,19.085,19.085,0,0,0-8.308-.931,1,1,0,0,0-.972.972.978.978,0,0,0,.972.972" transform="translate(-141.207 -392.16)" fill="#9492ff"/>
                  <path id="Trazado_894676" data-name="Trazado 894676" d="M227.633,478.829c-2.445-3.2-5.457-6.389-9.444-7.554a10.067,10.067,0,0,0-12.941,10.559c.114,1.235,2.059,1.247,1.944,0a8.226,8.226,0,0,1,4.96-8.419c3.373-1.384,6.916-.223,9.633,1.984a25.784,25.784,0,0,1,4.169,4.41,1,1,0,0,0,1.33.349.979.979,0,0,0,.349-1.33" transform="translate(-169.763 -398.133)" fill="#9492ff"/>
                  <path id="Trazado_894677" data-name="Trazado 894677" d="M259.113,333.486c-2.481,7.662-9.346,12.646-15.749,16.925a83.58,83.58,0,0,0-10.033,7.271,16.32,16.32,0,0,0-5.556,9.368c-1.12,7.254,3.014,14.261,9.138,17.938a27.768,27.768,0,0,0,10.864,3.552c4.279.539,8.529-.084,12.815.064a20.315,20.315,0,0,1,16.942,10.316,18.41,18.41,0,0,1,1.055,2.218,1,1,0,0,0,1.2.679.979.979,0,0,0,.679-1.2,22.3,22.3,0,0,0-14.958-13.282c-4.177-1.085-8.442-.543-12.692-.477a30.931,30.931,0,0,1-11.175-1.759,19.463,19.463,0,0,1-8.7-6.1,15.932,15.932,0,0,1-3.413-9.372,13.105,13.105,0,0,1,3.86-9.284c2.765-2.926,6.247-5.118,9.577-7.335,6.529-4.347,13.539-9.028,16.981-16.373A22.551,22.551,0,0,0,260.987,334c.386-1.193-1.49-1.7-1.874-.517" transform="translate(-181.445 -326.081)" fill="#9492ff"/>
                  <path id="Trazado_894678" data-name="Trazado 894678" d="M275.733,368.242c-2.807,4.013-7.738,5.843-11.769,8.316a19.34,19.34,0,0,0-5.481,4.677,11.055,11.055,0,0,0-2.228,7.4,11.541,11.541,0,0,0,3.328,7.447,12.953,12.953,0,0,0,7.9,3.379c6.652.649,12.613-2.616,18.748-4.589a20.546,20.546,0,0,1,9.742-1.109,10.306,10.306,0,0,1,7.159,4.238c.676,1.048,2.359.074,1.679-.981-3.052-4.733-9.157-5.95-14.4-5.173-6.545.969-12.3,4.865-18.887,5.613a14.635,14.635,0,0,1-8.171-1.082,9.4,9.4,0,0,1-3.916-13.082,14.66,14.66,0,0,1,4.875-4.662c4.525-2.911,9.908-4.843,13.105-9.415.719-1.027-.966-2-1.679-.981" transform="translate(-196.391 -344.347)" fill="#9492ff"/>
                  <path id="Trazado_894679" data-name="Trazado 894679" d="M326.415,372.825a27.873,27.873,0,0,1-17.034-10.183,26.63,26.63,0,0,1-3.051-4.912c-.545-1.125-2.222-.141-1.679.981A29.686,29.686,0,0,0,320.1,373.04a27.617,27.617,0,0,0,5.8,1.659,1,1,0,0,0,1.2-.679.98.98,0,0,0-.679-1.2" transform="translate(-221.607 -338.826)" fill="#9492ff"/>
                </g>
              </g>
            </g>
          </g>
        </g>
        <g id="Grupo_1103212" data-name="Grupo 1103212">
          <g id="Grupo_1103211" data-name="Grupo 1103211" clip-path="url(#clip-path)">
            <path id="Trazado_894681" data-name="Trazado 894681" d="M198.18,305.372a10.916,10.916,0,0,0,1.671-1.6,6.287,6.287,0,0,0,.426-.667c4.882,6.72,10.343,13.187,17.525,17.292a83.934,83.934,0,0,0,.763-12.993,13.27,13.27,0,0,0,2.351,1.394c-.02,6.55-.647,14.051-1.642,17.677a167.26,167.26,0,0,1-21.094-21.1" transform="translate(-103.429 -158.187)" fill="#9492ff"/>
            <path id="Trazado_894682" data-name="Trazado 894682" d="M220.09,309.354a83.877,83.877,0,0,0,.762-12.992,4.927,4.927,0,0,1-1.264-1.586,15.613,15.613,0,0,1-.93-3.819,27.365,27.365,0,0,1-13.434-9.008c-.509,3.573-1.352,7.8-2.659,10.114,4.882,6.719,10.344,13.186,17.525,17.292" transform="translate(-105.718 -147.147)" fill="#fdb5c4"/>
            <path id="Trazado_894683" data-name="Trazado 894683" d="M221.561,284.234c-.408-2.806-.512-5.794-.512-5.794l-12.256-9.372s-.185,2.783-.666,6.158a27.363,27.363,0,0,0,13.434,9.008" transform="translate(-108.62 -140.425)" fill="#3f2950"/>
            <path id="Trazado_894684" data-name="Trazado 894684" d="M213.512,186.16a16.886,16.886,0,0,0,4.793-16.2,12.647,12.647,0,0,0-2.571-5.219,16.238,16.238,0,0,0-6.636-4.182,46.3,46.3,0,0,0-17.644-3.131,45.705,45.705,0,0,0-13.078,2.458c-5.869,1.949-11.881,4.476-15.758,9.377-3.931,4.971-5.091,11.934-3.681,18.212A30.426,30.426,0,0,0,168.962,203.5" transform="translate(-82.648 -82.156)" fill="#3f2950"/>
            <path id="Trazado_894685" data-name="Trazado 894685" d="M279.289,225.016a11.038,11.038,0,0,1-1.451,6.377A8.337,8.337,0,0,1,275,234.5a4.342,4.342,0,0,1-3.786.446,5.583,5.583,0,0,1-2.675-2.592,11.7,11.7,0,0,1-.531-9.227,7.79,7.79,0,0,1,3.858-4.743c3.636-1.541,7.045,2.711,7.425,6.634" transform="translate(-139.508 -113.803)" fill="#fdb5c4"/>
            <g id="Grupo_1103201" data-name="Grupo 1103201" transform="translate(130.22 107.189)" opacity="0.5" style="mix-blend-mode: multiply;isolation: isolate">
              <g id="Grupo_1103200" data-name="Grupo 1103200">
                <g id="Grupo_1103199" data-name="Grupo 1103199" clip-path="url(#clip-path-6)">
                  <path id="Trazado_894686" data-name="Trazado 894686" d="M272.584,235.615a5.092,5.092,0,0,0,2.3-1.642.922.922,0,0,0,.261-.819.91.91,0,0,0-.306-.384,8.368,8.368,0,0,0-2.469-1.455,16.772,16.772,0,0,1,.876-3.956,5.173,5.173,0,0,1,2.528-2.9,2.968,2.968,0,0,1,3.508.786s2.649,2.977-.135,7.8c-2.936,5.089-6.561,2.571-6.561,2.571" transform="translate(-272.367 -224.195)" fill="#fdb5c4"/>
                </g>
              </g>
            </g>
            <path id="Trazado_894687" data-name="Trazado 894687" d="M278.709,224.965a3.139,3.139,0,0,0-4.765.771c-1.122,1.543-1.378,3.494-1.674,5.369l-.305-.512a8.146,8.146,0,0,1,2.382,1.477c1.8,1.331-1.089,3.048-2.333,3.269a5.545,5.545,0,0,0,1.975-1.673,1.04,1.04,0,0,0,.28-.61.268.268,0,0,0-.1-.161,8.68,8.68,0,0,0-2.9-1.529c.257-2.119.524-4.471,1.981-6.177,1.267-1.715,4.248-2.238,5.453-.224" transform="translate(-141.576 -116.73)" fill="#3f2950"/>
            <path id="Trazado_894688" data-name="Trazado 894688" d="M222.926,188.722c2.669,13.427,3.457,34.766-11.235,38.6-18.171,4.737-34.717-15.5-37.386-28.93a24.787,24.787,0,1,1,48.622-9.666" transform="translate(-90.718 -88.077)" fill="#fdb5c4"/>
            <path id="Trazado_894689" data-name="Trazado 894689" d="M231.957,227.639a2.828,2.828,0,1,1-3.326-2.223,2.829,2.829,0,0,1,3.326,2.223" transform="translate(-118.133 -117.615)" fill="#3f2950"/>
            <path id="Trazado_894690" data-name="Trazado 894690" d="M215.345,221.047c.031-4.664,4.826-10.364,9.8-8.2l-.006.189c-.578.253-1.109.458-1.619.67a39.874,39.874,0,0,0-4.291,2.028,9.827,9.827,0,0,0-3.695,5.344l-.188-.028" transform="translate(-112.387 -110.836)" fill="#3f2950"/>
            <path id="Trazado_894691" data-name="Trazado 894691" d="M256.716,222.663a2.87,2.87,0,1,0,2.255-3.374,2.87,2.87,0,0,0-2.255,3.374" transform="translate(-133.95 -114.416)" fill="#3f2950"/>
            <path id="Trazado_894692" data-name="Trazado 894692" d="M263.4,212.927a10.627,10.627,0,0,0-4.876-3.656,24.6,24.6,0,0,0-4.317-.571c-.506-.023-1.028-.026-1.614-.039l-.073-.161c2.682-2.864,7.056-.93,9.255,1.557a10.2,10.2,0,0,1,1.777,2.782Z" transform="translate(-131.787 -108.071)" fill="#3f2950"/>
            <g id="Grupo_1103204" data-name="Grupo 1103204" transform="translate(126.167 111.323)" opacity="0.5" style="mix-blend-mode: multiply;isolation: isolate">
              <g id="Grupo_1103203" data-name="Grupo 1103203">
                <g id="Grupo_1103202" data-name="Grupo 1103202" clip-path="url(#clip-path-7)">
                  <path id="Trazado_894693" data-name="Trazado 894693" d="M270.372,235.478a3.273,3.273,0,1,1-3.848-2.572,3.272,3.272,0,0,1,3.848,2.572" transform="translate(-263.889 -232.843)" fill="#fdb5c4"/>
                </g>
              </g>
            </g>
            <g id="Grupo_1103207" data-name="Grupo 1103207" transform="translate(106.274 115.278)" opacity="0.5" style="mix-blend-mode: multiply;isolation: isolate">
              <g id="Grupo_1103206" data-name="Grupo 1103206">
                <g id="Grupo_1103205" data-name="Grupo 1103205" clip-path="url(#clip-path-7)">
                  <path id="Trazado_894694" data-name="Trazado 894694" d="M228.764,243.749a3.273,3.273,0,1,1-3.848-2.572,3.273,3.273,0,0,1,3.848,2.572" transform="translate(-222.281 -241.115)" fill="#fdb5c4"/>
                </g>
              </g>
            </g>
            <path id="Trazado_894695" data-name="Trazado 894695" d="M248.268,220.36c2.915,3.881,5.687,8.092,6.727,12.9a1.652,1.652,0,0,1-.663,1.392,10.963,10.963,0,0,1-4.632,2.582,14.037,14.037,0,0,0,4.205-3.014,1.05,1.05,0,0,0,.411-.9c-1.234-4.619-3.87-8.73-6.048-12.963" transform="translate(-129.57 -115.005)" fill="#3f2950"/>
            <path id="Trazado_894696" data-name="Trazado 894696" d="M176.163,212.063a52.619,52.619,0,0,1-7.3-17.453c-1.39-6.371-1.43-13.529,2.343-18.849a22.3,22.3,0,0,1,9.315-7.028,47.388,47.388,0,0,1,10.307-3.2,24.981,24.981,0,0,1,8.647-.435,27.79,27.79,0,0,1,8.431,3.166,22.733,22.733,0,0,1,10.175,10.655,14.5,14.5,0,0,1-7.236,2,29.258,29.258,0,0,1-7.516-.935,9.474,9.474,0,0,1-3.5-1.617,12.374,12.374,0,0,0,5.553,4.322,7.3,7.3,0,0,1-3.993,1.392,19.059,19.059,0,0,1-10.636-2.045,10.819,10.819,0,0,1-4.225-3.58,26.547,26.547,0,0,1-2.286,19.37c-1.922,3.76-4.905,7.278-8.966,8.434" transform="translate(-87.679 -86.052)" fill="#3f2950"/>
            <path id="Trazado_894697" data-name="Trazado 894697" d="M166.107,247.839a11.035,11.035,0,0,0,3.78,5.337,8.337,8.337,0,0,0,3.811,1.783,4.34,4.34,0,0,0,3.669-1.036,5.58,5.58,0,0,0,1.481-3.418,11.694,11.694,0,0,0-3.039-8.729,7.792,7.792,0,0,0-5.379-2.907c-3.95-.033-5.472,5.2-4.323,8.97" transform="translate(-86.496 -124.664)" fill="#fdb5c4"/>
            <g id="Grupo_1103210" data-name="Grupo 1103210" transform="translate(80.739 117.342)" opacity="0.5" style="mix-blend-mode: multiply;isolation: isolate">
              <g id="Grupo_1103209" data-name="Grupo 1103209">
                <g id="Grupo_1103208" data-name="Grupo 1103208" clip-path="url(#clip-path-9)">
                  <path id="Trazado_894698" data-name="Trazado 894698" d="M179.209,254.524a5.089,5.089,0,0,1-2.751-.638.922.922,0,0,1-.554-.656.912.912,0,0,1,.136-.472,8.366,8.366,0,0,1,1.725-2.289,16.758,16.758,0,0,0-2.323-3.32A5.174,5.174,0,0,0,172,245.432a2.968,2.968,0,0,0-2.941,2.067s-1.31,3.764,3.109,7.158c4.659,3.58,7.045-.134,7.045-.134" transform="translate(-168.873 -245.432)" fill="#fdb5c4"/>
                </g>
              </g>
            </g>
            <path id="Trazado_894699" data-name="Trazado 894699" d="M169.252,247.139c.347-2.321,3.3-2.98,5.125-1.878,2,1.019,3.145,3.089,4.193,4.949a8.683,8.683,0,0,0-2.094,2.522.264.264,0,0,0-.026.185c.033.139.245.315.492.456a5.548,5.548,0,0,0,2.465.79c-1.236.269-4.551-.207-3.406-2.129a8.166,8.166,0,0,1,1.636-2.276l-.086.59c-.991-1.618-1.974-3.323-3.6-4.319a3.138,3.138,0,0,0-4.7,1.11" transform="translate(-88.332 -127.729)" fill="#3f2950"/>
            <path id="Trazado_894700" data-name="Trazado 894700" d="M246.951,265.124a9.63,9.63,0,0,0-3.851.809,3.475,3.475,0,0,0,.6.713,5.976,5.976,0,0,0,4.622,1.376,7.221,7.221,0,0,0,2.82-.948,6.077,6.077,0,0,0-4.19-1.95" transform="translate(-126.873 -138.365)" fill="#ff6564"/>
            <path id="Trazado_894701" data-name="Trazado 894701" d="M253.1,256.027a1.156,1.156,0,0,0-.5-.513c-.594-.268-1.415.169-1.939.666-.908.861-1.3,2.316-2.743,2.274-1.4-.041-3.018-1.579-4.679-.7a1.891,1.891,0,0,0-.7.677,2.237,2.237,0,0,0,.106,2.445,9.629,9.629,0,0,1,3.85-.809,6.078,6.078,0,0,1,4.19,1.95,6.392,6.392,0,0,0,1.834-1.561,4.054,4.054,0,0,0,.591-4.43" transform="translate(-126.412 -133.309)" fill="#3f2950"/>
            <path id="Trazado_894702" data-name="Trazado 894702" d="M201.232,366.035a245.4,245.4,0,0,0-6.8,28.4c-1.848,9.431-1.073,12.225,2.247,21.063.841,2.287,1.747,4.546,2.642,6.814l-.105.05c-.605-1.062-1.161-2.151-1.72-3.239-2.544-5.511-5.708-11.308-5.191-17.583A174.065,174.065,0,0,1,196.847,380q1.919-7.068,4.274-14Z" transform="translate(-100.332 -191.013)" fill="#362627"/>
            <path id="Trazado_894703" data-name="Trazado 894703" d="M270.178,342.214c3.575,10.915,5.61,22.269,7.541,33.568,1.824,11.327,3.346,22.705,4.268,34.143-3.722-22.335-6.715-45.7-11.809-67.712" transform="translate(-141.005 -178.6)" fill="#362627"/>
            <path id="Trazado_894704" data-name="Trazado 894704" d="M252.916,180.419a25.762,25.762,0,0,1-23.6-5.754,24.629,24.629,0,0,1-5.22-6.528,30.784,30.784,0,0,0,5.616,6.067,29.26,29.26,0,0,0,23.2,6.214" transform="translate(-116.957 -87.75)" fill="#fff"/>
            <path id="Trazado_894705" data-name="Trazado 894705" d="M255.448,171.238c-8.186,1.654-16.585-2.671-21.884-8.728a54.6,54.6,0,0,0,4.85,3.652,28.037,28.037,0,0,0,17.033,5.076" transform="translate(-121.896 -84.813)" fill="#fff"/>
            <path id="Trazado_894706" data-name="Trazado 894706" d="M194.343,172.829c1.791,8.6-.368,19.586-9.2,23.381,8.148-4.824,9.793-14.644,9.2-23.381" transform="translate(-96.625 -90.199)" fill="#fff"/>
            <path id="Trazado_894707" data-name="Trazado 894707" d="M181.894,176.762a16.981,16.981,0,0,1-6.854,15.748,24.72,24.72,0,0,0,6.854-15.748" transform="translate(-91.352 -92.251)" fill="#fff"/>
            <path id="Trazado_894708" data-name="Trazado 894708" d="M151.5,261.844c-1.088,2.862-3.111,6.946-4.437,9.767-6,12.368-3.854,18.847,2.9,30.111-2.785,2.758-5.756,5.615-6.946,9.434-1.076,3.533.065,8.3,3.819,9.743-3.972-1.231-5.4-6.184-4.395-9.909,1.046-3.883,3.932-6.879,6.658-9.654l-.068.535a58.251,58.251,0,0,1-4.94-9.6c-4.6-11.594,2.67-20.462,7.412-30.43" transform="translate(-74.178 -136.655)" fill="#fff"/>
            <path id="Trazado_894709" data-name="Trazado 894709" d="M174.266,275.789c.018,3.886-2.732,7.122-3.823,10.7-1.255,3.5-1.543,7.466.367,10.808-3.352-3.837-2.3-9.626-.131-13.8,1.251-2.563,3.06-4.846,3.586-7.707" transform="translate(-88.024 -143.933)" fill="#fff"/>
            <path id="Trazado_894710" data-name="Trazado 894710" d="M276.76,280.088A19.373,19.373,0,0,0,279.6,286a28.566,28.566,0,0,1,2.867,6.08c1.391,4.211,1.148,9.5-2.122,12.767,2.549-3.672,2.557-8.373,1.21-12.479a37.325,37.325,0,0,0-2.6-6c-1.009-1.945-2.144-4.03-2.191-6.279" transform="translate(-144.44 -146.176)" fill="#fff"/>
            <path id="Trazado_894711" data-name="Trazado 894711" d="M202.7,58.382A29.489,29.489,0,1,0,167.89,35.42,29.488,29.488,0,0,0,202.7,58.382" transform="translate(-87.304 0)" fill="#fdb5c4"/>
            <path id="Trazado_894712" data-name="Trazado 894712" d="M221.321,111.3a34.69,34.69,0,0,1,2.118,17.18c2.877-6.213,5.535-12.733,5.7-19.578" transform="translate(-115.506 -56.836)" fill="#fdb5c4"/>
            <path id="Trazado_894713" data-name="Trazado 894713" d="M241.2,13.529c7.588.971,13.17,7.074,16.017,13.8a1.2,1.2,0,0,0,1.635.429,1.228,1.228,0,0,0,.429-1.636c-3.219-7.608-9.643-13.906-18.081-14.986a1.2,1.2,0,0,0-1.2,1.2,1.225,1.225,0,0,0,1.2,1.2" transform="translate(-125.259 -5.81)" fill="#fff"/>
            <path id="Trazado_894714" data-name="Trazado 894714" d="M279.465,50.46q.465,1.553.93,3.106a1.245,1.245,0,0,0,.549.714,1.2,1.2,0,0,0,1.756-1.35l-.93-3.106a1.245,1.245,0,0,0-.549-.714,1.2,1.2,0,0,0-1.756,1.35" transform="translate(-145.827 -25.545)" fill="#fff"/>
            <path id="Trazado_894715" data-name="Trazado 894715" d="M371.708,218.108A29.489,29.489,0,1,0,336.9,195.146a29.488,29.488,0,0,0,34.813,22.962" transform="translate(-175.507 -83.36)" fill="#fcb900"/>
            <path id="Trazado_894716" data-name="Trazado 894716" d="M323.8,217.323a34.7,34.7,0,0,1-16.981,3.361c6.405,2.418,13.1,4.594,19.94,4.259" transform="translate(-160.126 -113.42)" fill="#fcb900"/>
            <path id="Trazado_894717" data-name="Trazado 894717" d="M410.123,171.5c7.588.971,13.17,7.074,16.017,13.8a1.2,1.2,0,0,0,1.635.429,1.228,1.228,0,0,0,.429-1.636c-3.219-7.608-9.643-13.906-18.081-14.986a1.2,1.2,0,0,0-1.2,1.2,1.225,1.225,0,0,0,1.2,1.2" transform="translate(-213.417 -88.253)" fill="#fff"/>
            <path id="Trazado_894718" data-name="Trazado 894718" d="M448.384,208.429q.465,1.553.93,3.106a1.245,1.245,0,0,0,.549.714,1.2,1.2,0,0,0,1.756-1.35l-.93-3.106a1.247,1.247,0,0,0-.549-.714,1.2,1.2,0,0,0-1.756,1.35" transform="translate(-233.985 -107.988)" fill="#fff"/>
            <path id="Trazado_894719" data-name="Trazado 894719" d="M329.7,94.181a29.489,29.489,0,1,0-34.813-22.962A29.488,29.488,0,0,0,329.7,94.181" transform="translate(-153.586 -18.683)" fill="#9492ff"/>
            <path id="Trazado_894720" data-name="Trazado 894720" d="M306.325,137.371a34.7,34.7,0,0,1-9.343,14.573c6.181-2.943,12.391-6.264,16.887-11.427" transform="translate(-154.993 -71.693)" fill="#9492ff"/>
            <path id="Trazado_894721" data-name="Trazado 894721" d="M367.5,47.2c7.588.971,13.17,7.074,16.017,13.8a1.2,1.2,0,0,0,1.635.429,1.228,1.228,0,0,0,.429-1.636c-3.219-7.608-9.643-13.906-18.081-14.986a1.2,1.2,0,0,0-1.2,1.2,1.225,1.225,0,0,0,1.2,1.2" transform="translate(-191.174 -23.385)" fill="#fff"/>
            <path id="Trazado_894722" data-name="Trazado 894722" d="M405.764,84.135q.465,1.553.93,3.106a1.245,1.245,0,0,0,.549.714A1.2,1.2,0,0,0,409,86.605l-.93-3.106a1.245,1.245,0,0,0-.549-.714,1.2,1.2,0,0,0-1.756,1.35" transform="translate(-211.742 -43.119)" fill="#fff"/>
            <path id="Trazado_894723" data-name="Trazado 894723" d="M23.57,218.108a29.489,29.489,0,1,1,34.813-22.962A29.488,29.488,0,0,1,23.57,218.108" transform="translate(0 -83.36)" fill="#3249f0"/>
            <path id="Trazado_894724" data-name="Trazado 894724" d="M114.107,217.323a34.7,34.7,0,0,0,16.98,3.361c-6.405,2.418-13.1,4.594-19.94,4.259" transform="translate(-58.007 -113.42)" fill="#3249f0"/>
            <path id="Trazado_894725" data-name="Trazado 894725" d="M72.25,168.982c7.588.971,13.17,7.074,16.017,13.8a1.2,1.2,0,0,0,1.635.429,1.228,1.228,0,0,0,.429-1.636c-3.219-7.608-9.643-13.906-18.08-14.986a1.2,1.2,0,0,0-1.2,1.2,1.225,1.225,0,0,0,1.2,1.2" transform="translate(-37.083 -86.94)" fill="#fff"/>
            <path id="Trazado_894726" data-name="Trazado 894726" d="M110.511,205.913q.465,1.553.93,3.106a1.245,1.245,0,0,0,.549.714,1.2,1.2,0,0,0,1.756-1.35l-.93-3.106a1.246,1.246,0,0,0-.549-.714,1.2,1.2,0,0,0-1.756,1.35" transform="translate(-57.651 -106.675)" fill="#fff"/>
            <path id="Trazado_894727" data-name="Trazado 894727" d="M65.572,94.181a29.489,29.489,0,1,1,34.813-22.962A29.488,29.488,0,0,1,65.572,94.181" transform="translate(-21.921 -18.683)" fill="#ff6564"/>
            <path id="Trazado_894728" data-name="Trazado 894728" d="M134.912,137.371a34.7,34.7,0,0,0,9.343,14.573c-6.181-2.943-12.391-6.264-16.887-11.427" transform="translate(-66.473 -71.693)" fill="#ff6564"/>
            <path id="Trazado_894729" data-name="Trazado 894729" d="M116.094,47.959c7.588.971,13.17,7.074,16.017,13.8a1.2,1.2,0,0,0,1.635.429,1.228,1.228,0,0,0,.429-1.636c-3.219-7.608-9.643-13.906-18.08-14.986a1.2,1.2,0,0,0-1.2,1.2,1.225,1.225,0,0,0,1.2,1.2" transform="translate(-59.965 -23.779)" fill="#fff"/>
            <path id="Trazado_894730" data-name="Trazado 894730" d="M154.355,84.89q.464,1.553.929,3.106a1.248,1.248,0,0,0,.549.714,1.2,1.2,0,0,0,1.756-1.35q-.465-1.553-.929-3.106a1.249,1.249,0,0,0-.549-.714,1.2,1.2,0,0,0-1.756,1.35" transform="translate(-80.532 -43.513)" fill="#fff"/>
            <path id="Trazado_894731" data-name="Trazado 894731" d="M372.335,342.244l-3.01-13.955L362.484,341.7l12.861-7.388-13.682-1.368Z" transform="translate(-188.75 -171.332)" fill="#3249f0"/>
            <path id="Trazado_894732" data-name="Trazado 894732" d="M409.737,304.6l-3.5-1.45-1.1-3.158-1.106,3.32-3.5,1.288,3.178,1.246,1.43,3.363,1.1-3.093Z" transform="translate(-209.03 -156.565)" fill="#300088"/>
            <path id="Trazado_894733" data-name="Trazado 894733" d="M437.393,352.635l-3.5-1.45-1.1-3.158-1.106,3.32-3.5,1.288,3.178,1.246,1.43,3.362,1.1-3.092Z" transform="translate(-223.463 -181.633)" fill="#300088"/>
            <path id="Trazado_894734" data-name="Trazado 894734" d="M91.846,342.244l3.01-13.955L101.7,341.7l-12.861-7.388,13.682-1.368Z" transform="translate(-46.363 -171.332)" fill="#3249f0"/>
            <path id="Trazado_894735" data-name="Trazado 894735" d="M70.318,301.6l3.5-1.45,1.1-3.158,1.106,3.32,3.5,1.288-3.178,1.246-1.43,3.363-1.1-3.093Z" transform="translate(-36.698 -155)" fill="#300088"/>
            <path id="Trazado_894736" data-name="Trazado 894736" d="M31.662,341.635l3.5-1.45,1.1-3.158,1.106,3.32,3.5,1.289L37.7,342.881l-1.43,3.362-1.1-3.092Z" transform="translate(-16.524 -175.892)" fill="#300088"/>
          </g>
        </g>
        <text id="A" transform="translate(11.709 111.144)" fill="#3f2950" font-size="27" font-family="SegoeUI, Segoe UI"><tspan x="0" y="0">A</tspan></text>
        <text id="a-2" data-name="a" transform="translate(30.556 111.144)" fill="#fff" font-size="27" font-family="SegoeUI, Segoe UI"><tspan x="0" y="0">a</tspan></text>
        <text id="E" transform="translate(34.131 53.834)" fill="#3f2950" font-size="27" font-family="SegoeUI, Segoe UI"><tspan x="0" y="0">E</tspan></text>
        <text id="e-2" data-name="e" transform="translate(50.349 53.834)" fill="#fff" font-size="27" font-family="SegoeUI, Segoe UI"><tspan x="0" y="0">e</tspan></text>
        <text id="O" transform="translate(151.055 54.69)" fill="#3f2950" font-size="27" font-family="SegoeUI, Segoe UI"><tspan x="0" y="0">O</tspan></text>
        <text id="o-2" data-name="o" transform="translate(171.467 54.69)" fill="#fff" font-size="27" font-family="SegoeUI, Segoe UI"><tspan x="0" y="0">o</tspan></text>
        <text id="U" transform="translate(171.527 114.157)" fill="#3f2950" font-size="27" font-family="SegoeUI, Segoe UI"><tspan x="0" y="0">U</tspan></text>
        <text id="u-2" data-name="u" transform="translate(191.969 114.157)" fill="#fff" font-size="27" font-family="SegoeUI, Segoe UI"><tspan x="0" y="0">u</tspan></text>
        <text id="I" transform="translate(101.042 35.468)" fill="#3f2950" font-size="25" font-family="SegoeUI, Segoe UI"><tspan x="0" y="0">I</tspan></text>
        <text id="i-2" data-name="i" transform="translate(109.845 37.468)" fill="#fff" font-size="27" font-family="SegoeUI, Segoe UI"><tspan x="0" y="0">i</tspan></text>
      </g>
    </g>
  </g>
</svg>
