<svg xmlns="http://www.w3.org/2000/svg" xmlns:xlink="http://www.w3.org/1999/xlink" width="181.716" height="181.995" viewBox="0 0 181.716 181.995">
  <defs>
    <clipPath id="clip-path">
      <rect id="Rectángulo_401780" data-name="Rectángulo 401780" width="181.716" height="181.995" fill="#824ffb"/>
    </clipPath>
  </defs>
  <g id="Grupo_1103228" data-name="Grupo 1103228" transform="translate(-1226.283 -424)">
    <g id="Grupo_1101762" data-name="Grupo 1101762" transform="translate(1226.283 424)">
      <g id="Grupo_1101761" data-name="Grupo 1101761" clip-path="url(#clip-path)">
        <path id="Trazado_891299" data-name="Trazado 891299" d="M96.717,164.459H85.024v17.422H38.176V170.228c-7.014.407-13.241-1.214-18.447-5.84a23.606,23.606,0,0,1-8.057-17.522H.008v-1.861c0-6.167-.019-12.334,0-18.5.08-22.056,15.7-40.446,37.474-43.681,13.565-2.015,26.008.549,36.2,10.539a5.8,5.8,0,0,0,1.937.824c-1.565-1.539-3.2-2.945-4.6-4.562-3.387-3.93-6.683-7.938-9.96-11.961a3,3,0,0,0-2.616-1.245c-9.462.052-18.924.035-28.385.027-7.733-.006-12.6-4.815-12.614-12.547q-.04-22.622,0-45.244C17.463,10.912,22.318,6.1,30.052,6.1c24.845-.006,49.69-.036,74.535.059,2.118.008,4.226.909,6.353,1.32a2.525,2.525,0,0,0,1.75-.135c20.442-15.141,60.166-7.357,68.045,27.9a39.992,39.992,0,0,1,.913,7.982c.124,7.075.042,14.155.042,21.432H170.058c-.287,7.065-2.807,12.96-7.993,17.589-5.2,4.644-11.411,6.323-18.354,5.907v5.886c2.486,0,5.022-.067,7.553.025a18.947,18.947,0,0,1,4.687.583,11.363,11.363,0,0,1,8.139,10.8q.089,23.72,0,47.442a11.587,11.587,0,0,1-11.819,11.488q-14.559.068-29.118-.011a2.992,2.992,0,0,0-2.631,1.206q-5.732,7.021-11.612,13.92a6.729,6.729,0,0,1-7.793,2.006,6.964,6.964,0,0,1-4.392-6.587c-.029-2.2-.006-4.4-.007-6.594v-3.853m-17.658-11.8c-5.78,0-11.387.016-16.994,0-7.194-.025-12.205-5.023-12.233-12.2-.021-5.433,0-10.866-.006-16.3-.014-7.582-4.922-12.522-12.456-12.531-8.91-.01-17.821.045-26.731-.047a2.3,2.3,0,0,0-2.571,1.859c-3.308,8.928-1.858,18.186-2.235,27.534H17.592c0,1.9-.007,3.6,0,5.3.052,10.5,7.648,18.077,18.176,18.111,5.981.02,11.962,0,17.943,0h1.872V170.3H44.116v5.706H79.059Zm96.734-93.827c0-5.818.269-11.388-.1-16.917-.238-3.6-1.391-7.146-2.144-10.715-.261-1.236-.922-1.7-2.3-1.693-9.093.075-18.187.02-27.281.046-7.06.02-12.059,5.059-12.088,12.155-.023,5.616.022,11.232-.012,16.848A11.7,11.7,0,0,1,119.832,70.58c-5.126.029-10.253,0-15.379.01-.588,0-1.175.053-1.735.08V93.942H137.63V88.1H126.119V82.31H128q8.788,0,17.577,0c11.012-.012,18.521-7.5,18.545-18.478,0-1.622,0-3.245,0-5ZM35.173,23.743V58.764H96.554c.943-11.725-1.713-23.643,3.04-35.021Zm134.714-.057c-1.267-1.649-2.189-3-3.26-4.221-8.357-9.518-18.949-13.594-31.532-13.414-18.263.261-32.461,14.327-32.512,32.6-.023,8.057-.006,16.115,0,24.173,0,.59.053,1.179.088,1.9,5.668,0,11.21.008,16.752,0,4.251-.008,6.588-2.325,6.6-6.547.013-5.066.217-10.144-.04-15.2-.576-11.34,8.19-19.795,19.242-19.353,8.039.321,16.1.063,24.664.063m-157.849,81.9a4,4,0,0,0,.627.163c8.3.007,16.6-.007,24.9.019,10.508.033,18.081,7.626,18.123,18.158.022,5.494-.009,10.987.008,16.481.013,4,2.381,6.375,6.383,6.389,5.187.019,10.375.008,15.562,0,.465,0,.93-.077,1.49-.126,0-8.956.238-17.806-.055-26.639-.456-13.726-7.087-23.705-19.64-29.217-9.411-4.132-19.2-3.565-28.76-.175-7.827,2.775-13.9,7.894-18.636,14.947m134.368,41.131V111.7H84.128c1.752,11.65.371,23.322.992,35.01ZM107.045,12.081c-1.037-.051-1.747-.116-2.458-.116q-37.361-.008-74.722,0c-4.231,0-6.55,2.3-6.555,6.574q-.028,22.715,0,45.43c.005,4.387,2.29,6.614,6.7,6.616,10.378.006,20.757.018,31.135-.021a2.991,2.991,0,0,1,2.632,1.2q6.254,7.66,12.656,15.2a6.874,6.874,0,0,0,1.724,1.094,6.582,6.582,0,0,0,.788-2.04c.081-3.479.038-6.96.038-10.441,0-1.62,0-3.24,0-5.02H96.59V64.668H29.315V17.823h2.324q34.706,0,69.412-.026a3.063,3.063,0,0,0,2.079-.626c1.33-1.491,2.461-3.161,3.916-5.09M79.069,99.9a43.455,43.455,0,0,1,2.229,4.285,2.3,2.3,0,0,0,2.606,1.61q33.142-.068,66.284-.032h2.063v46.968H85.117v5.882h17.461c0,5.082-.032,9.964.031,14.844a10.289,10.289,0,0,0,.658,2.47,9.811,9.811,0,0,0,2.225-1.494q6.163-7.256,12.186-14.631a3.192,3.192,0,0,1,2.774-1.3c10.314.048,20.63.03,30.945.026,4.621,0,6.859-2.231,6.861-6.839q.006-22.436,0-44.871c0-4.727-2.206-6.912-6.968-6.912q-31.861,0-63.721,0ZM84.84,76.505c0,2.9-.1,5.635.024,8.363.191,4.025-.776,7.342-5.241,9.05h16.96V76.505Z" transform="translate(0 0)" fill="#824ffb"/>
        <path id="Trazado_891300" data-name="Trazado 891300" d="M24.282,252.26h5.572c.431,1.551,1.248,2.885,3.156,2.824,1.734-.056,2.533-1.243,2.942-2.822h5.607a8.639,8.639,0,1,1-17.277,0" transform="translate(-12.396 -128.835)" fill="#824ffb"/>
        <path id="Trazado_891301" data-name="Trazado 891301" d="M311.669,84.514h5.648c.435,1.57,1.243,2.826,3.077,2.807,1.811-.018,2.616-1.281,3.024-2.836h5.529c.446,4.331-3.5,8.513-8.154,8.718a8.7,8.7,0,0,1-9.124-8.689" transform="translate(-159.177 -43.149)" fill="#824ffb"/>
        <path id="Trazado_891302" data-name="Trazado 891302" d="M114.623,82.423l-10.5-10.486,4.072-3.925,6.166,6.567L132.736,56.17l3.909,4.225L114.623,82.423" transform="translate(-53.177 -28.687)" fill="#824ffb"/>
        <path id="Trazado_891303" data-name="Trazado 891303" d="M219.213,253.442l-9.532,9.694-3.95-4.288,9.228-9.089-9.791-9.6,4.571-4.1,9.047,9.387,9.632-9.915,4.016,4.539-9.226,9.155,9.8,9.6-4.529,4.073-9.263-9.453" transform="translate(-104.784 -120.291)" fill="#824ffb"/>
      </g>
    </g>
  </g>
</svg>
