<svg xmlns="http://www.w3.org/2000/svg" xmlns:xlink="http://www.w3.org/1999/xlink" width="289.689" height="361.408" viewBox="0 0 289.689 361.408">
  <defs>
    <clipPath id="clip-path">
      <rect id="Rectángulo_400902" data-name="Rectángulo 400902" width="90.344" height="80.095" fill="#7dc8ff"/>
    </clipPath>
    <clipPath id="clip-path-2">
      <rect id="Rectángulo_402053" data-name="Rectángulo 402053" width="279.076" height="293.379" fill="none"/>
    </clipPath>
  </defs>
  <g id="Grupo_1103312" data-name="Grupo 1103312" transform="translate(-1059.829 -4077.591)">
    <path id="Rectángulo_401347" data-name="Rectángulo 401347" d="M95.334,0h0a95.334,95.334,0,0,1,95.334,95.334V327.787a0,0,0,0,1,0,0H0a0,0,0,0,1,0,0V95.334A95.334,95.334,0,0,1,95.334,0Z" transform="translate(1114.646 4077.591)" fill="#cdb8fd"/>
    <path id="Rectángulo_400930" data-name="Rectángulo 400930" d="M103.217,0h0A103.217,103.217,0,0,1,206.433,103.217V346.868a0,0,0,0,1,0,0H0a0,0,0,0,1,0,0V103.217A103.217,103.217,0,0,1,103.217,0Z" transform="translate(1089.796 4077.591)" fill="#fcc5d5"/>
    <path id="Rectángulo_401350" data-name="Rectángulo 401350" d="M0,0H215.52a0,0,0,0,1,0,0V14.62a19,19,0,0,1-19,19H19a19,19,0,0,1-19-19V0A0,0,0,0,1,0,0Z" transform="translate(1089.796 4405.378)" fill="#cbe9ff"/>
    <g id="Grupo_1099384" data-name="Grupo 1099384" transform="translate(1059.829 4310.308)">
      <g id="Grupo_1098724" data-name="Grupo 1098724" transform="translate(0 0)">
        <g id="Grupo_1098723" data-name="Grupo 1098723" clip-path="url(#clip-path)">
          <path id="Trazado_872910" data-name="Trazado 872910" d="M3.607,1.8A1.8,1.8,0,1,1,1.8,0a1.8,1.8,0,0,1,1.8,1.8" fill="#7dc8ff"/>
          <path id="Trazado_872911" data-name="Trazado 872911" d="M32.561,1.8a1.8,1.8,0,1,1-1.8-1.8,1.8,1.8,0,0,1,1.8,1.8" transform="translate(-11.606)" fill="#7dc8ff"/>
          <path id="Trazado_872912" data-name="Trazado 872912" d="M61.514,1.8A1.8,1.8,0,1,1,59.71,0a1.8,1.8,0,0,1,1.8,1.8" transform="translate(-23.212)" fill="#7dc8ff"/>
          <path id="Trazado_872913" data-name="Trazado 872913" d="M90.467,1.8a1.8,1.8,0,1,1-1.8-1.8,1.8,1.8,0,0,1,1.8,1.8" transform="translate(-34.818)" fill="#7dc8ff"/>
          <path id="Trazado_872914" data-name="Trazado 872914" d="M119.42,1.8a1.8,1.8,0,1,1-1.8-1.8,1.8,1.8,0,0,1,1.8,1.8" transform="translate(-46.423)" fill="#7dc8ff"/>
          <path id="Trazado_872915" data-name="Trazado 872915" d="M148.374,1.8a1.8,1.8,0,1,1-1.8-1.8,1.8,1.8,0,0,1,1.8,1.8" transform="translate(-58.029)" fill="#7dc8ff"/>
          <path id="Trazado_872916" data-name="Trazado 872916" d="M3.607,33.718a1.8,1.8,0,1,1-1.8-1.8,1.8,1.8,0,0,1,1.8,1.8" transform="translate(0 -12.793)" fill="#7dc8ff"/>
          <path id="Trazado_872917" data-name="Trazado 872917" d="M32.561,33.718a1.8,1.8,0,1,1-1.8-1.8,1.8,1.8,0,0,1,1.8,1.8" transform="translate(-11.606 -12.793)" fill="#7dc8ff"/>
          <path id="Trazado_872918" data-name="Trazado 872918" d="M61.514,33.718a1.8,1.8,0,1,1-1.8-1.8,1.8,1.8,0,0,1,1.8,1.8" transform="translate(-23.212 -12.793)" fill="#7dc8ff"/>
          <path id="Trazado_872919" data-name="Trazado 872919" d="M90.467,33.718a1.8,1.8,0,1,1-1.8-1.8,1.8,1.8,0,0,1,1.8,1.8" transform="translate(-34.818 -12.793)" fill="#7dc8ff"/>
          <path id="Trazado_872920" data-name="Trazado 872920" d="M119.42,33.718a1.8,1.8,0,1,1-1.8-1.8,1.8,1.8,0,0,1,1.8,1.8" transform="translate(-46.423 -12.793)" fill="#7dc8ff"/>
          <path id="Trazado_872921" data-name="Trazado 872921" d="M148.374,33.718a1.8,1.8,0,1,1-1.8-1.8,1.8,1.8,0,0,1,1.8,1.8" transform="translate(-58.029 -12.793)" fill="#7dc8ff"/>
          <path id="Trazado_872922" data-name="Trazado 872922" d="M3.607,65.633a1.8,1.8,0,1,1-1.8-1.8,1.8,1.8,0,0,1,1.8,1.8" transform="translate(0 -25.586)" fill="#7dc8ff"/>
          <path id="Trazado_872923" data-name="Trazado 872923" d="M32.561,65.633a1.8,1.8,0,1,1-1.8-1.8,1.8,1.8,0,0,1,1.8,1.8" transform="translate(-11.606 -25.586)" fill="#7dc8ff"/>
          <path id="Trazado_872924" data-name="Trazado 872924" d="M61.514,65.633a1.8,1.8,0,1,1-1.8-1.8,1.8,1.8,0,0,1,1.8,1.8" transform="translate(-23.212 -25.586)" fill="#7dc8ff"/>
          <path id="Trazado_872925" data-name="Trazado 872925" d="M90.467,65.633a1.8,1.8,0,1,1-1.8-1.8,1.8,1.8,0,0,1,1.8,1.8" transform="translate(-34.818 -25.586)" fill="#7dc8ff"/>
          <path id="Trazado_872926" data-name="Trazado 872926" d="M119.42,65.633a1.8,1.8,0,1,1-1.8-1.8,1.8,1.8,0,0,1,1.8,1.8" transform="translate(-46.423 -25.586)" fill="#7dc8ff"/>
          <path id="Trazado_872927" data-name="Trazado 872927" d="M148.374,65.633a1.8,1.8,0,1,1-1.8-1.8,1.8,1.8,0,0,1,1.8,1.8" transform="translate(-58.029 -25.586)" fill="#7dc8ff"/>
          <path id="Trazado_872928" data-name="Trazado 872928" d="M3.607,97.548a1.8,1.8,0,1,1-1.8-1.8,1.8,1.8,0,0,1,1.8,1.8" transform="translate(0 -38.379)" fill="#7dc8ff"/>
          <path id="Trazado_872929" data-name="Trazado 872929" d="M32.561,97.548a1.8,1.8,0,1,1-1.8-1.8,1.8,1.8,0,0,1,1.8,1.8" transform="translate(-11.606 -38.379)" fill="#7dc8ff"/>
          <path id="Trazado_872930" data-name="Trazado 872930" d="M61.514,97.548a1.8,1.8,0,1,1-1.8-1.8,1.8,1.8,0,0,1,1.8,1.8" transform="translate(-23.212 -38.379)" fill="#7dc8ff"/>
          <path id="Trazado_872931" data-name="Trazado 872931" d="M90.467,97.548a1.8,1.8,0,1,1-1.8-1.8,1.8,1.8,0,0,1,1.8,1.8" transform="translate(-34.818 -38.379)" fill="#7dc8ff"/>
          <path id="Trazado_872932" data-name="Trazado 872932" d="M119.42,97.548a1.8,1.8,0,1,1-1.8-1.8,1.8,1.8,0,0,1,1.8,1.8" transform="translate(-46.423 -38.379)" fill="#7dc8ff"/>
          <path id="Trazado_872933" data-name="Trazado 872933" d="M148.374,97.548a1.8,1.8,0,1,1-1.8-1.8,1.8,1.8,0,0,1,1.8,1.8" transform="translate(-58.029 -38.379)" fill="#7dc8ff"/>
          <path id="Trazado_872934" data-name="Trazado 872934" d="M3.607,129.463a1.8,1.8,0,1,1-1.8-1.8,1.8,1.8,0,0,1,1.8,1.8" transform="translate(0 -51.172)" fill="#7dc8ff"/>
          <path id="Trazado_872935" data-name="Trazado 872935" d="M32.561,129.463a1.8,1.8,0,1,1-1.8-1.8,1.8,1.8,0,0,1,1.8,1.8" transform="translate(-11.606 -51.172)" fill="#7dc8ff"/>
          <path id="Trazado_872936" data-name="Trazado 872936" d="M61.514,129.463a1.8,1.8,0,1,1-1.8-1.8,1.8,1.8,0,0,1,1.8,1.8" transform="translate(-23.212 -51.172)" fill="#7dc8ff"/>
          <path id="Trazado_872937" data-name="Trazado 872937" d="M90.467,129.463a1.8,1.8,0,1,1-1.8-1.8,1.8,1.8,0,0,1,1.8,1.8" transform="translate(-34.818 -51.172)" fill="#7dc8ff"/>
          <path id="Trazado_872938" data-name="Trazado 872938" d="M119.42,129.463a1.8,1.8,0,1,1-1.8-1.8,1.8,1.8,0,0,1,1.8,1.8" transform="translate(-46.423 -51.172)" fill="#7dc8ff"/>
          <path id="Trazado_872939" data-name="Trazado 872939" d="M148.374,129.463a1.8,1.8,0,1,1-1.8-1.8,1.8,1.8,0,0,1,1.8,1.8" transform="translate(-58.029 -51.172)" fill="#7dc8ff"/>
        </g>
      </g>
    </g>
    <g id="Grupo_1102058" data-name="Grupo 1102058" transform="translate(1070.442 4122.493)">
      <g id="Grupo_1102057" data-name="Grupo 1102057" clip-path="url(#clip-path-2)">
        <path id="Trazado_893400" data-name="Trazado 893400" d="M204.662,244.82c2.444.162,5.186.158,7.9.531a12.994,12.994,0,0,1,3.67,1.015,2.768,2.768,0,0,1,1.712,2.167,16,16,0,0,1,.227,1.849c.1,2.174.219,4.346.195,6.524,0,.186-.015.373-.013.559a3.612,3.612,0,0,1-2.682,3.8,1.1,1.1,0,0,0-.854,1.126c-.194,2.449-.3,4.9-.349,7.355a21.083,21.083,0,0,1-.355,3.893,8.946,8.946,0,0,1-.287.981,1.714,1.714,0,0,1-1.349,1.147c-2.888.739-5.762,1.533-8.657,2.242a55.644,55.644,0,0,0-6.636,2.163,5.367,5.367,0,0,0-.907.469,6.662,6.662,0,0,1-.979.534c-.874.354-1.368.106-1.579-.82a37.084,37.084,0,0,1-.674-4.8c-.285-3.063-.517-6.131-.792-9.2-.114-1.268-.29-2.53-.425-3.8-.048-.453-.21-.737-.72-.8a7.39,7.39,0,0,1-1.168-.313,1.9,1.9,0,0,1-1.5-1.864c-.233-2.6-.437-5.2-.5-7.815a24.777,24.777,0,0,1-.06-2.513,2.691,2.691,0,0,1,1.678-2.376,17.114,17.114,0,0,1,4.874-1.522,60.58,60.58,0,0,1,10.234-.541m-3.756,6.794a54.389,54.389,0,0,0,9.925-.644,13.593,13.593,0,0,0,2.877-.743,2.937,2.937,0,0,0,.881-.511,1.188,1.188,0,0,0-.169-2.123,4.9,4.9,0,0,0-1.373-.559,14.865,14.865,0,0,0-3.586-.475,79.463,79.463,0,0,0-14.494.5,11.587,11.587,0,0,0-4.716,1.616c-.568.37-.693.759-.176,1.484a1.462,1.462,0,0,0,.7.435,11.884,11.884,0,0,0,2.97.754,54.957,54.957,0,0,0,7.16.265" transform="translate(-62.298 -81.183)" fill="#823000"/>
        <path id="Trazado_893401" data-name="Trazado 893401" d="M204.452,252.562c-3.059-.034-5.42.062-7.776-.178a16.013,16.013,0,0,1-4.447-.931,2.255,2.255,0,0,1-1.329-1.225,1.321,1.321,0,0,1,.384-1.75,5.389,5.389,0,0,1,1.9-.961,23.042,23.042,0,0,1,6.02-1.128,70.034,70.034,0,0,1,13.66.549c.582.082,1.157.229,1.729.368a4.114,4.114,0,0,1,1.562.805,1.387,1.387,0,0,1-.056,2.46,7.228,7.228,0,0,1-2.263,1.067,20.686,20.686,0,0,1-4.31.713c-1.919.157-3.845.209-5.072.211" transform="translate(-63.25 -81.672)" fill="#420d00"/>
        <path id="Trazado_893402" data-name="Trazado 893402" d="M193.979,270.126a68.064,68.064,0,0,0,22.924-.244c-.069,1.218-.134,2.417-.209,3.615a5.31,5.31,0,0,0-.092.829c.076.716-.348.988-.925,1.185a15.374,15.374,0,0,1-3.931.68,25.124,25.124,0,0,1-9.824-1.177,21.951,21.951,0,0,1-7.037-3.513c-.425-.345-.938-.634-.907-1.375" transform="translate(-64.329 -89.501)" fill="#420d00"/>
        <path id="Trazado_893403" data-name="Trazado 893403" d="M203.353,178.383c.223-.463.463-.918.666-1.391q1.411-3.287,2.8-6.584a82.6,82.6,0,0,0,4.026-11.962c.843-3.37,1.684-6.741,2.487-10.121a24.5,24.5,0,0,0,.683-6.924c-.006-.118-.011-.236-.007-.354.005-.178.007-.388.17-.479.229-.129.378.084.521.217a5.166,5.166,0,0,1,.539.582A23,23,0,0,1,218.883,148a64.174,64.174,0,0,1,3.128,12.853,38.03,38.03,0,0,1,.3,8.549,40.136,40.136,0,0,1-3.066,12.289,57.338,57.338,0,0,1-5.687,9.749,83.752,83.752,0,0,0-6.13,10.221c-.739,1.474-1.551,2.911-2.331,4.364a2.951,2.951,0,0,1-1.557,1.375,2.376,2.376,0,0,1-3.1-1.1c-.156-.278-.287-.57-.415-.827-.273-.07-.356.123-.479.233a3.531,3.531,0,0,1-4.467.159,1.613,1.613,0,0,1-.473-.621c-.815-1.731-1.673-3.439-2.65-5.087a55.1,55.1,0,0,0-4.578-6.813,23.963,23.963,0,0,1-3.286-5.118,21.908,21.908,0,0,1-1.622-6.4,74.176,74.176,0,0,1-.377-8.381,42.437,42.437,0,0,0-1.013-9.206,41.752,41.752,0,0,0-1.777-5.363,33.086,33.086,0,0,1-2.107-7.828,37.369,37.369,0,0,1-.154-7.146,22.163,22.163,0,0,0,.122-2.292,40.84,40.84,0,0,1,.775-7.9c.406-2.591.652-5.2.847-7.816.207-2.789.371-5.583.723-8.361.063-.5.076-1,.106-1.5.049-.821.227-1.2.636-1.206.654-.014.8.531.959.994q.5,1.462.926,2.949a46.662,46.662,0,0,0,2.835,7.414c1.757,3.663,3.7,7.236,5.465,10.894a33.952,33.952,0,0,0,4.571,6.487,29.315,29.315,0,0,1,5.346,9.089c.132.39.286.777.378,1.176.458,1.98,1.289,3.854,1.68,5.851a25.831,25.831,0,0,1,.27,6.165,88.764,88.764,0,0,0,.367,10.945c.039.515.09,1.029.135,1.543l.165.043" transform="translate(-58.681 -38.082)" fill="#004f19"/>
        <path id="Trazado_893404" data-name="Trazado 893404" d="M199.283,167.1a94.924,94.924,0,0,1,1.543-16.012,83.952,83.952,0,0,0,1.16-9.024c.1-1.469.213-2.936.244-4.409a69.866,69.866,0,0,0-.541-8.016,85.053,85.053,0,0,1-.173-14.209c.23-3.113.515-6.223.588-9.346a2.092,2.092,0,0,1,.109-.692,1.039,1.039,0,0,1,1.84-.274,2.39,2.39,0,0,1,.419,1.058c.445,2.223.886,4.447,1.342,6.668a154.783,154.783,0,0,0,3.8,15.518q2,6.359,3.881,12.758a52.123,52.123,0,0,1,2.164,11.61,41.607,41.607,0,0,1-.182,6.706c-.433,4.252-1.337,8.427-2.127,12.62-.709,3.764-1.291,7.546-1.666,11.36q-.435,4.438-.779,8.885a51.259,51.259,0,0,1-.992,6.816,5.419,5.419,0,0,1-1.216,2.323c-.568.686-1,.668-1.587-.029a8.051,8.051,0,0,1-1.138-1.784c-.819-1.76-1.652-3.516-2.409-5.3a39.4,39.4,0,0,1-2.061-7.21c-.634-2.965-1.311-5.924-1.648-8.946a55.775,55.775,0,0,1-.569-11.067" transform="translate(-66.052 -34.715)" fill="#007b00"/>
        <path id="Trazado_893405" data-name="Trazado 893405" d="M182.153,135.52c.14,1.462.3,2.923.416,4.388.37,4.756.666,9.519,1.1,14.27a105.7,105.7,0,0,0,2.141,12.89,99.112,99.112,0,0,0,3.612,12.277,57.363,57.363,0,0,1,2.81,10.932,7.041,7.041,0,0,1,.072,1.144c-.006.343.062.85-.3.94-.434.11-.57-.416-.761-.727a4,4,0,0,1-.36-.8c-1.154-3.4-2.349-6.788-3.407-10.221-.72-2.335-1.481-4.657-2.13-7.013-.853-3.1-1.353-6.269-1.923-9.427a114.149,114.149,0,0,1-1.43-17.507c-.076-3.062-.171-6.124-.252-9.187a6.885,6.885,0,0,1,.21-1.972l.2.016" transform="translate(-60.269 -44.937)" fill="#007b00"/>
        <path id="Trazado_893406" data-name="Trazado 893406" d="M229.647,160.409a2.84,2.84,0,0,1,.392,1.343,49.238,49.238,0,0,1,1,10.086,50.6,50.6,0,0,1-1.468,10.562,97.366,97.366,0,0,1-4.107,13.036c-1.395,3.624-2.743,7.267-3.877,10.983-.18.59-.317,1.193-.469,1.792a4.132,4.132,0,0,1-.533,1.394c-.241.346-.45.324-.658-.044a2.059,2.059,0,0,1-.211-1.114,20.286,20.286,0,0,1,.811-5.307c1.017-3.325,2.384-6.519,3.668-9.743a94.36,94.36,0,0,0,5.2-17.669,39.825,39.825,0,0,0,.513-9.413c-.09-1.705-.172-3.41-.254-5.115-.011-.23,0-.461,0-.79" transform="translate(-72.862 -53.196)" fill="#007b00"/>
        <path id="Trazado_893407" data-name="Trazado 893407" d="M217.893,226.287a1.937,1.937,0,0,1-.158-1.463,18.512,18.512,0,0,1,1.1-3.719,94.7,94.7,0,0,1,4.108-9.379c1.6-3.25,3.246-6.475,4.789-9.75a54.206,54.206,0,0,0,4.328-13.226,27.873,27.873,0,0,0,.3-4.757,2.52,2.52,0,0,1,.241-1.318c.32.213.287.538.339.8a19.991,19.991,0,0,1,0,7.728,55.88,55.88,0,0,1-4.78,14c-2.824,5.8-5.632,11.6-8.226,17.5a18.261,18.261,0,0,1-1.21,2.647,2.271,2.271,0,0,1-.836.931" transform="translate(-72.185 -60.581)" fill="#007b00"/>
        <path id="Trazado_893408" data-name="Trazado 893408" d="M183.163,123.479a5.384,5.384,0,0,1,.686,1.59,61.461,61.461,0,0,1,1.934,8.881c.634,3.923,1.328,7.837,2.035,11.747.467,2.579.939,5.154,1.609,7.689.867,3.279,2.113,6.429,3.26,9.613.36,1,.858,1.94,1.124,2.971a1.832,1.832,0,0,1,.078,1.155,2.375,2.375,0,0,1-1.359-1.3,27.119,27.119,0,0,1-1.707-3.488,58.866,58.866,0,0,1-3.782-13.21c-.718-4.269-1.325-8.554-1.894-12.845-.465-3.5-.9-7.009-1.626-10.469-.162-.769-.357-1.531-.537-2.3l.181-.041" transform="translate(-60.682 -40.949)" fill="#007b00"/>
        <path id="Trazado_893409" data-name="Trazado 893409" d="M196.891,158.835c-.271-.017-.352-.265-.476-.448a7.687,7.687,0,0,1-.768-1.486,55.606,55.606,0,0,1-3.325-11.858,7.863,7.863,0,0,1-.078-.964c-.005-.171.009-.384.239-.4.176-.013.214.166.259.305.473,1.452.964,2.9,1.416,4.359.773,2.5,1.526,5,2.276,7.505a10.852,10.852,0,0,1,.567,2.666c0,.112.02.232-.11.32" transform="translate(-63.753 -47.648)" fill="#007b00"/>
        <path id="Trazado_893410" data-name="Trazado 893410" d="M176.233,415.182c.184.69-.44,1.125-2.14,1.965-4.651,2.3-8.829,4.123-13.343,5.983-1.6.659-.957.311-1.052-1.474q-.536-10.124-.468-20.262c.006-.858-.4-1.491-.057-2.234s1.914-1.206,2.653-1.521c4.1-1.741,7.792-3.206,11.938-4.836,1.943-.763,2.166-1.153,2.188.9.043,4.025.515,18.06.28,21.481" transform="translate(-52.741 -130.061)" fill="#4bcdf8"/>
        <path id="Trazado_893411" data-name="Trazado 893411" d="M167.611,389.234a.243.243,0,0,1,.015.425,7.731,7.731,0,0,1-1.406.575c-4.556,1.914-10.116,4.495-14.448,6.087-1.408.662-.346.176-1.847-.348-3.782-1.322-7.569-2.63-11.341-3.983-.993-.356-2-.677-3-1.022a.75.75,0,0,1-.555-.418c1.167-.5,2.321-1.025,3.5-1.5,4.226-1.7,8.467-3.365,12.685-5.085a3.076,3.076,0,0,1,2.5-.009c3.962,1.563,5.306,1.9,11.981,4.448a8.4,8.4,0,0,1,1.922.827" transform="translate(-44.78 -127.246)" fill="#fff"/>
        <path id="Trazado_893412" data-name="Trazado 893412" d="M134.767,394.039c1.98.949,10.642,3.885,15.493,5.577.868.3.824-.1.865.874.122,2.92.219,5.842.336,8.763.178,4.471.146,8.945.2,13.418.012,1.1.287,1.605-.783,1.193-2.036-.785-4.645-1.869-6.666-2.692-2.868-1.168-5.713-2.391-8.591-3.534-.638-.253-.9-.308-.9-.952-.014-3.064-.022-6.424-.052-9.489-.031-3.2.036-12,.1-13.158" transform="translate(-44.656 -130.675)" fill="#ff5050"/>
        <path id="Trazado_893413" data-name="Trazado 893413" d="M176.106,416.879l-3.786-14.667-3.651,1.408-2.379,17.1,2.639-1.271.515-3.714,3.612-1.1,0,0,.82,3.12Zm-6.305-3.727.99-7.151,1.659,6.311Z" transform="translate(-55.146 -133.385)" fill="#fffffd"/>
        <path id="Trazado_893414" data-name="Trazado 893414" d="M182.97.011a64.588,64.588,0,0,1,10.794.936,47.6,47.6,0,0,1,14.113,4.764,37.965,37.965,0,0,1,11.644,9.176,21.312,21.312,0,0,1,4.8,9.661,19.474,19.474,0,0,1-.307,8.263,28.339,28.339,0,0,1-5.963,11.554,29.822,29.822,0,0,1-5.239,4.769,50.483,50.483,0,0,1-22.386,9.3,36.746,36.746,0,0,1-7.454.565c-.229-.008-.46.005-.688-.006a1.885,1.885,0,0,0-1.672.7,54.943,54.943,0,0,1-13.306,11.162,25.817,25.817,0,0,1-6.2,2.768c-.33.1-.711.343-1.034.022-.283-.281-.142-.621-.015-.927.557-1.341,1.225-2.644,1.724-4a31.5,31.5,0,0,0,1.98-7.744,18.4,18.4,0,0,0,.047-3.594c-.055-.567-.291-.891-1-1.11a35.84,35.84,0,0,1-12.12-6.093,25.657,25.657,0,0,1-4.335-4.534,32.6,32.6,0,0,1-4.163-6.868A24.258,24.258,0,0,1,140.68,33.1c-.988-6.057.791-11.557,4.353-16.764a32.442,32.442,0,0,1,11.332-9.709A57.291,57.291,0,0,1,174.66.427,45.122,45.122,0,0,1,182.97.011" transform="translate(-46.564 0)" fill="#ff5050"/>
        <path id="Trazado_893415" data-name="Trazado 893415" d="M210.836,44.592c-3.649-.012-7.3-.094-10.945-.142a3.745,3.745,0,0,1-1.136-.131,1.227,1.227,0,0,1-.908-1.3,1.183,1.183,0,0,1,.986-1.109,5.372,5.372,0,0,1,1.317-.144c6.268.127,12.539.1,18.805.3.947.029,1.895.024,2.842.055a6.926,6.926,0,0,1,1.2.127A1.172,1.172,0,0,1,224,43.348a1.243,1.243,0,0,1-.91,1.3,4.184,4.184,0,0,1-1.434.156q-4.988-.107-9.976-.211c-.282-.006-.564,0-.846,0" transform="translate(-65.611 -13.852)" fill="#fff"/>
        <path id="Trazado_893416" data-name="Trazado 893416" d="M184.413,32.583c-4.471.049-7.714.086-10.957.118-.4,0-.805-.009-1.208-.031a1.835,1.835,0,0,1-1.1-.437,1.108,1.108,0,0,1,.141-1.879,2.614,2.614,0,0,1,1.388-.332c1.793-.014,3.585-.043,5.378-.057,5.016-.042,10.032-.1,15.048-.073a7.37,7.37,0,0,1,1.025.053A1.306,1.306,0,1,1,194,32.552c-.221.014-.443.01-.665.009-3.385-.014-6.769-.013-8.926.023" transform="translate(-56.607 -9.91)" fill="#fff"/>
        <path id="Trazado_893417" data-name="Trazado 893417" d="M214.148,51l8.3.133a2.382,2.382,0,0,1,.833.111,1.337,1.337,0,0,1,.9,1.326,1.309,1.309,0,0,1-1.082,1.177,3.222,3.222,0,0,1-.781.065c-5.2-.12-10.4-.136-15.6-.133a12.788,12.788,0,0,1-1.568-.081,1.288,1.288,0,0,1-.051-2.57,6.975,6.975,0,0,1,.845-.027c2.682,0,5.362,0,8.213,0" transform="translate(-67.621 -16.912)" fill="#fff"/>
        <path id="Trazado_893418" data-name="Trazado 893418" d="M179.559,49.4q3.743.178,7.484.355a2.012,2.012,0,0,1,.7.152,1.309,1.309,0,0,1,.773,1.5,1.212,1.212,0,0,1-1.263.955c-1.633.02-3.261-.072-4.891-.156-1.91-.1-3.824-.133-5.733-.241-1.528-.086-3.061-.051-4.586-.207a2.675,2.675,0,0,1-1.033-.3,1.135,1.135,0,0,1-.635-1.055c0-.464.328-.7.694-.875a3.06,3.06,0,0,1,1.355-.233c1.914-.012,3.828-.008,5.741.065.463.018.926,0,1.39,0V49.4" transform="translate(-56.503 -16.345)" fill="#fff"/>
        <path id="Trazado_893419" data-name="Trazado 893419" d="M174.561,40.134c2.352.075,4.082.126,5.812.187a3,3,0,0,1,1.124.181,1.263,1.263,0,0,1,.819,1.3,1.2,1.2,0,0,1-1.007,1.087,5.994,5.994,0,0,1-1.139.086c-1.871-.044-3.743-.1-5.615-.137-1.429-.025-2.859-.019-4.288-.026a4.209,4.209,0,0,1-1.526-.291,1.243,1.243,0,0,1-.177-1.992,2.6,2.6,0,0,1,1.424-.4c1.732.005,3.463,0,4.573,0" transform="translate(-55.763 -13.309)" fill="#fff"/>
        <path id="Trazado_893420" data-name="Trazado 893420" d="M191.81,58.183c2.164.059,3.734.1,5.3.146a3.374,3.374,0,0,1,1.24.217,1.017,1.017,0,0,1,.757.953,1.13,1.13,0,0,1-.83,1.1,4.572,4.572,0,0,1-1.31.168c-.725.025-1.448-.035-2.172-.062q-2.595-.1-5.191-.145c-.726-.014-1.446-.068-2.168-.134a1.46,1.46,0,0,1-.731-.249,1.048,1.048,0,0,1-.469-1.07,1.012,1.012,0,0,1,.739-.842,2.1,2.1,0,0,1,.715-.08c1.57,0,3.14,0,4.115,0" transform="translate(-61.758 -19.295)" fill="#fff"/>
        <path id="Trazado_893421" data-name="Trazado 893421" d="M218.024,32.117c-1.334.021-2.56-.049-3.786-.1a7.1,7.1,0,0,1-1.078-.117,1.126,1.126,0,0,1-1.013-1.073,1.146,1.146,0,0,1,.908-1.22,2.557,2.557,0,0,1,.71-.12c2.656-.006,5.313,0,7.964.2a1.74,1.74,0,0,1,1.345.674.915.915,0,0,1-.314,1.444,2.066,2.066,0,0,1-.982.251c-1.287.034-2.573.12-3.756.059" transform="translate(-70.354 -9.78)" fill="#fff"/>
        <path id="Trazado_893422" data-name="Trazado 893422" d="M229.69,181.492a68.065,68.065,0,0,1-14.03-.776,43.2,43.2,0,0,1-16.325-6.2,19.657,19.657,0,0,1-7.087-7.355,17.385,17.385,0,0,1-1.831-6.971,13.446,13.446,0,0,1,2.086-7.612,25.852,25.852,0,0,1,13.043-11.434,54.124,54.124,0,0,1,13.772-3.438,44.789,44.789,0,0,1,13.245.454,28.874,28.874,0,0,1,10.946,4.465,20.052,20.052,0,0,1,6.8,8.226,18.31,18.31,0,0,1,1.826,7.441,40.978,40.978,0,0,1-.983,9.6,2.507,2.507,0,0,0,.758,2.447,11.9,11.9,0,0,0,2.158,1.612c1.114.68,2.284,1.253,3.456,1.823a4.964,4.964,0,0,1,.66.342c.431.3.459.658.043.98a6.171,6.171,0,0,1-1.041.61,41.9,41.9,0,0,1-9.476,3.267,113.832,113.832,0,0,1-13.776,2.2c-1.481.147-2.97.225-4.245.319" transform="translate(-63.141 -45.567)" fill="#fff"/>
        <path id="Trazado_893423" data-name="Trazado 893423" d="M234.657,171.388a1.97,1.97,0,0,0-.263-.985,8.111,8.111,0,0,1-.392-4.659,6.359,6.359,0,0,1,2.748-4.017,4.478,4.478,0,0,1,5.219-.135,4.72,4.72,0,0,1,2.1,4.883,9.768,9.768,0,0,1-4.565,6.407c-.2.133-.421.243-.628.361.024.281.249.363.409.488a11.246,11.246,0,0,0,5.785,2.472,5.441,5.441,0,0,0,2.652-.322c.076-.03.156-.049.233-.074.685-.221,1.125-.124,1.378.306.235.4.132.835-.311,1.328a2.286,2.286,0,0,1-1.094.683,7.851,7.851,0,0,1-3.156.272,13.615,13.615,0,0,1-8.094-4.078,1.869,1.869,0,0,0-1.267-.6A10.168,10.168,0,0,1,230,171.426c-.323-.249-.638-.506-.936-.743-.218.064-.287.219-.378.352a11.778,11.778,0,0,1-11.271,4.578,7.766,7.766,0,0,1-5.662-4.389,8.969,8.969,0,0,1-1.027-5.848c.044-.269.049-.546.114-.809.08-.321-.041-.449-.348-.495a6.318,6.318,0,0,1-2.079-.706,4.346,4.346,0,0,1-2.228-4.976,3.948,3.948,0,0,1,1.569-2.319,6.024,6.024,0,0,1,1.677-.836,1.062,1.062,0,0,1,1.388.525,1.081,1.081,0,0,1-.541,1.446,8.582,8.582,0,0,1-.884.424,2.131,2.131,0,0,0-.214,3.647,5.262,5.262,0,0,0,1.908.683c.4.067.581-.08.737-.443a15.456,15.456,0,0,1,6.239-7.057,12.772,12.772,0,0,1,7.3-2.032,4.77,4.77,0,0,1,2.481.721,4.433,4.433,0,0,1,1.849,4.867c-.118.559-.267,1.113-.405,1.668a.5.5,0,0,0,.226.627c1.969,1.214,2.178,3.043,1.762,5.086a13.55,13.55,0,0,1-.9,2.623.66.66,0,0,0,.063.817,8.776,8.776,0,0,0,4.229,2.553m-15.415,2.187c3.254-.109,5.992-1.211,7.844-4.058a.877.877,0,0,0,.03-1.093,6.533,6.533,0,0,1-.817-4.948c.1-.451.168-.909.236-1.366.084-.562.076-.557-.479-.718a3.267,3.267,0,0,0-.807-.106,6.347,6.347,0,0,0-2.463.511,45.594,45.594,0,0,1-9.147,2.375c-.349.052-.519.164-.6.522a7.81,7.81,0,0,0,.985,6.112,5.621,5.621,0,0,0,5.215,2.768m-5.148-11.7a11.556,11.556,0,0,0,2.109-.519c1.474-.479,2.934-1.013,4.424-1.437a12.661,12.661,0,0,1,6.1-.66c.2.041.387.039.447-.212a8.182,8.182,0,0,0,.436-2.4,2.077,2.077,0,0,0-1.6-1.935,5.255,5.255,0,0,0-2.107-.062,13.08,13.08,0,0,0-8.684,5.306,7.4,7.4,0,0,0-1.128,1.917m22.326,6.044a6.814,6.814,0,0,0,.465,2.821c.14.37.338.437.683.3a7.471,7.471,0,0,0,2.615-1.624,5.835,5.835,0,0,0,1.759-3.589,2.547,2.547,0,0,0-1.482-2.588,2.413,2.413,0,0,0-2.622.591,3.836,3.836,0,0,0-.735.971,6.231,6.231,0,0,0-.684,3.122m-7.757-3.989a2.032,2.032,0,0,0,.15,1.41,1.765,1.765,0,0,0-.15-1.41" transform="translate(-68.331 -50.547)" fill="#00a0df"/>
        <path id="Trazado_893424" data-name="Trazado 893424" d="M102.62,135.925c-1.337,1.448-5.681,2.9-6.461,2.785-17.571.386-24.426-4.795-25.4-10.332-1.032-5.877.263-22.09.334-21.806.223.892,2.07,2.2,4.679,5.932,13.618,16.124,24.506,7.827,24.619,7.714a44.072,44.072,0,0,0,2.562-5.459c.365.148.208,20.463-.334,21.165" transform="translate(-23.335 -35.341)" fill="#ea8238"/>
        <path id="Trazado_893425" data-name="Trazado 893425" d="M99.514,209.647c-.015.319-.032.478-.029.637a55.891,55.891,0,0,1-.721,9.353,79.593,79.593,0,0,0-.833,16.777,18.724,18.724,0,0,0,.634,3.657c.192.7.116.908-.549,1.11-5.271,1.6-10.416,3.6-15.735,5.04a17.547,17.547,0,0,1-10.863-.461c-2.359-.861-4.7-1.748-7.02-2.718-4.971-2.082-10.014-3.956-15.432-4.5a25,25,0,0,0-9.6.619,41.526,41.526,0,0,0-13.87,6.825,20.32,20.32,0,0,0-5.664,6.528c-.194.359-.325.879-.852.819-.559-.063-.648-.616-.732-1.044a25.885,25.885,0,0,1-.564-6.705c.134-2.055.542-4.072.761-6.11a60.3,60.3,0,0,0,.428-11.029q-.54-7.173-1.277-14.327c-.354-3.439-.985-6.841-1.627-10.237-.545-2.884-1.084-5.769-1.642-8.651-.7-3.586-1.375-7.174-2.123-10.749-.408-1.948-1.226-3.781-1.767-5.7a73.408,73.408,0,0,1-2.691-12.91,35.571,35.571,0,0,1,1.585-14.008,24.436,24.436,0,0,1,3.242-6.978,28.953,28.953,0,0,1,4.479-4.764,34.934,34.934,0,0,1,5.618-4.063c1.067-.629,2.1-1.323,3.161-1.954a.955.955,0,0,0,.453-.7,24.592,24.592,0,0,1,.987-3.071c.2-.516.47-1,.7-1.509a.705.705,0,0,1,1.017-.414c1.208.4,2.435.733,3.651,1.107,2.714.832,5.479,1.468,8.215,2.215,4.06,1.109,8.17,2,12.269,2.934a3.251,3.251,0,0,0,.769.135,3.206,3.206,0,0,1,2.593,1.422,22.184,22.184,0,0,0,6.885,5.555,17.668,17.668,0,0,0,9.966,1.831,16.918,16.918,0,0,0,2.941-.713,1.769,1.769,0,0,0,.863-.618,15.1,15.1,0,0,0,1.012-1.319A28.7,28.7,0,0,0,82.309,130.9a21.8,21.8,0,0,1,.642-2.557,3.892,3.892,0,0,1,1.69-1.964,1.375,1.375,0,0,1,1.046-.106,6.265,6.265,0,0,1,2.51,1.043,25.75,25.75,0,0,1,3.754,3.276,35.449,35.449,0,0,1,4.878,6.228c1.591,2.582,3.319,5.076,4.806,7.724a115.341,115.341,0,0,1,7.635,17.347,76.97,76.97,0,0,1,3.478,14.732,78.624,78.624,0,0,1,1.136,12.654,54.274,54.274,0,0,1-2.485,16.383,16.627,16.627,0,0,1-3.038,5.871,9.128,9.128,0,0,1-.651.729,3.624,3.624,0,0,1-4.747.458,9.609,9.609,0,0,1-1.873-1.563c-.465-.488-.973-.934-1.577-1.51" transform="translate(-2.52 -41.86)" fill="#4bcdf9"/>
        <path id="Trazado_893426" data-name="Trazado 893426" d="M16.453,139.347S3.184,143.519.11,160.067c-.709,6.855,1.655,25.057,17.6,46.419,14.815,20.961,19.7,18.44,19.7,18.44s11.978-.473,23.01-25.847c6.462-20.173-1.418-26.162-1.418-26.162s-.315,19.07-4.57,16.706c-8.984-2.049-10.6-9-6.34-19.212-11.028,12.031-9.735,16.06-9.735,16.06L33.631,173.39Z" transform="translate(0 -46.211)" fill="#00a0df"/>
        <path id="Trazado_893427" data-name="Trazado 893427" d="M22.889,292.7c3.152-7.565,25.847-12.293,25.847-12.293s13.238-2.521,22.064,2.68a27.136,27.136,0,0,0,13.869,5.989c5.832.788,17.494-5.516,17.966-3.625a25.911,25.911,0,0,1,.946,9.141L83.252,300.1s-23.238-12.4-36.476-10.822a30.915,30.915,0,0,0-23.886,16.338s-3.152-5.358,0-12.924" transform="translate(-7.126 -92.787)" fill="#00a0df"/>
        <path id="Trazado_893428" data-name="Trazado 893428" d="M132.555,178.418l-2.207,8.038s-1.1,6.3,4.729,20.961,11.5,14.184,11.5,14.184,10.4-1.418,8.669-30.1c-2.521-29.945-15.5-44.175-15.5-44.175s-1.8,3.5-1.671,6.015c.5,9.858,8.186,24.29,8.186,24.29s-.474,15.76-6.62,16.391-6.777-8.2-6.777-8.2Z" transform="translate(-43.199 -48.857)" fill="#00a0df"/>
        <path id="Trazado_893429" data-name="Trazado 893429" d="M91.929,103.641a8.768,8.768,0,0,0,6.267-1.126s4.636-3.258,5.431-8.48c2.283-7.185,3.467-10.777,3.926-22.058a57.392,57.392,0,0,0-2.618-17.712s-2.506-9.19-14.537-9.19C76.7,46.746,73.02,55.435,72.519,56.6c-1.5,2.172-2.061,12.922-2.061,12.922l.752,17.656A128.266,128.266,0,0,0,81.737,98.127c2.172,2.005,6.717,5,10.193,5.514" transform="translate(-23.366 -14.948)" fill="#ffb886"/>
        <path id="Trazado_893430" data-name="Trazado 893430" d="M101.506,124.226c.176,5.418.44,12.395,3.144,17.092a2.739,2.739,0,0,0,.964,1.1.835.835,0,0,1,.313.221c.038.054-1.091,3-1.168,3.332q-.681,2.935-1.378,5.868c-.954,4.01-1.749,8.057-2.6,12.091a13.551,13.551,0,0,1-2.3,4.856c-.364.53-.653.579-1.215.3a3.345,3.345,0,0,1-.841-.707c-1.177-1.174-2.142-2.526-3.2-3.8Q86.4,156.4,79.578,148.207a39.4,39.4,0,0,1-5.645-9.32c-1.157-2.6-1.466-2.727-2-5.527-.229-1.2.334-9.58.243-15.322,0-.311.011-.723.454-.785.366-.051,1.31-.436,1.474-.213,2.42,3.3,4.5,6.194,7.853,8.522a22.648,22.648,0,0,0,8.163,3.88,12.567,12.567,0,0,0,6.764-.538c1.448-.648,4.289-3.008,4.623-4.679" transform="translate(-23.836 -38.791)" fill="#00298f"/>
        <path id="Trazado_893431" data-name="Trazado 893431" d="M72.208,120.178c.214-.4-.114-4.272.167-3.927.045.056.675.918.7.986a22.707,22.707,0,0,0,3.238,3.675,57.171,57.171,0,0,0,5.147,4.351,2.606,2.606,0,0,1,.826,3.729c-.487.823-.885,2.051-1.337,2.9-.208.389-.735-.835-1.091-1.1a25.54,25.54,0,0,1-3.387-3.166,34.284,34.284,0,0,1-3.542-4.2c-.5-.7-.682-.779-.724-3.244" transform="translate(-23.946 -38.545)" fill="#001665"/>
        <path id="Trazado_893432" data-name="Trazado 893432" d="M103,174.2a3.615,3.615,0,0,1-1.538-.4,7.8,7.8,0,0,1-2.755-2,9.422,9.422,0,0,1-2.067-5.6.9.9,0,0,1,1.207-.889,2.9,2.9,0,0,1,1.587.943q.862,1.009,1.716,2.023c1.225,1.45,1.853,1.452,3.024-.018.344-.432.642-.9.968-1.345a1.923,1.923,0,0,1,2.591-.743,1.865,1.865,0,0,1,.7,2.512,12.885,12.885,0,0,1-2.69,4.4A4.024,4.024,0,0,1,103,174.2" transform="translate(-32.047 -54.809)" fill="#001665"/>
        <path id="Trazado_893433" data-name="Trazado 893433" d="M105.3,159.437a26.38,26.38,0,0,1-4.18-.41c-1.12-.229-1.293-.725-.6-1.6.78-.981,1.589-1.938,2.372-2.917a1.2,1.2,0,0,1,1.633-.448,2.538,2.538,0,0,0,1.416.157,13.537,13.537,0,0,1,4.175.331c.809.166,1.518.471,1.7,1.354a1.851,1.851,0,0,1-1.067,2.014,8.86,8.86,0,0,1-5.454,1.521" transform="translate(-33.198 -51.037)" fill="#001665"/>
        <path id="Trazado_893434" data-name="Trazado 893434" d="M114.6,141.025c-2.025,1.17-4.993,1.768-7.208,2.428.064-.795-2.4-1.017-2.16-1.521.216-.456.547-2.462,1.114-2.673s3.51.335,4.128.279c.511-.046,1.742-1.321,2.256-1.337.241-.007.465,1.559.638,1.718.349.324.708.637,1.232,1.106" transform="translate(-34.893 -45.831)" fill="#001665"/>
        <path id="Trazado_893435" data-name="Trazado 893435" d="M80.519,144.068c-.049.659-.094,1.319-.148,1.977a.5.5,0,0,1-.363.5.494.494,0,0,1-.575-.223,21.933,21.933,0,0,1-1.96-2.933,2.433,2.433,0,0,1-.262-1.5c.11-.533.535-.787.978-.5a9.713,9.713,0,0,1,2.192,1.838,1.067,1.067,0,0,1,.138.843" transform="translate(-25.594 -46.849)" fill="#001665"/>
        <path id="Trazado_893436" data-name="Trazado 893436" d="M75.583,371.894a23.666,23.666,0,0,1-4.6.093c-.1-.011-.2-.015-.3-.023-2.051-.145-2.588-1.326-2.27-3.021.391-2.082.792-4.162,1.162-6.247a33.877,33.877,0,0,0,.443-4.835c.035-1.09.1-1.235,1.17-1.5a12.1,12.1,0,0,1,1.756-.319c4.355-.43,8.649-1.255,12.966-1.936q3.926-.619,7.879-1.031c.9-.094,1.16.1,1.291,1.079a16.027,16.027,0,0,1-.253,6.214,19.173,19.173,0,0,1-1.555,5.006,7.371,7.371,0,0,1-2.709,2.835,24.111,24.111,0,0,1-8.136,2.759,63.844,63.844,0,0,1-6.846.929" transform="translate(-22.66 -117.082)" fill="#ffb886"/>
        <path id="Trazado_893437" data-name="Trazado 893437" d="M70.658,337.547c-.217-2.209-.148-4.428-.471-6.628a5.564,5.564,0,0,1,.075-1.6c.1-.727.065-.763-.631-.613-1.849.4-3.693.823-5.544,1.218a52.008,52.008,0,0,1-12.981,1.17,16.309,16.309,0,0,0-4.561.491A23.264,23.264,0,0,0,36.5,336.858a17.929,17.929,0,0,0-2.011,1.9,7.147,7.147,0,0,1-2.744,1.825,16.566,16.566,0,0,1-4.846,1.291,8.738,8.738,0,0,1-4.563-.933,26.751,26.751,0,0,1-9.264-7.119,23.216,23.216,0,0,1-5.1-10.935,34.676,34.676,0,0,1,.5-15.4,25.089,25.089,0,0,1,8.98-13.734A50.818,50.818,0,0,1,27.7,287.177a35.56,35.56,0,0,1,10.112-3.033c5.507-.787,10.725.326,15.838,2.224A76.994,76.994,0,0,1,66.172,292.4a87.744,87.744,0,0,0,8.558,4.654,2.467,2.467,0,0,0,1.833.1c1.648-.461,3.326-.828,5.009-1.138a74.25,74.25,0,0,0,8.375-2.242c4.162-1.282,8.319-2.58,12.539-3.663,5.291-1.357,10.614-2.588,15.915-3.907,4.92-1.224,9.839-2.464,14.71-3.867,4.117-1.186,8.25-2.317,12.37-3.492,3.841-1.1,7.7-2.146,11.59-3.071a21.079,21.079,0,0,1,11.2.642,20.138,20.138,0,0,1,7.97,4.251,16.409,16.409,0,0,1,3.279,3.935,27.659,27.659,0,0,1,2.574,5.167,19.071,19.071,0,0,1-.577,12.5,25.726,25.726,0,0,1-4.764,7.954,45.326,45.326,0,0,1-7.217,7.15c-1.936,1.466-3.946,2.821-6,4.118-5.6,3.53-11.786,5.753-17.891,8.178a136.653,136.653,0,0,1-17.414,5.612c-3.81.95-7.7,1.543-11.557,2.262-4.948.923-9.914,1.738-14.885,2.525-3.806.6-7.591,1.347-11.4,1.9a110.993,110.993,0,0,1-12,1.5c-2.248.08-4.5.1-6.749.122-.7.007-.788-.092-.859-.8-.067-.674-.095-1.354-.106-2.032-.017-1.071,0-2.141,0-3.212" transform="translate(-2.429 -91.294)" fill="#00298f"/>
        <path id="Trazado_893438" data-name="Trazado 893438" d="M106.14,333.859a4.353,4.353,0,0,1-.594-.063,1.141,1.141,0,0,1-.976-.845,1.053,1.053,0,0,1,.5-1.088,10.406,10.406,0,0,1,1.67-1.015c2.506-1.267,4.832-2.831,7.2-4.331,3.031-1.921,5.936-4.021,8.895-6.044.645-.44,1.269-.915,1.882-1.4.526-.416.507-.578-.128-.851-1.137-.489-2.28-.968-3.439-1.4a45.692,45.692,0,0,1-11.972-6.523c-.671-.517-1.357-1.015-2.035-1.523a1.712,1.712,0,0,1-.732-1.218c-.087-.785.06-1.044.836-1.285.715-.222,1.445-.4,2.157-.628a1.244,1.244,0,0,1,1.03.078,90.333,90.333,0,0,0,8.988,3.829c1.7.665,3.412,1.3,5.062,2.085a24.087,24.087,0,0,1,4.735,2.906c.339.271.6.332.928.017s.671-.619,1-.932q4.508-4.268,9.016-8.536c.593-.558,1.209-1.094,1.842-1.606a48.449,48.449,0,0,1,7.125-5.134,6.753,6.753,0,0,1,2.093-.793,3.269,3.269,0,0,1,1.644.091,1.692,1.692,0,0,1,1.231,1.988,8.538,8.538,0,0,1-1.8,4.256,56.434,56.434,0,0,1-12.993,12.33c-2.631,1.811-5.243,3.656-7.982,5.3-3.523,2.109-6.9,4.461-10.486,6.456a76.109,76.109,0,0,1-6.924,3.415c-1.257.54-2.483,1.148-3.79,1.572a19.99,19.99,0,0,1-3.987.9" transform="translate(-34.671 -98.657)" fill="#001665"/>
        <path id="Trazado_893439" data-name="Trazado 893439" d="M55.767,377.064a3.918,3.918,0,0,1-3.788-2.744,10.81,10.81,0,0,1-.186-6.625A25.946,25.946,0,0,1,54.324,362a14.707,14.707,0,0,1,6.04-5.536,6.538,6.538,0,0,1,5.488-.207c.979.378,1.179.84.852,1.831a34.156,34.156,0,0,0-1.493,9.221,11.085,11.085,0,0,0,.488,3.272,3.033,3.033,0,0,0,.858,1.394c.59.588.533.839-.247,1.193-.681.309-1.374.592-2.071.864-2.12.827-4.277,1.561-6.341,2.531a4.408,4.408,0,0,1-2.131.5" transform="translate(-17.031 -117.978)" fill="#001665"/>
        <path id="Trazado_893440" data-name="Trazado 893440" d="M47.376,132.282c-.411.215-.359.6-.472.9a9.589,9.589,0,0,1-1.224,2.558A3.962,3.962,0,0,1,41,137.286a3.355,3.355,0,0,0-1.174-.253,1.188,1.188,0,0,0,1.045.851,3.747,3.747,0,0,1,1.3.335c.36.223.384.476.037.7a2.252,2.252,0,0,1-1.188.322,4.874,4.874,0,0,1-4.645-3.546,22.693,22.693,0,0,1-.233-3.228c-.827,1.567-1.371,3.183-.6,4.92.39.877,1.365,1.088,2.169,1.467.12.056.282.023.407.072.352.139.375.4.138.633a1.892,1.892,0,0,1-1.531.5,3.782,3.782,0,0,1-2.524-1.283,6.018,6.018,0,0,1-1.611-3.017,1.944,1.944,0,0,0-1.655-1.582,4.163,4.163,0,0,0-.819-.135,6.027,6.027,0,0,1-4.33-2.141,18.787,18.787,0,0,1-2.162-3.544c-.582-1.008-1.5-1.778-2.184-2.748a10.211,10.211,0,0,1-2.093-4.715,11.808,11.808,0,0,0-1.466-4.971,8.289,8.289,0,0,1-1.476-3.824,42.751,42.751,0,0,1,.445-9.393c.668-3.023.89-3.994,1.226-5.9.467-2.65-.095-5.715-.557-8.355-.78-4.455.548-9.824,4.121-16.3a31.961,31.961,0,0,0,3.514-9.417c.491-3.369.46-7.742,1.212-11.077a21.844,21.844,0,0,1,4.7-9.631,25.47,25.47,0,0,1,5.386-5.261,29.27,29.27,0,0,1,10.523-7.876,31.478,31.478,0,0,1,13.574-2.176,10.743,10.743,0,0,0,3.49-.39A22.983,22.983,0,0,1,79.013,27.4c2.653,1.234,5.57,3.564,6.643,5.666a4.555,4.555,0,0,0,1.5,1.652,21.8,21.8,0,0,1,6.563,7.609c1.114,2.228,2.228,3.579,3.732,12.054a14.939,14.939,0,0,0,.763,2.679,16.614,16.614,0,0,1,2.2,13.117c-.3,1.349-.665,2.688-1.051,4.016a13.7,13.7,0,0,0,.674,9.78c.5,1.111.881,2.27,1.309,3.409a12.984,12.984,0,0,1,.275,8.056,23.485,23.485,0,0,0-.62,3.073,10.357,10.357,0,0,0,.273,4.207,19.207,19.207,0,0,1,.708,6.107,10.29,10.29,0,0,1-2.4,6.035c-.189.241-.39.475-.6.7a4.941,4.941,0,0,0-1.4,3.068,8.556,8.556,0,0,1-1.313,4.115,1.055,1.055,0,0,0,0,1.045,7.155,7.155,0,0,1,.307,3.785,6.942,6.942,0,0,1-1.693,2.974,1.208,1.208,0,0,1-.423.286c-.368.171-.606.017-.587-.39a4.452,4.452,0,0,1,.124-.591,1.6,1.6,0,0,0-.974-2,6.158,6.158,0,0,0-1.059-.422c-1.758-.533-3.549-1-4.721-2.624a4.528,4.528,0,0,0,1.057,3.735c.068.076.16.131.232.2.2.2.629.33.412.705-.233.405-.644.306-1.021.184a3.261,3.261,0,0,1-1.867-1.533,6.05,6.05,0,0,1-.863-3.888c.214-1.535.527-3.056.79-4.584a6.862,6.862,0,0,0-.606-4.043,2.991,2.991,0,0,0-.751-.958,5.476,5.476,0,0,1-1.732-4.974,22.109,22.109,0,0,1,.716-3.363,11.886,11.886,0,0,0,.227-7.156,24.647,24.647,0,0,1-.881-4.771A13.509,13.509,0,0,1,85.6,84.711a9.859,9.859,0,0,0,1.879-4.747,31.127,31.127,0,0,1,.761-3.973,18.038,18.038,0,0,0-.743-11.421,61.164,61.164,0,0,1-2.651-7c-.3-1.071-.147-2.186-.454-3.206a6.27,6.27,0,0,0-2.511-2.7c-1.846-1.277-4.143-2.992-6.345-3.486.338.076-.334-.027-.453.543C74.1,53.44,71.3,57.207,68.123,60.747A26.027,26.027,0,0,1,64.09,64.1a10.973,10.973,0,0,0-3.829,4.45,9.672,9.672,0,0,0-.767,4.949,15.9,15.9,0,0,1-.5,6.6,11.911,11.911,0,0,0,1,9.13,11.961,11.961,0,0,1,1.255,8.045,15.278,15.278,0,0,1-2.06,5.054,1.139,1.139,0,0,0-.068,1.3,11.874,11.874,0,0,1,1.293,6.569,23.647,23.647,0,0,1-1,5.87,10.209,10.209,0,0,0-.811,1.95c-.069.671.525,1.285.672,1.984a4.531,4.531,0,0,1,.072,1.808,16,16,0,0,1-1.3,4.563,1.843,1.843,0,0,0-.14,1.443,7.279,7.279,0,0,1-.4,5.328,14.644,14.644,0,0,1-.883,1.368c-.616.946-1.217,1.9-.789,3.108a.417.417,0,0,1-.132.544c-.258.13-.466-.049-.623-.238a2.487,2.487,0,0,1-.45-1.327,4.385,4.385,0,0,1,.189-1.906,3.139,3.139,0,0,0-1.6.821,15.6,15.6,0,0,0-2.249,2.776,4.307,4.307,0,0,0-.613,2.223c0,.233.078.509-.215.614a.6.6,0,0,1-.709-.3,3.945,3.945,0,0,1-.779-2.958,7.5,7.5,0,0,1,.881-2.367.627.627,0,0,0-.247-.995,8.093,8.093,0,0,1-1.911-2.22M97.693,114.53a.372.372,0,0,0,.414-.183,5.594,5.594,0,0,0,1.167-3.083c.186-1.617-.056-3.23-.015-4.845.005-.213.047-.487-.327-.6a5.157,5.157,0,0,0-.716,1.739c-.733,2.3-.164,4.665-.523,6.971m-8.037,6.062c-.035.459-.052.793-.088,1.126-.215,2,.9,3.274,2.557,4.139a11.716,11.716,0,0,1,2.433,1.378,1.469,1.469,0,0,0-.825-1.5,7.926,7.926,0,0,1-3.494-4.142,2.027,2.027,0,0,0-.583-1m-62.527,7.688a3.945,3.945,0,0,0,4.129,3.973c-1.617-1.177-3.206-2.253-4.129-3.973m22.8.318a5.851,5.851,0,0,0,1.048,4.612c.52-1.778-.239-3.2-1.048-4.612m4.556,4.15c1.835-1.783,1.664-3.363-.307-4.272a9.2,9.2,0,0,1,.307,4.272" transform="translate(-5.408 -8.471)" fill="#420d00"/>
        <path id="Trazado_893441" data-name="Trazado 893441" d="M105.6,118.183a4.6,4.6,0,0,1-3.7-2.4,12.592,12.592,0,0,0-.946-1.942.574.574,0,0,1,.123-.817,9.157,9.157,0,0,1,3.373-2.286,1.52,1.52,0,0,1,1.422.148.983.983,0,0,0,1.335-.031,1.374,1.374,0,0,1,1.7.055,6.846,6.846,0,0,1,2.034,2.564.507.507,0,0,1-.08.634c-.67.738-1.089,1.649-1.69,2.435a4.4,4.4,0,0,1-3.57,1.643m-1.517-4.265c1.74.624,3.175.475,4.146-.372a5.792,5.792,0,0,0-4.146.372" transform="translate(-33.44 -36.672)" fill="#ff5050"/>
        <path id="Trazado_893442" data-name="Trazado 893442" d="M116.794,132.272c-.723-.765-1.263-1.333-1.8-1.906a6.215,6.215,0,0,1-1.192-1.662,2.612,2.612,0,0,1-.254-1.576,1.329,1.329,0,0,1,1.756-1.1,5.191,5.191,0,0,1,1.458.7c.325.215.656.422.986.634.208-.3.051-.535-.031-.757a65.539,65.539,0,0,1-2.25-9.671c-.213-1.023-.408-2.05-.564-3.082a3.776,3.776,0,0,1,.093-2.027,1.1,1.1,0,0,1,1.891-.465,4.122,4.122,0,0,1,.9,1.338c1.591,3.079,2.788,6.331,4.124,9.52,1.115,2.661,2.342,5.266,3.57,7.872a194.278,194.278,0,0,1,8.028,18.537,146.351,146.351,0,0,0,6.839,16.691,4.7,4.7,0,0,1,.416,2.728,53.69,53.69,0,0,1-2.916,12.712A12.547,12.547,0,0,1,136.3,183.6a3.311,3.311,0,0,1-2.749,1.451,5.9,5.9,0,0,1-5.622-3.135,11.928,11.928,0,0,1-1.431-4.725c-.405-3.114-.367-6.259-.581-9.387-.019-.285.033-.575.043-.863a50.916,50.916,0,0,0-1.9-16.247,8.371,8.371,0,0,0-1.479-2.855,14.223,14.223,0,0,1-3.042-6.488,18.025,18.025,0,0,0-1.134-3.375,1.794,1.794,0,0,0-.83-.952q-1.5-.858-2.988-1.74a7.588,7.588,0,0,1-1.079-.712,1.547,1.547,0,0,1-.44-1.947,1.452,1.452,0,0,1,1.709-.813c.589.1,1.167.265,2.01.463" transform="translate(-37.441 -36.806)" fill="#f69f6f"/>
        <path id="Trazado_893443" data-name="Trazado 893443" d="M86.412,121.68a1.824,1.824,0,0,0,.612-1.109q.881-2.555,1.579-5.166a4.686,4.686,0,0,1,.847-1.854,1.168,1.168,0,0,1,1.194-.569,1.148,1.148,0,0,1,.856,1.011,9.135,9.135,0,0,1,.074,3.015,94.552,94.552,0,0,1-2.362,12.41c-.15.556-.311,1.109-.453,1.668-.061.242-.11.5.174.7.426-.174.584-.615.9-.895a6.919,6.919,0,0,1,1.289-.977c1.207-.655,2.2-.057,2.162,1.321a7.614,7.614,0,0,1-.382,1.9c-.278.962-.547,1.926-.831,2.924.431-.022.617-.319.887-.466a1.165,1.165,0,0,1,1.853.743,3.435,3.435,0,0,1,.023,1.819,20.074,20.074,0,0,1-2.913,6.819c-1.267,1.884-2.592,3.729-3.852,5.616a34.861,34.861,0,0,0-6.029,18.23,92.662,92.662,0,0,1-1.722,14.7,14.712,14.712,0,0,1-.634,2.176c-.587,1.576-1.616,2.023-3.149,1.357a14.945,14.945,0,0,1-4.705-3.4,31.952,31.952,0,0,1-5.162-7.041,5.177,5.177,0,0,1-.444-4.073,12.263,12.263,0,0,1,.822-2.226c2.016-3.952,3.566-8.112,5.432-12.132a34.378,34.378,0,0,0,2.7-10.741,45.863,45.863,0,0,1,1.525-8.5,43.509,43.509,0,0,1,2.193-5.171,32.272,32.272,0,0,0,2.338-7.172,29.944,29.944,0,0,1,2.924-7.993,6.955,6.955,0,0,1,.926-1.456,1.067,1.067,0,0,1,1.944.721,4.429,4.429,0,0,1-.106.853c-.16.952-.327,1.9-.509,2.959" transform="translate(-21.885 -37.459)" fill="#f69f6f"/>
        <path id="Trazado_893444" data-name="Trazado 893444" d="M314.661,201.662c.449-.537,1.242-1.781,1.535-2.208a85.137,85.137,0,0,0,6.368-11.034,36.079,36.079,0,0,0,1.971-4.654c.334-1,.889,0,1.854.483,2.833,1.409,4.374,2.535,5.576,5.478a2.1,2.1,0,0,1-.67,2.876c-1.5,1.3-2.95,2.656-4.526,3.873a28.162,28.162,0,0,1-10.284,5.129,11.746,11.746,0,0,1-1.218.2.634.634,0,0,1-.606-.14" transform="translate(-104.351 -60.801)" fill="#ea8238"/>
        <path id="Trazado_893445" data-name="Trazado 893445" d="M318.837,204.527a74.227,74.227,0,0,0,13.7-10.328,22.593,22.593,0,0,1,1.587,7.77c-.068.879-.671,5.009-.919,5.848-.108.368-1.245,7.343-1.671,7.686-1.023.825-4.269.785-5.491,1.31-.328.141-1.692.334-1.71-.142a17.028,17.028,0,0,0-.407-2.832,16.42,16.42,0,0,0-5.088-9.312" transform="translate(-105.736 -64.402)" fill="#f69f6f"/>
        <path id="Trazado_893446" data-name="Trazado 893446" d="M380.5,277.037c.074,7.307-.628,14.623-1.192,21.947-.213,2.765-.326,5.539-.729,8.286a115.017,115.017,0,0,1-4.1,19.2,23.078,23.078,0,0,1-3.443,6.7,4.353,4.353,0,0,1-2.418,1.678,52.928,52.928,0,0,1-13.43,1.923c-2.125.034-4.25.1-6.372-.057a34.8,34.8,0,0,1-12.382-3.553,59.312,59.312,0,0,1-9.981-6.209c-1.327-.992-2.646-1.994-3.977-2.979a17.857,17.857,0,0,1-3.157-2.932,7.014,7.014,0,0,1-1.43-2.631,115.784,115.784,0,0,1-3.186-14.877c-.256-1.815-.3-3.659-.444-5.49-.287-3.625-.788-7.232-.786-10.88a44.048,44.048,0,0,1,1.823-13.868,117.47,117.47,0,0,0,3.307-12.857,41.313,41.313,0,0,0,1.17-11.463,19.176,19.176,0,0,0-1.66-6.005,3.6,3.6,0,0,0-.91-1.194,35.317,35.317,0,0,0-6.176-4.522A13.319,13.319,0,0,0,306.8,235.4c-.831-.169-1.022-.513-.847-1.443a9.59,9.59,0,0,1,2.427-4.982,22.347,22.347,0,0,1,6.223-4.419,10.677,10.677,0,0,1,2.19-.912,6.327,6.327,0,0,0,3.389-2.534c.522-.66.5-.666,1.321-.414.928.286,1.86.561,2.792.835a3.97,3.97,0,0,0,1.606.109,63.412,63.412,0,0,0,12.936-2.88,92.5,92.5,0,0,0,12.3-5.513,5.528,5.528,0,0,1,5.372.033,26.121,26.121,0,0,1,9.736,8.206,62.586,62.586,0,0,1,8.093,15.691c1.26,3.756,2.554,7.5,3.435,11.365a65.593,65.593,0,0,1,1.453,9.056c.176,2.08.471,4.15.694,6.227a104.029,104.029,0,0,1,.572,13.211" transform="translate(-101.444 -70.493)" fill="#ff5050"/>
        <path id="Trazado_893447" data-name="Trazado 893447" d="M307.622,185.233a7.324,7.324,0,0,1-3.342-2.451c-3.046-4.035-3.977-9.5-4.618-14.371a49.16,49.16,0,0,1,.513-13.494,58.061,58.061,0,0,1,2.549-10.469,24.215,24.215,0,0,1,1.857-4.034c4.044-6.2,7.508-9.2,7.72-9.318.228-.13,1.928-1.677,2.117-1.448.152.184-3.37,4.122-5.291,10.555-.356,1.7-2.74,7.136-.668,13.284.9,2.8,1.856,3.893,3.581,6.213.834,1.122,3.492,3.367,7.343,6.452a2.4,2.4,0,0,1-.286,2.929c-.481.656-2.543,4-2.964,4.7-.236.391-4.083,7.162-5.517,8.883-.614.737-1.793,2.528-2.994,2.571" transform="translate(-99.285 -42.987)" fill="#ffb886"/>
        <path id="Trazado_893448" data-name="Trazado 893448" d="M236.982,397.551a58.467,58.467,0,0,1-15.652-2.09,14,14,0,0,1-6.6-4.461,17.084,17.084,0,0,1-3.236-13.709,4.056,4.056,0,0,1,2.747-2.97,6.486,6.486,0,0,1,3.768-.218,20.8,20.8,0,0,1,8.84,3.989,87.259,87.259,0,0,0,11.822,7.324c2.734,1.5,5.449,3.036,8.292,4.322a49.576,49.576,0,0,1,6.6,3.411c.118.077.251.132.376.2a.926.926,0,0,1,.571.936c-.035.417-.362.571-.7.71a25.746,25.746,0,0,1-5.1,1.462,66.011,66.011,0,0,1-11.733,1.1" transform="translate(-70.02 -124.005)" fill="#420d00"/>
        <path id="Trazado_893449" data-name="Trazado 893449" d="M268.689,348.947a7.484,7.484,0,0,1-1.162-3.762,29.235,29.235,0,0,1-.19-5.6,11.58,11.58,0,0,1,8.315-9.905,15.183,15.183,0,0,1,6.328-.049c.5.076.988.219,1.487.269.541.055,2.391-.019,2.4.513.015,1.044.585,15.874,3.509,23.142.026.067,2.673,7.018,7.692,10.731a64.788,64.788,0,0,0,11.189,6.727,31.873,31.873,0,0,0,11.937,3.149,67.081,67.081,0,0,0,13.262-.52,38.636,38.636,0,0,0,6.724-1.576c.36-.124.815-.388,1.1-.034.273.338-.019.758-.209,1.1a19.571,19.571,0,0,1-4.532,5.179,42.894,42.894,0,0,1-9.689,6.051,36.721,36.721,0,0,1-6.258,2.041,77.1,77.1,0,0,1-15.258,2.3,66.316,66.316,0,0,1-10.363-.386,94.138,94.138,0,0,1-14.49-2.39c-4.121-1.034-8.188-2.282-12.277-3.44-1.8-.509-3.592-1.058-5.4-1.535a36.679,36.679,0,0,1-6.855-2.582c-4.072-2-8.2-3.889-12.213-6.011-3.53-1.869-6.93-3.986-10.377-6.012a10.78,10.78,0,0,1-1.576-1.136q-2.9-2.508-5.769-5.062a16.926,16.926,0,0,1-3.587-4.835,6.065,6.065,0,0,1,.307-6.268,15.833,15.833,0,0,1,6.086-5.686,18.769,18.769,0,0,1,9.011-2.318,44.759,44.759,0,0,1,13.324,1.871,165.157,165.157,0,0,1,16.4,5.769,1.938,1.938,0,0,0,1.138.27" transform="translate(-73.519 -109.21)" fill="#00a0df"/>
        <path id="Trazado_893450" data-name="Trazado 893450" d="M317.754,371.183c-.7-.352-2.454-1.267-3.043-1.588a169.527,169.527,0,0,0-18.992-8.968c-1.444-.569-2.276-1.307-2.694-1.307-1.838-1.086-2.29-2.087-2.339-3.175-.027-.6-.19-1.273.315-1.089a16.685,16.685,0,0,0,5.681.706,30.269,30.269,0,0,1,13.141,3.324c.1.049.2.113.3.162A3.69,3.69,0,0,1,312.3,361.8c.721,2.9,2.014,4.507,3.786,6.878a15.937,15.937,0,0,1,1.671,2.506" transform="translate(-96.384 -117.736)" fill="#006eac"/>
        <path id="Trazado_893451" data-name="Trazado 893451" d="M280.887,278.386a63.659,63.659,0,0,1,1.088-13.688,2.453,2.453,0,0,1,1.723-2.153,34.858,34.858,0,0,1,4.52-1.33.893.893,0,0,0,.829-.928,44.985,44.985,0,0,1,4.836-15.524,24.88,24.88,0,0,1,3.151-4.481,6.518,6.518,0,0,1,2.417-1.679,3.012,3.012,0,0,1,2.348.092,10.443,10.443,0,0,1,4.705,3.818,14.631,14.631,0,0,1,1.918,3.444,68.723,68.723,0,0,1,3.52,10.607,66.851,66.851,0,0,1,1.357,9.443,56.16,56.16,0,0,1-.216,6.47,71.586,71.586,0,0,1-1.463,11.861,20.989,20.989,0,0,1-1.35,4.282,9.029,9.029,0,0,1-4.905,4.778c-3.691,1.505-7.321,3.161-11.048,4.582a20.278,20.278,0,0,1-4.452,1.162,7.725,7.725,0,0,1-2.3.019,3.959,3.959,0,0,1-3.216-2.5,42.151,42.151,0,0,1-3.271-13.708,45.612,45.612,0,0,1-.193-4.57" transform="translate(-93.136 -79.061)" fill="#fff"/>
        <path id="Trazado_893452" data-name="Trazado 893452" d="M298.482,211.373c.935-.755,2-1.323,2.342-2.649a5.669,5.669,0,0,1,1.211-2.1,1.015,1.015,0,0,1,1.057-.432,7.351,7.351,0,0,0,1.115.054c.578.02.754.154.664.736a54.683,54.683,0,0,1-1.188,7.218,28.2,28.2,0,0,1-2.6,5.947,64.674,64.674,0,0,0-3.132,6.395,6.349,6.349,0,0,1-.67,1.254,38.016,38.016,0,0,0-6.273,14.132,30.064,30.064,0,0,0-.771,4.611.588.588,0,0,1-.508.634,25.065,25.065,0,0,0-3.925,1.065c-.3-.17-.275-.349-.232-.507,1.081-3.941,1.285-8.041,2.159-12.013a72.269,72.269,0,0,0,1.052-10.514c.205-2.877.221-5.767.539-8.636.329-2.971.948-5.893,1.567-8.814.548-2.587,1.114-5.171,1.647-7.761.116-.562.12-1.146.191-1.718a3.9,3.9,0,0,1,1.751-2.1c.268-.07,1.214-.454,1.368-.247a4.641,4.641,0,0,1,.334,1.42c.2,1.443-.418,1.253.716,3.922a11.849,11.849,0,0,1,.908,3.111,44.816,44.816,0,0,1,.467,5.983c.01.319-.1.676.209,1.015" transform="translate(-94.697 -64.953)" fill="#f69f6f"/>
        <path id="Trazado_893453" data-name="Trazado 893453" d="M320.455,184.043a12.773,12.773,0,0,1-.509,3.532,4.314,4.314,0,0,1-1.633,2.286,2.386,2.386,0,0,1-2.03.425.922.922,0,0,1-.768-.805.787.787,0,0,1,.606-.91c1.462-.325,1.908-1.437,2.147-2.7a13.687,13.687,0,0,0,.046-4.74,4.28,4.28,0,0,0-.49-1.462c-.51-.885-.97-.989-1.806-.42-.1.066-.182.152-.279.221a.338.338,0,0,1-.433.023.446.446,0,0,1-.127-.436,2,2,0,0,1,2.458-1.485A2.782,2.782,0,0,1,319,178.5a4.64,4.64,0,0,1,.871,1.68,14.936,14.936,0,0,1,.588,3.865" transform="translate(-104.52 -58.866)" fill="#ea8238"/>
        <path id="Trazado_893454" data-name="Trazado 893454" d="M316.428,189.919a22.878,22.878,0,0,0,.222-4.121.335.335,0,0,1,.237-.368c.163-.033.285.076.374.223a3.183,3.183,0,0,1,.4,1.23,3.709,3.709,0,0,1-1.23,3.035" transform="translate(-104.937 -61.492)" fill="#ea8238"/>
        <path id="Trazado_893455" data-name="Trazado 893455" d="M312.756,195.459a39.279,39.279,0,0,0,2.686-16.048q-.357.347-.714.7a4.315,4.315,0,0,1-1.176.9.621.621,0,0,1-.98-.534,2.729,2.729,0,0,1,.178-1.01,57.788,57.788,0,0,0,1.828-9.087,18.2,18.2,0,0,0-.043-5.435,9.814,9.814,0,0,0-1.89-3.889,3.213,3.213,0,0,0-1.023-.906,9.377,9.377,0,0,0-1.029-.563,11.83,11.83,0,0,1-6.227-5.743c-.078-.154-.193-.293-.257-.452a.95.95,0,0,0-1.178-.616,14.573,14.573,0,0,1-3.129.033c-1.478-.12-1.835-.423-1.952-1.816-.141-1.68.906-7.362,2.467-11.581a25.683,25.683,0,0,1,17.943-14.539,28.038,28.038,0,0,1,19.874,2.5c6.167,3.195,10.582,8.905,13.019,14.062A54.553,54.553,0,0,1,355.6,163c-.538,13.372-2.039,19.589-2.371,21.239a1.764,1.764,0,0,1-.672,1.018,8.886,8.886,0,0,1-3.881,3.447,3.077,3.077,0,0,0-1.426.866,8.714,8.714,0,0,1-4.212,2.393,19.146,19.146,0,0,1-1.992.463,3.982,3.982,0,0,0-2.744,1.2,2.249,2.249,0,0,1-1.259.553,16.488,16.488,0,0,1-6.43.3,1.747,1.747,0,0,0-1.049.065,7.81,7.81,0,0,1-5.165.36c-.452-.112-.916-.184-1.368-.3a3.269,3.269,0,0,0-1.99.065,5.174,5.174,0,0,1-3.189-.1,2.888,2.888,0,0,0-2.283.177,10.829,10.829,0,0,1-1.708.635,1.4,1.4,0,0,1-1.107.072" transform="translate(-98.771 -41.144)" fill="#823000"/>
      </g>
    </g>
  </g>
</svg>
