<svg xmlns="http://www.w3.org/2000/svg" xmlns:xlink="http://www.w3.org/1999/xlink" width="53" height="64" viewBox="0 0 53 64">
  <defs>
    <clipPath id="clip-path">
      <rect id="Rectángulo_402682" data-name="Rectángulo 402682" width="36.286" height="18.135" fill="none"/>
    </clipPath>
  </defs>
  <g id="Grupo_1103307" data-name="Grupo 1103307" transform="translate(-266.051 -4019)">
    <g id="Grupo_1099616" data-name="Grupo 1099616" transform="translate(-18.68 -2154)">
      <path id="Rectángulo_401441" data-name="Rectángulo 401441" d="M24.5,0h0A24.5,24.5,0,0,1,49,24.5V59a0,0,0,0,1,0,0H0a0,0,0,0,1,0,0V24.5A24.5,24.5,0,0,1,24.5,0Z" transform="translate(288.73 6173)" fill="#824ffb"/>
      <path id="Rectángulo_401440" data-name="Rectángulo 401440" d="M24.5,0h0A24.5,24.5,0,0,1,49,24.5V56a0,0,0,0,1,0,0H0a0,0,0,0,1,0,0V24.5A24.5,24.5,0,0,1,24.5,0Z" transform="translate(284.73 6175)" fill="#ffcef7"/>
      <path id="Rectángulo_401442" data-name="Rectángulo 401442" d="M0,0H53a0,0,0,0,1,0,0V1a5,5,0,0,1-5,5H5A5,5,0,0,1,0,1V0A0,0,0,0,1,0,0Z" transform="translate(284.73 6231)" fill="#7dc8ff"/>
    </g>
    <g id="Grupo_1103253" data-name="Grupo 1103253" transform="translate(272.639 4044.682)">
      <g id="Grupo_1103252" data-name="Grupo 1103252" transform="translate(0 0)" clip-path="url(#clip-path)">
        <path id="Trazado_895508" data-name="Trazado 895508" d="M18.051,18.135A25.73,25.73,0,0,1,1.418,11.916,3.6,3.6,0,0,1,1.4,6.2a25.693,25.693,0,0,1,33.5.009,3.6,3.6,0,0,1-.041,5.714,25.748,25.748,0,0,1-16.8,6.208M24.94,9.06a6.8,6.8,0,1,0-6.8,6.794,6.817,6.817,0,0,0,6.8-6.794m.338-5.674c2.558,3.828,2.562,7.519.032,11.289.258-.072.414-.1.562-.157a23.419,23.419,0,0,0,7.442-4.26A1.382,1.382,0,0,0,33.3,7.839a22.678,22.678,0,0,0-6.2-3.766c-.556-.225-1.123-.425-1.824-.688m-14.3.043c-.261.079-.413.12-.56.171A23.043,23.043,0,0,0,2.974,7.85c-.95.809-.98,1.654.018,2.4a38.256,38.256,0,0,0,3.9,2.667c1.247.716,2.615,1.221,3.93,1.82C8.45,10.9,8.441,7.206,10.983,3.428" transform="translate(0 0)" fill="#12263f"/>
        <path id="Trazado_895509" data-name="Trazado 895509" d="M76.407,32.966A4.532,4.532,0,1,1,81,28.478a4.547,4.547,0,0,1-4.593,4.488m-2.2-4.526a2.264,2.264,0,1,0,2.239-2.271,2.283,2.283,0,0,0-2.239,2.271" transform="translate(-58.327 -19.38)" fill="#12263f"/>
      </g>
    </g>
  </g>
</svg>
