<svg xmlns="http://www.w3.org/2000/svg" xmlns:xlink="http://www.w3.org/1999/xlink" width="53" height="64" viewBox="0 0 53 64">
  <defs>
    <clipPath id="clip-path">
      <rect id="Rectángulo_402683" data-name="Rectángulo 402683" width="8.373" height="37.658" fill="none"/>
    </clipPath>
  </defs>
  <g id="Grupo_1103308" data-name="Grupo 1103308" transform="translate(-266.051 -4187)">
    <g id="Grupo_1101601" data-name="Grupo 1101601" transform="translate(-18.68 -1986)">
      <path id="Rectángulo_401441" data-name="Rectángulo 401441" d="M24.5,0h0A24.5,24.5,0,0,1,49,24.5V59a0,0,0,0,1,0,0H0a0,0,0,0,1,0,0V24.5A24.5,24.5,0,0,1,24.5,0Z" transform="translate(288.73 6173)" fill="#824ffb"/>
      <path id="Rectángulo_401440" data-name="Rectángulo 401440" d="M24.5,0h0A24.5,24.5,0,0,1,49,24.5V56a0,0,0,0,1,0,0H0a0,0,0,0,1,0,0V24.5A24.5,24.5,0,0,1,24.5,0Z" transform="translate(284.73 6175)" fill="#ffcef7"/>
      <path id="Rectángulo_401442" data-name="Rectángulo 401442" d="M0,0H53a0,0,0,0,1,0,0V1a5,5,0,0,1-5,5H5A5,5,0,0,1,0,1V0A0,0,0,0,1,0,0Z" transform="translate(284.73 6231)" fill="#7dc8ff"/>
    </g>
    <g id="Grupo_1103255" data-name="Grupo 1103255" transform="matrix(0.966, 0.259, -0.259, 0.966, 290.747, 4199.729)">
      <g id="Grupo_1103254" data-name="Grupo 1103254" clip-path="url(#clip-path)">
        <path id="Trazado_895510" data-name="Trazado 895510" d="M8.371,16.076c0,3.921,0,7.842-.008,11.763a3.215,3.215,0,0,1-.178,1.081c-.955,2.591-1.939,5.171-2.9,7.76-.2.525-.449.965-1.073.978-.661.015-.926-.442-1.13-.99-.962-2.589-1.945-5.17-2.9-7.76A3,3,0,0,1,.008,27.89Q-.006,16.128,0,4.365a4.187,4.187,0,1,1,8.366.013q.01,5.849,0,11.7M6.233,11.561H2.128V27.174H6.233Zm.041-5.315c0-.773.025-1.471-.006-2.166A2.1,2.1,0,0,0,4.36,2.1a2.01,2.01,0,0,0-2.2,1.637,18.177,18.177,0,0,0-.023,2.511ZM4.187,33.632,5.8,29.318H2.57l1.618,4.314M6.268,8.418H2.141v.946H6.268Z" transform="translate(0 0)" fill="#12263f"/>
      </g>
    </g>
  </g>
</svg>
