<svg xmlns="http://www.w3.org/2000/svg" xmlns:xlink="http://www.w3.org/1999/xlink" width="53" height="64" viewBox="0 0 53 64">
  <defs>
    <clipPath id="clip-path">
      <rect id="Rectángulo_402691" data-name="Rectángulo 402691" width="44.046" height="44.021" fill="none"/>
    </clipPath>
  </defs>
  <g id="Grupo_1103310" data-name="Grupo 1103310" transform="translate(-837.051 -4091.372)">
    <g id="Grupo_1099615" data-name="Grupo 1099615" transform="translate(552.32 -2081.628)">
      <path id="Rectángulo_401441" data-name="Rectángulo 401441" d="M24.5,0h0A24.5,24.5,0,0,1,49,24.5V59a0,0,0,0,1,0,0H0a0,0,0,0,1,0,0V24.5A24.5,24.5,0,0,1,24.5,0Z" transform="translate(288.73 6173)" fill="#824ffb"/>
      <path id="Rectángulo_401440" data-name="Rectángulo 401440" d="M24.5,0h0A24.5,24.5,0,0,1,49,24.5V56a0,0,0,0,1,0,0H0a0,0,0,0,1,0,0V24.5A24.5,24.5,0,0,1,24.5,0Z" transform="translate(284.73 6175)" fill="#ffcef7"/>
      <path id="Rectángulo_401442" data-name="Rectángulo 401442" d="M0,0H53a0,0,0,0,1,0,0V1a5,5,0,0,1-5,5H5A5,5,0,0,1,0,1V0A0,0,0,0,1,0,0Z" transform="translate(284.73 6231)" fill="#7dc8ff"/>
    </g>
    <g id="Grupo_1103259" data-name="Grupo 1103259" transform="translate(840.867 4105.404)">
      <g id="Grupo_1103258" data-name="Grupo 1103258" clip-path="url(#clip-path)">
        <path id="Trazado_895512" data-name="Trazado 895512" d="M38.312,14.845l-6.272-.72c-.108.836-.151,1.666-.33,2.466a12.03,12.03,0,0,1-7.715,8.989,1.092,1.092,0,0,0-.531.458A13.205,13.205,0,0,1,16,32.623a.5.5,0,0,0-.377.578q.012,5.15.005,10.3v.519H0v-.464Q0,35.1,0,26.641a8.156,8.156,0,0,1,5.365-7.86A.427.427,0,0,0,5.69,18.3c-.008-.743.01-.764-.7-1.005a7.212,7.212,0,0,1-3.674-2.432,6.149,6.149,0,0,1-1.3-3.791,22.1,22.1,0,0,1,.18-3.667A5.955,5.955,0,0,1,3.48,3.127a1.8,1.8,0,0,0,.562-.47A6.41,6.41,0,0,1,9.4.006c1.184,0,2.368-.02,3.551.009a4.972,4.972,0,0,1,4.809,4.859A2.135,2.135,0,0,1,15.573,7.11c-.2,0-.408,0-.63,0v.622L38.3,5.062c.271-1.19.669-1.5,1.882-1.5.784,0,1.569,0,2.353,0a1.413,1.413,0,0,1,1.5,1.5q.008,4.884,0,9.767A1.423,1.423,0,0,1,42.5,16.346c-.784,0-1.569,0-2.353,0-1.168,0-1.6-.348-1.84-1.5M5.647,15.971a2.316,2.316,0,0,0-.653-2.212,2.689,2.689,0,0,1,.429-4.083.693.693,0,0,0,.251-.453A3.564,3.564,0,0,1,9.357,5.691c1.983-.006,3.966,0,5.949,0,.868,0,1.14-.323,1-1.186a3.551,3.551,0,0,0-3.567-3.075c-1.006-.008-2.014.029-3.019-.008A5.216,5.216,0,0,0,4.952,3.805a1.589,1.589,0,0,1-.6.48A4.74,4.74,0,0,0,1.5,8.042a20.759,20.759,0,0,0-.08,2.746,5.109,5.109,0,0,0,4.222,5.183M10.173,31.9c.509.026,1.026.087,1.54.069a16.141,16.141,0,0,0,1.941-.177,11.7,11.7,0,0,0,9.675-10.343c.208-3.02.1-6.063.1-9.1a1.75,1.75,0,0,0-1.692-1.683,7.509,7.509,0,0,0-.8,0,1.733,1.733,0,0,0-1.616,1.12,1.707,1.707,0,0,0,.341,1.9c.225.254.495.47.712.73a.863.863,0,0,1,.217.491c.013,1.939.038,3.878,0,5.816a8.723,8.723,0,0,1-7.01,8.23c-.807.147-1.636.168-2.421.243l-.987,2.7m2.615-17.682c.547,0,1.047.019,1.545-.01a.737.737,0,0,0,.517-.221c.069-.1-.02-.358-.106-.508-.2-.346-.426-.675-.657-1a3.179,3.179,0,0,1-.594-1.956c.018-.991,0-1.982,0-2.973V7.137c-.1-.015-.129-.023-.158-.023q-1.731,0-3.461,0A6.434,6.434,0,0,0,8.9,7.14a2.106,2.106,0,0,0-1.79,2.238c.015.633,0,1.112-.738,1.417a1.264,1.264,0,0,0-.345,2.032c.251.29.561.531.8.832a1.176,1.176,0,0,1,.265.647c.024,1.375.008,2.751.018,4.127,0,.142.048.353.146.412.868.524,1.752,1.02,2.661,1.541V19.17H8.548v-1.4c.921,0,1.82,0,2.719,0a1.42,1.42,0,0,0,1.519-1.53c.005-.65,0-1.3,0-2.021m1.4,18.947A13.476,13.476,0,0,1,1.422,28.719c0,1.85,0,3.577.007,5.3a.3.3,0,0,0,.149.229,7.262,7.262,0,0,1,2.533,1.832A12.488,12.488,0,0,0,10.66,39.4c1.157.2,2.33.3,3.528.447ZM13.7,27.451a10.252,10.252,0,0,0-2.225-3.905L9.025,26.033l-2.99-5.968a6.745,6.745,0,0,0-4.6,6.4.758.758,0,0,0,.208.451c.521.545,1.06,1.074,1.6,1.6a11.514,11.514,0,0,0,5.029,2.953.5.5,0,0,0,.442-.093A6.632,6.632,0,0,0,9.7,28.864a8.35,8.35,0,0,1-3.658-1.959c-1-.959-1.942-1.984-2.9-2.972l.941-.971c.871.874,1.725,1.732,2.581,2.589a7.2,7.2,0,0,0,3.816,2.033,6.794,6.794,0,0,0,3.228-.133M1.442,42.6H14.176V41.226c-.769-.064-1.508-.107-2.241-.191A14.213,14.213,0,0,1,5.587,38.97c-1.141-.753-2.156-1.7-3.228-2.555-.283-.226-.57-.445-.916-.715ZM19.181,20.587c0-1.755,0-3.456-.006-5.157a.519.519,0,0,0-.143-.344,3.565,3.565,0,0,1-1.278-2.591l-2.106-.239a2.176,2.176,0,0,1,.545,2.275A1.921,1.921,0,0,1,14.2,15.657a3.365,3.365,0,0,1-.591,2.431A2.966,2.966,0,0,1,11.4,19.207v1.38Zm9.963-8.222,6.354.723V6.814l-6.354.726ZM39.8,14.894h2.788V5H39.8Zm-12.1-1.26c0,.244,0,.447,0,.65A7.469,7.469,0,0,1,25.515,19.6a2.23,2.23,0,0,0-.718,1.551c-.06.906-.26,1.8-.4,2.688a10.566,10.566,0,0,0,6.106-9.883l-2.8-.32m-12.763-2.9c.988.117,1.954.238,2.923.334.1.01.24-.112.328-.2a11.291,11.291,0,0,1,.922-1,3.563,3.563,0,0,1,2.612-.617A3.161,3.161,0,0,1,24.6,11.214c.077.168.132.346.244.643V8.032l-9.9,1.133ZM12.18,22.056c.631.895,1.268,1.806,1.92,2.707a.426.426,0,0,0,.306.1q1.484.012,2.969,0c.108,0,.263-.02.316-.091a6.618,6.618,0,0,0,1.273-2.722ZM36.96,6.654v6.6l1.366.159V6.487l-1.366.167M26.3,12.037l1.381.152V7.709L26.3,7.87ZM24.887,18.2a6.6,6.6,0,0,0,1.373-4.732l-1.373-.146ZM8.251,21.02l-.093.108,1.253,2.5,1.132-1.076L8.251,21.02m6.564,5.288.245.673.987-.593-.041-.08Z" transform="translate(0 0)" fill="#12263f"/>
      </g>
    </g>
  </g>
</svg>
