<svg xmlns="http://www.w3.org/2000/svg" xmlns:xlink="http://www.w3.org/1999/xlink" width="85" height="84.976" viewBox="0 0 85 84.976">
  <defs>
    <clipPath id="clip-path">
      <rect id="Rectángulo_402096" data-name="Rectángulo 402096" width="85" height="84.976" fill="#824ffb"/>
    </clipPath>
  </defs>
  <g id="Grupo_1103301" data-name="Grupo 1103301" transform="translate(-705 -480)">
    <g id="Grupo_1102119" data-name="Grupo 1102119" transform="translate(705 480)">
      <g id="Grupo_1102118" data-name="Grupo 1102118" clip-path="url(#clip-path)">
        <path id="Trazado_893935" data-name="Trazado 893935" d="M84.988,53.42A20.523,20.523,0,0,0,68.6,33.405c-.912-.191-1.841-.3-2.838-.465V31.6H76.211a5.464,5.464,0,0,0,5.458-5.458V10.813a5.464,5.464,0,0,0-5.458-5.458H55.917a26.192,26.192,0,0,0-8.463-3.936A40.849,40.849,0,0,0,27.371,1.1,32.628,32.628,0,0,0,8.605,12.572C3.211,19.256.739,27.063.2,35.5-.079,39.942.052,44.408,0,48.861a4.812,4.812,0,0,0,.068.571H8.22c-.466,10.38,3.99,17.486,13.749,21.214V84.976H68.591V76.752a12.611,12.611,0,0,0,11-12.259h5.4V63.7c0-3.427.021-6.854,0-10.282M78.87,10.813V26.145A2.662,2.662,0,0,1,76.211,28.8H41.9a2.662,2.662,0,0,1-2.659-2.659V10.813A2.662,2.662,0,0,1,41.9,8.154H76.211a2.662,2.662,0,0,1,2.659,2.659M7.739,18.535a29.682,29.682,0,0,1,8.783-9.806A33.137,33.137,0,0,1,32.873,2.966a35.218,35.218,0,0,1,15.86,1.771,13.886,13.886,0,0,0,2.147.619H41.9a5.464,5.464,0,0,0-5.458,5.458v8.415H7.421c.134-.295.211-.5.318-.693M46.608,81.286v.962H24.723V71.242H35.6V68.586h-.873c-2.513,0-5.026.019-7.539-.008A16.313,16.313,0,0,1,11.656,56.7a24.817,24.817,0,0,1-.668-4.98c-.11-1.666-.024-3.345-.024-5.11H2.749c0-2.807-.051-5.52.011-8.231A45.828,45.828,0,0,1,5.629,22.969a1.3,1.3,0,0,1,1.447-1.021c9.79.034,19.58.023,29.369.023v4.174A5.464,5.464,0,0,0,41.9,31.6H63.051V33a18.189,18.189,0,0,0-9.694,3.82l-.736-1.127-2.282,1.466c.139.247.285.519.443.784s.326.522.484.772a2.135,2.135,0,0,1-.159.255,18.2,18.2,0,0,0-4.513,12.5c.049,9.939.015,19.879.015,29.818M49.4,50.447a16.17,16.17,0,0,1,.935-4.922C53.059,38,61,34.117,68.987,36.28a17.765,17.765,0,0,1,8.805,5.478c.18.2.335.429.6.778H77.342q-6.251,0-12.5,0c-5.88.008-9.986,4.141-10.014,10.035a35.466,35.466,0,0,1-.2,5.12,6.516,6.516,0,0,1-5.277,5.22c0-4.192-.087-8.332.043-12.465M82.148,61.709H76.766c0,.961.011,1.863,0,2.764a9.539,9.539,0,0,1-7.4,9.313,11.582,11.582,0,0,1-2.542.273c-2.741.033-5.483.013-8.225.013H57.6v2.7h8.145v5.482H49.418V65.738a9.69,9.69,0,0,0,5.941-3.392,9.368,9.368,0,0,0,2.2-5.9c.034-1.456-.007-2.913.016-4.37a6.816,6.816,0,0,1,6.759-6.789c5.083-.04,10.166,0,15.25-.026a.907.907,0,0,1,.951.642,15.074,15.074,0,0,1,1.584,5.828c.09,3.3.024,6.606.024,9.974" transform="translate(-0.001 -0.001)" fill="#824ffb"/>
        <path id="Trazado_893936" data-name="Trazado 893936" d="M197.6,68.173a4.155,4.155,0,1,0-4.131-4.221,4.132,4.132,0,0,0,4.131,4.221m.042-5.472a1.317,1.317,0,1,1-1.335,1.3,1.377,1.377,0,0,1,1.335-1.3" transform="translate(-149.19 -46.162)" fill="#824ffb"/>
        <path id="Trazado_893937" data-name="Trazado 893937" d="M243.021,68.173a4.155,4.155,0,1,0-4.115-4.152,4.132,4.132,0,0,0,4.115,4.152m.062-5.472A1.317,1.317,0,1,1,241.744,64a1.377,1.377,0,0,1,1.338-1.294" transform="translate(-184.225 -46.162)" fill="#824ffb"/>
        <path id="Trazado_893938" data-name="Trazado 893938" d="M290.927,68.173a4.155,4.155,0,1,0-4.1-4.162,4.131,4.131,0,0,0,4.1,4.162m.027-5.472a1.317,1.317,0,1,1-1.293,1.339,1.378,1.378,0,0,1,1.293-1.339" transform="translate(-221.174 -46.162)" fill="#824ffb"/>
        <path id="Trazado_893939" data-name="Trazado 893939" d="M59.029,150.054c-.361,2.458-1.839,4.058-3.934,4.029a5.659,5.659,0,0,1-2.627-.79,3.861,3.861,0,0,1-1.741-3.216H48.057a6.833,6.833,0,0,0,7.2,6.785c3.59-.173,6.77-3.546,6.38-6.808Z" transform="translate(-37.057 -115.71)" fill="#824ffb"/>
        <path id="Trazado_893940" data-name="Trazado 893940" d="M295.949,233.908c-.352,1.683-1.254,2.656-2.6,2.678a2.487,2.487,0,0,1-1.6-.42,15.643,15.643,0,0,1-1.719-2.247h-2.3a5.406,5.406,0,0,0,5.612,5.435c2.928-.084,5.5-2.757,5.2-5.446Z" transform="translate(-221.875 -180.371)" fill="#824ffb"/>
      </g>
    </g>
  </g>
</svg>
