<svg xmlns="http://www.w3.org/2000/svg" xmlns:xlink="http://www.w3.org/1999/xlink" width="583.516" height="203.028" viewBox="0 0 583.516 203.028">
  <defs>
    <clipPath id="clip-path">
      <rect id="Rectángulo_402783" data-name="Rectángulo 402783" width="583.516" height="203.028" fill="none"/>
    </clipPath>
  </defs>
  <g id="Grupo_1104463" data-name="Grupo 1104463" transform="translate(-195.102 -6664.486)">
    <g id="Grupo_1104461" data-name="Grupo 1104461">
      <g id="Grupo_1103320" data-name="Grupo 1103320" transform="translate(195.102 6664.486)" clip-path="url(#clip-path)">
        <path id="Trazado_896479" data-name="Trazado 896479" d="M173.716,31.85H50.163A26.278,26.278,0,0,0,23.885,58.128V181.681a26.278,26.278,0,0,0,26.278,26.278H173.716a26.278,26.278,0,0,0,26.278-26.278V58.128A26.278,26.278,0,0,0,173.716,31.85" transform="translate(-12.349 -16.467)" fill="#fee3b3"/>
        <path id="Trazado_896480" data-name="Trazado 896480" d="M164.7,208.119H35.457A35.428,35.428,0,0,1,0,172.662V43.422A35.428,35.428,0,0,1,35.457,7.965H164.7a35.428,35.428,0,0,1,35.456,35.457V81.4a.941.941,0,0,1-.831,1.382h-.11a.941.941,0,0,1-.941-.941V43.422A33.613,33.613,0,0,0,164.7,9.847H35.457A33.613,33.613,0,0,0,1.882,43.422v129.24a33.613,33.613,0,0,0,33.575,33.575H164.7a33.613,33.613,0,0,0,33.574-33.575V135.435a.94.94,0,0,1,.047-.3,31,31,0,0,1,22.054-28,.941.941,0,1,1,.538,1.8,29.1,29.1,0,0,0-20.725,26.534.943.943,0,0,1-.033.208v36.977A35.428,35.428,0,0,1,164.7,208.119Z" transform="translate(-0.487 -4.605)" fill="#7dc8ff"/>
        <path id="Trazado_896481" data-name="Trazado 896481" d="M845.906,206.767H969.459a26.278,26.278,0,0,0,26.278-26.278V56.936a26.278,26.278,0,0,0-26.278-26.278H845.906a26.278,26.278,0,0,0-26.278,26.278V180.489a26.278,26.278,0,0,0,26.278,26.278" transform="translate(-423.757 -15.851)" fill="#fee3b3"/>
        <path id="Trazado_896482" data-name="Trazado 896482" d="M960.322,206.926H831.082a35.428,35.428,0,0,1-35.456-35.457V133.5a.941.941,0,0,1,.831-1.382h.11a.941.941,0,0,1,.941.941v38.415a33.613,33.613,0,0,0,33.574,33.575h129.24A33.613,33.613,0,0,0,993.9,171.469V42.229A33.613,33.613,0,0,0,960.322,8.654H831.082a33.613,33.613,0,0,0-33.574,33.575V79.456a.941.941,0,0,1-.941.941h-.034a.942.942,0,0,1-.907-1.192V42.229A35.428,35.428,0,0,1,831.082,6.772h129.24a35.428,35.428,0,0,1,35.457,35.457v129.24a35.428,35.428,0,0,1-35.457,35.457Z" transform="translate(-411.778 -3.988)" fill="#7dc8ff"/>
        <path id="Trazado_896483" data-name="Trazado 896483" d="M451.453,215.147a.941.941,0,0,1-.279-1.84,28.448,28.448,0,0,1,8.456-1.279H563.6a.941.941,0,0,1,0,1.882H459.63a26.568,26.568,0,0,0-7.9,1.194A.941.941,0,0,1,451.453,215.147Z" transform="translate(-233.406 -110.107)" fill="#7dc8ff"/>
        <path id="Trazado_896484" data-name="Trazado 896484" d="M628.231,174.748H524.26a.941.941,0,0,1,0-1.882H628.231a26.586,26.586,0,0,0,26.556-26.556v-9.088a.941.941,0,1,1,1.882,0v9.088a28.415,28.415,0,0,1-28.438,28.438Z" transform="translate(-271.049 -70.945)" fill="#7dc8ff"/>
        <path id="Trazado_896485" data-name="Trazado 896485" d="M381.216,89.891H366.049V37.525H352.9V25.948l28.315-2.333Z" transform="translate(-182.454 -12.209)" fill="#7dc8ff"/>
        <rect id="Rectángulo_402782" data-name="Rectángulo 402782" width="15.314" height="58.095" transform="translate(379.068 4.301)" fill="#fff"/>
        <path id="Trazado_896486" data-name="Trazado 896486" d="M839.145,66.277H793.734V56.4l20.1-22.077a43.375,43.375,0,0,0,5.922-8.167,13.882,13.882,0,0,0,1.885-6.237,9.676,9.676,0,0,0-1.705-6.035q-1.705-2.221-5.475-2.221a6.254,6.254,0,0,0-5.5,2.895,12.933,12.933,0,0,0-1.952,7.382H792.163l-.09-.27A20.34,20.34,0,0,1,798.041,6.3Q804.233,0,814.464,0q10.725,0,16.559,5.272t5.833,14.517a19.123,19.123,0,0,1-3.231,10.971,136.948,136.948,0,0,1-11.846,14.112l-7.942,9.513.089.224h25.218Z" transform="translate(-409.507 0)" fill="#7dc8ff"/>
      </g>
    </g>
    <path id="Trazado_897400" data-name="Trazado 897400" d="M-47.178,0V-14.7h4.184a4.573,4.573,0,0,1,3.025.933,3.016,3.016,0,0,1,1.118,2.43,3.576,3.576,0,0,1-.677,2.174A3.649,3.649,0,0,1-41.4-7.854v.041a3.741,3.741,0,0,1,2.379,1.123,3.454,3.454,0,0,1,.892,2.466,3.844,3.844,0,0,1-1.354,3.056A5.038,5.038,0,0,1-42.892,0Zm1.723-13.146V-8.4h1.764a3.349,3.349,0,0,0,2.225-.682A2.375,2.375,0,0,0-40.657-11q0-2.143-2.82-2.143Zm0,6.3v5.291h2.338a3.5,3.5,0,0,0,2.353-.718,2.459,2.459,0,0,0,.836-1.969q0-2.6-3.548-2.6Zm14.479,7.1a4.87,4.87,0,0,1-3.717-1.471,5.45,5.45,0,0,1-1.389-3.9,5.678,5.678,0,0,1,1.446-4.132,5.2,5.2,0,0,1,3.907-1.487A4.709,4.709,0,0,1-27.065-9.3a5.733,5.733,0,0,1,1.318,4.009,5.641,5.641,0,0,1-1.42,4.025A4.976,4.976,0,0,1-30.977.246Zm.123-9.577a3.2,3.2,0,0,0-2.563,1.1,4.527,4.527,0,0,0-.943,3.04,4.281,4.281,0,0,0,.954,2.943,3.241,3.241,0,0,0,2.553,1.077,3.074,3.074,0,0,0,2.507-1.056,4.583,4.583,0,0,0,.877-3,4.662,4.662,0,0,0-.877-3.035A3.061,3.061,0,0,0-30.854-9.331ZM-14.1-.841q0,5.783-5.537,5.783a7.435,7.435,0,0,1-3.4-.738V2.522a6.992,6.992,0,0,0,3.384.984q3.876,0,3.876-4.122V-1.764h-.041A3.932,3.932,0,0,1-19.431.246a3.942,3.942,0,0,1-3.153-1.4,5.6,5.6,0,0,1-1.195-3.758,6.537,6.537,0,0,1,1.287-4.255,4.3,4.3,0,0,1,3.522-1.579,3.422,3.422,0,0,1,3.148,1.7h.041V-10.5H-14.1Zm-1.682-3.907V-6.3a3,3,0,0,0-.846-2.143,2.785,2.785,0,0,0-2.107-.892A2.92,2.92,0,0,0-21.174-8.2a5.057,5.057,0,0,0-.882,3.174,4.342,4.342,0,0,0,.846,2.8,2.733,2.733,0,0,0,2.24,1.051,2.927,2.927,0,0,0,2.3-1A3.746,3.746,0,0,0-15.781-4.748ZM-6.306.246a4.87,4.87,0,0,1-3.717-1.471,5.45,5.45,0,0,1-1.389-3.9A5.678,5.678,0,0,1-9.967-9.259,5.2,5.2,0,0,1-6.06-10.746,4.709,4.709,0,0,1-2.394-9.3,5.733,5.733,0,0,1-1.077-5.291,5.641,5.641,0,0,1-2.5-1.266,4.976,4.976,0,0,1-6.306.246Zm.123-9.577a3.2,3.2,0,0,0-2.563,1.1,4.527,4.527,0,0,0-.943,3.04,4.281,4.281,0,0,0,.954,2.943A3.241,3.241,0,0,0-6.183-1.169,3.074,3.074,0,0,0-3.676-2.225a4.583,4.583,0,0,0,.877-3,4.662,4.662,0,0,0-.877-3.035A3.061,3.061,0,0,0-6.183-9.331ZM6.48-.1A3.242,3.242,0,0,1,4.912.226q-2.758,0-2.758-3.076V-9.064H.349V-10.5h1.8v-2.563l1.682-.543V-10.5H6.48v1.436H3.835v5.917a2.453,2.453,0,0,0,.359,1.507,1.432,1.432,0,0,0,1.189.451,1.768,1.768,0,0,0,1.1-.349Zm9.762.1H14.561V-1.641H14.52A3.521,3.521,0,0,1,11.29.246,3.452,3.452,0,0,1,8.834-.584a2.878,2.878,0,0,1-.887-2.2q0-2.943,3.466-3.425l3.148-.441q0-2.676-2.164-2.676A5.169,5.169,0,0,0,8.972-8.039V-9.762a6.507,6.507,0,0,1,3.568-.984q3.7,0,3.7,3.917ZM14.561-5.312l-2.533.349a4.112,4.112,0,0,0-1.764.579,1.671,1.671,0,0,0-.595,1.471,1.6,1.6,0,0,0,.549,1.256,2.12,2.12,0,0,0,1.461.487,2.7,2.7,0,0,0,2.066-.877,3.132,3.132,0,0,0,.815-2.22Zm.226-10.541L12.1-12.489H10.8l2.287-3.363ZM33.6-4.83H26.188a3.927,3.927,0,0,0,.943,2.707,3.252,3.252,0,0,0,2.481.954,5.159,5.159,0,0,0,3.261-1.169V-.759a6.094,6.094,0,0,1-3.661,1,4.438,4.438,0,0,1-3.5-1.43,5.855,5.855,0,0,1-1.271-4.025A5.742,5.742,0,0,1,25.835-9.2a4.455,4.455,0,0,1,3.45-1.543,3.948,3.948,0,0,1,3.189,1.333,5.558,5.558,0,0,1,1.128,3.7ZM31.879-6.255a3.421,3.421,0,0,0-.7-2.266,2.393,2.393,0,0,0-1.923-.81,2.716,2.716,0,0,0-2.02.851,3.862,3.862,0,0,0-1.025,2.225Zm3.63,5.875v-1.8a4.977,4.977,0,0,0,3.025,1.015q2.215,0,2.215-1.477a1.281,1.281,0,0,0-.19-.713,1.891,1.891,0,0,0-.513-.518,3.946,3.946,0,0,0-.759-.405q-.436-.179-.938-.374a12.084,12.084,0,0,1-1.225-.559,3.7,3.7,0,0,1-.882-.636,2.366,2.366,0,0,1-.533-.8,2.848,2.848,0,0,1-.179-1.056,2.509,2.509,0,0,1,.338-1.307,3,3,0,0,1,.9-.954,4.208,4.208,0,0,1,1.287-.579,5.708,5.708,0,0,1,1.492-.195,6.024,6.024,0,0,1,2.44.472v1.7a4.756,4.756,0,0,0-2.666-.759,3.116,3.116,0,0,0-.851.108,2.084,2.084,0,0,0-.651.3,1.4,1.4,0,0,0-.42.467,1.229,1.229,0,0,0-.149.6,1.439,1.439,0,0,0,.149.687,1.512,1.512,0,0,0,.436.492,3.331,3.331,0,0,0,.7.39q.41.174.933.379a12.987,12.987,0,0,1,1.251.549,4.291,4.291,0,0,1,.943.636,2.484,2.484,0,0,1,.6.815,2.629,2.629,0,0,1,.21,1.1,2.587,2.587,0,0,1-.344,1.354A2.944,2.944,0,0,1,41.21-.5a4.2,4.2,0,0,1-1.323.564,6.531,6.531,0,0,1-1.569.185A5.957,5.957,0,0,1,35.509-.379ZM-37.729,23h-1.682V7.455h1.682Zm10.92,0H-28.49V21.359h-.041a3.521,3.521,0,0,1-3.23,1.887,3.452,3.452,0,0,1-2.456-.831,2.878,2.878,0,0,1-.887-2.2q0-2.943,3.466-3.425l3.148-.441q0-2.676-2.164-2.676a5.169,5.169,0,0,0-3.425,1.292V13.238a6.507,6.507,0,0,1,3.568-.984q3.7,0,3.7,3.917Zm-1.682-5.312-2.533.349a4.112,4.112,0,0,0-1.764.579,1.671,1.671,0,0,0-.595,1.471,1.6,1.6,0,0,0,.549,1.256,2.12,2.12,0,0,0,1.461.487,2.7,2.7,0,0,0,2.066-.877,3.132,3.132,0,0,0,.815-2.22Zm17.76,4.83a5.464,5.464,0,0,1-2.871.728,4.753,4.753,0,0,1-3.625-1.461A5.3,5.3,0,0,1-18.606,18a5.821,5.821,0,0,1,1.487-4.168,5.2,5.2,0,0,1,3.968-1.574,5.524,5.524,0,0,1,2.44.513v1.723a4.276,4.276,0,0,0-2.5-.82,3.381,3.381,0,0,0-2.64,1.154,4.377,4.377,0,0,0-1.031,3.03,4.168,4.168,0,0,0,.969,2.912,3.34,3.34,0,0,0,2.6,1.066,4.215,4.215,0,0,0,2.584-.913ZM-.672,23H-2.353V21.359h-.041a3.521,3.521,0,0,1-3.23,1.887,3.452,3.452,0,0,1-2.456-.831,2.878,2.878,0,0,1-.887-2.2q0-2.943,3.466-3.425l3.148-.441q0-2.676-2.164-2.676a5.169,5.169,0,0,0-3.425,1.292V13.238a6.507,6.507,0,0,1,3.568-.984q3.7,0,3.7,3.917Zm-1.682-5.312-2.533.349a4.112,4.112,0,0,0-1.764.579,1.671,1.671,0,0,0-.595,1.471A1.6,1.6,0,0,0-6.7,21.344a2.12,2.12,0,0,0,1.461.487,2.7,2.7,0,0,0,2.066-.877,3.132,3.132,0,0,0,.815-2.22Zm6.573,3.794H4.178V27.83H2.5V12.5H4.178v1.846h.041a3.976,3.976,0,0,1,3.63-2.092,3.845,3.845,0,0,1,3.168,1.41,5.84,5.84,0,0,1,1.138,3.779,6.508,6.508,0,0,1-1.282,4.219,4.268,4.268,0,0,1-3.507,1.584A3.513,3.513,0,0,1,4.219,21.482Zm-.041-4.235v1.466a3.122,3.122,0,0,0,.846,2.21,2.809,2.809,0,0,0,2.148.907,2.815,2.815,0,0,0,2.394-1.169,5.363,5.363,0,0,0,.866-3.25,4.233,4.233,0,0,0-.81-2.748,2.681,2.681,0,0,0-2.194-.995,2.979,2.979,0,0,0-2.358,1.02A3.746,3.746,0,0,0,4.178,17.248ZM15.7,9.834a1.065,1.065,0,0,1-.769-.308,1.038,1.038,0,0,1-.318-.779A1.077,1.077,0,0,1,15.7,7.65a1.086,1.086,0,0,1,.784.313,1.1,1.1,0,0,1,0,1.553A1.077,1.077,0,0,1,15.7,9.834ZM16.524,23H14.843V12.5h1.682Zm8.275-.1a3.242,3.242,0,0,1-1.569.328q-2.758,0-2.758-3.076V13.936h-1.8V12.5h1.8V9.937l1.682-.543V12.5H24.8v1.436H22.154v5.917a2.453,2.453,0,0,0,.359,1.507,1.432,1.432,0,0,0,1.189.451,1.768,1.768,0,0,0,1.1-.349Zm9.762.1H32.879V21.359h-.041a3.521,3.521,0,0,1-3.23,1.887,3.452,3.452,0,0,1-2.456-.831,2.878,2.878,0,0,1-.887-2.2q0-2.943,3.466-3.425l3.148-.441q0-2.676-2.164-2.676a5.169,5.169,0,0,0-3.425,1.292V13.238a6.507,6.507,0,0,1,3.568-.984q3.7,0,3.7,3.917Zm-1.682-5.312-2.533.349a4.112,4.112,0,0,0-1.764.579,1.671,1.671,0,0,0-.595,1.471,1.6,1.6,0,0,0,.549,1.256A2.12,2.12,0,0,0,30,21.831a2.7,2.7,0,0,0,2.066-.877,3.132,3.132,0,0,0,.815-2.22ZM39.411,23H37.729V7.455h1.682ZM-50.613,46h-1.682V44.216h-.041a3.882,3.882,0,0,1-3.609,2.03,3.922,3.922,0,0,1-3.163-1.41A5.784,5.784,0,0,1-60.293,41a6.293,6.293,0,0,1,1.313-4.173,4.329,4.329,0,0,1,3.5-1.569,3.366,3.366,0,0,1,3.148,1.7h.041v-6.5h1.682Zm-1.682-4.748V39.7a3,3,0,0,0-.841-2.153,2.82,2.82,0,0,0-2.133-.882,2.9,2.9,0,0,0-2.42,1.128,4.943,4.943,0,0,0-.882,3.117,4.445,4.445,0,0,0,.846,2.866,2.765,2.765,0,0,0,2.271,1.051,2.872,2.872,0,0,0,2.281-1.015A3.782,3.782,0,0,0-52.295,41.252Zm13.525-.082h-7.414a3.927,3.927,0,0,0,.943,2.707,3.252,3.252,0,0,0,2.481.954A5.159,5.159,0,0,0-39.5,43.662v1.579a6.094,6.094,0,0,1-3.661,1,4.438,4.438,0,0,1-3.5-1.43,5.855,5.855,0,0,1-1.271-4.025A5.742,5.742,0,0,1-46.537,36.8a4.455,4.455,0,0,1,3.45-1.543A3.948,3.948,0,0,1-39.9,36.587a5.558,5.558,0,0,1,1.128,3.7Zm-1.723-1.425a3.421,3.421,0,0,0-.7-2.266,2.393,2.393,0,0,0-1.923-.81,2.716,2.716,0,0,0-2.02.851,3.862,3.862,0,0,0-1.025,2.225Zm20.251,5.64a8.624,8.624,0,0,1-4.061.861,6.548,6.548,0,0,1-5.024-2.02,7.454,7.454,0,0,1-1.887-5.3,7.812,7.812,0,0,1,2.123-5.7,7.2,7.2,0,0,1,5.383-2.174,8.631,8.631,0,0,1,3.466.6V33.49a7.028,7.028,0,0,0-3.486-.882A5.35,5.35,0,0,0-27.834,34.3a6.374,6.374,0,0,0-1.574,4.522A6.065,6.065,0,0,0-27.937,43.1,5.007,5.007,0,0,0-24.076,44.7a7.242,7.242,0,0,0,3.835-.984Zm7.157.861A4.87,4.87,0,0,1-16.8,44.775a5.45,5.45,0,0,1-1.389-3.9,5.678,5.678,0,0,1,1.446-4.132,5.2,5.2,0,0,1,3.907-1.487A4.709,4.709,0,0,1-9.172,36.7a5.733,5.733,0,0,1,1.318,4.009,5.641,5.641,0,0,1-1.42,4.025A4.976,4.976,0,0,1-13.084,46.246Zm.123-9.577a3.2,3.2,0,0,0-2.563,1.1,4.527,4.527,0,0,0-.943,3.04,4.281,4.281,0,0,0,.954,2.943,3.241,3.241,0,0,0,2.553,1.077,3.074,3.074,0,0,0,2.507-1.056,4.583,4.583,0,0,0,.877-3,4.662,4.662,0,0,0-.877-3.035A3.061,3.061,0,0,0-12.961,36.669ZM-3.486,46H-5.168V30.455h1.682Zm7.793.246A4.87,4.87,0,0,1,.59,44.775,5.45,5.45,0,0,1-.8,40.873,5.678,5.678,0,0,1,.646,36.741a5.2,5.2,0,0,1,3.907-1.487A4.709,4.709,0,0,1,8.219,36.7a5.733,5.733,0,0,1,1.318,4.009,5.641,5.641,0,0,1-1.42,4.025A4.976,4.976,0,0,1,4.307,46.246Zm.123-9.577a3.2,3.2,0,0,0-2.563,1.1,4.527,4.527,0,0,0-.943,3.04,4.281,4.281,0,0,0,.954,2.943A3.241,3.241,0,0,0,4.43,44.831a3.074,3.074,0,0,0,2.507-1.056,4.583,4.583,0,0,0,.877-3,4.662,4.662,0,0,0-.877-3.035A3.061,3.061,0,0,0,4.43,36.669ZM27.132,46H25.45V39.971a4.549,4.549,0,0,0-.538-2.522,2.042,2.042,0,0,0-1.81-.779,2.241,2.241,0,0,0-1.83.984,3.766,3.766,0,0,0-.754,2.358V46H18.836V39.766q0-3.1-2.389-3.1a2.213,2.213,0,0,0-1.825.928,3.836,3.836,0,0,0-.718,2.415V46H12.223V35.5H13.9v1.661h.041a3.567,3.567,0,0,1,3.261-1.907,3.033,3.033,0,0,1,2.974,2.174,3.747,3.747,0,0,1,3.486-2.174q3.466,0,3.466,4.276Zm4.9-1.518h-.041V46H30.311V30.455h1.682v6.891h.041a3.976,3.976,0,0,1,3.63-2.092,3.849,3.849,0,0,1,3.163,1.41,5.822,5.822,0,0,1,1.143,3.779,6.508,6.508,0,0,1-1.282,4.219,4.268,4.268,0,0,1-3.507,1.584A3.454,3.454,0,0,1,32.033,44.482Zm-.041-4.235v1.466a3.122,3.122,0,0,0,.846,2.21,3.018,3.018,0,0,0,4.542-.261,5.363,5.363,0,0,0,.866-3.25,4.233,4.233,0,0,0-.81-2.748,2.681,2.681,0,0,0-2.194-.995,2.979,2.979,0,0,0-2.358,1.02A3.746,3.746,0,0,0,31.992,40.248Zm11.525-7.414a1.065,1.065,0,0,1-.769-.308,1.038,1.038,0,0,1-.318-.779,1.077,1.077,0,0,1,1.087-1.1,1.086,1.086,0,0,1,.784.313,1.1,1.1,0,0,1,0,1.553A1.077,1.077,0,0,1,43.518,32.834ZM44.338,46H42.656V35.5h1.682Zm10.92,0H53.577V44.359h-.041a3.521,3.521,0,0,1-3.23,1.887,3.452,3.452,0,0,1-2.456-.831,2.878,2.878,0,0,1-.887-2.2q0-2.943,3.466-3.425l3.148-.441q0-2.676-2.164-2.676a5.169,5.169,0,0,0-3.425,1.292V36.238a6.507,6.507,0,0,1,3.568-.984q3.7,0,3.7,3.917Zm-1.682-5.312-2.533.349a4.112,4.112,0,0,0-1.764.579,1.671,1.671,0,0,0-.595,1.471,1.6,1.6,0,0,0,.549,1.256,2.12,2.12,0,0,0,1.461.487,2.7,2.7,0,0,0,2.066-.877,3.132,3.132,0,0,0,.815-2.22Zm5.435,5.537a1.088,1.088,0,0,1-.8-.338,1.114,1.114,0,0,1-.333-.81,1.131,1.131,0,0,1,.333-.815,1.081,1.081,0,0,1,.8-.344,1.109,1.109,0,0,1,.82.344,1.122,1.122,0,0,1,.338.815,1.105,1.105,0,0,1-.338.81A1.117,1.117,0,0,1,59.011,46.226Z" transform="translate(294.051 6752)" fill="#12263f"/>
    <g id="Grupo_1104462" data-name="Grupo 1104462">
      <text id="Aristóteles_fue_primero_en_aportar_el_concepto_de_proposición._" data-name="Aristóteles fue primero en aportar el concepto de proposición. " transform="translate(683.051 6728)" fill="#12263f" font-size="21" font-family="SegoeUI, Segoe UI"><tspan x="-51.546" y="0">Aristóteles </tspan><tspan x="-57.176" y="23">fue primero </tspan><tspan x="-51.054" y="46">en aportar </tspan><tspan x="-56.955" y="69">el concepto </tspan><tspan x="-74.49" y="92">de proposición. </tspan></text>
    </g>
    <path id="Trazado_897402" data-name="Trazado 897402" d="M-45,0h-8.164V-15.4h7.82v1.633h-6.016v5.124H-45.8v1.622h-5.564v5.393H-45Zm2.063-.4V-2.288a5.214,5.214,0,0,0,3.169,1.063q2.32,0,2.32-1.547a1.342,1.342,0,0,0-.2-.747,1.981,1.981,0,0,0-.537-.542,4.134,4.134,0,0,0-.795-.424q-.457-.188-.983-.392a12.659,12.659,0,0,1-1.284-.585,3.878,3.878,0,0,1-.924-.666,2.478,2.478,0,0,1-.559-.843,2.983,2.983,0,0,1-.188-1.106,2.628,2.628,0,0,1,.354-1.37,3.143,3.143,0,0,1,.945-1,4.408,4.408,0,0,1,1.348-.607,5.98,5.98,0,0,1,1.563-.2,6.311,6.311,0,0,1,2.557.494V-8.98a4.983,4.983,0,0,0-2.793-.795,3.265,3.265,0,0,0-.892.113,2.183,2.183,0,0,0-.682.317,1.464,1.464,0,0,0-.44.489,1.288,1.288,0,0,0-.156.628,1.507,1.507,0,0,0,.156.72,1.584,1.584,0,0,0,.457.516,3.49,3.49,0,0,0,.73.408q.43.183.978.4a13.6,13.6,0,0,1,1.311.575,4.5,4.5,0,0,1,.988.666,2.6,2.6,0,0,1,.628.854,2.754,2.754,0,0,1,.22,1.149,2.71,2.71,0,0,1-.36,1.418,3.084,3.084,0,0,1-.961,1,4.4,4.4,0,0,1-1.386.591A6.842,6.842,0,0,1-40,.258,6.241,6.241,0,0,1-42.942-.4Zm15.1.29a3.4,3.4,0,0,1-1.644.344q-2.89,0-2.89-3.223V-9.5h-1.891V-11h1.891v-2.686l1.762-.569V-11h2.771v1.5H-30.61v6.2a2.57,2.57,0,0,0,.376,1.579,1.5,1.5,0,0,0,1.246.473,1.852,1.852,0,0,0,1.149-.365ZM-17.612,0h-1.762V-1.719h-.043A3.688,3.688,0,0,1-22.8.258a3.616,3.616,0,0,1-2.573-.87,3.015,3.015,0,0,1-.929-2.31Q-26.3-6-22.671-6.51l3.3-.462q0-2.8-2.267-2.8a5.415,5.415,0,0,0-3.588,1.354v-1.8a6.817,6.817,0,0,1,3.738-1.031q3.878,0,3.878,4.1Zm-1.762-5.564-2.653.365a4.308,4.308,0,0,0-1.848.607A1.75,1.75,0,0,0-24.5-3.051a1.679,1.679,0,0,0,.575,1.316,2.221,2.221,0,0,0,1.531.51,2.828,2.828,0,0,0,2.165-.918,3.282,3.282,0,0,0,.854-2.326ZM-14.958-.4V-2.288A5.214,5.214,0,0,0-11.79-1.225q2.32,0,2.32-1.547a1.342,1.342,0,0,0-.2-.747,1.981,1.981,0,0,0-.537-.542A4.134,4.134,0,0,0-11-4.485q-.457-.188-.983-.392a12.659,12.659,0,0,1-1.284-.585,3.878,3.878,0,0,1-.924-.666,2.478,2.478,0,0,1-.559-.843,2.983,2.983,0,0,1-.188-1.106,2.628,2.628,0,0,1,.354-1.37,3.143,3.143,0,0,1,.945-1,4.408,4.408,0,0,1,1.348-.607,5.98,5.98,0,0,1,1.563-.2,6.311,6.311,0,0,1,2.557.494V-8.98a4.983,4.983,0,0,0-2.793-.795,3.265,3.265,0,0,0-.892.113,2.183,2.183,0,0,0-.682.317,1.464,1.464,0,0,0-.44.489,1.288,1.288,0,0,0-.156.628,1.507,1.507,0,0,0,.156.72,1.584,1.584,0,0,0,.457.516,3.49,3.49,0,0,0,.73.408q.43.183.978.4A13.6,13.6,0,0,1-9.5-5.613a4.5,4.5,0,0,1,.988.666,2.6,2.6,0,0,1,.628.854,2.754,2.754,0,0,1,.22,1.149,2.71,2.71,0,0,1-.36,1.418,3.084,3.084,0,0,1-.961,1,4.4,4.4,0,0,1-1.386.591,6.842,6.842,0,0,1-1.644.193A6.241,6.241,0,0,1-14.958-.4ZM6.5-14.738a2.347,2.347,0,0,0-1.171-.29q-1.848,0-1.848,2.331V-11H6.064v1.5H3.486V0H1.735V-9.5H-.145V-11h1.88v-1.783a3.705,3.705,0,0,1,1-2.734,3.373,3.373,0,0,1,2.492-1,3.452,3.452,0,0,1,1.278.193Zm7.187,5.521a2.154,2.154,0,0,0-1.332-.354,2.248,2.248,0,0,0-1.885,1.063,4.917,4.917,0,0,0-.757,2.9V0H7.955V-11H9.716v2.267h.043a3.841,3.841,0,0,1,1.149-1.81,2.621,2.621,0,0,1,1.729-.65,2.876,2.876,0,0,1,1.053.15ZM23.477,0H21.715V-1.719h-.043A3.688,3.688,0,0,1,18.289.258a3.616,3.616,0,0,1-2.573-.87,3.015,3.015,0,0,1-.929-2.31q0-3.083,3.631-3.588l3.3-.462q0-2.8-2.267-2.8a5.415,5.415,0,0,0-3.588,1.354v-1.8A6.817,6.817,0,0,1,19.6-11.258q3.878,0,3.878,4.1ZM21.715-5.564,19.062-5.2a4.308,4.308,0,0,0-1.848.607,1.75,1.75,0,0,0-.623,1.542,1.679,1.679,0,0,0,.575,1.316,2.221,2.221,0,0,0,1.531.51,2.828,2.828,0,0,0,2.165-.918,3.282,3.282,0,0,0,.854-2.326ZM26.13-.4V-2.288A5.214,5.214,0,0,0,29.3-1.225q2.32,0,2.32-1.547a1.342,1.342,0,0,0-.2-.747,1.981,1.981,0,0,0-.537-.542,4.134,4.134,0,0,0-.795-.424q-.457-.188-.983-.392a12.659,12.659,0,0,1-1.284-.585,3.878,3.878,0,0,1-.924-.666,2.478,2.478,0,0,1-.559-.843,2.983,2.983,0,0,1-.188-1.106,2.628,2.628,0,0,1,.354-1.37,3.143,3.143,0,0,1,.945-1,4.408,4.408,0,0,1,1.348-.607,5.98,5.98,0,0,1,1.563-.2,6.311,6.311,0,0,1,2.557.494V-8.98a4.983,4.983,0,0,0-2.793-.795,3.265,3.265,0,0,0-.892.113,2.183,2.183,0,0,0-.682.317,1.464,1.464,0,0,0-.44.489,1.288,1.288,0,0,0-.156.628,1.507,1.507,0,0,0,.156.72,1.584,1.584,0,0,0,.457.516,3.49,3.49,0,0,0,.73.408q.43.183.978.4a13.605,13.605,0,0,1,1.311.575,4.5,4.5,0,0,1,.988.666,2.6,2.6,0,0,1,.628.854,2.754,2.754,0,0,1,.22,1.149,2.71,2.71,0,0,1-.36,1.418,3.084,3.084,0,0,1-.961,1,4.4,4.4,0,0,1-1.386.591,6.842,6.842,0,0,1-1.644.193A6.241,6.241,0,0,1,26.13-.4ZM44.972-5.06H37.206a4.114,4.114,0,0,0,.988,2.836,3.407,3.407,0,0,0,2.6,1,5.4,5.4,0,0,0,3.416-1.225V-.795A6.384,6.384,0,0,1,40.375.258a4.649,4.649,0,0,1-3.663-1.5,6.134,6.134,0,0,1-1.332-4.216,6.015,6.015,0,0,1,1.456-4.184,4.667,4.667,0,0,1,3.615-1.617,4.136,4.136,0,0,1,3.341,1.4,5.822,5.822,0,0,1,1.182,3.878Zm-1.8-1.493a3.584,3.584,0,0,0-.736-2.374,2.507,2.507,0,0,0-2.014-.849,2.846,2.846,0,0,0-2.116.892,4.046,4.046,0,0,0-1.074,2.331ZM46.97-.4V-2.288a5.214,5.214,0,0,0,3.169,1.063q2.32,0,2.32-1.547a1.342,1.342,0,0,0-.2-.747,1.981,1.981,0,0,0-.537-.542,4.134,4.134,0,0,0-.795-.424q-.457-.188-.983-.392a12.659,12.659,0,0,1-1.284-.585,3.878,3.878,0,0,1-.924-.666,2.478,2.478,0,0,1-.559-.843,2.983,2.983,0,0,1-.188-1.106,2.628,2.628,0,0,1,.354-1.37,3.143,3.143,0,0,1,.945-1,4.408,4.408,0,0,1,1.348-.607,5.98,5.98,0,0,1,1.563-.2,6.311,6.311,0,0,1,2.557.494V-8.98a4.983,4.983,0,0,0-2.793-.795,3.265,3.265,0,0,0-.892.113,2.183,2.183,0,0,0-.682.317,1.464,1.464,0,0,0-.44.489,1.288,1.288,0,0,0-.156.628,1.507,1.507,0,0,0,.156.72,1.584,1.584,0,0,0,.457.516,3.49,3.49,0,0,0,.73.408q.43.183.978.4a13.6,13.6,0,0,1,1.311.575,4.5,4.5,0,0,1,.988.666,2.6,2.6,0,0,1,.628.854,2.754,2.754,0,0,1,.22,1.149,2.71,2.71,0,0,1-.36,1.418,3.084,3.084,0,0,1-.961,1,4.4,4.4,0,0,1-1.386.591,6.842,6.842,0,0,1-1.644.193A6.241,6.241,0,0,1,46.97-.4ZM-33.059,23h-1.762V21.131h-.043a4.067,4.067,0,0,1-3.781,2.127,4.109,4.109,0,0,1-3.314-1.477A6.059,6.059,0,0,1-43.2,17.758a6.592,6.592,0,0,1,1.375-4.372,4.535,4.535,0,0,1,3.663-1.644,3.526,3.526,0,0,1,3.3,1.783h.043V6.715h1.762Zm-1.762-4.974V16.4a3.147,3.147,0,0,0-.881-2.256,2.954,2.954,0,0,0-2.234-.924,3.042,3.042,0,0,0-2.535,1.182,5.178,5.178,0,0,0-.924,3.266,4.657,4.657,0,0,0,.886,3,2.9,2.9,0,0,0,2.379,1.1,3.009,3.009,0,0,0,2.39-1.063A3.962,3.962,0,0,0-34.821,18.026Zm14.169-.086h-7.767a4.114,4.114,0,0,0,.988,2.836,3.407,3.407,0,0,0,2.6,1,5.4,5.4,0,0,0,3.416-1.225v1.654a6.384,6.384,0,0,1-3.835,1.053,4.649,4.649,0,0,1-3.663-1.5,6.134,6.134,0,0,1-1.332-4.216,6.015,6.015,0,0,1,1.456-4.184,4.667,4.667,0,0,1,3.615-1.617,4.136,4.136,0,0,1,3.341,1.4,5.822,5.822,0,0,1,1.182,3.878Zm-1.8-1.493a3.584,3.584,0,0,0-.736-2.374,2.507,2.507,0,0,0-2.014-.849,2.846,2.846,0,0,0-2.116.892A4.046,4.046,0,0,0-28.4,16.447ZM-10.49,22.5a5.724,5.724,0,0,1-3.008.763,4.98,4.98,0,0,1-3.8-1.531,5.548,5.548,0,0,1-1.445-3.969,6.1,6.1,0,0,1,1.558-4.367,5.449,5.449,0,0,1,4.157-1.649,5.787,5.787,0,0,1,2.557.537v1.8a4.479,4.479,0,0,0-2.621-.859,3.542,3.542,0,0,0-2.766,1.208,4.586,4.586,0,0,0-1.08,3.174,4.366,4.366,0,0,0,1.015,3.051A3.5,3.5,0,0,0-13.2,21.775a4.415,4.415,0,0,0,2.707-.956Zm4.426.5H-7.826V6.715h1.762Zm11.44,0H3.615V21.281H3.572A3.688,3.688,0,0,1,.188,23.258a3.616,3.616,0,0,1-2.573-.87,3.015,3.015,0,0,1-.929-2.31q0-3.083,3.631-3.588l3.3-.462q0-2.8-2.267-2.8A5.415,5.415,0,0,0-2.24,14.578v-1.8A6.817,6.817,0,0,1,1.5,11.742q3.878,0,3.878,4.1ZM3.615,17.436.961,17.8a4.308,4.308,0,0,0-1.848.607,1.75,1.75,0,0,0-.623,1.542,1.679,1.679,0,0,0,.575,1.316,2.221,2.221,0,0,0,1.531.51,2.828,2.828,0,0,0,2.165-.918,3.282,3.282,0,0,0,.854-2.326Zm10.817-3.652a2.154,2.154,0,0,0-1.332-.354,2.248,2.248,0,0,0-1.885,1.063,4.917,4.917,0,0,0-.757,2.9V23H8.7V12h1.762v2.267H10.5a3.841,3.841,0,0,1,1.149-1.81,2.621,2.621,0,0,1,1.729-.65,2.876,2.876,0,0,1,1.053.15ZM24.218,23H22.457V21.281h-.043a3.688,3.688,0,0,1-3.384,1.977,3.616,3.616,0,0,1-2.573-.87,3.015,3.015,0,0,1-.929-2.31q0-3.083,3.631-3.588l3.3-.462q0-2.8-2.267-2.8A5.415,5.415,0,0,0,16.6,14.578v-1.8a6.817,6.817,0,0,1,3.738-1.031q3.878,0,3.878,4.1Zm-1.762-5.564L19.8,17.8a4.308,4.308,0,0,0-1.848.607,1.75,1.75,0,0,0-.623,1.542,1.679,1.679,0,0,0,.575,1.316,2.221,2.221,0,0,0,1.531.51,2.828,2.828,0,0,0,2.165-.918,3.282,3.282,0,0,0,.854-2.326ZM36.668,23H34.907V16.727q0-3.5-2.557-3.5a2.773,2.773,0,0,0-2.186.994,3.683,3.683,0,0,0-.865,2.508V23H27.538V12H29.3v1.826h.043a3.97,3.97,0,0,1,3.609-2.084,3.365,3.365,0,0,1,2.761,1.166,5.192,5.192,0,0,1,.956,3.368ZM-43.78,46h-1.762V44.26h-.043a3.618,3.618,0,0,1-3.395,2q-3.932,0-3.932-4.684V35h1.751v6.295q0,3.48,2.664,3.48a2.7,2.7,0,0,0,2.122-.951,3.638,3.638,0,0,0,.833-2.487V35h1.762Zm12.687,0h-1.762V39.727q0-3.5-2.557-3.5a2.773,2.773,0,0,0-2.186.994,3.683,3.683,0,0,0-.865,2.508V46h-1.762V35h1.762v1.826h.043a3.97,3.97,0,0,1,3.609-2.084,3.365,3.365,0,0,1,2.761,1.166,5.192,5.192,0,0,1,.956,3.368ZM-19.9,46h-1.762V44.281H-21.7a3.688,3.688,0,0,1-3.384,1.977,3.616,3.616,0,0,1-2.573-.87,3.015,3.015,0,0,1-.929-2.31q0-3.083,3.631-3.588l3.3-.462q0-2.8-2.267-2.8a5.415,5.415,0,0,0-3.588,1.354v-1.8a6.817,6.817,0,0,1,3.738-1.031q3.878,0,3.878,4.1Zm-1.762-5.564-2.653.365a4.308,4.308,0,0,0-1.848.607,1.75,1.75,0,0,0-.623,1.542,1.679,1.679,0,0,0,.575,1.316,2.221,2.221,0,0,0,1.531.51,2.828,2.828,0,0,0,2.165-.918,3.282,3.282,0,0,0,.854-2.326ZM-1.907,35-6.29,46H-8.019l-4.168-11h1.934l2.793,7.992a7.173,7.173,0,0,1,.387,1.536h.043a7.264,7.264,0,0,1,.344-1.493L-3.765,35ZM8.825,40.94H1.058a4.114,4.114,0,0,0,.988,2.836,3.407,3.407,0,0,0,2.6,1,5.4,5.4,0,0,0,3.416-1.225v1.654a6.384,6.384,0,0,1-3.835,1.053,4.649,4.649,0,0,1-3.663-1.5A6.134,6.134,0,0,1-.768,40.543,6.015,6.015,0,0,1,.688,36.359,4.667,4.667,0,0,1,4.3,34.742a4.136,4.136,0,0,1,3.341,1.4,5.822,5.822,0,0,1,1.182,3.878Zm-1.8-1.493a3.584,3.584,0,0,0-.736-2.374,2.507,2.507,0,0,0-2.014-.849,2.846,2.846,0,0,0-2.116.892A4.046,4.046,0,0,0,1.08,39.447Zm10.205-2.664a2.154,2.154,0,0,0-1.332-.354,2.248,2.248,0,0,0-1.885,1.063,4.917,4.917,0,0,0-.757,2.9V46H11.489V35H13.25v2.267h.043a3.841,3.841,0,0,1,1.149-1.81,2.621,2.621,0,0,1,1.729-.65,2.876,2.876,0,0,1,1.053.15ZM28.526,46H26.764V44.131h-.043a4.067,4.067,0,0,1-3.781,2.127,4.109,4.109,0,0,1-3.314-1.477,6.059,6.059,0,0,1-1.241-4.023,6.592,6.592,0,0,1,1.375-4.372,4.535,4.535,0,0,1,3.663-1.644,3.526,3.526,0,0,1,3.3,1.783h.043V29.715h1.762Zm-1.762-4.974V39.4a3.147,3.147,0,0,0-.881-2.256,2.954,2.954,0,0,0-2.234-.924,3.042,3.042,0,0,0-2.535,1.182,5.178,5.178,0,0,0-.924,3.266,4.657,4.657,0,0,0,.886,3,2.9,2.9,0,0,0,2.379,1.1,3.009,3.009,0,0,0,2.39-1.063A3.962,3.962,0,0,0,26.764,41.026ZM39.966,46H38.2V44.281h-.043a3.688,3.688,0,0,1-3.384,1.977,3.616,3.616,0,0,1-2.573-.87,3.015,3.015,0,0,1-.929-2.31q0-3.083,3.631-3.588l3.3-.462q0-2.8-2.267-2.8a5.415,5.415,0,0,0-3.588,1.354v-1.8a6.817,6.817,0,0,1,3.738-1.031q3.878,0,3.878,4.1ZM38.2,40.436l-2.653.365a4.308,4.308,0,0,0-1.848.607,1.75,1.75,0,0,0-.623,1.542,1.679,1.679,0,0,0,.575,1.316,2.221,2.221,0,0,0,1.531.51,2.828,2.828,0,0,0,2.165-.918,3.282,3.282,0,0,0,.854-2.326ZM52.674,46H50.913V44.131H50.87a4.067,4.067,0,0,1-3.781,2.127,4.109,4.109,0,0,1-3.314-1.477,6.059,6.059,0,0,1-1.241-4.023,6.592,6.592,0,0,1,1.375-4.372,4.535,4.535,0,0,1,3.663-1.644,3.526,3.526,0,0,1,3.3,1.783h.043V29.715h1.762Zm-1.762-4.974V39.4a3.147,3.147,0,0,0-.881-2.256,2.954,2.954,0,0,0-2.234-.924,3.042,3.042,0,0,0-2.535,1.182,5.178,5.178,0,0,0-.924,3.266,4.657,4.657,0,0,0,.886,3,2.9,2.9,0,0,0,2.379,1.1,3.009,3.009,0,0,0,2.39-1.063A3.962,3.962,0,0,0,50.913,41.026Z" transform="translate(485.051 6805)" fill="#12263f"/>
    <path id="Trazado_897401" data-name="Trazado 897401" d="M-51.315,0h-9.238V-15.4h8.884v2.825h-5.414v3.427h5.038v2.814h-5.038v3.523h5.769Zm3.856-12.74a1.983,1.983,0,0,1-1.407-.51,1.644,1.644,0,0,1-.548-1.251,1.586,1.586,0,0,1,.548-1.246,2.048,2.048,0,0,1,1.407-.483,2.044,2.044,0,0,1,1.413.483A1.593,1.593,0,0,1-45.5-14.5a1.638,1.638,0,0,1-.542,1.268A2.016,2.016,0,0,1-47.459-12.74ZM-45.783-.193a5.979,5.979,0,0,1-1.192,3.9,4.181,4.181,0,0,1-3.437,1.461,4.753,4.753,0,0,1-1.622-.322V2.181a2.644,2.644,0,0,0,1.257.4q1.6,0,1.6-2.514V-11h3.395Zm12.74-4.34h-7.176q.172,2.4,3.019,2.4A5.893,5.893,0,0,0-34.01-3V-.548a8.381,8.381,0,0,1-3.964.816,5.58,5.58,0,0,1-4.136-1.477,5.58,5.58,0,0,1-1.472-4.12,5.887,5.887,0,0,1,1.59-4.34,5.3,5.3,0,0,1,3.91-1.6A4.807,4.807,0,0,1-34.359-9.84a5.5,5.5,0,0,1,1.316,3.878ZM-36.19-6.617q0-2.363-1.912-2.363a1.826,1.826,0,0,0-1.413.677,3.072,3.072,0,0,0-.725,1.687ZM-13.557,0H-16.94V-6.273q0-2.4-1.762-2.4a1.619,1.619,0,0,0-1.364.72,2.958,2.958,0,0,0-.526,1.794V0h-3.395V-6.338q0-2.331-1.729-2.331a1.658,1.658,0,0,0-1.391.688,3.025,3.025,0,0,0-.521,1.869V0h-3.395V-11h3.395v1.719h.043a4.059,4.059,0,0,1,1.477-1.434,4.06,4.06,0,0,1,2.079-.553,3.167,3.167,0,0,1,3.19,2.052,4.069,4.069,0,0,1,3.7-2.052q3.588,0,3.588,4.426Zm6.123-1.278h-.043V5.06h-3.395V-11h3.395v1.654h.043A3.99,3.99,0,0,1-3.9-11.269,3.976,3.976,0,0,1-.6-9.8,6.243,6.243,0,0,1,.569-5.812,6.767,6.767,0,0,1-.79-1.4,4.431,4.431,0,0,1-4.4.269,3.425,3.425,0,0,1-7.434-1.278Zm-.1-4.512v.881a2.8,2.8,0,0,0,.6,1.858,1.958,1.958,0,0,0,1.579.72,2.081,2.081,0,0,0,1.8-.9,4.331,4.331,0,0,0,.639-2.541q0-2.9-2.256-2.9a2.118,2.118,0,0,0-1.7.79A3.149,3.149,0,0,0-7.53-5.79ZM6.166,0H2.771V-16.285H6.166Zm8.1.269A5.913,5.913,0,0,1,9.942-1.273,5.589,5.589,0,0,1,8.368-5.457,5.589,5.589,0,0,1,10-9.727a6.17,6.17,0,0,1,4.415-1.542,5.842,5.842,0,0,1,4.3,1.542A5.48,5.48,0,0,1,20.271-5.65a5.816,5.816,0,0,1-1.606,4.329A5.979,5.979,0,0,1,14.266.269Zm.086-8.937a2.264,2.264,0,0,0-1.869.827A3.647,3.647,0,0,0,11.816-5.5q0,3.169,2.557,3.169,2.438,0,2.438-3.255Q16.812-8.669,14.352-8.669Zm7.4,8.379V-3.04a7.227,7.227,0,0,0,1.67.752A5.538,5.538,0,0,0,25-2.041a3.375,3.375,0,0,0,1.423-.247.8.8,0,0,0,.521-.752.7.7,0,0,0-.236-.537,2.2,2.2,0,0,0-.607-.376,6.888,6.888,0,0,0-.811-.29q-.44-.129-.849-.29a8.131,8.131,0,0,1-1.155-.532,3.338,3.338,0,0,1-.838-.661,2.6,2.6,0,0,1-.516-.87,3.472,3.472,0,0,1-.177-1.171,3.014,3.014,0,0,1,.4-1.59,3.29,3.29,0,0,1,1.074-1.09,4.908,4.908,0,0,1,1.536-.623,8.01,8.01,0,0,1,1.8-.2,9.984,9.984,0,0,1,1.482.113,11.064,11.064,0,0,1,1.482.328v2.621a5.357,5.357,0,0,0-1.38-.564,5.823,5.823,0,0,0-1.445-.188,3.2,3.2,0,0,0-.628.059,2.07,2.07,0,0,0-.521.172.957.957,0,0,0-.354.29.668.668,0,0,0-.129.4.744.744,0,0,0,.193.516,1.679,1.679,0,0,0,.5.371,4.984,4.984,0,0,0,.693.279q.381.124.757.252a9.846,9.846,0,0,1,1.225.516,3.916,3.916,0,0,1,.94.655,2.573,2.573,0,0,1,.6.881,3.131,3.131,0,0,1,.209,1.2,3.138,3.138,0,0,1-.424,1.67A3.4,3.4,0,0,1,28.644-.564,5.115,5.115,0,0,1,27.022.07a8.992,8.992,0,0,1-1.907.2A9.83,9.83,0,0,1,21.753-.29ZM48.984,0H45.59V-1.515h-.043A3.806,3.806,0,0,1,42.142.269a4.17,4.17,0,0,1-3.319-1.456,6.025,6.025,0,0,1-1.257-4.066,6.558,6.558,0,0,1,1.386-4.372,4.52,4.52,0,0,1,3.631-1.644,3.089,3.089,0,0,1,2.965,1.525h.043v-6.542h3.395Zm-3.33-5.35v-.827a2.6,2.6,0,0,0-.623-1.783,2.058,2.058,0,0,0-1.622-.709,2.045,2.045,0,0,0-1.762.886,4.115,4.115,0,0,0-.634,2.433,3.561,3.561,0,0,0,.612,2.234,2.033,2.033,0,0,0,1.7.784A2.041,2.041,0,0,0,45-3.158,3.448,3.448,0,0,0,45.654-5.35Zm16.07.816H54.549q.172,2.4,3.019,2.4A5.893,5.893,0,0,0,60.758-3V-.548a8.381,8.381,0,0,1-3.964.816,5.58,5.58,0,0,1-4.136-1.477,5.58,5.58,0,0,1-1.472-4.12,5.887,5.887,0,0,1,1.59-4.34,5.3,5.3,0,0,1,3.91-1.6A4.807,4.807,0,0,1,60.409-9.84a5.5,5.5,0,0,1,1.316,3.878ZM58.577-6.617q0-2.363-1.912-2.363a1.826,1.826,0,0,0-1.413.677,3.072,3.072,0,0,0-.725,1.687ZM-59.286,21.722h-.043V28.06h-3.395V12h3.395v1.654h.043a3.99,3.99,0,0,1,3.534-1.923,3.976,3.976,0,0,1,3.3,1.466,6.243,6.243,0,0,1,1.166,3.991A6.767,6.767,0,0,1-52.642,21.6a4.431,4.431,0,0,1-3.615,1.665A3.425,3.425,0,0,1-59.286,21.722Zm-.1-4.512v.881a2.8,2.8,0,0,0,.6,1.858,1.958,1.958,0,0,0,1.579.72,2.081,2.081,0,0,0,1.8-.9,4.331,4.331,0,0,0,.639-2.541q0-2.9-2.256-2.9a2.118,2.118,0,0,0-1.7.79A3.149,3.149,0,0,0-59.383,17.21Zm17.478-2.148a2.945,2.945,0,0,0-1.429-.333,2.058,2.058,0,0,0-1.729.811,3.538,3.538,0,0,0-.623,2.208V23h-3.395V12h3.395v2.041h.043a2.937,2.937,0,0,1,2.9-2.234,2.186,2.186,0,0,1,.838.129Zm6.735,8.207a5.913,5.913,0,0,1-4.324-1.542,5.589,5.589,0,0,1-1.574-4.184,5.589,5.589,0,0,1,1.633-4.27,6.17,6.17,0,0,1,4.415-1.542,5.842,5.842,0,0,1,4.3,1.542,5.48,5.48,0,0,1,1.558,4.077,5.816,5.816,0,0,1-1.606,4.329A5.979,5.979,0,0,1-35.17,23.269Zm.086-8.937a2.264,2.264,0,0,0-1.869.827,3.647,3.647,0,0,0-.666,2.342q0,3.169,2.557,3.169,2.438,0,2.438-3.255Q-32.624,14.331-35.084,14.331Zm11.559,7.391h-.043V28.06h-3.395V12h3.395v1.654h.043a3.99,3.99,0,0,1,3.534-1.923,3.976,3.976,0,0,1,3.3,1.466,6.243,6.243,0,0,1,1.166,3.991A6.767,6.767,0,0,1-16.881,21.6,4.431,4.431,0,0,1-20.5,23.269,3.425,3.425,0,0,1-23.525,21.722Zm-.1-4.512v.881a2.8,2.8,0,0,0,.6,1.858,1.958,1.958,0,0,0,1.579.72,2.081,2.081,0,0,0,1.8-.9A4.331,4.331,0,0,0-19,17.231q0-2.9-2.256-2.9a2.118,2.118,0,0,0-1.7.79A3.149,3.149,0,0,0-23.622,17.21Zm15.544,6.059A5.913,5.913,0,0,1-12.4,21.727a5.589,5.589,0,0,1-1.574-4.184,5.589,5.589,0,0,1,1.633-4.27,6.17,6.17,0,0,1,4.415-1.542,5.842,5.842,0,0,1,4.3,1.542A5.48,5.48,0,0,1-2.073,17.35a5.816,5.816,0,0,1-1.606,4.329A5.979,5.979,0,0,1-8.078,23.269Zm.086-8.937a2.264,2.264,0,0,0-1.869.827,3.647,3.647,0,0,0-.666,2.342q0,3.169,2.557,3.169,2.438,0,2.438-3.255Q-5.532,14.331-7.992,14.331Zm7.4,8.379V19.96a7.227,7.227,0,0,0,1.67.752,5.538,5.538,0,0,0,1.574.247,3.375,3.375,0,0,0,1.423-.247A.8.8,0,0,0,4.6,19.96a.7.7,0,0,0-.236-.537,2.2,2.2,0,0,0-.607-.376,6.887,6.887,0,0,0-.811-.29q-.44-.129-.849-.29A8.131,8.131,0,0,1,.94,17.935,3.338,3.338,0,0,1,.1,17.274a2.6,2.6,0,0,1-.516-.87,3.472,3.472,0,0,1-.177-1.171,3.014,3.014,0,0,1,.4-1.59,3.29,3.29,0,0,1,1.074-1.09,4.908,4.908,0,0,1,1.536-.623,8.01,8.01,0,0,1,1.8-.2,9.984,9.984,0,0,1,1.482.113,11.064,11.064,0,0,1,1.482.328v2.621a5.357,5.357,0,0,0-1.38-.564,5.823,5.823,0,0,0-1.445-.188,3.2,3.2,0,0,0-.628.059,2.07,2.07,0,0,0-.521.172.957.957,0,0,0-.354.29.668.668,0,0,0-.129.4.744.744,0,0,0,.193.516,1.679,1.679,0,0,0,.5.371,4.984,4.984,0,0,0,.693.279q.381.124.757.252A9.847,9.847,0,0,1,6.1,16.9a3.916,3.916,0,0,1,.94.655,2.573,2.573,0,0,1,.6.881,3.524,3.524,0,0,1-.215,2.874A3.4,3.4,0,0,1,6.3,22.436a5.115,5.115,0,0,1-1.622.634,8.992,8.992,0,0,1-1.907.2A9.83,9.83,0,0,1-.591,22.71ZM11.526,10.26a1.983,1.983,0,0,1-1.407-.51A1.644,1.644,0,0,1,9.571,8.5a1.586,1.586,0,0,1,.548-1.246,2.048,2.048,0,0,1,1.407-.483,2.044,2.044,0,0,1,1.413.483A1.593,1.593,0,0,1,13.481,8.5a1.637,1.637,0,0,1-.542,1.268A2.016,2.016,0,0,1,11.526,10.26ZM13.2,23H9.808V12H13.2ZM24.4,22.6a6.712,6.712,0,0,1-3.319.666,5.614,5.614,0,0,1-4.1-1.536A5.305,5.305,0,0,1,15.4,17.769a5.844,5.844,0,0,1,1.681-4.42,6.213,6.213,0,0,1,4.5-1.617,5.768,5.768,0,0,1,2.814.516v2.879a3.87,3.87,0,0,0-2.374-.795,3.128,3.128,0,0,0-2.315.854,3.187,3.187,0,0,0-.854,2.358,3.135,3.135,0,0,0,.816,2.293,3,3,0,0,0,2.245.833,4.48,4.48,0,0,0,2.481-.795ZM28.338,10.26a1.983,1.983,0,0,1-1.407-.51A1.644,1.644,0,0,1,26.383,8.5a1.586,1.586,0,0,1,.548-1.246,2.3,2.3,0,0,1,2.82,0A1.593,1.593,0,0,1,30.293,8.5a1.637,1.637,0,0,1-.542,1.268A2.016,2.016,0,0,1,28.338,10.26ZM30.014,23H26.619V12h3.395Zm8.1.269a5.913,5.913,0,0,1-4.324-1.542,5.589,5.589,0,0,1-1.574-4.184,5.589,5.589,0,0,1,1.633-4.27,6.17,6.17,0,0,1,4.415-1.542,5.842,5.842,0,0,1,4.3,1.542,5.48,5.48,0,0,1,1.558,4.077,5.816,5.816,0,0,1-1.606,4.329A5.979,5.979,0,0,1,38.113,23.269Zm.086-8.937a2.264,2.264,0,0,0-1.869.827,3.647,3.647,0,0,0-.666,2.342q0,3.169,2.557,3.169,2.438,0,2.438-3.255Q40.659,14.331,38.2,14.331ZM41.841,6.79l-3.362,3.47H36.029l2.793-3.47ZM56.934,23H53.55V16.888q0-2.557-1.826-2.557a1.812,1.812,0,0,0-1.45.677,2.578,2.578,0,0,0-.569,1.719V23H46.31V12H49.7v1.74h.043a3.89,3.89,0,0,1,3.534-2.009q3.652,0,3.652,4.533Zm4.2.269a1.98,1.98,0,0,1-1.4-.516,1.658,1.658,0,0,1-.559-1.268,1.6,1.6,0,0,1,.575-1.268,2.122,2.122,0,0,1,1.434-.494,2.043,2.043,0,0,1,1.423.5,1.73,1.73,0,0,1-.011,2.546A2.129,2.129,0,0,1,61.134,23.269Z" transform="translate(485.051 6716)" fill="#824ffb"/>
  </g>
</svg>
