<svg xmlns="http://www.w3.org/2000/svg" xmlns:xlink="http://www.w3.org/1999/xlink" width="295" height="247" viewBox="0 0 295 247">
  <defs>
    <clipPath id="clip-path">
      <rect id="Rectángulo_401474" data-name="Rectángulo 401474" width="295" height="39.798" fill="#824ffb"/>
    </clipPath>
    <linearGradient id="linear-gradient" x1="0.5" x2="0.918" y2="2.27" gradientUnits="objectBoundingBox">
      <stop offset="0" stop-color="#fee3b3"/>
      <stop offset="1" stop-color="#ff84ed"/>
    </linearGradient>
    <clipPath id="clip-path-2">
      <rect id="Rectángulo_402013" data-name="Rectángulo 402013" width="221.341" height="220.419" fill="none"/>
    </clipPath>
    <clipPath id="clip-path-4">
      <rect id="Rectángulo_401985" data-name="Rectángulo 401985" width="39.466" height="18.805" fill="none"/>
    </clipPath>
    <clipPath id="clip-path-5">
      <rect id="Rectángulo_401986" data-name="Rectángulo 401986" width="6.215" height="6.215" fill="none"/>
    </clipPath>
    <clipPath id="clip-path-6">
      <rect id="Rectángulo_401990" data-name="Rectángulo 401990" width="47.041" height="21.978" fill="none"/>
    </clipPath>
    <clipPath id="clip-path-7">
      <rect id="Rectángulo_401991" data-name="Rectángulo 401991" width="7.408" height="7.408" fill="none"/>
    </clipPath>
    <clipPath id="clip-path-8">
      <rect id="Rectángulo_401995" data-name="Rectángulo 401995" width="19.797" height="15.001" fill="none"/>
    </clipPath>
    <clipPath id="clip-path-9">
      <rect id="Rectángulo_401998" data-name="Rectángulo 401998" width="27.182" height="12.952" fill="none"/>
    </clipPath>
    <clipPath id="clip-path-11">
      <rect id="Rectángulo_402000" data-name="Rectángulo 402000" width="4.281" height="4.281" fill="none"/>
    </clipPath>
    <clipPath id="clip-path-12">
      <rect id="Rectángulo_402003" data-name="Rectángulo 402003" width="18.154" height="8.65" fill="none"/>
    </clipPath>
    <clipPath id="clip-path-13">
      <rect id="Rectángulo_402004" data-name="Rectángulo 402004" width="2.859" height="2.859" fill="none"/>
    </clipPath>
    <clipPath id="clip-path-14">
      <rect id="Rectángulo_402007" data-name="Rectángulo 402007" width="70.485" height="33.586" fill="none"/>
    </clipPath>
    <clipPath id="clip-path-15">
      <rect id="Rectángulo_402008" data-name="Rectángulo 402008" width="11.101" height="11.101" fill="none"/>
    </clipPath>
    <clipPath id="clip-path-16">
      <rect id="Rectángulo_402009" data-name="Rectángulo 402009" width="3.234" height="2.289" fill="none"/>
    </clipPath>
    <clipPath id="clip-path-17">
      <rect id="Rectángulo_402010" data-name="Rectángulo 402010" width="14.746" height="1.557" fill="none"/>
    </clipPath>
    <clipPath id="clip-path-18">
      <rect id="Rectángulo_402011" data-name="Rectángulo 402011" width="8.876" height="1.049" fill="none"/>
    </clipPath>
  </defs>
  <g id="Grupo_1103302" data-name="Grupo 1103302" transform="translate(-810 -7541)">
    <rect id="Rectángulo_401369" data-name="Rectángulo 401369" width="295" height="247" transform="translate(810 7541)" fill="#824ffb"/>
    <rect id="Rectángulo_401475" data-name="Rectángulo 401475" width="295" height="247" transform="translate(810 7541)" fill="#824ffb"/>
    <g id="Grupo_1099665" data-name="Grupo 1099665" transform="translate(810 7748)">
      <g id="Grupo_1099664" data-name="Grupo 1099664" clip-path="url(#clip-path)">
        <path id="Trazado_879587" data-name="Trazado 879587" d="M0,0H295V39.8H0Z" transform="translate(0)" fill="url(#linear-gradient)"/>
      </g>
    </g>
    <g id="Grupo_1099667" data-name="Grupo 1099667" transform="translate(600 7468.617)">
      <g id="Grupo_1099671" data-name="Grupo 1099671" transform="translate(210 278.383)">
        <path id="Trazado_879586" data-name="Trazado 879586" d="M294.454,169.707H.546A.557.557,0,0,1,0,169.14V129.476a.556.556,0,0,1,.546-.567H294.454a.555.555,0,0,1,.546.567V169.14a.556.556,0,0,1-.546.567M1.091,168.573H293.909V130.043H1.091Z" transform="translate(0 -128.909)" fill="#2c1549"/>
      </g>
    </g>
    <g id="Grupo_1102054" data-name="Grupo 1102054" transform="translate(846.83 7556.07)">
      <g id="Grupo_1102053" data-name="Grupo 1102053" clip-path="url(#clip-path-2)">
        <g id="Grupo_1102052" data-name="Grupo 1102052">
          <g id="Grupo_1102051" data-name="Grupo 1102051" clip-path="url(#clip-path-2)">
            <path id="Trazado_892645" data-name="Trazado 892645" d="M697.853,419.046a21.234,21.234,0,0,1-4.538,1.507,21.234,21.234,0,0,1,4.538-1.507" transform="translate(-496.759 -300.239)" fill="#e1e1e1"/>
            <path id="Trazado_892646" data-name="Trazado 892646" d="M506.007,710.038v18.828h2.521l3.383-19.039Z" transform="translate(-362.554 -508.59)" fill="#e1e1e1"/>
            <path id="Trazado_892647" data-name="Trazado 892647" d="M586.841,710.038v18.828h2.521l3.383-19.039Z" transform="translate(-420.471 -508.59)" fill="#e1e1e1"/>
            <path id="Trazado_892648" data-name="Trazado 892648" d="M673,710.038v18.828h-2.521L667.1,709.827Z" transform="translate(-477.976 -508.59)" fill="#e1e1e1"/>
            <path id="Trazado_892649" data-name="Trazado 892649" d="M729.79,710.038v18.828h-2.521l-3.383-19.039Z" transform="translate(-518.664 -508.59)" fill="#e1e1e1"/>
            <path id="Trazado_892650" data-name="Trazado 892650" d="M521.755,561.882s-9.961-2.872-12.708.957-3.039,40.718-3.039,40.718,17.778.323,18.106,0-2.358-41.674-2.358-41.674" transform="translate(-362.554 -401.848)" fill="#e1e1e1"/>
            <path id="Trazado_892651" data-name="Trazado 892651" d="M610.072,488.4l.435-63.959a14.821,14.821,0,0,0-14.89-14.922H572.139A14.634,14.634,0,0,0,557.51,424.5l1.508,63.9Z" transform="translate(-399.452 -293.419)" fill="#ececec"/>
            <path id="Trazado_892652" data-name="Trazado 892652" d="M580.855,652.419s-9.052-13.352-19.689-13.788-33.565,0-33.565,0-10.164.385-10.873,12.974v7.426h64.127Z" transform="translate(-370.235 -457.439)" fill="#ececec"/>
            <path id="Trazado_892653" data-name="Trazado 892653" d="M558.732,638.961l-26.324-.138c-2.749-.014-5.874-.352-8.538.4-7.845,2.227-9,12.262-8.374,19.184.026.284-.417.282-.443,0-.523-5.8.09-13.933,5.054-17.8,2.863-2.229,6.191-2.265,9.608-2.247l29.017.152a.222.222,0,0,1,0,.443" transform="translate(-368.925 -457.387)" fill="#e1e1e1"/>
            <path id="Trazado_892654" data-name="Trazado 892654" d="M583.079,414.683a.878.878,0,0,1,.168-.061c.113-.032.28-.1.506-.146s.509-.094.843-.145.722-.088,1.159-.126c1.747-.153,4.283-.246,7.416-.265,1.566-.012,3.282,0,5.123.021a53.458,53.458,0,0,1,5.882.269,27.233,27.233,0,0,1,3.142.565,14.446,14.446,0,0,1,3.146,1.12,11.994,11.994,0,0,1,2.769,2.079,11.764,11.764,0,0,1,2.146,2.848,8.259,8.259,0,0,1,.654,1.685,12.022,12.022,0,0,1,.27,1.754c.138,1.156.251,2.3.362,3.42.216,2.244.375,4.414.5,6.481.257,4.135.371,7.864.447,10.995s.1,5.665.117,7.416c0,.862.008,1.539.011,2.016,0,.219,0,.392,0,.524a.883.883,0,0,1-.01.179.9.9,0,0,1-.017-.178c-.006-.132-.013-.305-.023-.524-.014-.478-.035-1.154-.061-2.016-.048-1.767-.117-4.3-.2-7.413-.1-3.129-.234-6.855-.5-10.984-.137-2.064-.3-4.23-.52-6.471-.113-1.12-.227-2.26-.365-3.414a11.821,11.821,0,0,0-.264-1.717,8.005,8.005,0,0,0-.633-1.628,11.525,11.525,0,0,0-2.1-2.781,11.775,11.775,0,0,0-2.7-2.036,14.26,14.26,0,0,0-3.086-1.1,27.263,27.263,0,0,0-3.111-.568,54.212,54.212,0,0,0-5.855-.292c-1.84-.034-3.555-.054-5.119-.054-3.13,0-5.663.059-7.408.179l-1.157.1-.842.118c-.226.04-.392.1-.508.119a.915.915,0,0,1-.177.035" transform="translate(-417.776 -296.584)" fill="#e1e1e1"/>
            <path id="Trazado_892655" data-name="Trazado 892655" d="M706.27,475.867a13.892,13.892,0,0,1-3.646,1.282,13.925,13.925,0,0,1,3.646-1.282" transform="translate(-503.429 -340.949)" fill="#e1e1e1"/>
            <path id="Trazado_892656" data-name="Trazado 892656" d="M704.292,488.414c0,.075-.379.118-.839.1s-.831-.1-.827-.172.379-.118.839-.1.831.1.827.172" transform="translate(-503.43 -349.821)" fill="#e1e1e1"/>
            <path id="Trazado_892657" data-name="Trazado 892657" d="M652.952,483.944c-.005-.014.077-.067.249-.079a.987.987,0,0,1,.676.238.975.975,0,0,1,.335,1.016,1.153,1.153,0,0,1-1,.847,1.192,1.192,0,0,1-1.115-.689,1.1,1.1,0,0,1,.08-1.067,1.14,1.14,0,0,1,.547-.457c.16-.058.255-.051.257-.036a1.629,1.629,0,0,0-.64.589.916.916,0,0,0-.021.861.964.964,0,0,0,.875.529.923.923,0,0,0,.778-.645.785.785,0,0,0-.223-.806,1.216,1.216,0,0,0-.8-.3" transform="translate(-467.152 -346.576)" fill="#e1e1e1"/>
            <path id="Trazado_892658" data-name="Trazado 892658" d="M653.47,463.65c.027.035-.278.266-.654.736a4.616,4.616,0,0,0-.8,4.4c.186.572.389.9.351.92a2.063,2.063,0,0,1-.53-.854,4.323,4.323,0,0,1,.839-4.586,2.06,2.06,0,0,1,.8-.611" transform="translate(-466.808 -332.203)" fill="#e1e1e1"/>
            <path id="Trazado_892659" data-name="Trazado 892659" d="M652.57,497.368a2.662,2.662,0,0,1-.671-.872,6.356,6.356,0,0,1-.8-2.534,6.117,6.117,0,0,1,.029-1.476,2.288,2.288,0,0,1,.462-1.135,1.358,1.358,0,0,1,.691-.458c.193-.048.3-.022.3-.008a1.661,1.661,0,0,0-.843.583,3.861,3.861,0,0,0-.373,2.467,7.326,7.326,0,0,0,.7,2.471c.289.6.538.935.5.962" transform="translate(-466.487 -351.705)" fill="#e1e1e1"/>
            <path id="Trazado_892660" data-name="Trazado 892660" d="M643.533,486.115c-.054-.048.4-.462,1.108-.461s1.165.4,1.111.452a3.386,3.386,0,0,0-2.219.008" transform="translate(-461.088 -347.971)" fill="#e1e1e1"/>
            <path id="Trazado_892661" data-name="Trazado 892661" d="M600.264,483.944c-.005-.014.077-.067.249-.079a.987.987,0,0,1,.676.238.975.975,0,0,1,.335,1.016,1.153,1.153,0,0,1-1,.847,1.192,1.192,0,0,1-1.115-.689,1.1,1.1,0,0,1,.08-1.067,1.139,1.139,0,0,1,.547-.457c.16-.058.255-.051.257-.036a1.627,1.627,0,0,0-.64.589.917.917,0,0,0-.021.861.964.964,0,0,0,.875.529.924.924,0,0,0,.778-.645.785.785,0,0,0-.223-.806,1.216,1.216,0,0,0-.8-.3" transform="translate(-429.401 -346.576)" fill="#e1e1e1"/>
            <path id="Trazado_892662" data-name="Trazado 892662" d="M600.782,463.65c.027.035-.278.266-.654.736a4.615,4.615,0,0,0-.8,4.4c.186.572.389.9.351.92a2.066,2.066,0,0,1-.53-.854,4.323,4.323,0,0,1,.839-4.586,2.06,2.06,0,0,1,.8-.611" transform="translate(-429.057 -332.203)" fill="#e1e1e1"/>
            <path id="Trazado_892663" data-name="Trazado 892663" d="M599.882,497.368a2.662,2.662,0,0,1-.671-.872,6.357,6.357,0,0,1-.8-2.534,6.134,6.134,0,0,1,.029-1.476,2.292,2.292,0,0,1,.462-1.135,1.359,1.359,0,0,1,.691-.458c.193-.048.3-.022.3-.008a1.662,1.662,0,0,0-.843.583,3.862,3.862,0,0,0-.373,2.467,7.329,7.329,0,0,0,.7,2.471c.289.6.538.935.5.962" transform="translate(-428.736 -351.705)" fill="#e1e1e1"/>
            <path id="Trazado_892664" data-name="Trazado 892664" d="M590.845,486.115c-.054-.048.4-.462,1.108-.461s1.165.4,1.111.452a3.386,3.386,0,0,0-2.219.008" transform="translate(-423.337 -347.971)" fill="#e1e1e1"/>
            <path id="Trazado_892665" data-name="Trazado 892665" d="M688.323,559.366s-15.23-3.94-17.984,1.244-3.24,40.9-3.24,40.9,21.991.81,22.044-.117-.82-42.024-.82-42.024" transform="translate(-477.976 -399.758)" fill="#f5f5f5"/>
            <path id="Trazado_892666" data-name="Trazado 892666" d="M703.728,560.231s-10.059-2.588-12.806,1.241-3.471,41.247-3.471,41.247,16.053.474,16.38.15-.1-42.638-.1-42.638" transform="translate(-492.558 -400.793)" fill="#ececec"/>
            <path id="Trazado_892667" data-name="Trazado 892667" d="M722.262,627.505c-.012-.008.036-.093.189-.11a.521.521,0,0,1,.5.322,1.616,1.616,0,0,1,.1.858.84.84,0,0,1-.245.495.688.688,0,0,1-.591.16.794.794,0,0,1-.618-.531,1.038,1.038,0,0,1,.017-.706,1.4,1.4,0,0,1,.652-.7l.015.108c-.168-.075-.255-.125-.248-.146s.106-.01.286.03l.112.025-.1.083a1.525,1.525,0,0,0-.5.676.663.663,0,0,0,.431.895.467.467,0,0,0,.545-.435,1.62,1.62,0,0,0-.027-.738.418.418,0,0,0-.327-.292c-.111-.018-.175.023-.187,0" transform="translate(-516.983 -449.421)" fill="#e1e1e1"/>
            <path id="Trazado_892668" data-name="Trazado 892668" d="M713.978,604.222a3.957,3.957,0,0,1,.64.9,20.608,20.608,0,0,1,2.124,4.892,3.942,3.942,0,0,1,.224,1.086c-.078.022-.546-1.6-1.375-3.494s-1.683-3.347-1.614-3.389" transform="translate(-511.562 -432.924)" fill="#e1e1e1"/>
            <path id="Trazado_892669" data-name="Trazado 892669" d="M728.211,606.443c.069.037-.613,1.427-1.367,3.177s-1.305,3.2-1.379,3.173a22.829,22.829,0,0,1,2.746-6.35" transform="translate(-519.79 -434.516)" fill="#e1e1e1"/>
            <path id="Trazado_892670" data-name="Trazado 892670" d="M714.2,644.1a8.681,8.681,0,0,1,.176-1.6c.151-.982.4-2.332.731-3.811s.691-2.8.976-3.756a8.69,8.69,0,0,1,.528-1.52,10.465,10.465,0,0,1-.343,1.57c-.238.962-.564,2.291-.9,3.765s-.608,2.814-.806,3.785a10.447,10.447,0,0,1-.364,1.565" transform="translate(-511.718 -453.839)" fill="#e1e1e1"/>
            <path id="Trazado_892671" data-name="Trazado 892671" d="M728.357,640.088c-.078.02-.511-1.507-1.251-3.312s-1.492-3.2-1.422-3.242a3.576,3.576,0,0,1,.579.87,20.541,20.541,0,0,1,1.9,4.657,3.58,3.58,0,0,1,.195,1.027" transform="translate(-519.949 -453.926)" fill="#e1e1e1"/>
            <rect id="Rectángulo_401975" data-name="Rectángulo 401975" width="20.1" height="25.142" transform="matrix(0.014, -1, 1, 0.014, 30.972, 119.991)" fill="#ececec"/>
            <rect id="Rectángulo_401976" data-name="Rectángulo 401976" width="17.569" height="23.375" transform="translate(31.857 118.738) rotate(-89.181)" fill="#f5f5f5"/>
            <path id="Trazado_892672" data-name="Trazado 892672" d="M112.371,391.524l8.32-10.8,4.959,6.9,3.482-3.6,6.612,7.836Z" transform="translate(-80.514 -272.787)" fill="#ececec"/>
            <path id="Trazado_892673" data-name="Trazado 892673" d="M157.89,371.648a1.841,1.841,0,1,1-1.814-1.867,1.841,1.841,0,0,1,1.814,1.867" transform="translate(-110.491 -264.948)" fill="#ececec"/>
            <rect id="Rectángulo_401977" data-name="Rectángulo 401977" width="25.886" height="32.379" transform="matrix(0.014, -1, 1, 0.014, 6.99, 26.479)" fill="#ececec"/>
            <rect id="Rectángulo_401978" data-name="Rectángulo 401978" width="22.627" height="30.104" transform="translate(8.129 24.866) rotate(-89.181)" fill="#f5f5f5"/>
            <path id="Trazado_892674" data-name="Trazado 892674" d="M28.675,52.546,39.389,38.633l6.387,8.892,4.484-4.641,8.516,10.092Z" transform="translate(-20.545 -27.681)" fill="#ececec"/>
            <path id="Trazado_892675" data-name="Trazado 892675" d="M87.3,26.948a2.37,2.37,0,1,1-2.336-2.4,2.37,2.37,0,0,1,2.336,2.4" transform="translate(-59.153 -17.586)" fill="#ececec"/>
            <rect id="Rectángulo_401979" data-name="Rectángulo 401979" width="28.406" height="35.531" transform="translate(171.769 36.175) rotate(-89.182)" fill="#ececec"/>
            <rect id="Rectángulo_401980" data-name="Rectángulo 401980" width="24.83" height="33.035" transform="translate(173.02 34.404) rotate(-89.181)" fill="#f5f5f5"/>
            <path id="Trazado_892676" data-name="Trazado 892676" d="M610.3,82.77,622.055,67.5l7.009,9.758,4.921-5.093,9.344,11.075Z" transform="translate(-437.278 -48.365)" fill="#ececec"/>
            <path id="Trazado_892677" data-name="Trazado 892677" d="M674.628,54.679a2.6,2.6,0,1,1-2.564-2.638,2.6,2.6,0,0,1,2.564,2.638" transform="translate(-479.643 -37.287)" fill="#ececec"/>
            <rect id="Rectángulo_401981" data-name="Rectángulo 401981" width="27.282" height="34.125" transform="translate(113.303 144.466) rotate(-89.181)" fill="#ececec"/>
            <rect id="Rectángulo_401982" data-name="Rectángulo 401982" width="23.847" height="31.728" transform="translate(114.504 142.766) rotate(-89.181)" fill="#f5f5f5"/>
            <path id="Trazado_892678" data-name="Trazado 892678" d="M403.895,466.522l11.292-14.664,6.731,9.371,4.727-4.891,8.974,10.636Z" transform="translate(-289.39 -323.756)" fill="#ececec"/>
            <path id="Trazado_892679" data-name="Trazado 892679" d="M465.68,439.543a2.5,2.5,0,1,1-2.462-2.534,2.5,2.5,0,0,1,2.462,2.534" transform="translate(-330.08 -313.117)" fill="#ececec"/>
            <path id="Trazado_892680" data-name="Trazado 892680" d="M221.341,776.622c0,.079-49.553.143-110.665.143C49.542,776.765,0,776.7,0,776.622s49.542-.143,110.676-.143c61.112,0,110.665.064,110.665.143" transform="translate(0 -556.347)" fill="#1a2e35"/>
            <rect id="Rectángulo_401983" data-name="Rectángulo 401983" width="33.94" height="42.453" transform="matrix(0.014, -1, 1, 0.014, 153.842, 83.637)" fill="#ececec"/>
            <path id="Trazado_892681" data-name="Trazado 892681" d="M585.24,175.609s-.072,0-.206,0h-.6l-2.307-.019-8.692-.092-30.648-.377.122-.119c-.14,10.1-.3,21.68-.471,33.933v0l-.133-.137,42.448.629-.114.111c.17-10.216.311-18.685.41-24.609.055-2.962.1-5.286.127-6.88.017-.79.03-1.4.039-1.816s.021-.631.021-.631.005.2,0,.607-.007,1.014-.013,1.795c-.016,1.588-.039,3.9-.069,6.855-.071,5.942-.172,14.436-.295,24.681v.112l-.113,0-42.449-.584-.135,0,0-.135v0c.18-12.253.35-23.832.5-33.932l0-.121.121,0,30.724.5,8.664.156,2.283.047.583.015c.13,0,.193.01.193.01" transform="translate(-388.464 -125.301)" fill="#1a2e35"/>
            <rect id="Rectángulo_401984" data-name="Rectángulo 401984" width="29.667" height="39.47" transform="translate(155.336 81.522) rotate(-89.181)" fill="#f96e97"/>
            <path id="Trazado_892682" data-name="Trazado 892682" d="M547.922,241.452l14.048-18.242,8.374,11.658,5.88-6.084,11.165,13.232Z" transform="translate(-392.586 -159.93)" fill="#e8505b"/>
            <path id="Trazado_892683" data-name="Trazado 892683" d="M624.784,207.889a3.108,3.108,0,1,1-3.063-3.152,3.108,3.108,0,0,1,3.063,3.152" transform="translate(-443.204 -146.694)" fill="#e8505b"/>
            <g id="Grupo_1102008" data-name="Grupo 1102008" transform="translate(155.336 63.28)" opacity="0.2">
              <g id="Grupo_1102007" data-name="Grupo 1102007">
                <g id="Grupo_1102006" data-name="Grupo 1102006" clip-path="url(#clip-path-4)">
                  <path id="Trazado_892684" data-name="Trazado 892684" d="M547.922,241.452l14.048-18.242,8.374,11.658,5.88-6.084,11.165,13.232Z" transform="translate(-547.922 -223.211)"/>
                </g>
              </g>
            </g>
            <g id="Grupo_1102011" data-name="Grupo 1102011" transform="translate(175.365 58.043)" opacity="0.2">
              <g id="Grupo_1102010" data-name="Grupo 1102010">
                <g id="Grupo_1102009" data-name="Grupo 1102009" clip-path="url(#clip-path-5)">
                  <path id="Trazado_892685" data-name="Trazado 892685" d="M624.784,207.889a3.108,3.108,0,1,1-3.063-3.152,3.108,3.108,0,0,1,3.063,3.152" transform="translate(-618.569 -204.737)"/>
                </g>
              </g>
            </g>
            <rect id="Rectángulo_401987" data-name="Rectángulo 401987" width="40.45" height="50.596" transform="translate(72.596 40.568) rotate(-89.182)" fill="#ececec"/>
            <path id="Trazado_892686" data-name="Trazado 892686" d="M306.893.845s-.085,0-.245,0l-.71,0L303.191.821,292.835.7,256.3.243l.122-.119c-.168,12.038-.36,25.838-.564,40.441v0l-.133-.137,50.59.745-.114.111c.2-12.18.362-22.277.477-29.336.063-3.531.112-6.3.146-8.2.019-.943.033-1.666.044-2.162s.023-.749.023-.749,0,.243,0,.725-.01,1.208-.018,2.141c-.02,1.89-.05,4.652-.088,8.173-.087,7.077-.212,17.2-.362,29.408V41.4h-.112l-50.591-.7-.135,0,0-.135v0c.214-14.6.416-28.4.592-40.441l0-.121.121,0,36.61.583,10.329.179,2.723.053.7.017c.155,0,.231.01.231.01" transform="translate(-183.129)" fill="#1a2e35"/>
            <rect id="Rectángulo_401988" data-name="Rectángulo 401988" width="35.357" height="47.041" transform="matrix(0.014, -1, 1, 0.014, 74.124, 38.045)" fill="#e8505b"/>
            <rect id="Rectángulo_401989" data-name="Rectángulo 401989" width="35.357" height="47.041" transform="matrix(0.014, -1, 1, 0.014, 74.124, 38.045)" fill="#f96e97"/>
            <g id="Grupo_1102014" data-name="Grupo 1102014" transform="translate(74.531 16.406)" opacity="0.2">
              <g id="Grupo_1102013" data-name="Grupo 1102013">
                <g id="Grupo_1102012" data-name="Grupo 1102012" clip-path="url(#clip-path-6)">
                  <path id="Trazado_892687" data-name="Trazado 892687" d="M262.9,79.849l16.43-21.978L289.5,71.621l6.9-7.351,13.53,15.578Z" transform="translate(-262.897 -57.871)"/>
                </g>
              </g>
            </g>
            <g id="Grupo_1102017" data-name="Grupo 1102017" transform="translate(98.247 10.065)" opacity="0.2">
              <g id="Grupo_1102016" data-name="Grupo 1102016">
                <g id="Grupo_1102015" data-name="Grupo 1102015" clip-path="url(#clip-path-7)">
                  <path id="Trazado_892688" data-name="Trazado 892688" d="M353.956,39.258a3.7,3.7,0,1,1-3.651-3.756,3.7,3.7,0,0,1,3.651,3.756" transform="translate(-346.549 -35.502)"/>
                </g>
              </g>
            </g>
            <rect id="Rectángulo_401992" data-name="Rectángulo 401992" width="16.844" height="21.068" transform="translate(153.806 109.172) rotate(-89.181)" fill="#ececec"/>
            <path id="Trazado_892689" data-name="Trazado 892689" d="M563.484,325.668a.7.7,0,0,1-.106.005l-.3,0-1.151,0-4.321-.029-15.191-.157.122-.119c-.067,5.015-.145,10.76-.227,16.84.028.032-.25-.258-.129-.135h.177l.183,0,.364.005.726.01,1.442.021,2.838.042,5.466.082,9.866.158-.114.11c.1-5.054.176-9.248.232-12.195.033-1.463.06-2.616.078-3.42.011-.386.019-.687.026-.906s.017-.319.017-.319.007.1.008.3v.885c0,.8-.011,1.943-.02,3.4-.028,2.965-.069,7.183-.117,12.267v.112h-.113l-9.866-.124-5.466-.073-2.838-.039-1.442-.02-.726-.01-.364-.005-.183,0h-.177c.117.122-.166-.166-.137-.139.092-6.08.179-11.825.255-16.84l0-.121.12,0,15.267.279,4.293.093,1.127.031.286.011a.413.413,0,0,1,.092.008" transform="translate(-388.371 -233.037)" fill="#1a2e35"/>
            <rect id="Rectángulo_401993" data-name="Rectángulo 401993" width="14.723" height="19.588" transform="translate(154.442 108.121) rotate(-89.181)" fill="#e8505b"/>
            <g id="Grupo_1102020" data-name="Grupo 1102020" transform="translate(154.442 93.4)" opacity="0.3">
              <g id="Grupo_1102019" data-name="Grupo 1102019">
                <g id="Grupo_1102018" data-name="Grupo 1102018" clip-path="url(#clip-path-8)">
                  <rect id="Rectángulo_401994" data-name="Rectángulo 401994" width="14.723" height="19.588" transform="translate(0 14.721) rotate(-89.181)" fill="#fff"/>
                </g>
              </g>
            </g>
            <path id="Trazado_892690" data-name="Trazado 892690" d="M545.138,358.5l6.972-9.053,4.156,5.786,2.918-3.02,5.541,6.567Z" transform="translate(-390.591 -250.38)" fill="#e8505b"/>
            <path id="Trazado_892691" data-name="Trazado 892691" d="M583.284,341.845a1.542,1.542,0,1,1-1.52-1.564,1.542,1.542,0,0,1,1.52,1.564" transform="translate(-415.712 -243.811)" fill="#e8505b"/>
            <rect id="Rectángulo_401996" data-name="Rectángulo 401996" width="23.376" height="29.239" transform="translate(32.152 57.481) rotate(-89.181)" fill="#ececec"/>
            <path id="Trazado_892692" data-name="Trazado 892692" d="M142.634,120.414a1.217,1.217,0,0,1-.144,0h-.413l-1.593-.008-5.991-.053-21.1-.241.122-.119c-.095,6.958-.2,14.933-.32,23.371.028.034-.249-.257-.128-.134h.119l.127,0,.253,0,.506.007,1.008.014,2,.029,3.939.058,7.586.113,13.692.212-.114.111c.125-7.027.228-12.855.3-16.938.041-2.037.074-3.638.1-4.742q.02-.811.031-1.254c.008-.285.019-.438.019-.438s.006.137.007.414,0,.7-.005,1.233c-.009,1.1-.022,2.691-.038,4.718-.044,4.1-.108,9.953-.185,17.01v.112H142.3l-13.693-.179-7.586-.1-3.939-.055-2-.028-1.008-.014-.506-.007-.253,0-.127,0h-.119c.117.122-.168-.165-.138-.139.126-8.439.244-16.413.348-23.371l0-.121.121,0,21.173.363,5.963.117,1.569.037.4.013a.886.886,0,0,1,.13.009" transform="translate(-80.911 -85.889)" fill="#1a2e35"/>
            <rect id="Rectángulo_401997" data-name="Rectángulo 401997" width="20.433" height="27.185" transform="translate(33.181 56.024) rotate(-89.181)" fill="#f96e97"/>
            <g id="Grupo_1102023" data-name="Grupo 1102023" transform="translate(33.181 43.46)" opacity="0.2">
              <g id="Grupo_1102022" data-name="Grupo 1102022">
                <g id="Grupo_1102021" data-name="Grupo 1102021" clip-path="url(#clip-path-9)">
                  <path id="Trazado_892693" data-name="Trazado 892693" d="M117.039,165.861l9.676-12.564,5.768,8.029,4.05-4.19,7.69,9.113Z" transform="translate(-117.039 -153.297)"/>
                </g>
              </g>
            </g>
            <path id="Trazado_892694" data-name="Trazado 892694" d="M169.977,142.744a2.141,2.141,0,1,1-2.11-2.171,2.141,2.141,0,0,1,2.11,2.171" transform="translate(-118.721 -100.721)" fill="#e8505b"/>
            <g id="Grupo_1102026" data-name="Grupo 1102026" transform="translate(35.525 43.102)" opacity="0.1">
              <g id="Grupo_1102025" data-name="Grupo 1102025">
                <g id="Grupo_1102024" data-name="Grupo 1102024" clip-path="url(#clip-path-9)">
                  <path id="Trazado_892695" data-name="Trazado 892695" d="M125.306,164.6l9.676-12.564,5.768,8.029,4.05-4.19,7.69,9.113Z" transform="translate(-125.307 -152.036)"/>
                </g>
              </g>
            </g>
            <g id="Grupo_1102029" data-name="Grupo 1102029" transform="translate(46.975 39.853)" opacity="0.1">
              <g id="Grupo_1102028" data-name="Grupo 1102028">
                <g id="Grupo_1102027" data-name="Grupo 1102027" clip-path="url(#clip-path-11)">
                  <path id="Trazado_892696" data-name="Trazado 892696" d="M169.977,142.744a2.141,2.141,0,1,1-2.11-2.171,2.141,2.141,0,0,1,2.11,2.171" transform="translate(-165.696 -140.573)"/>
                </g>
              </g>
            </g>
            <rect id="Rectángulo_402001" data-name="Rectángulo 402001" width="15.612" height="19.528" transform="translate(131.084 41.729) rotate(-89.181)" fill="#ececec"/>
            <path id="Trazado_892697" data-name="Trazado 892697" d="M481.777,92.1a.6.6,0,0,1-.1.006l-.278,0h-1.068l-4.006-.025-14.077-.141.122-.119c-.062,4.649-.134,9.973-.209,15.609.028.032-.25-.258-.129-.135h.164l.169,0,.338,0,.673.01,1.336.019,2.631.039,5.066.077,9.144.147-.114.11c.091-4.682.166-8.567.219-11.3.032-1.355.057-2.424.074-3.171.01-.356.019-.635.025-.841s.016-.3.016-.3a2.168,2.168,0,0,1,.008.273c0,.2,0,.473,0,.82,0,.742-.009,1.8-.016,3.147-.025,2.751-.061,6.661-.1,11.373v.112h-.113l-9.145-.114-5.066-.068-2.631-.037-1.336-.019-.673-.01-.338,0-.169,0h-.164c.117.122-.166-.166-.137-.138.086-5.635.167-10.96.237-15.608l0-.121.121,0,14.153.263,3.978.089,1.044.029.265.011a.344.344,0,0,1,.085.008" transform="translate(-330.945 -65.699)" fill="#1a2e35"/>
            <rect id="Rectángulo_402002" data-name="Rectángulo 402002" width="13.646" height="18.156" transform="translate(131.771 40.756) rotate(-89.181)" fill="#e8505b"/>
            <path id="Trazado_892698" data-name="Trazado 892698" d="M464.8,122.553l6.462-8.391,3.852,5.362,2.7-2.8,5.135,6.086Z" transform="translate(-333.028 -81.797)" fill="#e8505b"/>
            <path id="Trazado_892699" data-name="Trazado 892699" d="M500.154,107.114a1.43,1.43,0,1,1-1.409-1.45,1.429,1.429,0,0,1,1.409,1.45" transform="translate(-356.312 -75.709)" fill="#e8505b"/>
            <g id="Grupo_1102032" data-name="Grupo 1102032" transform="translate(131.771 32.365)" opacity="0.1">
              <g id="Grupo_1102031" data-name="Grupo 1102031">
                <g id="Grupo_1102030" data-name="Grupo 1102030" clip-path="url(#clip-path-12)">
                  <path id="Trazado_892700" data-name="Trazado 892700" d="M464.8,122.553l6.462-8.391,3.852,5.362,2.7-2.8,5.135,6.086Z" transform="translate(-464.799 -114.162)"/>
                </g>
              </g>
            </g>
            <g id="Grupo_1102035" data-name="Grupo 1102035" transform="translate(140.983 29.956)" opacity="0.1">
              <g id="Grupo_1102034" data-name="Grupo 1102034">
                <g id="Grupo_1102033" data-name="Grupo 1102033" clip-path="url(#clip-path-13)">
                  <path id="Trazado_892701" data-name="Trazado 892701" d="M500.154,107.114a1.43,1.43,0,1,1-1.409-1.45,1.429,1.429,0,0,1,1.409,1.45" transform="translate(-497.295 -105.664)"/>
                </g>
              </g>
            </g>
            <rect id="Rectángulo_402005" data-name="Rectángulo 402005" width="60.615" height="75.819" transform="translate(69.472 108.192) rotate(-89.182)" fill="#f5f5f5"/>
            <path id="Trazado_892702" data-name="Trazado 892702" d="M321.382,168.614s-.125,0-.363,0l-1.059-.008-4.112-.044-15.513-.19-54.766-.722.122-.119c-.254,18.038-.544,38.719-.852,60.6v.007l-.133-.137,75.811,1.106-.114.111c.285-18.263.521-33.4.686-43.979.088-5.293.157-9.444.2-12.277.026-1.414.046-2.5.059-3.234s.028-1.116.028-1.116,0,.368,0,1.093-.018,1.808-.033,3.213c-.034,2.828-.083,6.97-.146,12.253-.137,10.595-.334,25.758-.571,44.051v.112h-.112L244.7,228.274l-.135,0,0-.135v-.007c.318-21.883.618-42.564.88-60.6l0-.121.121,0,54.842.844,15.485.253,4.087.073,1.046.022c.234.006.349.012.349.012" transform="translate(-175.233 -119.948)" fill="#1a2e35"/>
            <rect id="Rectángulo_402006" data-name="Rectángulo 402006" width="52.983" height="70.492" transform="translate(72.14 104.414) rotate(-89.181)" fill="#f96e97"/>
            <g id="Grupo_1102038" data-name="Grupo 1102038" transform="translate(72.14 71.835)" opacity="0.2">
              <g id="Grupo_1102037" data-name="Grupo 1102037">
                <g id="Grupo_1102036" data-name="Grupo 1102036" clip-path="url(#clip-path-14)">
                  <path id="Trazado_892703" data-name="Trazado 892703" d="M254.462,285.965l25.089-32.579,14.956,20.821,10.5-10.866,19.94,23.632Z" transform="translate(-254.462 -253.386)"/>
                </g>
              </g>
            </g>
            <g id="Grupo_1102041" data-name="Grupo 1102041" transform="translate(107.91 62.482)" opacity="0.2">
              <g id="Grupo_1102040" data-name="Grupo 1102040">
                <g id="Grupo_1102039" data-name="Grupo 1102039" clip-path="url(#clip-path-15)">
                  <path id="Trazado_892704" data-name="Trazado 892704" d="M391.735,226.023a5.55,5.55,0,1,1-5.47-5.629,5.551,5.551,0,0,1,5.47,5.629" transform="translate(-380.635 -220.393)"/>
                </g>
              </g>
            </g>
            <path id="Trazado_892705" data-name="Trazado 892705" d="M183.232,420.927l-.9-.724c0-.052-.008-.082-.008-.082l-.036.047-5.934-4.768,2.545-4.194-6.143-4.487c.028.3-5.7,8.785-4.926,10.452,1.1,2.358,8.536,7.07,11.582,8.927a19.365,19.365,0,0,0-2.46.484c-.776.255,1.754.925,2.365,1.049.241.049.73-.331,1.253-.836l.141.083.164-.387a17.542,17.542,0,0,0,1.561-1.823,6.44,6.44,0,0,0,.075-2.038Z" transform="translate(-120.199 -291.414)" fill="#ffbe9d"/>
            <path id="Trazado_892706" data-name="Trazado 892706" d="M287.02,410.708l.9-.723.008-.082.037.047,6.792-4.337-6.561-5.325,5.675-4.922c4.383,3.122,10.241,7.154,8.55,11.587-.926,2.429-8.536,7.07-11.582,8.927a19.415,19.415,0,0,1,2.46.484c.776.255-1.754.925-2.365,1.049-.241.049-.73-.332-1.253-.836l-.141.083-.164-.387a17.536,17.536,0,0,1-1.561-1.823,6.439,6.439,0,0,1-.075-2.038Z" transform="translate(-205.65 -283.279)" fill="#ffbe9d"/>
            <path id="Trazado_892707" data-name="Trazado 892707" d="M239.205,315.2h0a4.211,4.211,0,0,0,4.53-4.037c.088-2.292.165-4.61.165-4.61a4.137,4.137,0,0,0,3.725-3.763c.252-3.437.137-11.373.137-11.373a11.979,11.979,0,0,0-12.106.778l-.534.361.195,18.49a4.21,4.21,0,0,0,3.888,4.154" transform="translate(-168.465 -207.885)" fill="#ffbe9d"/>
            <path id="Trazado_892708" data-name="Trazado 892708" d="M233.052,278.672a5.778,5.778,0,0,0-4.96,2.986,12,12,0,0,0-1.272,5.53,104.867,104.867,0,0,0,.264,11.167,1.21,1.21,0,0,0,.239.787,1.5,1.5,0,0,0,.906.34,70.694,70.694,0,0,0,19.149.029c.418-.757-.169-1.656-.847-2.238s-1.516-1.11-1.761-1.928c-.385-1.286.893-2.664.394-3.917-.375-.942-1.613-1.4-2.048-2.324-.731-1.545,1.155-3.412.318-4.912-.436-.782-1.457-1.128-2.1-1.78a20.157,20.157,0,0,1-1.309-1.991,5.076,5.076,0,0,0-3.432-1.675,12.612,12.612,0,0,0-3.541-.073" transform="translate(-162.471 -199.599)" fill="#1a2e35"/>
            <path id="Trazado_892709" data-name="Trazado 892709" d="M215.011,292.779a3.067,3.067,0,0,0-1.4,2.472,10.127,10.127,0,0,1-.5,2.906c-.435.961-1.341,1.694-1.58,2.722-.311,1.336.57,2.91-.225,4.028-.513.72-1.518.9-2.149,1.519-.872.856-.795,2.258-.655,3.471l11.478-.1" transform="translate(-149.328 -209.776)" fill="#1a2e35"/>
            <path id="Trazado_892710" data-name="Trazado 892710" d="M237.526,275.391a2.536,2.536,0,0,0,2.511-2.507,2.861,2.861,0,0,0-2.479-2.667,3.285,3.285,0,0,0-3.234,1.846,2.436,2.436,0,0,0-.192,1.766,2.469,2.469,0,0,0,1.171,1.334,3.681,3.681,0,0,0,3.582,0" transform="translate(-167.69 -193.596)" fill="#1a2e35"/>
            <path id="Trazado_892711" data-name="Trazado 892711" d="M242.793,280.692a1.5,1.5,0,0,1-.148.886,2.893,2.893,0,0,1-3.652,1.673,1.5,1.5,0,0,1-.767-.466c.024-.039.308.153.822.283a2.932,2.932,0,0,0,3.423-1.569c.237-.474.277-.814.322-.808" transform="translate(-170.688 -201.115)" fill="#e8505b"/>
            <path id="Trazado_892712" data-name="Trazado 892712" d="M215.252,377.11l-2.853-3.058-.943,4.509.2,3.5c-.018.172,3.721,9.374,3.721,9.374a22.559,22.559,0,0,1,1.79,11.108l-27.285-.79s.4-7.941,3.469-13.14c1.4-2.375,1.038-5.96.386-8.682-.206-.861-.48-2.281-.589-3.16l-.019-.152-1.409,2.478-8.546-6.169a67.075,67.075,0,0,1,7.337-11.167,10.059,10.059,0,0,1,6.341-2.325l10.626.09a8.926,8.926,0,0,1,1.655.339c1.3.092,3.6,1.193,6.147,3.647a72.372,72.372,0,0,0,7.071,6.4Z" transform="translate(-131.245 -257.534)" fill="#375a64"/>
            <path id="Trazado_892713" data-name="Trazado 892713" d="M204.361,360.551c.007-.006.064.045.168.15a4.647,4.647,0,0,1,.409.5,4.965,4.965,0,0,1,.87,2.205,4.086,4.086,0,0,1-.112,1.654,4,4,0,0,1-.949,1.654,3.5,3.5,0,0,1-1.838,1.033c-.738.148-1.493.01-2.213.122a1.87,1.87,0,0,0-.952.412,2.7,2.7,0,0,0-.623.826c-.329.617-.536,1.289-.913,1.862a2.275,2.275,0,0,1-.71.714,1.807,1.807,0,0,1-.926.24,3.639,3.639,0,0,1-1.594-.469,5.775,5.775,0,0,1-1.836-1.5,4.766,4.766,0,0,1-.371-.528.706.706,0,0,1-.1-.2c.02-.013.181.251.549.663a6.08,6.08,0,0,0,1.842,1.4,3.506,3.506,0,0,0,1.508.416,1.584,1.584,0,0,0,.805-.22,2.048,2.048,0,0,0,.623-.646c.346-.534.548-1.2.887-1.85a2.944,2.944,0,0,1,.684-.907,2.133,2.133,0,0,1,1.083-.473c.785-.117,1.531.022,2.205-.115a3.27,3.27,0,0,0,1.71-.946,3.811,3.811,0,0,0,.913-1.544,3.96,3.96,0,0,0,.137-1.569,5.144,5.144,0,0,0-.768-2.169c-.3-.466-.508-.691-.49-.708" transform="translate(-138.049 -258.334)" fill="#f5f5f5"/>
            <path id="Trazado_892714" data-name="Trazado 892714" d="M233.211,402.182a.894.894,0,0,1,.467-.1,2.014,2.014,0,0,1,1.238.411,2.04,2.04,0,0,1,.6.7,1.833,1.833,0,0,1,.18,1.052A2.017,2.017,0,0,1,232,405.2a1.832,1.832,0,0,1-.351-1.007,2.034,2.034,0,0,1,.185-.9,2.012,2.012,0,0,1,.884-.959.89.89,0,0,1,.456-.139c.007.024-.157.069-.4.229a2.042,2.042,0,0,0-.762.943,1.7,1.7,0,0,0,.192,1.689,1.779,1.779,0,0,0,3.244-.838,1.7,1.7,0,0,0-.651-1.571,2.042,2.042,0,0,0-1.124-.456c-.293-.021-.459.019-.464-.005" transform="translate(-165.978 -288.091)" fill="#f5f5f5"/>
            <path id="Trazado_892715" data-name="Trazado 892715" d="M269.534,367.562a3.685,3.685,0,0,1-.651.361,11.353,11.353,0,0,1-1.888.759,5.074,5.074,0,0,1-3.022.017,3.316,3.316,0,0,1-1.518-1c-.41-.494-.665-1.094-1.061-1.577a1.7,1.7,0,0,0-.7-.536,1.988,1.988,0,0,0-.867-.084,6.356,6.356,0,0,1-1.793.105,3.01,3.01,0,0,1-2.318-1.872,2.976,2.976,0,0,1-.007-2.035,2.532,2.532,0,0,1,.246-.5c.074-.1.116-.156.124-.151.023.013-.136.232-.27.684a2.982,2.982,0,0,0,.085,1.934,2.832,2.832,0,0,0,2.18,1.7,6.356,6.356,0,0,0,1.73-.123,2.226,2.226,0,0,1,.984.1,1.958,1.958,0,0,1,.818.615c.43.53.68,1.125,1.057,1.581a3.1,3.1,0,0,0,1.395.937,4.985,4.985,0,0,0,2.892.034,14.045,14.045,0,0,0,1.894-.671,4.232,4.232,0,0,1,.695-.266" transform="translate(-183.086 -258.69)" fill="#f5f5f5"/>
            <path id="Trazado_892716" data-name="Trazado 892716" d="M262.766,419.4s-.008.028-.036.076a1.835,1.835,0,0,1-.135.206,3.237,3.237,0,0,1-.668.672,3.509,3.509,0,0,1-1.364.629,3.44,3.44,0,0,1-1.983-.163,3.671,3.671,0,0,1-1.83-1.561,5.915,5.915,0,0,0-1.624-2.095,4.2,4.2,0,0,0-1.371-.41,2.9,2.9,0,0,1-1.461-.629,2.772,2.772,0,0,1-.719-3.121,3.607,3.607,0,0,1,1.118-1.277c.435-.337.888-.621,1.28-.951a2.708,2.708,0,0,0,.88-1.16,3.273,3.273,0,0,0,.081-1.411,11.98,11.98,0,0,1-.126-1.417,2.4,2.4,0,0,1,.371-1.323,2.885,2.885,0,0,1,2.07-1.213,3.388,3.388,0,0,1,1.953.376,5.017,5.017,0,0,1,1.216.877,5.8,5.8,0,0,1,.627.706,1.358,1.358,0,0,1,.182.274c-.022.019-.279-.359-.88-.9a5.14,5.14,0,0,0-1.211-.819,3.259,3.259,0,0,0-1.862-.322,2.7,2.7,0,0,0-1.907,1.145,2.172,2.172,0,0,0-.323,1.2,12.02,12.02,0,0,0,.136,1.387,3.5,3.5,0,0,1-.085,1.522,2.954,2.954,0,0,1-.953,1.279c-.411.347-.865.633-1.286.961a3.371,3.371,0,0,0-1.037,1.176,2.515,2.515,0,0,0,.648,2.811c.744.7,1.894.489,2.785,1.024a3.142,3.142,0,0,1,1.006,1.046c.251.391.456.785.68,1.144a3.487,3.487,0,0,0,1.711,1.5,3.316,3.316,0,0,0,1.882.193,3.5,3.5,0,0,0,1.333-.566,4.781,4.781,0,0,0,.9-.869" transform="translate(-180.1 -289.625)" fill="#f5f5f5"/>
            <path id="Trazado_892717" data-name="Trazado 892717" d="M229.642,455.02a1.129,1.129,0,0,0,.273-.538,1.843,1.843,0,0,0-.6-1.5,5.129,5.129,0,0,1-.734-.971,2.686,2.686,0,0,1-.244-1.395,19.147,19.147,0,0,0,.4-3.082,1.772,1.772,0,0,0-.669-1.307,2.181,2.181,0,0,0-1.361-.342c-.932.048-1.771.391-2.525.4a2.241,2.241,0,0,1-1.656-.543,1.263,1.263,0,0,1-.282-.391c-.043-.1-.054-.159-.046-.161a2.447,2.447,0,0,0,.4.474,2.211,2.211,0,0,0,1.575.431c.716-.033,1.524-.392,2.526-.462a2.408,2.408,0,0,1,1.526.376,2.025,2.025,0,0,1,.782,1.494,17.159,17.159,0,0,1-.419,3.126,2.489,2.489,0,0,0,.2,1.279,5.218,5.218,0,0,0,.68.949,2.575,2.575,0,0,1,.511.872,1.493,1.493,0,0,1,.041.768c-.113.43-.384.53-.376.518" transform="translate(-159.206 -318.983)" fill="#f5f5f5"/>
            <path id="Trazado_892718" data-name="Trazado 892718" d="M157.459,488.844c-.53.779-20.892,77.517-20.892,77.517l7.189,2.268,27.454-72.982Z" transform="translate(-97.85 -350.256)" fill="#ffbe9d"/>
            <path id="Trazado_892719" data-name="Trazado 892719" d="M254.024,500.725l15.13,73.011,8.316.336-9.543-77.214Z" transform="translate(-182.008 -355.998)" fill="#ffbe9d"/>
            <path id="Trazado_892720" data-name="Trazado 892720" d="M173.489,478.938l-15.083,53.836,11.131,4.6L185.517,492.1,195.2,539.19l11.669-2.3-7.952-57.1-1.085-.144a5.4,5.4,0,0,0-1.979.1l-.728.176a5.4,5.4,0,0,1-2.508.006l-.532-.126a5.4,5.4,0,0,0-2.337-.033l-1.29.267a5.4,5.4,0,0,1-2.854-.182l-1.285-.443a5.4,5.4,0,0,0-2.7-.211l-1.215.216a5.394,5.394,0,0,1-2.04-.029l-2.054-.425a7.248,7.248,0,0,0-2.582-.065Z" transform="translate(-113.498 -343.071)" fill="#1a2e35"/>
            <path id="Trazado_892721" data-name="Trazado 892721" d="M238.287,515.352a3.545,3.545,0,0,1-.684.188c-.444.1-1.09.243-1.89.4-1.6.32-3.819.714-6.284,1.068s-4.706.6-6.331.741c-.812.071-1.471.12-1.926.145a3.605,3.605,0,0,1-.71.012,3.573,3.573,0,0,1,.7-.116l1.916-.23c1.618-.19,3.852-.465,6.312-.818s4.681-.717,6.287-.988l1.9-.318a3.6,3.6,0,0,1,.7-.085" transform="translate(-157.961 -369.246)" fill="#375a64"/>
            <path id="Trazado_892722" data-name="Trazado 892722" d="M316.187,766.955l-.033-.868-8.789.254.076,2.861.543.018c2.418.06,12.3.145,13.9-.353,1.784-.556-5.7-1.913-5.7-1.913" transform="translate(-220.227 -548.901)" fill="#e8505b"/>
            <g id="Grupo_1102044" data-name="Grupo 1102044" transform="translate(87.151 217.896)" opacity="0.6">
              <g id="Grupo_1102043" data-name="Grupo 1102043">
                <g id="Grupo_1102042" data-name="Grupo 1102042" clip-path="url(#clip-path-16)">
                  <path id="Trazado_892723" data-name="Trazado 892723" d="M310.643,770.848a2.811,2.811,0,0,0-1.17-1.7,3.114,3.114,0,0,0-2.064-.536l.069,2.273Z" transform="translate(-307.409 -768.592)" fill="#fff"/>
                </g>
              </g>
            </g>
            <g id="Grupo_1102047" data-name="Grupo 1102047" transform="translate(87.214 218.837)" opacity="0.6">
              <g id="Grupo_1102046" data-name="Grupo 1102046">
                <g id="Grupo_1102045" data-name="Grupo 1102045" clip-path="url(#clip-path-17)">
                  <path id="Trazado_892724" data-name="Trazado 892724" d="M320.037,771.911s2.627.629,2.315,1.036-10.3.67-14.72.428l.009-.182,11.655-.214s.233-1.035.742-1.068" transform="translate(-307.632 -771.911)" fill="#fff"/>
                </g>
              </g>
            </g>
            <path id="Trazado_892725" data-name="Trazado 892725" d="M307.177,775.461a.857.857,0,0,0,.151.011l.433.013,1.592.022c1.344.01,3.2,0,5.253-.052s3.907-.138,5.249-.217l1.588-.1.431-.035a.864.864,0,0,0,.15-.019.874.874,0,0,0-.151,0l-.433.017-1.59.072c-1.342.061-3.2.135-5.248.188s-3.906.073-5.25.081l-1.592.01-.433.006a.876.876,0,0,0-.151.008" transform="translate(-220.092 -555.343)" fill="#1a2e35"/>
            <path id="Trazado_892726" data-name="Trazado 892726" d="M348.734,772.848a3.166,3.166,0,0,1,.276-.714,3.433,3.433,0,0,1,.525-.58,1.161,1.161,0,0,0-.617.531,1.03,1.03,0,0,0-.183.763" transform="translate(-249.854 -552.816)" fill="#1a2e35"/>
            <path id="Trazado_892727" data-name="Trazado 892727" d="M339.531,770.324c.025.014.144-.129.266-.319s.2-.356.175-.37-.145.129-.267.319-.2.356-.175.37" transform="translate(-243.27 -551.442)" fill="#1a2e35"/>
            <path id="Trazado_892728" data-name="Trazado 892728" d="M337,769.71c.02.02.156-.069.3-.2s.25-.251.23-.271-.156.069-.3.2-.25.251-.23.271" transform="translate(-241.458 -551.158)" fill="#1a2e35"/>
            <path id="Trazado_892729" data-name="Trazado 892729" d="M335.344,768.1a2.149,2.149,0,1,0,.456-.056,1.1,1.1,0,0,0-.456.056" transform="translate(-240.274 -550.299)" fill="#1a2e35"/>
            <path id="Trazado_892730" data-name="Trazado 892730" d="M334.743,766.32a.933.933,0,0,0,.514.124.946.946,0,0,0,.524-.079,3,3,0,0,0-.519-.02,3.046,3.046,0,0,0-.519-.026" transform="translate(-239.843 -549.061)" fill="#1a2e35"/>
            <path id="Trazado_892731" data-name="Trazado 892731" d="M340.514,767.615a1.736,1.736,0,0,0,.562-.018,3.5,3.5,0,0,0,.595-.138,1.71,1.71,0,0,0,.339-.14.286.286,0,0,0,.134-.166.2.2,0,0,0-.092-.207,1.077,1.077,0,0,0-1.267.314.906.906,0,0,0-.173.354c-.02.09-.016.141-.01.142a1.428,1.428,0,0,1,.242-.453,1.018,1.018,0,0,1,.471-.3.933.933,0,0,1,.672.025c.091.059.059.158-.038.215a1.765,1.765,0,0,1-.312.134,4.073,4.073,0,0,1-.575.155c-.335.064-.549.071-.549.087" transform="translate(-243.978 -549.45)" fill="#1a2e35"/>
            <path id="Trazado_892732" data-name="Trazado 892732" d="M339.113,767.094a.485.485,0,0,0,.054-.365.821.821,0,0,0-.165-.378.573.573,0,0,0-.476-.254.208.208,0,0,0-.166.246.553.553,0,0,0,.1.231,1.611,1.611,0,0,0,.275.309.819.819,0,0,0,.328.2c.01-.013-.115-.091-.275-.252a1.839,1.839,0,0,1-.245-.307c-.081-.109-.139-.305,0-.333a.51.51,0,0,1,.377.212.832.832,0,0,1,.169.336,1.782,1.782,0,0,1,.02.352" transform="translate(-242.431 -548.907)" fill="#1a2e35"/>
            <path id="Trazado_892733" data-name="Trazado 892733" d="M307.568,768.39c0,.018.25-.029.647,0a2.96,2.96,0,0,1,1.427.5,2.651,2.651,0,0,1,.917,1.135c.144.345.164.579.184.577a.436.436,0,0,0,0-.164,2,2,0,0,0-.109-.436,2.528,2.528,0,0,0-.923-1.19,2.838,2.838,0,0,0-1.486-.494,2.481,2.481,0,0,0-.481.024.529.529,0,0,0-.171.041" transform="translate(-220.372 -550.502)" fill="#1a2e35"/>
            <path id="Trazado_892734" data-name="Trazado 892734" d="M322.614,773.514a7.723,7.723,0,0,0,2.558-.045c0-.028-.574.019-1.279.031s-1.276-.015-1.279.014" transform="translate(-231.153 -554.184)" fill="#1a2e35"/>
            <path id="Trazado_892735" data-name="Trazado 892735" d="M316.556,773.792c-.021.02.05.111.112.232s.1.227.127.225.041-.13-.032-.268-.189-.209-.208-.189" transform="translate(-226.809 -554.419)" fill="#1a2e35"/>
            <path id="Trazado_892736" data-name="Trazado 892736" d="M314.2,771.212c-.02.02.039.1.132.186s.185.134.205.115-.039-.1-.132-.186-.185-.134-.205-.115" transform="translate(-225.118 -552.57)" fill="#1a2e35"/>
            <path id="Trazado_892737" data-name="Trazado 892737" d="M310.906,769.976c.007.028.123.023.253.062s.225.1.247.081-.054-.129-.216-.175-.294.007-.284.032" transform="translate(-222.763 -551.651)" fill="#1a2e35"/>
            <path id="Trazado_892738" data-name="Trazado 892738" d="M308.564,769.546c-.01.026.042.066.115.09s.141.023.151,0-.042-.066-.115-.091-.141-.023-.151,0" transform="translate(-221.085 -551.365)" fill="#1a2e35"/>
            <path id="Trazado_892739" data-name="Trazado 892739" d="M133.49,756.695l-1.3,5.723h8.792l.376-3.726Z" transform="translate(-94.713 -542.171)" fill="#e8505b"/>
            <path id="Trazado_892740" data-name="Trazado 892740" d="M141.762,773.2a5.632,5.632,0,0,1-1.281.083c-.792.011-1.885-.009-3.09-.053l-3.084-.135a6.539,6.539,0,0,1-1.277-.112,5.687,5.687,0,0,1,1.281-.079c.792-.009,1.885.012,3.09.056l3.084.132a6.561,6.561,0,0,1,1.277.108" transform="translate(-95.315 -553.781)" fill="#1a2e35"/>
            <path id="Trazado_892741" data-name="Trazado 892741" d="M149.918,760.629a12.725,12.725,0,0,1-.249,3.69,12.75,12.75,0,0,1,.249-3.69" transform="translate(-107.196 -544.99)" fill="#1a2e35"/>
            <g id="Grupo_1102050" data-name="Grupo 1102050" transform="translate(37.476 219.198)" opacity="0.6">
              <g id="Grupo_1102049" data-name="Grupo 1102049">
                <g id="Grupo_1102048" data-name="Grupo 1102048" clip-path="url(#clip-path-18)">
                  <path id="Trazado_892742" data-name="Trazado 892742" d="M132.189,774.232h8.792l.084-.831-8.717-.217-.158.949" transform="translate(-132.189 -773.183)" fill="#fff"/>
                </g>
              </g>
            </g>
            <path id="Trazado_892743" data-name="Trazado 892743" d="M136.259,239.753a13.477,13.477,0,1,1-13.477-13.477,13.477,13.477,0,0,1,13.477,13.477" transform="translate(-78.316 -162.127)" fill="#375a64"/>
            <path id="Trazado_892744" data-name="Trazado 892744" d="M178.086,299.6l9.256,2.364-4.348-7.67Z" transform="translate(-127.599 -210.864)" fill="#375a64"/>
            <path id="Trazado_892745" data-name="Trazado 892745" d="M139.135,263.247l-1.971,2.323,5.066,4.2,7.336-7.282-2.14-1.9-5.339,5.156Z" transform="translate(-98.278 -186.712)" fill="#fff"/>
          </g>
        </g>
      </g>
    </g>
  </g>
</svg>
