<svg xmlns="http://www.w3.org/2000/svg" xmlns:xlink="http://www.w3.org/1999/xlink" width="84" height="84" viewBox="0 0 84 84">
  <defs>
    <clipPath id="clip-path">
      <rect id="Rectángulo_401717" data-name="Rectángulo 401717" width="84" height="84" transform="translate(706.73 2847)" fill="#824ffb" stroke="#707070" stroke-width="1"/>
    </clipPath>
  </defs>
  <g id="Grupo_1103307" data-name="Grupo 1103307" transform="translate(-707.051 -2397.312)">
    <g id="Enmascarar_grupo_1098713" data-name="Enmascarar grupo 1098713" transform="translate(0.32 -449.688)" clip-path="url(#clip-path)">
      <g id="charla2" transform="translate(706.73 2847)">
        <g id="Grupo_1101588" data-name="Grupo 1101588">
          <g id="Grupo_1101587" data-name="Grupo 1101587">
            <path id="Trazado_890988" data-name="Trazado 890988" d="M79.078,32.977H68.742V9.352A4.927,4.927,0,0,0,63.82,4.43H20.18a4.927,4.927,0,0,0-4.922,4.922V24.117H4.922A4.927,4.927,0,0,0,0,29.039V59.227a4.927,4.927,0,0,0,4.922,4.922H19.5l6.082,6.082a1.641,1.641,0,0,0,2.32,0l2.613-2.613v.469a4.927,4.927,0,0,0,4.922,4.922H50.016L56.1,79.09a1.641,1.641,0,0,0,2.32,0L64.5,73.008H79.078A4.927,4.927,0,0,0,84,68.086V37.9A4.927,4.927,0,0,0,79.078,32.977ZM18.539,9.352A1.642,1.642,0,0,1,20.18,7.711H63.82a1.642,1.642,0,0,1,1.641,1.641V39.539A1.642,1.642,0,0,1,63.82,41.18H48.563a1.641,1.641,0,0,0-1.16.481l-5.4,5.4-5.4-5.4a1.641,1.641,0,0,0-1.16-.481H20.18a1.642,1.642,0,0,1-1.641-1.641Zm13.606,52-5.4,5.4-5.4-5.4a1.641,1.641,0,0,0-1.16-.481H4.922a1.642,1.642,0,0,1-1.641-1.641V29.039A1.642,1.642,0,0,1,4.922,27.4H15.258V39.539a4.927,4.927,0,0,0,4.922,4.922H34.758l6.082,6.082a1.641,1.641,0,0,0,2.32,0l6.082-6.082H50.2V59.227a1.642,1.642,0,0,1-1.641,1.641H33.3A1.641,1.641,0,0,0,32.145,61.348Zm48.574,6.738a1.642,1.642,0,0,1-1.641,1.641H63.82a1.641,1.641,0,0,0-1.16.481l-5.4,5.4-5.4-5.4a1.641,1.641,0,0,0-1.16-.481H35.438A1.642,1.642,0,0,1,33.8,68.086v-3.75l.187-.187H48.563a4.927,4.927,0,0,0,4.922-4.922V44.461H63.82a4.927,4.927,0,0,0,4.922-4.922V36.258H79.078A1.642,1.642,0,0,1,80.719,37.9Z" fill="#824ffb"/>
          </g>
        </g>
        <g id="Grupo_1101590" data-name="Grupo 1101590">
          <g id="Grupo_1101589" data-name="Grupo 1101589">
            <path id="Trazado_890989" data-name="Trazado 890989" d="M57.258,13.617H26.766a1.641,1.641,0,0,0,0,3.281H57.258a1.641,1.641,0,0,0,0-3.281Z" fill="#824ffb"/>
          </g>
        </g>
        <g id="Grupo_1101592" data-name="Grupo 1101592">
          <g id="Grupo_1101591" data-name="Grupo 1101591">
            <path id="Trazado_890990" data-name="Trazado 890990" d="M58.418,23.285a1.64,1.64,0,1,0,.481,1.16A1.653,1.653,0,0,0,58.418,23.285Z" fill="#824ffb"/>
          </g>
        </g>
        <g id="Grupo_1101594" data-name="Grupo 1101594">
          <g id="Grupo_1101593" data-name="Grupo 1101593">
            <path id="Trazado_890991" data-name="Trazado 890991" d="M49.111,22.8H26.766a1.641,1.641,0,0,0,0,3.281H49.111a1.641,1.641,0,1,0,0-3.281Z" fill="#824ffb"/>
          </g>
        </g>
        <g id="Grupo_1101596" data-name="Grupo 1101596">
          <g id="Grupo_1101595" data-name="Grupo 1101595">
            <path id="Trazado_890992" data-name="Trazado 890992" d="M57.258,31.992H34.793a1.641,1.641,0,0,0,0,3.281H57.258a1.641,1.641,0,0,0,0-3.281Z" fill="#824ffb"/>
          </g>
        </g>
        <g id="Grupo_1101598" data-name="Grupo 1101598">
          <g id="Grupo_1101597" data-name="Grupo 1101597">
            <path id="Trazado_890993" data-name="Trazado 890993" d="M26.88,31.992h-.137a1.641,1.641,0,0,0,0,3.281h.137a1.641,1.641,0,0,0,0-3.281Z" fill="#824ffb"/>
          </g>
        </g>
      </g>
    </g>
  </g>
</svg>
