<svg xmlns="http://www.w3.org/2000/svg" xmlns:xlink="http://www.w3.org/1999/xlink" width="446.987" height="426.447" viewBox="0 0 446.987 426.447">
  <defs>
    <clipPath id="clip-path">
      <rect id="Rectángulo_401927" data-name="Rectángulo 401927" width="446.987" height="392.826" fill="none"/>
    </clipPath>
    <clipPath id="clip-path-3">
      <rect id="Rectángulo_400902" data-name="Rectángulo 400902" width="90.344" height="80.095" fill="#7dc8ff"/>
    </clipPath>
  </defs>
  <g id="Grupo_1103308" data-name="Grupo 1103308" transform="translate(-973.051 -2720.854)">
    <path id="Rectángulo_401347" data-name="Rectángulo 401347" d="M95.334,0h0a95.334,95.334,0,0,1,95.334,95.334V327.787a0,0,0,0,1,0,0H0a0,0,0,0,1,0,0V95.334A95.334,95.334,0,0,1,95.334,0Z" transform="translate(1114.645 2785.894)" fill="#cdb8fd"/>
    <path id="Rectángulo_400930" data-name="Rectángulo 400930" d="M103.217,0h0A103.217,103.217,0,0,1,206.433,103.217V346.868a0,0,0,0,1,0,0H0a0,0,0,0,1,0,0V103.217A103.217,103.217,0,0,1,103.217,0Z" transform="translate(1089.795 2785.894)" fill="#fcc5d5"/>
    <path id="Rectángulo_401350" data-name="Rectángulo 401350" d="M0,0H215.52a0,0,0,0,1,0,0V14.62a19,19,0,0,1-19,19H19a19,19,0,0,1-19-19V0A0,0,0,0,1,0,0Z" transform="translate(1089.795 3113.681)" fill="#cbe9ff"/>
    <g id="Grupo_1101946" data-name="Grupo 1101946" transform="translate(973.051 2720.854)">
      <g id="Grupo_1101943" data-name="Grupo 1101943">
        <g id="Grupo_1101942" data-name="Grupo 1101942" clip-path="url(#clip-path)">
          <text id="_" data-name="?" transform="translate(285.291 152.411) rotate(-0.087)" fill="#fff" font-size="178.55" font-family="SegoeUI, Segoe UI"><tspan x="0" y="0">?</tspan></text>
          <path id="Trazado_892091" data-name="Trazado 892091" d="M364.256,64.8a37.576,37.576,0,0,0-70.019-18.821A8.7,8.7,0,0,0,297.29,57.94a8.811,8.811,0,0,0,12.137-3.233,19.73,19.73,0,0,1,17.126-9.846,20,20,0,1,1,.06,40,9.005,9.005,0,0,0-8.736,8.763c0,.178,0,.178.179.356,0,.179-.178.18-.178.358l.029,18.569a8.758,8.758,0,0,0,8.761,8.735,8.544,8.544,0,0,0,8.737-8.762l-.018-11.605A37.5,37.5,0,0,0,364.256,64.8Zm-37.572,66.834a8.881,8.881,0,0,0-8.736,8.763l.005,3.214a8.761,8.761,0,0,0,8.762,8.735,8.544,8.544,0,0,0,8.736-8.762l0-3.214A8.651,8.651,0,0,0,326.684,131.636Z" fill="none" stroke="#2e4ecc" stroke-miterlimit="10" stroke-width="1"/>
        </g>
      </g>
      <text id="_2" data-name="?" transform="matrix(0.998, 0.067, -0.067, 0.998, 371.969, 269.339)" fill="#fff" font-size="94.953" font-family="SegoeUI, Segoe UI"><tspan x="0" y="0">?</tspan></text>
      <g id="Grupo_1101945" data-name="Grupo 1101945">
        <g id="Grupo_1101944" data-name="Grupo 1101944" clip-path="url(#clip-path)">
          <path id="Trazado_892092" data-name="Trazado 892092" d="M417.064,225.744A19.983,19.983,0,0,0,380.6,213.2a4.628,4.628,0,0,0,1.183,6.456,4.685,4.685,0,0,0,6.557-1.271,10.49,10.49,0,0,1,9.446-4.6,10.637,10.637,0,1,1-1.43,21.222,4.789,4.789,0,0,0-4.955,4.33c-.007.1-.007.1.083.2-.007.1-.1.089-.109.183l-.664,9.853a4.66,4.66,0,0,0,4.33,4.954A4.542,4.542,0,0,0,400,250.194l.416-6.158A19.94,19.94,0,0,0,417.064,225.744Zm-22.376,34.085a4.723,4.723,0,0,0-4.956,4.33l-.115,1.705a4.659,4.659,0,0,0,4.33,4.954,4.543,4.543,0,0,0,4.955-4.329l.115-1.705A4.6,4.6,0,0,0,394.688,259.829Z" fill="none" stroke="#92cdfe" stroke-miterlimit="10" stroke-width="1"/>
          <path id="Trazado_892093" data-name="Trazado 892093" d="M69.921,108.143a25.488,25.488,0,0,0-48.943,4.824,5.9,5.9,0,0,0,4.8,6.859,5.977,5.977,0,0,0,6.928-4.959,13.379,13.379,0,0,1,8.511-10.349,13.566,13.566,0,1,1,9.616,25.366,6.1,6.1,0,0,0-3.444,7.652c.043.114.043.114.2.184.043.113-.07.156-.027.27l4.465,11.778a5.944,5.944,0,0,0,7.653,3.444,5.793,5.793,0,0,0,3.445-7.651l-2.791-7.36A25.436,25.436,0,0,0,69.921,108.143Zm-7.838,51.411a6.024,6.024,0,0,0-3.445,7.653l.773,2.038a5.942,5.942,0,0,0,7.652,3.446,5.794,5.794,0,0,0,3.445-7.653L69.735,163A5.867,5.867,0,0,0,62.083,159.554Z" fill="none" stroke="#92cdfe" stroke-miterlimit="10" stroke-width="1"/>
          <path id="Trazado_892094" data-name="Trazado 892094" d="M128.678,31.55a15.522,15.522,0,0,0-28.823-8.14,3.6,3.6,0,0,0,1.2,4.955,3.639,3.639,0,0,0,5.03-1.272,8.153,8.153,0,0,1,7.126-3.976,8.262,8.262,0,1,1-.185,16.52,3.718,3.718,0,0,0-3.654,3.572c0,.074,0,.074.072.149,0,.074-.074.073-.075.147l-.086,7.67a3.619,3.619,0,0,0,3.574,3.654,3.53,3.53,0,0,0,3.654-3.574l.053-4.793A15.491,15.491,0,0,0,128.678,31.55ZM112.809,58.959a3.67,3.67,0,0,0-3.655,3.574l-.014,1.327a3.618,3.618,0,0,0,3.573,3.654,3.529,3.529,0,0,0,3.654-3.573l.015-1.328A3.573,3.573,0,0,0,112.809,58.959Z" fill="none" stroke="#92cdfe" stroke-miterlimit="10" stroke-width="1"/>
          <path id="Trazado_892095" data-name="Trazado 892095" d="M415.7,110.1a15.706,15.706,0,0,0-27.978-11.643,3.639,3.639,0,0,0,.608,5.123,3.683,3.683,0,0,0,5.206-.673,8.248,8.248,0,0,1,7.637-3.139A8.359,8.359,0,1,1,399,116.342a3.762,3.762,0,0,0-4.1,3.151c-.009.074-.009.074.054.158-.01.073-.083.064-.093.138l-1.007,7.695a3.66,3.66,0,0,0,3.15,4.1,3.57,3.57,0,0,0,4.1-3.15l.629-4.81A15.673,15.673,0,0,0,415.7,110.1Zm-19.238,25.628a3.711,3.711,0,0,0-4.1,3.15l-.174,1.332a3.661,3.661,0,0,0,3.15,4.1,3.572,3.572,0,0,0,4.1-3.151l.174-1.332A3.615,3.615,0,0,0,396.458,135.728Z" fill="none" stroke="#92cdfe" stroke-miterlimit="10" stroke-width="1"/>
          <path id="Trazado_892096" data-name="Trazado 892096" d="M257.539,229.9a24.485,24.485,0,0,1,5.314,3.744l5.679-2.022,5.338,8.425-4.253,4.272a24.431,24.431,0,0,1,1.115,6.4l5.444,2.586-2.184,9.731-6.025.013a24.413,24.413,0,0,1-3.745,5.315l2.021,5.679-8.423,5.338-4.273-4.253a24.465,24.465,0,0,1-6.406,1.114l-2.584,5.443-9.732-2.182-.013-6.026a24.38,24.38,0,0,1-5.315-3.745l-5.68,2.022-5.337-8.424,4.254-4.272a24.473,24.473,0,0,1-1.115-6.4l-5.443-2.586,2.183-9.731,6.025-.013a24.386,24.386,0,0,1,3.745-5.316l-2.022-5.679,8.424-5.337,4.272,4.253a24.473,24.473,0,0,1,6.406-1.115l2.585-5.443,9.731,2.183Zm-8.58,11.451a10.7,10.7,0,1,0,8.1,12.781,10.7,10.7,0,0,0-8.1-12.781" fill="#92cdfe" fill-rule="evenodd"/>
          <path id="Trazado_892097" data-name="Trazado 892097" d="M367.128,161.291a19.862,19.862,0,0,1,4.315,3.04l4.611-1.642,4.334,6.841L376.935,173a19.847,19.847,0,0,1,.906,5.2l4.42,2.1-1.774,7.9-4.892.01a19.79,19.79,0,0,1-3.041,4.316l1.642,4.612-6.84,4.333-3.469-3.453a19.82,19.82,0,0,1-5.2.9l-2.1,4.42-7.9-1.772-.01-4.893a19.814,19.814,0,0,1-4.316-3.041l-4.612,1.642-4.334-6.841,3.455-3.468a19.862,19.862,0,0,1-.906-5.2l-4.419-2.1,1.772-7.9,4.893-.011a19.811,19.811,0,0,1,3.04-4.316l-1.641-4.611,6.84-4.334,3.469,3.454a19.847,19.847,0,0,1,5.2-.906l2.1-4.419,7.9,1.772Zm-6.967,9.3a8.687,8.687,0,1,0,6.575,10.378A8.687,8.687,0,0,0,360.161,170.589Z" fill="none" stroke="#92cdfe" stroke-miterlimit="10" stroke-width="1"/>
          <path id="Trazado_892098" data-name="Trazado 892098" d="M421.6,273.769a9.437,9.437,0,0,1,2.051,1.445l2.191-.78,2.06,3.251-1.641,1.648a9.388,9.388,0,0,1,.43,2.472l2.1,1-.843,3.755-2.325,0a9.4,9.4,0,0,1-1.445,2.051l.78,2.192-3.251,2.06-1.648-1.642a9.421,9.421,0,0,1-2.472.43l-1,2.1-3.756-.842-.005-2.325a9.408,9.408,0,0,1-2.051-1.446l-2.192.78-2.06-3.251,1.642-1.648a9.464,9.464,0,0,1-.431-2.472l-2.1-1,.842-3.756,2.326-.005a9.37,9.37,0,0,1,1.445-2.051l-.78-2.192,3.25-2.059,1.649,1.641a9.421,9.421,0,0,1,2.472-.43l1-2.1,3.756.843Zm-3.311,4.419a4.129,4.129,0,1,0,3.125,4.932A4.128,4.128,0,0,0,418.289,278.188Z" fill="none" stroke="#92cdfe" stroke-miterlimit="10" stroke-width="1"/>
          <path id="Trazado_892099" data-name="Trazado 892099" d="M44.765,309.389a19.36,19.36,0,0,1,4.206,2.962l4.493-1.6,4.223,6.666-3.365,3.38a19.36,19.36,0,0,1,.883,5.068l4.306,2.046-1.727,7.7-4.768.011a19.276,19.276,0,0,1-2.963,4.2l1.6,4.494-6.665,4.222-3.38-3.365a19.318,19.318,0,0,1-5.069.882l-2.045,4.307-7.7-1.727-.01-4.767a19.31,19.31,0,0,1-4.2-2.963l-4.5,1.6-4.222-6.665,3.366-3.38a19.4,19.4,0,0,1-.883-5.068l-4.306-2.046,1.727-7.7,4.767-.01a19.292,19.292,0,0,1,2.963-4.206l-1.6-4.494,6.665-4.223,3.38,3.366a19.319,19.319,0,0,1,5.068-.883l2.045-4.306,7.7,1.727Zm-6.788,9.06a8.465,8.465,0,1,0,6.407,10.112A8.465,8.465,0,0,0,37.977,318.449Z" fill="none" stroke="#92cdfe" stroke-miterlimit="10" stroke-width="1"/>
          <path id="Trazado_892100" data-name="Trazado 892100" d="M118.457,270.557S84.675,350.983,90.672,392.446l159.017-.006s-15.773-103.209-33.452-127.932-97.78,6.049-97.78,6.049" fill="#161522"/>
          <path id="Trazado_892101" data-name="Trazado 892101" d="M171.337,141.89s27.354,13.867,55.018,10.249-2.9-28.173-9.118-40.894c-4.438-9.084.829-32.909,29.427-28.556s52.775,40.656,56.787,67.242c3.8,25.194-16.6,61.837-87.2,72l-49.094-54.9Z" fill="#2e4ecc"/>
          <path id="Trazado_892102" data-name="Trazado 892102" d="M237.584,173.358a8.459,8.459,0,1,1,8.458-8.459,8.467,8.467,0,0,1-8.458,8.459m0-15.963a7.5,7.5,0,1,0,7.5,7.5,7.512,7.512,0,0,0-7.5-7.5" fill="#fff"/>
          <path id="Trazado_892103" data-name="Trazado 892103" d="M233.328,203.252a7.657,7.657,0,1,1,7.656-7.657,7.665,7.665,0,0,1-7.656,7.657m0-14.359a6.7,6.7,0,1,0,6.7,6.7,6.71,6.71,0,0,0-6.7-6.7" fill="#fff"/>
          <path id="Trazado_892104" data-name="Trazado 892104" d="M267.726,168.583a8.134,8.134,0,1,1,8.134-8.134,8.142,8.142,0,0,1-8.134,8.134m0-15.315a7.18,7.18,0,1,0,7.18,7.181,7.188,7.188,0,0,0-7.18-7.181" fill="#fff"/>
          <path id="Trazado_892105" data-name="Trazado 892105" d="M279.942,134.168a5.347,5.347,0,1,1,5.346-5.347,5.353,5.353,0,0,1-5.346,5.347m0-9.74a4.392,4.392,0,1,0,4.392,4.393,4.4,4.4,0,0,0-4.392-4.393" fill="#fff"/>
          <path id="Trazado_892106" data-name="Trazado 892106" d="M254.748,142.976a3.482,3.482,0,1,1,3.482-3.482,3.486,3.486,0,0,1-3.482,3.482m0-6.01a2.528,2.528,0,1,0,2.528,2.528,2.531,2.531,0,0,0-2.528-2.528" fill="#fff"/>
          <path id="Trazado_892107" data-name="Trazado 892107" d="M248.57,100.409a3.481,3.481,0,1,1,3.482-3.482,3.486,3.486,0,0,1-3.482,3.482m0-6.009a2.528,2.528,0,1,0,2.528,2.527A2.531,2.531,0,0,0,248.57,94.4" fill="#fff"/>
          <path id="Trazado_892108" data-name="Trazado 892108" d="M257.753,127.04a8.136,8.136,0,1,1,8.136-8.136,8.146,8.146,0,0,1-8.136,8.136m0-15.318a7.182,7.182,0,1,0,7.182,7.182,7.191,7.191,0,0,0-7.182-7.182" fill="#fff"/>
          <path id="Trazado_892109" data-name="Trazado 892109" d="M281.1,104.132a7.912,7.912,0,0,1-11.353-10.837c-.251-.2-.5-.387-.757-.578a8.866,8.866,0,0,0,12.734,12.138c-.207-.243-.415-.483-.624-.723" fill="#fff"/>
          <path id="Trazado_892110" data-name="Trazado 892110" d="M223.073,119.835a10.834,10.834,0,1,1,12.707,17.544c.151.293.291.583.427.871a11.79,11.79,0,1,0-13.719-19.167q.289.374.585.752" fill="#fff"/>
          <path id="Trazado_892111" data-name="Trazado 892111" d="M240.032,87.518a5.566,5.566,0,0,0,5.526-4.968c-.325-.042-.651-.087-.97-.121a4.578,4.578,0,0,1-9.108.05c-.325.045-.647.092-.963.147a5.564,5.564,0,0,0,5.515,4.892" fill="#fff"/>
          <path id="Trazado_892112" data-name="Trazado 892112" d="M222.705,108.072a8.989,8.989,0,1,0-1.941-17.76q-.513.633-.969,1.291a8.033,8.033,0,1,1-3.914,11.7c-.026.538-.038,1.069-.025,1.588a8.965,8.965,0,0,0,6.849,3.182" fill="#fff"/>
          <path id="Trazado_892113" data-name="Trazado 892113" d="M217.814,214.458A8.263,8.263,0,0,0,211.848,217l.638.714a7.325,7.325,0,0,1,12.317,2.8c.314-.058.633-.113.944-.172a8.3,8.3,0,0,0-7.933-5.892" fill="#fff"/>
          <path id="Trazado_892114" data-name="Trazado 892114" d="M271.68,190.577A12.073,12.073,0,0,0,261.588,209.3c.29-.134.585-.266.872-.4a11.128,11.128,0,1,1,18.943-11.64c.251-.2.5-.4.749-.6a12.087,12.087,0,0,0-10.472-6.077" fill="#fff"/>
          <path id="Trazado_892115" data-name="Trazado 892115" d="M300.181,156.956a8.485,8.485,0,0,1,0-16.971,8.651,8.651,0,0,1,.985.062q-.15-.49-.306-.982c-.225-.016-.45-.034-.679-.034a9.439,9.439,0,1,0,3.681,18.131c.012-.358.02-.714.022-1.068a8.429,8.429,0,0,1-3.7.862" fill="#fff"/>
          <path id="Trazado_892116" data-name="Trazado 892116" d="M247.182,149.932s12.013,8.245,24.346,11.5" fill="none" stroke="#16004d" stroke-linecap="round" stroke-miterlimit="10" stroke-width="1"/>
          <path id="Trazado_892117" data-name="Trazado 892117" d="M296.907,128.82a81.4,81.4,0,0,1,6.543,21.112c3.8,25.193-16.6,61.837-87.2,72" fill="none" stroke="#16004d" stroke-linecap="round" stroke-miterlimit="10" stroke-width="1"/>
          <path id="Trazado_892118" data-name="Trazado 892118" d="M226.356,152.14c27.665-3.618-2.9-28.174-9.118-40.895-4.439-9.083.829-32.908,29.426-28.556" fill="none" stroke="#16004d" stroke-linecap="round" stroke-miterlimit="10" stroke-width="1"/>
          <path id="Trazado_892119" data-name="Trazado 892119" d="M189.1,60.063s40.385,26.822,40.5,30.882-3.714,10.736-10.513,12.72S180.869,91.58,180.869,91.58s2.293-21.572,8.236-31.517" fill="#f6c8a6"/>
          <path id="Trazado_892120" data-name="Trazado 892120" d="M160.449,127.013A28.223,28.223,0,1,1,132.225,98.79a28.223,28.223,0,0,1,28.224,28.223" fill="#16004d"/>
          <path id="Trazado_892121" data-name="Trazado 892121" d="M66.933,232.306c27.244,12.9,28.836,37.428,25.511,45.935S85.7,292.741,62.021,293.3,23.008,282.1,22.25,257.774s22.04-54.186,44.929-69.866,60.512-45.577,100.024-43.467,84.613,38.225,84.613,38.225L108.571,236.272S90.5,246.358,88.747,250.425" fill="#2e4ecc"/>
          <path id="Trazado_892122" data-name="Trazado 892122" d="M86.486,230.062a5.206,5.206,0,1,0-5.206,5.205,5.211,5.211,0,0,0,5.206-5.205m-9.457,0a4.251,4.251,0,1,1,4.251,4.251,4.257,4.257,0,0,1-4.251-4.251" fill="#fff"/>
          <path id="Trazado_892123" data-name="Trazado 892123" d="M56.839,229.672a7.73,7.73,0,1,0-7.73-7.73,7.739,7.739,0,0,0,7.73,7.73m0-14.506a6.776,6.776,0,1,1-6.776,6.776,6.784,6.784,0,0,1,6.776-6.776" fill="#fff"/>
          <path id="Trazado_892124" data-name="Trazado 892124" d="M73.976,207.125a2.86,2.86,0,1,0,2.86-2.86,2.863,2.863,0,0,0-2.86,2.86m4.766,0a1.906,1.906,0,1,1-1.906-1.906,1.908,1.908,0,0,1,1.906,1.906" fill="#fff"/>
          <path id="Trazado_892125" data-name="Trazado 892125" d="M74.008,255.559A5.611,5.611,0,1,0,68.4,261.17a5.618,5.618,0,0,0,5.611-5.611M68.4,260.216a4.658,4.658,0,1,1,4.657-4.657,4.662,4.662,0,0,1-4.657,4.657" fill="#fff"/>
          <path id="Trazado_892126" data-name="Trazado 892126" d="M72.318,276.779a3.315,3.315,0,1,0,3.315,3.315,3.319,3.319,0,0,0-3.315-3.315m0,5.676a2.361,2.361,0,1,1,2.361-2.361,2.364,2.364,0,0,1-2.361,2.361" fill="#fff"/>
          <path id="Trazado_892127" data-name="Trazado 892127" d="M50.684,263.594A6.486,6.486,0,1,0,44.2,270.08a6.494,6.494,0,0,0,6.487-6.486m-12.019,0a5.532,5.532,0,1,1,5.532,5.532,5.539,5.539,0,0,1-5.532-5.532" fill="#fff"/>
          <path id="Trazado_892128" data-name="Trazado 892128" d="M90.09,184.3a8.925,8.925,0,0,1-17.85.086l-.921.645a9.876,9.876,0,1,0,13.942-9.711c-.313.213-.631.428-.941.64a8.933,8.933,0,0,1,5.77,8.34" fill="#fff"/>
          <path id="Trazado_892129" data-name="Trazado 892129" d="M93.68,271.322c.013-.369.02-.744.019-1.127a7.721,7.721,0,1,1-2.858-14.029c-.14-.343-.278-.686-.43-1.03a8.568,8.568,0,0,0-.94-.054,8.668,8.668,0,1,0,4.209,16.24" fill="#fff"/>
          <path id="Trazado_892130" data-name="Trazado 892130" d="M63.632,293.25c.022-.271.042-.542.042-.818a9.971,9.971,0,0,0-19.8-1.693c.3.107.61.207.917.308a9.017,9.017,0,0,1,17.927,1.385c0,.286-.016.569-.043.848.322-.009.642-.019.956-.03" fill="#fff"/>
          <path id="Trazado_892131" data-name="Trazado 892131" d="M34.446,285.6A10.1,10.1,0,0,0,25.662,270.5a10.141,10.141,0,0,0-1.335.1q.147.463.306.918a8.968,8.968,0,0,1,1.029-.062A9.154,9.154,0,0,1,33.7,285c.244.207.5.406.747.605" fill="#fff"/>
          <path id="Trazado_892132" data-name="Trazado 892132" d="M38.458,233.753a7.944,7.944,0,0,0-6.592-7.814c-.171.295-.347.59-.514.886a6.98,6.98,0,1,1-5.627,11.991c-.12.327-.225.653-.34.978a7.927,7.927,0,0,0,13.073-6.041" fill="#fff"/>
          <path id="Trazado_892133" data-name="Trazado 892133" d="M66.933,232.306c27.244,12.9,28.836,37.428,25.511,45.935S85.7,292.741,62.021,293.3,23.008,282.1,22.25,257.774c-.673-21.59,17.209-47.539,37.242-64.065" fill="none" stroke="#16004d" stroke-linecap="round" stroke-miterlimit="10" stroke-width="1"/>
          <path id="Trazado_892134" data-name="Trazado 892134" d="M108.57,236.272S90.5,246.357,88.746,250.424" fill="none" stroke="#16004d" stroke-linecap="round" stroke-miterlimit="10" stroke-width="1"/>
          <path id="Trazado_892135" data-name="Trazado 892135" d="M227.06,240.99V206.213s-13.949-49.914-50.6-56.029-53.867,11.6-63.818,21.723-3.645,67.214-3.318,70.275,4.176,25.829,5.5,29.253,3.3,6.819,5.985,8.9,26.226,5.818,47.919,6.481,37.664-8.281,42.689-10.305,9.03-4.03,12.154-10.608,3.487-24.913,3.487-24.913" fill="#2e4ecc"/>
          <path id="Trazado_892136" data-name="Trazado 892136" d="M110.152,194.453a8.3,8.3,0,1,1,8.305-8.305,8.315,8.315,0,0,1-8.305,8.305m0-15.655a7.35,7.35,0,1,0,7.35,7.35,7.359,7.359,0,0,0-7.35-7.35" fill="#fff"/>
          <path id="Trazado_892137" data-name="Trazado 892137" d="M149.363,190.86a3.291,3.291,0,1,1,3.291-3.291,3.294,3.294,0,0,1-3.291,3.291m0-5.628a2.337,2.337,0,1,0,2.337,2.337,2.339,2.339,0,0,0-2.337-2.337" fill="#fff"/>
          <path id="Trazado_892138" data-name="Trazado 892138" d="M142.178,238.029a11.431,11.431,0,1,1,11.43-11.431,11.445,11.445,0,0,1-11.43,11.431m0-21.908A10.477,10.477,0,1,0,152.654,226.6a10.49,10.49,0,0,0-10.476-10.477" fill="#fff"/>
          <path id="Trazado_892139" data-name="Trazado 892139" d="M145.866,266.7a4.555,4.555,0,1,1,4.555-4.555,4.56,4.56,0,0,1-4.555,4.555m0-8.156a3.6,3.6,0,1,0,3.6,3.6,3.605,3.605,0,0,0-3.6-3.6" fill="#fff"/>
          <path id="Trazado_892140" data-name="Trazado 892140" d="M187.8,256.036a9.961,9.961,0,1,1,9.96-9.961,9.972,9.972,0,0,1-9.96,9.961m0-18.967a9.007,9.007,0,1,0,9.006,9.006,9.017,9.017,0,0,0-9.006-9.006" fill="#fff"/>
          <path id="Trazado_892141" data-name="Trazado 892141" d="M210.406,270.558a3.5,3.5,0,1,1,3.5-3.5,3.505,3.505,0,0,1-3.5,3.5m0-6.049a2.548,2.548,0,1,0,2.546,2.547,2.549,2.549,0,0,0-2.546-2.547" fill="#fff"/>
          <path id="Trazado_892142" data-name="Trazado 892142" d="M206.283,220.124a4.748,4.748,0,1,1,4.749-4.748,4.754,4.754,0,0,1-4.749,4.748m0-8.543a3.795,3.795,0,1,0,3.794,3.8,3.8,3.8,0,0,0-3.794-3.8" fill="#fff"/>
          <path id="Trazado_892143" data-name="Trazado 892143" d="M170.474,220.283a2.8,2.8,0,1,1,2.8-2.8,2.8,2.8,0,0,1-2.8,2.8m0-4.64a1.843,1.843,0,1,0,1.842,1.842,1.845,1.845,0,0,0-1.842-1.842" fill="#fff"/>
          <path id="Trazado_892144" data-name="Trazado 892144" d="M127.951,206.683a2.8,2.8,0,1,1,2.8-2.8,2.8,2.8,0,0,1-2.8,2.8m0-4.64a1.843,1.843,0,1,0,1.842,1.843,1.846,1.846,0,0,0-1.842-1.843" fill="#fff"/>
          <path id="Trazado_892145" data-name="Trazado 892145" d="M181.353,200.557A11.357,11.357,0,1,1,192.71,189.2a11.369,11.369,0,0,1-11.357,11.357m0-21.759a10.4,10.4,0,1,0,10.4,10.4,10.413,10.413,0,0,0-10.4-10.4" fill="#fff"/>
          <path id="Trazado_892146" data-name="Trazado 892146" d="M166.136,163.876a6.227,6.227,0,1,1,6.227-6.227,6.234,6.234,0,0,1-6.227,6.227m0-11.5a5.273,5.273,0,1,0,5.273,5.273,5.278,5.278,0,0,0-5.273-5.273" fill="#fff"/>
          <path id="Trazado_892147" data-name="Trazado 892147" d="M215.654,186.625a4.391,4.391,0,1,1,4.391-4.391,4.4,4.4,0,0,1-4.391,4.391m0-7.827a3.437,3.437,0,1,0,3.437,3.436,3.441,3.441,0,0,0-3.437-3.436" fill="#fff"/>
          <path id="Trazado_892148" data-name="Trazado 892148" d="M107.036,227.074a9.695,9.695,0,1,1,9.695-9.7,9.706,9.706,0,0,1-9.695,9.7m0-18.436a8.741,8.741,0,1,0,8.741,8.741,8.751,8.751,0,0,0-8.741-8.741" fill="#fff"/>
          <path id="Trazado_892149" data-name="Trazado 892149" d="M132.588,169.472a11.845,11.845,0,0,0,6.661-21.642c-.417.117-.837.225-1.254.347a10.908,10.908,0,1,1-15.656,5.783c-.387.171-.776.337-1.162.511a11.811,11.811,0,0,0,11.411,15" fill="#fff"/>
          <path id="Trazado_892150" data-name="Trazado 892150" d="M226.758,247.471a9.571,9.571,0,0,1,.005-19.143c.1,0,.2.011.3.015v-.955c-.1,0-.2-.015-.3-.015a10.525,10.525,0,0,0-.071,21.049q.036-.484.066-.951" fill="#fff"/>
          <path id="Trazado_892151" data-name="Trazado 892151" d="M186.525,285.268a12.285,12.285,0,1,0-23.417,1.309c.344.019.689.036,1.034.053a11.336,11.336,0,1,1,21.346-1.155c.35-.066.692-.137,1.037-.207" fill="#fff"/>
          <path id="Trazado_892152" data-name="Trazado 892152" d="M132.884,276.779a8.877,8.877,0,0,0-7.974,5.005q.454.113.949.227a7.909,7.909,0,0,1,14.856,2.515l.983.126a8.884,8.884,0,0,0-8.814-7.873" fill="#fff"/>
          <path id="Trazado_892153" data-name="Trazado 892153" d="M123.844,256.495a9.775,9.775,0,0,0-13.715-8.958q.078.477.162.981a8.828,8.828,0,1,1,3.766,16.809c-.243,0-.482-.017-.72-.036.068.33.134.651.2.964.173.009.345.026.52.026a9.8,9.8,0,0,0,9.787-9.786" fill="#fff"/>
          <path id="Trazado_892154" data-name="Trazado 892154" d="M201.534,168.747a15.4,15.4,0,0,0,15.305-13.9c-.317-.027-.635-.05-.95-.081a14.422,14.422,0,1,1-27.817-6.54c-.3-.111-.6-.221-.894-.33a15.34,15.34,0,0,0,14.356,20.851" fill="#fff"/>
          <path id="Trazado_892155" data-name="Trazado 892155" d="M108.143,225.333c1.312,30.557,6.169,48.905,10.441,53.572a18.079,18.079,0,0,0,3.536,2.081,206.1,206.1,0,0,0,45.172,5.78,99.839,99.839,0,0,0,18.795-1.409c7.37-1.27,13.913-4.012,19.642-6.311,7.974-3.2,14.087-6.29,16.13-9.953,6.2-11.12,5.2-41.833,5.2-41.833V206.212" fill="none" stroke="#16004d" stroke-linecap="round" stroke-miterlimit="10" stroke-width="1"/>
          <path id="Trazado_892156" data-name="Trazado 892156" d="M128.5,303.413c2.838-2.066-6.774-11.439-9.39-14.938,2.923,3.109,10.527,12.93,13.262,10.5,3.416-3.036-10.217-17.263-10.217-17.263,4.3,3.614,9.895,11.348,12.457,12.339,1.073.414,2.554.026,2.249-2.718-.208-1.874-2.14-4.207-3.695-6.186-7.323-9.319-27.117-19.153-36.158-23.377-1.977-.924-3.031-.989-5.827-1.8-5.877-1.7-10.2,3.665-12.56,7.783-2.6,4.535-3.016,10.862.281,14.786C86.3,291.346,94.43,293.06,100,294.927c14.861,4.987,19.586,16.172,23.836,13.438,2.476-1.592-5.039-11.93-8.541-15.165,3.661,2.847,9.367,13.012,13.211,10.213" fill="#f6c8a6"/>
          <path id="Trazado_892157" data-name="Trazado 892157" d="M121.539,299.986a59.02,59.02,0,0,0-9.233-10.755c-.355-.325-.887.2-.53.53a58.163,58.163,0,0,1,9.115,10.6c.267.4.917.024.648-.379" fill="#ef8576"/>
          <path id="Trazado_892158" data-name="Trazado 892158" d="M125.893,295.739a150.508,150.508,0,0,0-10.774-11.515c-.347-.335-.879.2-.53.53a150.694,150.694,0,0,1,10.774,11.515c.311.37.839-.163.53-.53" fill="#ef8576"/>
          <path id="Trazado_892159" data-name="Trazado 892159" d="M128.76,288.42a46.852,46.852,0,0,0-11.825-11.488c-.4-.271-.777.379-.378.648A45.8,45.8,0,0,1,128.111,288.8c.28.388.931.014.649-.379" fill="#ef8576"/>
          <path id="Trazado_892160" data-name="Trazado 892160" d="M144.7,93.7a11.95,11.95,0,0,1,6.96,2.23V88.763c0-11.363,8.167-20.663,18.148-20.663h15.013c9.982,0,18.149,9.3,18.149,20.663v23.273c0,11.365-8.167,20.663-18.149,20.663h-8.681v12.537a9.374,9.374,0,0,1-9.346,9.347h-5.957a9.375,9.375,0,0,1-9.347-9.347V116.112c0-.285.026-.564.052-.841A11.89,11.89,0,1,1,144.7,93.7" fill="#f6c8a6"/>
          <path id="Trazado_892161" data-name="Trazado 892161" d="M151.16,107.124s.526-8.053-7.743-7.158" fill="none" stroke="#010001" stroke-linecap="round" stroke-miterlimit="10" stroke-width="1"/>
          <path id="Trazado_892162" data-name="Trazado 892162" d="M173.877,96.367a2.428,2.428,0,1,0,2.428-2.428,2.428,2.428,0,0,0-2.428,2.428" fill="#010001"/>
          <path id="Trazado_892163" data-name="Trazado 892163" d="M195.907,95.871a2.06,2.06,0,1,0,2.059-2.059,2.059,2.059,0,0,0-2.059,2.059" fill="#010001"/>
          <path id="Trazado_892164" data-name="Trazado 892164" d="M161.158,108.812a8.412,8.412,0,1,0,8.412-8.412,8.412,8.412,0,0,0-8.412,8.412" fill="#ef8576"/>
          <path id="Trazado_892165" data-name="Trazado 892165" d="M201.423,102.409a6.43,6.43,0,0,1,1.485.181v8.725a17.97,17.97,0,0,1-.313,3.792,7.543,7.543,0,0,1-1.172.108,6.4,6.4,0,0,1,0-12.806" fill="#ef8576"/>
          <path id="Trazado_892166" data-name="Trazado 892166" d="M171.456,91.148a27.9,27.9,0,0,1,5.3-2.132.376.376,0,0,0-.2-.724,28.942,28.942,0,0,0-5.482,2.208c-.427.226-.048.873.379.648" fill="#010001"/>
          <path id="Trazado_892167" data-name="Trazado 892167" d="M195.021,90.451a32.935,32.935,0,0,1,5.693.272.389.389,0,0,0,.461-.262.376.376,0,0,0-.262-.461,34.045,34.045,0,0,0-5.892-.3c-.481.018-.484.768,0,.75" fill="#010001"/>
          <path id="Trazado_892168" data-name="Trazado 892168" d="M187.514,93.116A34.989,34.989,0,0,0,191.991,102l.135-.513a18.579,18.579,0,0,1-4.441,1.283c-.475.077-.273.8.2.724a19.334,19.334,0,0,0,4.619-1.359.377.377,0,0,0,.135-.513,34.289,34.289,0,0,1-4.4-8.705c-.153-.455-.878-.26-.723.2" fill="#010001"/>
          <path id="Trazado_892169" data-name="Trazado 892169" d="M182.835,111.178a17.653,17.653,0,0,1,9.34,2.511" fill="none" stroke="#010001" stroke-linecap="round" stroke-miterlimit="10" stroke-width="1"/>
          <path id="Trazado_892170" data-name="Trazado 892170" d="M144.7,60.818c12.186-12.29,29.848-13.267,46.288-3.4s16.077,26.033,15.1,28.337a4.065,4.065,0,0,1-3.123,2.745c-1.517.191-4.073-.086-8.628-1.056-13.114-2.792-21.411-14.152-21.411-14.152s1.115,2.049-3.35,11.545c-3.35,7.125-11.862,11.527-16.21,13.347a11.886,11.886,0,0,0-8.541-4.483c-2.829-.108-6.043,1.456-8.127,3.055-3.324-6.458-3.213-24.628,8-35.94" fill="#16004d"/>
          <path id="Trazado_892171" data-name="Trazado 892171" d="M152.455,155.927l22.008-.247a6.651,6.651,0,0,0,6.575-6.725l-.044-3.9a6.649,6.649,0,0,0-6.725-6.575l-22.007.246a6.652,6.652,0,0,0-6.576,6.726l.044,3.9a6.651,6.651,0,0,0,6.725,6.575" fill="#fff"/>
          <path id="Trazado_892172" data-name="Trazado 892172" d="M152.455,155.927l22.008-.247a6.651,6.651,0,0,0,6.575-6.725l-.044-3.9a6.649,6.649,0,0,0-6.725-6.575l-22.007.246a6.652,6.652,0,0,0-6.576,6.726l.044,3.9A6.651,6.651,0,0,0,152.455,155.927Z" fill="none" stroke="#2e4ecc" stroke-miterlimit="10" stroke-width="1"/>
          <line id="Línea_585" data-name="Línea 585" y2="15.836" transform="translate(149.189 139.4)" fill="none" stroke="#2e4ecc" stroke-miterlimit="10" stroke-width="1"/>
          <line id="Línea_586" data-name="Línea 586" y2="16.712" transform="translate(153.24 139.206)" fill="none" stroke="#2e4ecc" stroke-miterlimit="10" stroke-width="1"/>
          <line id="Línea_587" data-name="Línea 587" y2="16.936" transform="translate(157.29 138.933)" fill="none" stroke="#2e4ecc" stroke-miterlimit="10" stroke-width="1"/>
          <line id="Línea_588" data-name="Línea 588" y2="16.891" transform="translate(161.34 138.933)" fill="none" stroke="#2e4ecc" stroke-miterlimit="10" stroke-width="1"/>
          <line id="Línea_589" data-name="Línea 589" y2="16.85" transform="translate(165.391 138.933)" fill="none" stroke="#2e4ecc" stroke-miterlimit="10" stroke-width="1"/>
          <line id="Línea_590" data-name="Línea 590" y2="16.802" transform="translate(169.441 138.933)" fill="none" stroke="#2e4ecc" stroke-miterlimit="10" stroke-width="1"/>
          <line id="Línea_591" data-name="Línea 591" y2="17.248" transform="translate(173.491 138.488)" fill="none" stroke="#2e4ecc" stroke-miterlimit="10" stroke-width="1"/>
          <line id="Línea_592" data-name="Línea 592" y2="16.305" transform="translate(177.541 138.933)" fill="none" stroke="#2e4ecc" stroke-miterlimit="10" stroke-width="1"/>
          <path id="Trazado_892173" data-name="Trazado 892173" d="M246.724,328.279l-13.015,16.936L198.02,391.791c-45.552-2.218-46.084-24.312-39.077-42.216,10.405-26.592,46.477-59.157,76.767-77.378,25.592-15.394,53.743-19.581,61.861-20.509l-5.21,34.175Z" fill="#fff"/>
          <path id="Trazado_892174" data-name="Trazado 892174" d="M174.586,338.7l-.266-.4a3.689,3.689,0,0,1,1.009-5.118l12.747-8.551a3.689,3.689,0,0,1,5.118,1.009l.265.4a3.687,3.687,0,0,1-1.008,5.117L179.7,339.711a3.688,3.688,0,0,1-5.118-1.008" fill="#2e4ecc"/>
          <path id="Trazado_892175" data-name="Trazado 892175" d="M218.46,337.69l-.266-.4a3.689,3.689,0,0,1,1.009-5.118l12.747-8.551a3.689,3.689,0,0,1,5.118,1.009l.265.395a3.688,3.688,0,0,1-1.008,5.118L223.578,338.7a3.688,3.688,0,0,1-5.118-1.008" fill="#2e4ecc"/>
          <path id="Trazado_892176" data-name="Trazado 892176" d="M212.738,315.306l-.267-.4a3.689,3.689,0,0,1,1.009-5.118l12.747-8.551a3.689,3.689,0,0,1,5.118,1.009l.265.4a3.687,3.687,0,0,1-1.008,5.117l-12.747,8.551a3.687,3.687,0,0,1-5.117-1.008" fill="#2e4ecc"/>
          <path id="Trazado_892177" data-name="Trazado 892177" d="M185.825,311.8c.039.067.065.138.109.2a3.926,3.926,0,0,0,5.448,1.073l12.352-8.285a3.924,3.924,0,0,0-2.871-7.123c-5.252,4.542-10.314,9.289-15.038,14.131" fill="#2e4ecc"/>
          <path id="Trazado_892178" data-name="Trazado 892178" d="M230.913,288.706l-.266-.4a3.689,3.689,0,0,1,1.009-5.118l12.747-8.551a3.689,3.689,0,0,1,5.118,1.009l.265.4a3.687,3.687,0,0,1-1.008,5.117l-12.747,8.551a3.688,3.688,0,0,1-5.118-1.008" fill="#2e4ecc"/>
          <path id="Trazado_892179" data-name="Trazado 892179" d="M262.706,276.538l-.265-.4a3.688,3.688,0,0,1,1.008-5.118l12.747-8.551a3.689,3.689,0,0,1,5.118,1.009l.265.4a3.688,3.688,0,0,1-1.008,5.118l-12.747,8.551a3.688,3.688,0,0,1-5.118-1.008" fill="#2e4ecc"/>
          <path id="Trazado_892180" data-name="Trazado 892180" d="M297.571,251.688c-8.118.928-36.268,5.115-61.86,20.51-30.291,18.221-66.363,50.786-76.768,77.377-7.006,17.9-6.474,40,39.078,42.216l35.689-46.575,13.014-16.937" fill="none" stroke="#0f110e" stroke-linecap="round" stroke-miterlimit="10" stroke-width="1"/>
          <path id="Trazado_892181" data-name="Trazado 892181" d="M247.272,316.363l-1.1,31.625v43.984H370l2.779-10.218c9.712-16.186,27.023-67.69,11.762-100.481-15.867-34.094-72.868-30.163-72.868-30.163L293.9,260.22l-18.925,23.262-27.244,20.882Z" fill="#fff"/>
          <path id="Trazado_892182" data-name="Trazado 892182" d="M258.815,342.525h-.477a3.688,3.688,0,0,1-3.688-3.688v-15.35a3.688,3.688,0,0,1,3.688-3.688h.477a3.688,3.688,0,0,1,3.688,3.688v15.35a3.688,3.688,0,0,1-3.688,3.688" fill="#2e4ecc"/>
          <path id="Trazado_892183" data-name="Trazado 892183" d="M276.182,360.766H275.7a3.688,3.688,0,0,1-3.688-3.688v-15.35a3.688,3.688,0,0,1,3.688-3.688h.477a3.688,3.688,0,0,1,3.688,3.688v15.35a3.688,3.688,0,0,1-3.688,3.688" fill="#2e4ecc"/>
          <path id="Trazado_892184" data-name="Trazado 892184" d="M293.869,346.244h-.477a3.688,3.688,0,0,1-3.688-3.688v-15.35a3.688,3.688,0,0,1,3.688-3.688h.477a3.688,3.688,0,0,1,3.688,3.688v15.35a3.688,3.688,0,0,1-3.688,3.688" fill="#2e4ecc"/>
          <path id="Trazado_892185" data-name="Trazado 892185" d="M280.109,318.848h-.477a3.688,3.688,0,0,1-3.688-3.688V299.81a3.688,3.688,0,0,1,3.688-3.688h.477a3.688,3.688,0,0,1,3.688,3.688v15.35a3.688,3.688,0,0,1-3.688,3.688" fill="#2e4ecc"/>
          <path id="Trazado_892186" data-name="Trazado 892186" d="M299.692,298.621h-.477a3.688,3.688,0,0,1-3.688-3.688v-15.35a3.688,3.688,0,0,1,3.688-3.688h.477a3.688,3.688,0,0,1,3.688,3.688v15.35a3.688,3.688,0,0,1-3.688,3.688" fill="#2e4ecc"/>
          <path id="Trazado_892187" data-name="Trazado 892187" d="M340.5,292.636h-.477a3.688,3.688,0,0,1-3.688-3.688V273.6a3.688,3.688,0,0,1,3.688-3.688h.477a3.688,3.688,0,0,1,3.688,3.688v15.35a3.688,3.688,0,0,1-3.688,3.688" fill="#2e4ecc"/>
          <path id="Trazado_892188" data-name="Trazado 892188" d="M378.419,312.033h-.477a3.688,3.688,0,0,1-3.688-3.688v-15.35a3.688,3.688,0,0,1,3.688-3.688h.477a3.688,3.688,0,0,1,3.688,3.688v15.35a3.688,3.688,0,0,1-3.688,3.688" fill="#2e4ecc"/>
          <path id="Trazado_892189" data-name="Trazado 892189" d="M362.713,321.472h-.477a3.688,3.688,0,0,1-3.688-3.688v-15.35a3.688,3.688,0,0,1,3.688-3.688h.477a3.688,3.688,0,0,1,3.688,3.688v15.35a3.688,3.688,0,0,1-3.688,3.688" fill="#2e4ecc"/>
          <path id="Trazado_892190" data-name="Trazado 892190" d="M383.388,281.373a3.9,3.9,0,0,0,1.111-.179,39.485,39.485,0,0,0-5.038-8.052v4.3a3.927,3.927,0,0,0,3.927,3.927" fill="#2e4ecc"/>
          <path id="Trazado_892191" data-name="Trazado 892191" d="M356.223,257.368v12.008a3.926,3.926,0,1,0,7.853,0v-8.512a69.157,69.157,0,0,0-7.853-3.5" fill="#2e4ecc"/>
          <path id="Trazado_892192" data-name="Trazado 892192" d="M359.924,288.83a3.917,3.917,0,0,0-7.438,1.726l.248,10.114Z" fill="#2e4ecc"/>
          <path id="Trazado_892193" data-name="Trazado 892193" d="M247.907,301.681l-.266-.4a3.689,3.689,0,0,1,1.009-5.118l12.747-8.55a3.688,3.688,0,0,1,5.118,1.008l.265.4a3.688,3.688,0,0,1-1.008,5.117l-12.747,8.551a3.688,3.688,0,0,1-5.118-1.008" fill="#2e4ecc"/>
          <path id="Trazado_892194" data-name="Trazado 892194" d="M247.272,316.363l-1.1,31.625v43.984H370l2.779-10.218c9.712-16.186,27.023-67.69,11.762-100.481-15.867-34.094-72.868-30.163-72.868-30.163" fill="none" stroke="#0f110e" stroke-linecap="round" stroke-miterlimit="10" stroke-width="1"/>
          <path id="Trazado_892195" data-name="Trazado 892195" d="M344.4,314.793s11.82-20.484,18.252-29.924" fill="none" stroke="#0f110e" stroke-linecap="round" stroke-miterlimit="10" stroke-width="1"/>
          <path id="Trazado_892196" data-name="Trazado 892196" d="M340.791,260.22c0,6.615-11.189,11.977-24.991,11.977s-24.991-5.362-24.991-11.977S302,248.243,315.8,248.243s24.991,5.362,24.991,11.977" fill="#6fbbef"/>
          <ellipse id="Elipse_11530" data-name="Elipse 11530" cx="24.991" cy="11.977" rx="24.991" ry="11.977" transform="translate(290.809 248.243)" fill="none" stroke="#0f110e" stroke-miterlimit="10" stroke-width="1"/>
          <path id="Trazado_892197" data-name="Trazado 892197" d="M317.568,263.563h-5.48a11.042,11.042,0,0,1-11.042-11.042v-7.968a11.042,11.042,0,0,1,11.042-11.042h5.48a11.042,11.042,0,0,1,11.042,11.042v7.968a11.042,11.042,0,0,1-11.042,11.042" fill="#a66957"/>
          <path id="Trazado_892198" data-name="Trazado 892198" d="M287.9,224.9c-.144-.428-8.749-13.658-9.26-25.185s4.124-33.235,36.978-34.274c11.5-.364,36,1.133,35.907,28.766-.1,27.865-13.074,43.795-15.988,45.317S295.652,247.874,287.9,224.9" fill="#161522"/>
          <path id="Trazado_892199" data-name="Trazado 892199" d="M354.655,223.127a7.973,7.973,0,1,1-7.8-8.077,7.94,7.94,0,0,1,7.8,8.077" fill="#a66957"/>
          <path id="Trazado_892200" data-name="Trazado 892200" d="M342.351,223.906s-.235-5.377,5.266-4.661" fill="none" stroke="#7f4040" stroke-linecap="round" stroke-miterlimit="10" stroke-width="1"/>
          <path id="Trazado_892201" data-name="Trazado 892201" d="M275.471,222.709a7.973,7.973,0,1,0,8.141-7.734,7.939,7.939,0,0,0-8.141,7.734" fill="#a66957"/>
          <path id="Trazado_892202" data-name="Trazado 892202" d="M287.73,224.018s.467-5.362-5.061-4.885" fill="none" stroke="#7f4040" stroke-linecap="round" stroke-miterlimit="10" stroke-width="1"/>
          <path id="Trazado_892203" data-name="Trazado 892203" d="M340.234,229.022A17.769,17.769,0,0,1,322.5,246.717l-14.949-.018a17.767,17.767,0,0,1-17.694-17.736l.036-31.291a17.769,17.769,0,0,1,17.736-17.695l14.949.018a17.768,17.768,0,0,1,17.7,17.736Z" fill="#a66957"/>
          <path id="Trazado_892204" data-name="Trazado 892204" d="M330.627,244.739a17.557,17.557,0,0,1-8.129,1.977L307.55,246.7a17.575,17.575,0,0,1-8.925-2.441" fill="none" stroke="#7f4040" stroke-linecap="round" stroke-miterlimit="10" stroke-width="1"/>
          <path id="Trazado_892205" data-name="Trazado 892205" d="M303.522,224.588a6.347,6.347,0,1,1-5.84-6.816,6.346,6.346,0,0,1,5.84,6.816" fill="#9e5656"/>
          <path id="Trazado_892206" data-name="Trazado 892206" d="M338.236,224.628a6.347,6.347,0,1,1-5.84-6.816,6.347,6.347,0,0,1,5.84,6.816" fill="#9e5656"/>
          <path id="Trazado_892207" data-name="Trazado 892207" d="M314.843,209.735q-1.236,5.323-2.373,10.668,2.359.1,4.717.214" fill="none" stroke="#7f4040" stroke-linecap="round" stroke-miterlimit="10" stroke-width="1"/>
          <path id="Trazado_892208" data-name="Trazado 892208" d="M301.8,212.936a2.342,2.342,0,1,1-2.384-2.3,2.342,2.342,0,0,1,2.384,2.3" fill="#161522"/>
          <path id="Trazado_892209" data-name="Trazado 892209" d="M333.461,212.894a2.342,2.342,0,1,1-2.383-2.3,2.342,2.342,0,0,1,2.383,2.3" fill="#161522"/>
          <path id="Trazado_892210" data-name="Trazado 892210" d="M296.1,210.86l6.57-.4a1.125,1.125,0,0,0,0-2.25l-6.57.4a1.125,1.125,0,0,0,0,2.25" fill="#161522"/>
          <path id="Trazado_892211" data-name="Trazado 892211" d="M327.447,209.1l7.1,1.8a1.125,1.125,0,0,0,.6-2.17l-7.1-1.8a1.125,1.125,0,0,0-.6,2.17" fill="#161522"/>
          <path id="Trazado_892212" data-name="Trazado 892212" d="M308.355,232.839a21.03,21.03,0,0,1,10.522-3.329" fill="none" stroke="#7f4040" stroke-linecap="round" stroke-miterlimit="10" stroke-width="1"/>
          <path id="Trazado_892213" data-name="Trazado 892213" d="M327.977,164.819a41.239,41.239,0,0,0-10.064-1.875c-7.633-.188-32.976,1.373-38.733,18.579s3.579,33.248,3.579,33.248l-1.311-5.723a94.815,94.815,0,0,0,7.943,7.2L292.5,208.2s31.182-.064,32.739-16.647c.052-.56-1.266,13.111,9.667,16.669,0,0-2.682-6.441-1.331-11.464,0,0,.155,9.965,7.241,12.479l.448,5.813s4-1.369,5.322-8.5l.494,6.839s8.263-8.377,5.313-25.831c-2.187-12.936-14.6-19.76-24.416-22.732" fill="#161522"/>
          <path id="Trazado_892214" data-name="Trazado 892214" d="M354.364,244.155s6.326-10.336,6.2-13.57-3.886-5.193-7.219,0-5.177,9.736-3.579,11.653,4.6,1.917,4.6,1.917" fill="#a66957"/>
          <path id="Trazado_892215" data-name="Trazado 892215" d="M352.064,232.54a13.222,13.222,0,0,1,3.2-3.912" fill="none" stroke="#7f4040" stroke-linecap="round" stroke-miterlimit="10" stroke-width="1"/>
          <path id="Trazado_892216" data-name="Trazado 892216" d="M336,255.691h0a2.731,2.731,0,0,1-1.073-3.8l21.118-34.4a3.036,3.036,0,0,1,5.239,3.035l-21.3,34.235a2.965,2.965,0,0,1-3.982.933" fill="#eb3341"/>
          <path id="Trazado_892217" data-name="Trazado 892217" d="M336,255.691h0a2.731,2.731,0,0,1-1.073-3.8l21.118-34.4a3.036,3.036,0,0,1,5.239,3.035l-21.3,34.235A2.965,2.965,0,0,1,336,255.691Z" fill="none" stroke="#1f1f1f" stroke-miterlimit="10" stroke-width="0.75"/>
          <path id="Trazado_892218" data-name="Trazado 892218" d="M356.236,217.218l5.3,2.973,5.005-14.16Z" fill="#fff"/>
          <path id="Trazado_892219" data-name="Trazado 892219" d="M365.018,210.332l1.52-4.3-3.232,3.51Z" fill="#eb3341"/>
          <path id="Trazado_892220" data-name="Trazado 892220" d="M356.236,217.218l5.3,2.973,5.005-14.16Z" fill="none" stroke="#1f1f1f" stroke-linecap="round" stroke-linejoin="round" stroke-width="0.75"/>
          <path id="Trazado_892221" data-name="Trazado 892221" d="M352.932,251.6l-11.091,7.509s-9.872,6.709-10.447,9.3,3.546,21.948,3.546,21.948l-22.714,2.492s-2.533-27.392-2.321-30.2-.019-8.732,6.691-12.984,11.031-6.467,11.031-6.467a2.283,2.283,0,0,0,1.608-2.236c-.125-1.7-.466-6.011,1.262-7.955s4.931-5.249,6.293-5.914a12.848,12.848,0,0,1,2.6-.936s1.094.469,1.742-.006a12.334,12.334,0,0,1,2.193-1.044s1.06-.513,1.558.067,2.464-.454,2.991-.122,1.8,1.462,3.2,5,4.9,13.863,5.116,15.4a7.069,7.069,0,0,1-3.259,6.149" fill="#a66957"/>
          <path id="Trazado_892222" data-name="Trazado 892222" d="M312.449,289.712s-4.728-25.941-1.406-33.864,23-15.463,23-15.463l.895-6.217" fill="none" stroke="#7f4040" stroke-linecap="round" stroke-miterlimit="10" stroke-width="1"/>
          <path id="Trazado_892223" data-name="Trazado 892223" d="M348.614,243.2s-4.856-16.229-8.562-17-10.515,7.36-10.817,9.43a48.764,48.764,0,0,0,0,6.811" fill="none" stroke="#7f4040" stroke-linecap="round" stroke-miterlimit="10" stroke-width="1"/>
          <path id="Trazado_892224" data-name="Trazado 892224" d="M340.768,226.524a4.29,4.29,0,0,1,3.246-1.474c2.108,0,8.051,15.91,8.051,15.91" fill="none" stroke="#7f4040" stroke-linecap="round" stroke-miterlimit="10" stroke-width="1"/>
          <path id="Trazado_892225" data-name="Trazado 892225" d="M344.888,225.646s2.639-1.065,3.981,0,6.709,16.272,7.028,17.934,1.725,6.07-6.453,10.223" fill="none" stroke="#7f4040" stroke-linecap="round" stroke-miterlimit="10" stroke-width="1"/>
          <path id="Trazado_892226" data-name="Trazado 892226" d="M307.391,282.673l37.5-5.549L377.8,356.411s5.886,24.072-28.62,26.846-39.32-14.4-39.32-14.4Z" fill="#fff"/>
          <path id="Trazado_892227" data-name="Trazado 892227" d="M318.58,324.649H318.1a3.688,3.688,0,0,1-3.688-3.688v-15.35a3.688,3.688,0,0,1,3.688-3.688h.477a3.688,3.688,0,0,1,3.688,3.688v15.35a3.688,3.688,0,0,1-3.688,3.688" fill="#2e4ecc"/>
          <path id="Trazado_892228" data-name="Trazado 892228" d="M344.427,334.88h-.477a3.688,3.688,0,0,1-3.688-3.688v-15.35a3.688,3.688,0,0,1,3.688-3.688h.477a3.688,3.688,0,0,1,3.688,3.688v15.35a3.688,3.688,0,0,1-3.688,3.688" fill="#2e4ecc"/>
          <path id="Trazado_892229" data-name="Trazado 892229" d="M328.925,359.895h-.477a3.688,3.688,0,0,1-3.688-3.688v-15.35a3.688,3.688,0,0,1,3.688-3.688h.477a3.688,3.688,0,0,1,3.688,3.688v15.35a3.688,3.688,0,0,1-3.688,3.688" fill="#2e4ecc"/>
          <path id="Trazado_892230" data-name="Trazado 892230" d="M356.461,369.739h-.477a3.688,3.688,0,0,1-3.688-3.688V350.7a3.688,3.688,0,0,1,3.688-3.688h.477a3.688,3.688,0,0,1,3.688,3.688v15.35a3.688,3.688,0,0,1-3.688,3.688" fill="#2e4ecc"/>
          <path id="Trazado_892231" data-name="Trazado 892231" d="M348.517,285.863a3.868,3.868,0,0,0-.147,1.009v14.873a3.917,3.917,0,0,0,7.448,1.706Z" fill="#2e4ecc"/>
          <path id="Trazado_892232" data-name="Trazado 892232" d="M366.4,328.949v7.743a3.927,3.927,0,0,0,3.927,3.927,3.863,3.863,0,0,0,.873-.106Z" fill="#2e4ecc"/>
          <path id="Trazado_892233" data-name="Trazado 892233" d="M374.254,356.33V371.2a3.884,3.884,0,0,0,.162,1.056A20.707,20.707,0,0,0,377.8,356.41l-1.464-3.526a3.908,3.908,0,0,0-2.082,3.446" fill="#2e4ecc"/>
          <path id="Trazado_892234" data-name="Trazado 892234" d="M344.8,383.5v-6.983a3.926,3.926,0,1,0-7.853,0v6.87a76.581,76.581,0,0,0,7.853.113" fill="#2e4ecc"/>
          <path id="Trazado_892235" data-name="Trazado 892235" d="M309.679,355c-.074,0-.143.018-.215.022l.4,13.831a14.957,14.957,0,0,0,3.677,5.631,3.954,3.954,0,0,0,.069-.684V358.928A3.927,3.927,0,0,0,309.679,355" fill="#2e4ecc"/>
          <path id="Trazado_892236" data-name="Trazado 892236" d="M307.391,282.673l37.5-5.549L377.8,356.411s5.886,24.072-28.62,26.846-39.32-14.4-39.32-14.4Z" fill="none" stroke="#0f110e" stroke-miterlimit="10" stroke-width="1"/>
          <path id="Trazado_892237" data-name="Trazado 892237" d="M344.888,277.123l-37.5,5.549.453,15.843c8.933-1.167,32.3-4.256,43.54-5.743Z" fill="#6fbbef"/>
          <path id="Trazado_892238" data-name="Trazado 892238" d="M344.888,277.123l-37.5,5.549.453,15.843c8.933-1.167,32.3-4.256,43.54-5.743Z" fill="none" stroke="#0f110e" stroke-miterlimit="10" stroke-width="1"/>
          <path id="Trazado_892239" data-name="Trazado 892239" d="M311.835,297.992l1.056-.139-2.159-15.675-1.053.156Z" fill="#0f110e"/>
          <path id="Trazado_892240" data-name="Trazado 892240" d="M316.849,281.273l-1.055.156,3.35,15.6,1.059-.139Z" fill="#0f110e"/>
          <path id="Trazado_892241" data-name="Trazado 892241" d="M323.326,280.314l-1.058.157,3.769,15.65,1.061-.14Z" fill="#0f110e"/>
          <path id="Trazado_892242" data-name="Trazado 892242" d="M340.875,277.717l5.548,15.711,1.078-.142-5.553-15.728Z" fill="#0f110e"/>
          <path id="Trazado_892243" data-name="Trazado 892243" d="M328.686,279.521l4.689,15.632,1.07-.142-4.7-15.648Z" fill="#0f110e"/>
          <path id="Trazado_892244" data-name="Trazado 892244" d="M335.819,278.465l-1.068.158,5.012,15.686,1.073-.142Z" fill="#0f110e"/>
          <path id="Trazado_892245" data-name="Trazado 892245" d="M272.88,365.048a120.447,120.447,0,0,0,14.741-2.29,136.013,136.013,0,0,0,15.261-4.949l-.694,30.9H267.331Z" fill="#a66957"/>
          <path id="Trazado_892246" data-name="Trazado 892246" d="M158.943,350.133c-7.006,17.9-6.474,39.439,39.078,41.657s75.626.182,75.626.182l2.3-37.246S216.288,341.057,208.2,339.9Z" fill="#fff"/>
          <path id="Trazado_892247" data-name="Trazado 892247" d="M206.891,377.615v-.477a3.687,3.687,0,0,1,3.687-3.688h15.35a3.689,3.689,0,0,1,3.689,3.688v.477a3.689,3.689,0,0,1-3.689,3.688h-15.35a3.687,3.687,0,0,1-3.687-3.688" fill="#2e4ecc"/>
          <path id="Trazado_892248" data-name="Trazado 892248" d="M244.542,370.835v-.477a3.688,3.688,0,0,1,3.688-3.688h15.35a3.688,3.688,0,0,1,3.688,3.688v.477a3.688,3.688,0,0,1-3.688,3.688H248.23a3.688,3.688,0,0,1-3.688-3.688" fill="#2e4ecc"/>
          <path id="Trazado_892249" data-name="Trazado 892249" d="M181.142,353.568v-.477a3.688,3.688,0,0,1,3.688-3.688h15.35a3.688,3.688,0,0,1,3.688,3.688v.477a3.688,3.688,0,0,1-3.688,3.688H184.83a3.688,3.688,0,0,1-3.688-3.688" fill="#2e4ecc"/>
          <path id="Trazado_892250" data-name="Trazado 892250" d="M159.291,369.171v-.477a3.688,3.688,0,0,1,3.688-3.688h15.35a3.688,3.688,0,0,1,3.688,3.688v.477a3.688,3.688,0,0,1-3.688,3.688h-15.35a3.688,3.688,0,0,1-3.688-3.688" fill="#2e4ecc"/>
          <path id="Trazado_892251" data-name="Trazado 892251" d="M230.606,345.476a3.926,3.926,0,1,0,0,7.853h14.873a3.888,3.888,0,0,0,3.855-4.634c-4.737-1.063-9.679-2.167-14.443-3.219Z" fill="#2e4ecc"/>
          <path id="Trazado_892252" data-name="Trazado 892252" d="M247.653,387.864H232.78a3.926,3.926,0,0,0-3.926,3.927,2.467,2.467,0,0,0,.087.768c8.589.113,16.25-.029,22.587-.127a1.815,1.815,0,0,0,.052-.641,3.927,3.927,0,0,0-3.927-3.927" fill="#2e4ecc"/>
          <path id="Trazado_892253" data-name="Trazado 892253" d="M190.577,386.515H175.7a3.887,3.887,0,0,0-2.442.874c5.426,2.043,12.343,3.5,21.061,4.168a3.884,3.884,0,0,0,.181-1.115,3.927,3.927,0,0,0-3.927-3.927" fill="#2e4ecc"/>
          <path id="Trazado_892254" data-name="Trazado 892254" d="M158.943,349.575c-7.006,17.9-6.474,40,39.078,42.216,13.734.669,25.9.12,36.425.188,24.372.157,39.2-.007,39.2-.007l2.3-37.245S216.288,341.058,208.2,339.9" fill="none" stroke="#0f110e" stroke-linecap="round" stroke-miterlimit="10" stroke-width="1"/>
          <path id="Trazado_892255" data-name="Trazado 892255" d="M255.9,391.791c11.343-.249,17.741.181,17.741.181l2.3-37.245s-6.848-1.569-16.215-3.688Z" fill="#92cdfe"/>
          <path id="Trazado_892256" data-name="Trazado 892256" d="M255.9,391.791c11.343-.249,17.741.181,17.741.181l2.3-37.245s-6.848-1.569-16.215-3.688Z" fill="none" stroke="#0f110e" stroke-linecap="round" stroke-miterlimit="10" stroke-width="1"/>
          <path id="Trazado_892257" data-name="Trazado 892257" d="M274.174,383.419h-17.42l-.1,1.065h17.452Z" fill="#0f110e"/>
          <path id="Trazado_892258" data-name="Trazado 892258" d="M257.309,377.377l-.1,1.063,17.267.045.066-1.063Z" fill="#0f110e"/>
          <path id="Trazado_892259" data-name="Trazado 892259" d="M259.2,356.824l16.455,2.611.066-1.066L259.3,355.762Z" fill="#0f110e"/>
          <path id="Trazado_892260" data-name="Trazado 892260" d="M275.375,363.943l-16.7-1.417-.1,1.06,16.733,1.419Z" fill="#0f110e"/>
          <path id="Trazado_892261" data-name="Trazado 892261" d="M257.914,370.8l17,.654.065-1.063-16.966-.653Z" fill="#0f110e"/>
          <path id="Trazado_892262" data-name="Trazado 892262" d="M146.1,368.167H24.119a2.241,2.241,0,0,1-2.241-2.241v-.472a2.241,2.241,0,0,1,2.241-2.24H146.1a2.24,2.24,0,0,1,2.241,2.24v.472a2.241,2.241,0,0,1-2.241,2.241" fill="#2e4ecc"/>
          <path id="Rectángulo_401928" data-name="Rectángulo 401928" d="M2.241,0H124.22a2.241,2.241,0,0,1,2.241,2.241v.471a2.241,2.241,0,0,1-2.241,2.241H2.24A2.24,2.24,0,0,1,0,2.713V2.241A2.241,2.241,0,0,1,2.241,0Z" transform="translate(21.878 363.214)" fill="none" stroke="#0f110e" stroke-miterlimit="10" stroke-width="1"/>
          <path id="Trazado_892263" data-name="Trazado 892263" d="M146.1,391.378H24.119a2.241,2.241,0,0,1-2.241-2.241v-.472a2.241,2.241,0,0,1,2.241-2.24H146.1a2.24,2.24,0,0,1,2.241,2.24v.472a2.241,2.241,0,0,1-2.241,2.241" fill="#2e4ecc"/>
          <path id="Rectángulo_401929" data-name="Rectángulo 401929" d="M2.241,0H124.22a2.241,2.241,0,0,1,2.241,2.241v.471a2.241,2.241,0,0,1-2.241,2.241H2.24A2.24,2.24,0,0,1,0,2.713V2.241A2.241,2.241,0,0,1,2.241,0Z" transform="translate(21.878 386.425)" fill="none" stroke="#0f110e" stroke-miterlimit="10" stroke-width="1"/>
          <path id="Trazado_892264" data-name="Trazado 892264" d="M145.756,365.813H23.879s3.362,5.369.6,23.088H145.153c-2.759-17.719.6-23.088.6-23.088" fill="#fff"/>
          <path id="Trazado_892265" data-name="Trazado 892265" d="M145.756,365.813H23.879s3.362,5.369.6,23.088H145.153C142.394,371.182,145.756,365.813,145.756,365.813Z" fill="none" stroke="#0f110e" stroke-linecap="round" stroke-linejoin="round" stroke-width="1"/>
          <line id="Línea_593" data-name="Línea 593" x2="112.754" transform="translate(28.171 370.029)" fill="none" stroke="#92cdfe" stroke-linecap="round" stroke-linejoin="round" stroke-width="1"/>
          <line id="Línea_594" data-name="Línea 594" x2="107.783" transform="translate(29.895 373.93)" fill="none" stroke="#92cdfe" stroke-linecap="round" stroke-linejoin="round" stroke-width="1"/>
          <line id="Línea_595" data-name="Línea 595" x2="112.754" transform="translate(28.171 377.831)" fill="none" stroke="#92cdfe" stroke-linecap="round" stroke-linejoin="round" stroke-width="1"/>
          <line id="Línea_596" data-name="Línea 596" x2="111.322" transform="translate(28.861 381.732)" fill="none" stroke="#92cdfe" stroke-linecap="round" stroke-linejoin="round" stroke-width="1"/>
          <line id="Línea_597" data-name="Línea 597" x2="113.616" transform="translate(27.309 385.633)" fill="none" stroke="#92cdfe" stroke-linecap="round" stroke-linejoin="round" stroke-width="1"/>
          <path id="Trazado_892266" data-name="Trazado 892266" d="M42.244,377.357h8.793L48.192,383.8l-2.521-3.223L40.434,383.8Z" fill="#eb3341"/>
          <path id="Trazado_892267" data-name="Trazado 892267" d="M61.123,373.156h8.793L67.071,379.6l-2.521-3.222L59.313,379.6Z" fill="#2e4ecc"/>
          <path id="Trazado_892268" data-name="Trazado 892268" d="M137.239,339.779H33.808a1.322,1.322,0,0,1-1.322-1.322v-2.352a1.322,1.322,0,0,1,1.322-1.322H137.239a1.322,1.322,0,0,1,1.322,1.322v2.352a1.322,1.322,0,0,1-1.322,1.322" fill="#eb3341"/>
          <rect id="Rectángulo_401930" data-name="Rectángulo 401930" width="106.075" height="4.996" rx="1.322" transform="translate(32.486 334.783)" fill="none" stroke="#0f110e" stroke-miterlimit="10" stroke-width="1"/>
          <path id="Trazado_892269" data-name="Trazado 892269" d="M137.239,363.19H33.808a1.322,1.322,0,0,1-1.322-1.322v-2.352a1.322,1.322,0,0,1,1.322-1.322H137.239a1.322,1.322,0,0,1,1.322,1.322v2.352a1.322,1.322,0,0,1-1.322,1.322" fill="#eb3341"/>
          <rect id="Rectángulo_401931" data-name="Rectángulo 401931" width="106.075" height="4.996" rx="1.322" transform="translate(32.486 358.194)" fill="none" stroke="#0f110e" stroke-miterlimit="10" stroke-width="1"/>
          <path id="Trazado_892270" data-name="Trazado 892270" d="M136.4,337.406H34.164s2.82,5.415.506,23.287H135.889c-2.314-17.872.506-23.287.506-23.287" fill="#fff"/>
          <path id="Trazado_892271" data-name="Trazado 892271" d="M136.4,337.406H34.164s2.82,5.415.506,23.287H135.889C133.575,342.821,136.4,337.406,136.4,337.406Z" fill="none" stroke="#0f110e" stroke-linecap="round" stroke-linejoin="round" stroke-width="1"/>
          <line id="Línea_598" data-name="Línea 598" x2="94.578" transform="translate(37.764 341.658)" fill="none" stroke="#92cdfe" stroke-linecap="round" stroke-linejoin="round" stroke-width="1"/>
          <line id="Línea_599" data-name="Línea 599" x2="90.409" transform="translate(39.21 345.592)" fill="none" stroke="#92cdfe" stroke-linecap="round" stroke-linejoin="round" stroke-width="1"/>
          <line id="Línea_600" data-name="Línea 600" x2="94.578" transform="translate(37.764 349.527)" fill="none" stroke="#92cdfe" stroke-linecap="round" stroke-linejoin="round" stroke-width="1"/>
          <line id="Línea_601" data-name="Línea 601" x2="93.377" transform="translate(38.343 353.462)" fill="none" stroke="#92cdfe" stroke-linecap="round" stroke-linejoin="round" stroke-width="1"/>
          <line id="Línea_602" data-name="Línea 602" x2="95.301" transform="translate(37.041 357.396)" fill="none" stroke="#92cdfe" stroke-linecap="round" stroke-linejoin="round" stroke-width="1"/>
          <path id="Trazado_892272" data-name="Trazado 892272" d="M113.446,350.211h7.375l-2.386,6.5-2.115-3.25-4.392,3.25Z" fill="#eb3341"/>
          <rect id="Rectángulo_401932" data-name="Rectángulo 401932" width="61.801" height="6.161" transform="translate(242.746 385.63)" fill="#161522"/>
          <path id="Trazado_892273" data-name="Trazado 892273" d="M422.133,391.791H301.06a4.571,4.571,0,0,1-4.571-4.572V308.936a4.571,4.571,0,0,1,4.571-4.572H422.133a4.572,4.572,0,0,1,4.572,4.572v78.283a4.572,4.572,0,0,1-4.572,4.572" fill="#161522"/>
          <path id="Trazado_892274" data-name="Trazado 892274" d="M371.71,347.988a11.335,11.335,0,1,1-11.335-11.335A11.335,11.335,0,0,1,371.71,347.988Z" fill="none" stroke="#fff" stroke-miterlimit="10" stroke-width="1"/>
          <path id="Trazado_892275" data-name="Trazado 892275" d="M.725,392.729H428.176c5.775,0,11.555.078,17.328,0,.253,0,.506,0,.758,0a.75.75,0,0,0,0-1.5H18.81c-5.774,0-11.555-.078-17.328,0-.253,0-.506,0-.757,0a.75.75,0,0,0,0,1.5" fill="#161522"/>
        </g>
      </g>
    </g>
    <g id="Grupo_1099384" data-name="Grupo 1099384" transform="translate(1059.829 3018.61)">
      <g id="Grupo_1098724" data-name="Grupo 1098724" transform="translate(0 0)">
        <g id="Grupo_1098723" data-name="Grupo 1098723" clip-path="url(#clip-path-3)">
          <path id="Trazado_872910" data-name="Trazado 872910" d="M3.607,1.8A1.8,1.8,0,1,1,1.8,0a1.8,1.8,0,0,1,1.8,1.8" fill="#7dc8ff"/>
          <path id="Trazado_872911" data-name="Trazado 872911" d="M32.561,1.8a1.8,1.8,0,1,1-1.8-1.8,1.8,1.8,0,0,1,1.8,1.8" transform="translate(-11.606)" fill="#7dc8ff"/>
          <path id="Trazado_872912" data-name="Trazado 872912" d="M61.514,1.8A1.8,1.8,0,1,1,59.71,0a1.8,1.8,0,0,1,1.8,1.8" transform="translate(-23.212)" fill="#7dc8ff"/>
          <path id="Trazado_872913" data-name="Trazado 872913" d="M90.467,1.8a1.8,1.8,0,1,1-1.8-1.8,1.8,1.8,0,0,1,1.8,1.8" transform="translate(-34.818)" fill="#7dc8ff"/>
          <path id="Trazado_872914" data-name="Trazado 872914" d="M119.42,1.8a1.8,1.8,0,1,1-1.8-1.8,1.8,1.8,0,0,1,1.8,1.8" transform="translate(-46.423)" fill="#7dc8ff"/>
          <path id="Trazado_872915" data-name="Trazado 872915" d="M148.374,1.8a1.8,1.8,0,1,1-1.8-1.8,1.8,1.8,0,0,1,1.8,1.8" transform="translate(-58.029)" fill="#7dc8ff"/>
          <path id="Trazado_872916" data-name="Trazado 872916" d="M3.607,33.718a1.8,1.8,0,1,1-1.8-1.8,1.8,1.8,0,0,1,1.8,1.8" transform="translate(0 -12.793)" fill="#7dc8ff"/>
          <path id="Trazado_872917" data-name="Trazado 872917" d="M32.561,33.718a1.8,1.8,0,1,1-1.8-1.8,1.8,1.8,0,0,1,1.8,1.8" transform="translate(-11.606 -12.793)" fill="#7dc8ff"/>
          <path id="Trazado_872918" data-name="Trazado 872918" d="M61.514,33.718a1.8,1.8,0,1,1-1.8-1.8,1.8,1.8,0,0,1,1.8,1.8" transform="translate(-23.212 -12.793)" fill="#7dc8ff"/>
          <path id="Trazado_872919" data-name="Trazado 872919" d="M90.467,33.718a1.8,1.8,0,1,1-1.8-1.8,1.8,1.8,0,0,1,1.8,1.8" transform="translate(-34.818 -12.793)" fill="#7dc8ff"/>
          <path id="Trazado_872920" data-name="Trazado 872920" d="M119.42,33.718a1.8,1.8,0,1,1-1.8-1.8,1.8,1.8,0,0,1,1.8,1.8" transform="translate(-46.423 -12.793)" fill="#7dc8ff"/>
          <path id="Trazado_872921" data-name="Trazado 872921" d="M148.374,33.718a1.8,1.8,0,1,1-1.8-1.8,1.8,1.8,0,0,1,1.8,1.8" transform="translate(-58.029 -12.793)" fill="#7dc8ff"/>
          <path id="Trazado_872922" data-name="Trazado 872922" d="M3.607,65.633a1.8,1.8,0,1,1-1.8-1.8,1.8,1.8,0,0,1,1.8,1.8" transform="translate(0 -25.586)" fill="#7dc8ff"/>
          <path id="Trazado_872923" data-name="Trazado 872923" d="M32.561,65.633a1.8,1.8,0,1,1-1.8-1.8,1.8,1.8,0,0,1,1.8,1.8" transform="translate(-11.606 -25.586)" fill="#7dc8ff"/>
          <path id="Trazado_872924" data-name="Trazado 872924" d="M61.514,65.633a1.8,1.8,0,1,1-1.8-1.8,1.8,1.8,0,0,1,1.8,1.8" transform="translate(-23.212 -25.586)" fill="#7dc8ff"/>
          <path id="Trazado_872925" data-name="Trazado 872925" d="M90.467,65.633a1.8,1.8,0,1,1-1.8-1.8,1.8,1.8,0,0,1,1.8,1.8" transform="translate(-34.818 -25.586)" fill="#7dc8ff"/>
          <path id="Trazado_872926" data-name="Trazado 872926" d="M119.42,65.633a1.8,1.8,0,1,1-1.8-1.8,1.8,1.8,0,0,1,1.8,1.8" transform="translate(-46.423 -25.586)" fill="#7dc8ff"/>
          <path id="Trazado_872927" data-name="Trazado 872927" d="M148.374,65.633a1.8,1.8,0,1,1-1.8-1.8,1.8,1.8,0,0,1,1.8,1.8" transform="translate(-58.029 -25.586)" fill="#7dc8ff"/>
          <path id="Trazado_872928" data-name="Trazado 872928" d="M3.607,97.548a1.8,1.8,0,1,1-1.8-1.8,1.8,1.8,0,0,1,1.8,1.8" transform="translate(0 -38.379)" fill="#7dc8ff"/>
          <path id="Trazado_872929" data-name="Trazado 872929" d="M32.561,97.548a1.8,1.8,0,1,1-1.8-1.8,1.8,1.8,0,0,1,1.8,1.8" transform="translate(-11.606 -38.379)" fill="#7dc8ff"/>
          <path id="Trazado_872930" data-name="Trazado 872930" d="M61.514,97.548a1.8,1.8,0,1,1-1.8-1.8,1.8,1.8,0,0,1,1.8,1.8" transform="translate(-23.212 -38.379)" fill="#7dc8ff"/>
          <path id="Trazado_872931" data-name="Trazado 872931" d="M90.467,97.548a1.8,1.8,0,1,1-1.8-1.8,1.8,1.8,0,0,1,1.8,1.8" transform="translate(-34.818 -38.379)" fill="#7dc8ff"/>
          <path id="Trazado_872932" data-name="Trazado 872932" d="M119.42,97.548a1.8,1.8,0,1,1-1.8-1.8,1.8,1.8,0,0,1,1.8,1.8" transform="translate(-46.423 -38.379)" fill="#7dc8ff"/>
          <path id="Trazado_872933" data-name="Trazado 872933" d="M148.374,97.548a1.8,1.8,0,1,1-1.8-1.8,1.8,1.8,0,0,1,1.8,1.8" transform="translate(-58.029 -38.379)" fill="#7dc8ff"/>
          <path id="Trazado_872934" data-name="Trazado 872934" d="M3.607,129.463a1.8,1.8,0,1,1-1.8-1.8,1.8,1.8,0,0,1,1.8,1.8" transform="translate(0 -51.172)" fill="#7dc8ff"/>
          <path id="Trazado_872935" data-name="Trazado 872935" d="M32.561,129.463a1.8,1.8,0,1,1-1.8-1.8,1.8,1.8,0,0,1,1.8,1.8" transform="translate(-11.606 -51.172)" fill="#7dc8ff"/>
          <path id="Trazado_872936" data-name="Trazado 872936" d="M61.514,129.463a1.8,1.8,0,1,1-1.8-1.8,1.8,1.8,0,0,1,1.8,1.8" transform="translate(-23.212 -51.172)" fill="#7dc8ff"/>
          <path id="Trazado_872937" data-name="Trazado 872937" d="M90.467,129.463a1.8,1.8,0,1,1-1.8-1.8,1.8,1.8,0,0,1,1.8,1.8" transform="translate(-34.818 -51.172)" fill="#7dc8ff"/>
          <path id="Trazado_872938" data-name="Trazado 872938" d="M119.42,129.463a1.8,1.8,0,1,1-1.8-1.8,1.8,1.8,0,0,1,1.8,1.8" transform="translate(-46.423 -51.172)" fill="#7dc8ff"/>
          <path id="Trazado_872939" data-name="Trazado 872939" d="M148.374,129.463a1.8,1.8,0,1,1-1.8-1.8,1.8,1.8,0,0,1,1.8,1.8" transform="translate(-58.029 -51.172)" fill="#7dc8ff"/>
        </g>
      </g>
    </g>
  </g>
</svg>
